<?xml version="1.0" encoding="iso-8859-1"?>
<!-- Generator: Adobe Illustrator 26.2.1, SVG Export Plug-In . SVG Version: 6.00 Build 0)  -->
<svg version="1.1" xmlns="http://www.w3.org/2000/svg" xmlns:xlink="http://www.w3.org/1999/xlink" x="0px" y="0px"
	 viewBox="0 0 512 512" style="enable-background:new 0 0 512 512;" xml:space="preserve">
	 
	 <g id="BACK"><g><g><g><path fill="#8B00F7" stroke="none" d="M 512 512 L 512 0 0 0 0 512 512 512 Z"/></g></g></g></g>
	 
<g id="light_x5F_bulb_x5F_a">
	<g>
		<path style="fill:#FFFFFF;" d="M230.706,371.413h74.117c5.523,0,10,4.477,10,10v0c0,5.523-4.477,10-10,10h-74.117
			c-5.523,0-10-4.477-10-10v0C220.706,375.89,225.184,371.413,230.706,371.413z"/>
		<path style="fill:#FFFFFF;" d="M230.706,401.413h74.117c5.523,0,10,4.477,10,10v0c0,5.523-4.477,10-10,10h-74.117
			c-5.523,0-10-4.477-10-10v0C220.706,405.89,225.184,401.413,230.706,401.413z"/>
		<path style="fill:#FFFFFF;" d="M251.623,431.412c-4.231,0-7.096,3.884-5.407,7.355c3.621,7.441,11.897,12.645,21.549,12.645
			s17.928-5.204,21.549-12.645c1.689-3.471-1.176-7.355-5.407-7.355H251.623z"/>
		<g>
			<path style="fill:#FFFFFF;" d="M173.646,232.351c1.836,0,3.704,0.289,5.543,0.897c17.393,5.751,141.372,60.229,166.048,71.091
				c7.771,3.427,12.291,12.126,10.015,20.779c-1.334,5.073-4.966,9.234-9.658,11.58c-7.493,3.746-24.515,12.257-36.644,18.322
				c-8.876,4.438-18.658,6.746-28.582,6.746h-25.207c-9.925,0-19.713-2.311-28.59-6.749l-36.838-18.419
				c-8.499-4.249-12.547-14.436-8.704-23.126c4.104-9.278,15.069-13.151,24.039-8.665l37.286,18.643
				c3.976,1.988,8.361,3.023,12.806,3.023h25.207c4.446,0,8.831-1.035,12.807-3.024l0,0c1.442-0.721,1.396-2.795-0.082-3.441
				c-51.229-22.397-114.624-49.824-124.987-53.251c-9.253-3.059-14.274-13.042-11.213-22.295
				C159.346,237.048,166.241,232.351,173.646,232.351z"/>
		</g>
		<g>
			<path style="fill:#FFFFFF;" d="M173.656,161.763c2.32,0,4.676,0.46,6.944,1.432l164.703,70.587
				c8.958,3.839,13.108,14.213,9.269,23.171c-3.84,8.957-14.213,13.106-23.171,9.269l-164.705-70.587
				c-8.958-3.84-13.108-14.213-9.268-23.172C160.296,165.772,166.81,161.763,173.656,161.763z"/>
		</g>
		<g>
			<path style="fill:#FFFFFF;" d="M173.656,91.176c2.32,0,4.676,0.46,6.944,1.432l164.703,70.587
				c8.958,3.84,13.108,14.213,9.269,23.172c-3.84,8.957-14.213,13.109-23.171,9.268l-164.705-70.587
				c-8.958-3.84-13.108-14.213-9.268-23.172C160.296,95.185,166.81,91.176,173.656,91.176z"/>
		</g>
		<g>
			<path style="fill:#FFFFFF;" d="M267.773,60.588c2.342,0,4.722,0.469,7.008,1.459l70.587,30.588
				c8.943,3.875,13.051,14.267,9.176,23.209c-3.875,8.942-14.267,13.048-23.208,9.176l-70.587-30.588
				c-8.943-3.875-13.051-14.267-9.176-23.209C254.457,64.567,260.953,60.588,267.773,60.588z"/>
		</g>
	</g>
</g>
<g id="Ebene_1">
</g>
</svg>
