<svg xmlns="http://www.w3.org/2000/svg" xmlns:xlink="http://www.w3.org/1999/xlink" width="20" height="20" viewBox="0 0 20 20">
  <defs>
    <path id="media_autoshow_white-a" d="M18,2 C19.1045695,2 20,2.8954305 20,4 L20,16 C20,17.1045695 19.1045695,18 18,18 L6,18 L6.09430251,17.9059857 C6.36011756,17.6418996 6.47210036,17.5394265 6.4302509,17.5985663 L6.4302509,17.5985663 L9,15 L15,15 L15.1823278,14.994864 C16.5407986,14.9166667 17,13.9583333 17,13 L17,13 L17.001427,12.9024098 C17.5325797,12.7980662 18.0833528,12.6098121 18.3587477,12.3364323 C18.8085133,11.8899577 19.0457919,11.2830996 19.0481147,10.649362 L19.0481147,10.649362 L19,5.5 L18.9790498,5.41006894 C18.9520565,5.32198772 18.9072055,5.24004198 18.8469391,5.16950538 L18.8469391,5.16950538 L18.7917753,5.11934562 C18.7140416,5.0548903 18.6205717,5.00312763 18.5232688,5 L18.5232688,5 L17.05,5 L17.044526,4.8585405 C16.9648115,3.84544681 16.0286152,3.01124151 15,3 L15,3 L5,3 L4.85418099,3.0056497 C3.84112888,3.08423972 3,3.97209152 3,5 L3,5 L1.5,5 L1.42726514,5.00373204 C1.33171833,5.0173793 1.24333245,5.06509033 1.17925448,5.13941219 C1.09096084,5.22891467 1.0017957,5.34907043 1,5.47478136 L1,5.47478136 L1.0481147,10.6241434 L1.05510345,10.7934995 C1.13915193,11.8562905 1.96956072,12.7250169 3.00024365,12.9488233 L3.00024365,12.9488233 L3,13 L3.00264034,13.1337508 C3.04340278,14.1521822 3.5625,15 5,15 L5,15 L6,15 L6,18 L2,18 C0.8954305,18 0,17.1045695 0,16 L0,4 C0,2.8954305 0.8954305,2 2,2 L18,2 Z M9.82230824,10.8298495 L10.56519,12.7075269 L10.6015868,12.7797272 C10.6858495,12.9159365 10.8360304,13.0010489 11,13 L11,13 L15.999,13 C15.9969136,13.1080245 15.9444444,13.9999998 15,13.9999998 L15,13.9999998 L9,13.9999998 L8.9150228,14.0081975 C8.83165324,14.0246044 8.75423325,14.0651772 8.69290323,14.1257634 L8.69290323,14.1257634 L7,15.9999998 L7,14.4999998 L6.99028173,14.4201175 C6.94089277,14.2070126 6.71190971,14.0014175 6.5,13.9999998 L6.5,13.9999998 L5,13.9999998 L4.84700843,13.9916154 C4.02757052,13.8983614 4.00084004,13.0575546 3.99996808,13.0027988 L3.99996808,13.0027988 L8.64364158,13.0049069 L8.72391806,12.9981141 C8.88118621,12.9709317 9.01588387,12.8640997 9.07650179,12.7124014 L9.07650179,12.7124014 L9.82230824,10.8298495 Z M5.92037276,7 L5.93012186,7.00292473 L6.06719579,7.01018831 C6.74367693,7.07853387 7.27941688,7.61980451 7.34081125,8.29695189 L7.34081125,8.29695189 L7.34666667,8.43409319 L7.34666667,9.75217204 L7.33454655,9.88936201 C7.23597058,10.610321 6.60328131,11.1515856 5.86139068,11.1214337 C5.11950006,11.0912817 4.53282115,10.5004594 4.49307619,9.77387876 L4.49307619,9.77387876 L4.49212903,9.63615771 L4.49212903,8.43409319 L4.49874252,8.29640783 C4.56826204,7.57137968 5.17729545,7.00353353 5.92037276,7 L5.92037276,7 Z M13.6670108,7 L13.6933333,7.00292473 L13.8297208,7.01080965 C14.5026576,7.08206854 15.0332472,7.62335107 15.0910669,8.2975756 L15.0910669,8.2975756 L15.0962294,8.43409319 L15.0962294,9.63420789 L15.0863867,9.76916492 C15.0009541,10.4792352 14.3967189,11.026102 13.6674982,11.026102 C12.9382775,11.026102 12.3340423,10.4792352 12.2486098,9.76916492 L12.2486098,9.76916492 L12.238767,9.63420789 L12.238767,8.42824373 L12.2459888,8.29101305 C12.3184852,7.56847226 12.9262816,7.00401216 13.6670108,7 L13.6670108,7 Z M5.96151452,7.5546974 C5.69451478,7.44378221 5.38698881,7.50468028 5.18240978,7.7089802 C4.97783075,7.91328013 4.91651292,8.22072269 5.02706349,8.4878736 C5.13761407,8.75502451 5.39824803,8.92923942 5.68736918,8.92923942 C6.08143467,8.92870401 6.40090511,8.6096694 6.4019805,8.21560501 C6.40237293,7.92648413 6.22851426,7.66561258 5.96151452,7.5546974 Z M13.707927,7.55460385 C13.4408074,7.44374594 13.133205,7.50482289 12.9287027,7.70932511 C12.7242005,7.91382733 12.6631236,8.22142981 12.7739815,8.48854934 C12.8848394,8.75566886 13.1457725,8.92963315 13.4349821,8.92924086 C13.8286669,8.92816761 14.1475452,8.60928927 14.1486185,8.21560445 C14.1490108,7.92639491 13.9750465,7.66546177 13.707927,7.55460385 Z M15,3.99999978 L15.1575789,4.0089161 C15.9504458,4.10219457 15.997085,4.89780499 15.999,5 L15.999,5 L3.999,5 L3.99993867,4.99999978 L4.00609898,4.87599053 C4.05913567,4.35156207 4.45003411,3.99999978 5,3.99999978 L5,3.99999978 L15,3.99999978 Z"/>
  </defs>
  <g id="icon/streamlabs/media_autoshow_white" fill="none" fill-rule="evenodd" stroke="none" stroke-width="1">
    <mask id="media_autoshow_white-b" fill="#fff">
      <use xlink:href="#media_autoshow_white-a"/>
    </mask>
    <use id="Mask" fill="#EFEFEF" xlink:href="#media_autoshow_white-a"/>
    <g id="Group" fill="#EFEFEF" mask="url(#media_autoshow_white-b)">
      <g id="colors/all/active">
        <rect id="color" width="20" height="20" x="0" y="0"/>
      </g>
    </g>
  </g>
</svg>
