<svg width="28" height="28" viewBox="0 0 28 28" fill="none" xmlns="http://www.w3.org/2000/svg">
<rect x="2.33334" y="11.375" width="4.66667" height="1.75" rx="0.875" fill="#DFDFDF"/>
<path fill-rule="evenodd" clip-rule="evenodd" d="M3.79166 3.20833C3.79166 2.72509 4.18341 2.33333 4.66666 2.33333C5.14991 2.33333 5.54166 2.72508 5.54166 3.20833V8.45833C5.54166 8.94158 5.14991 9.33333 4.66666 9.33333C4.18341 9.33333 3.79166 8.94158 3.79166 8.45833V3.20833ZM4.66666 15.1667C5.14991 15.1667 5.54166 15.5584 5.54166 16.0417V24.7917C5.54166 25.2749 5.14991 25.6667 4.66666 25.6667C4.18341 25.6667 3.79166 25.2749 3.79166 24.7917V16.0417C3.79166 15.5584 4.18341 15.1667 4.66666 15.1667ZM21.6101 7.19412C21.9518 6.85241 22.5059 6.85241 22.8476 7.19412C23.7413 8.08788 24.4503 9.14893 24.934 10.3167C25.4177 11.4845 25.6667 12.736 25.6667 14C25.6667 15.264 25.4177 16.5156 24.934 17.6834C24.4503 18.8511 23.7413 19.9122 22.8476 20.8059C22.5059 21.1476 21.9518 21.1476 21.6101 20.8059C21.2684 20.4642 21.2684 19.9102 21.6101 19.5685C22.3414 18.8372 22.9215 17.9691 23.3172 17.0137C23.713 16.0582 23.9167 15.0342 23.9167 14C23.9167 12.9659 23.713 11.9418 23.3172 10.9864C22.9215 10.031 22.3414 9.16282 21.6101 8.43155C21.2684 8.08985 21.2684 7.53583 21.6101 7.19412ZM11.6667 15.75C12.1308 15.75 12.5759 15.9344 12.9041 16.2626L14.5833 17.9418V10.0582L12.9041 11.7375C12.5759 12.0656 12.1308 12.25 11.6667 12.25H10.5C10.1778 12.25 9.91666 12.5112 9.91666 12.8334V15.1667C9.91666 15.4889 10.1778 15.75 10.5 15.75H11.6667ZM11.6667 17.5L14.3417 20.175C15.0767 20.91 16.3333 20.3895 16.3333 19.3501V8.64992C16.3333 7.61052 15.0767 7.09 14.3417 7.82496L11.6667 10.5H10.5C9.21133 10.5 8.16666 11.5447 8.16666 12.8334V15.1667C8.16666 16.4554 9.21133 17.5 10.5 17.5H11.6667ZM17.2791 11.5251C17.6208 11.1834 18.1748 11.1834 18.5165 11.5251C18.8415 11.8502 19.0993 12.236 19.2752 12.6606C19.4511 13.0853 19.5417 13.5404 19.5417 14C19.5417 14.4596 19.4511 14.9148 19.2752 15.3394C19.0993 15.7641 18.8415 16.1499 18.5165 16.4749C18.1748 16.8166 17.6208 16.8166 17.2791 16.4749C16.9374 16.1332 16.9374 15.5792 17.2791 15.2375C17.4416 15.075 17.5705 14.882 17.6584 14.6697C17.7464 14.4574 17.7917 14.2298 17.7917 14C17.7917 13.7702 17.7464 13.5426 17.6584 13.3303C17.5705 13.118 17.4416 12.9251 17.2791 12.7626C16.9374 12.4209 16.9374 11.8669 17.2791 11.5251ZM20.682 9.35963C20.3403 9.01792 19.7863 9.01792 19.4446 9.35963C19.1029 9.70134 19.1029 10.2554 19.4446 10.5971C19.8915 11.044 20.246 11.5745 20.4878 12.1584C20.7297 12.7422 20.8542 13.368 20.8542 14C20.8542 14.632 20.7297 15.2578 20.4878 15.8417C20.246 16.4256 19.8915 16.9561 19.4446 17.403C19.1029 17.7447 19.1029 18.2987 19.4446 18.6404C19.7863 18.9821 20.3403 18.9821 20.682 18.6404C21.2914 18.031 21.7748 17.3076 22.1046 16.5114C22.4344 15.7152 22.6042 14.8618 22.6042 14C22.6042 13.1382 22.4344 12.2849 22.1046 11.4887C21.7748 10.6925 21.2914 9.96902 20.682 9.35963Z" fill="#DFDFDF"/>
</svg>
