<svg xmlns="http://www.w3.org/2000/svg" xmlns:xlink="http://www.w3.org/1999/xlink" viewBox="0 0 20 20">
<path id="toggleDeafen" fill="#d8d8d8" fill-rule="nonzero" d="M19.957,1.964l-1.4,-1.399l-18.007,18.007l1.399,1.4l18.008,-18.008Zm-1.927,3.051l-1.532,1.532c0.31,0.796 0.48,1.661 0.48,2.566l-0,4.05c-0,0 -1.013,0 -1.013,0c-1.118,0 -2.025,0.908 -2.025,2.025l0,2.025c0,1.118 0.907,2.026 2.025,2.026l1.013,-0c1.117,-0 2.025,-0.908 2.025,-2.026l-0,-8.1c-0,-1.474 -0.351,-2.866 -0.973,-4.098Zm-12.19,12.191l-2.033,2.033l0.007,-0c1.118,-0 2.026,-0.908 2.026,-2.026l-0,-0.007Zm-5.063,0.015l3.876,-3.876c-0.255,-0.117 -0.539,-0.182 -0.839,-0.182l-1.012,0c-0,0 -0,-4.05 -0,-4.05c-0,-3.912 3.176,-7.088 7.088,-7.088c1.7,0 3.261,0.6 4.483,1.6l1.437,-1.438c-1.593,-1.363 -3.661,-2.187 -5.92,-2.187c-5.03,-0 -9.113,4.083 -9.113,9.113l-0,8.108Z"/>
</svg>