<svg xmlns="http://www.w3.org/2000/svg" xmlns:xlink="http://www.w3.org/1999/xlink" viewBox="0 0 20 20">
<path id="toggleMute" fill="#d8d8d8" fill-rule="nonzero" d="M8.473,13.846l-1.434,1.434c0.678,0.311 1.414,0.518 2.188,0.599l-0,4.114l1.852,-0l-0,-4.163c3.358,-0.533 5.928,-3.445 5.928,-6.952l-1.853,0c0,2.863 -2.324,5.187 -5.186,5.187c-0.52,-0 -1.021,-0.077 -1.495,-0.219Zm10.392,-11.444l-1.31,-1.309l-16.855,16.854l1.31,1.31l16.855,-16.855Zm-14.46,10.788l1.324,-1.324c-0.597,-0.845 -0.948,-1.876 -0.948,-2.988c-0,0 -1.853,0 -1.853,0c0,1.624 0.552,3.121 1.477,4.312Zm8.523,-3.799c-0.036,0.762 -0.36,1.448 -0.865,1.953c-0.505,0.505 -1.192,0.829 -1.953,0.865l2.818,-2.818Zm-5.704,0.98l5.707,-5.707l0,-1.714c0,-1.635 -1.328,-2.963 -2.963,-2.963c-1.636,-0 -2.964,1.328 -2.964,2.963l-0,6.299c-0,0.397 0.078,0.776 0.22,1.122Z"/>
</svg>