<svg xmlns="http://www.w3.org/2000/svg" xmlns:xlink="http://www.w3.org/1999/xlink" viewBox="0 0 20 20">
<path id="pushToMute" fill="#d8d8d8" fill-rule="nonzero" d="M12.015,13.652c-0.622,-0.622 -1.194,-1.193 -1.526,-1.522c-0.347,-0.345 -1.582,-0.666 -2.361,0.113c-0.313,0.313 -0.157,0.761 0.467,1.385l4.523,4.524c0.236,0.235 0.545,0.352 0.854,0.351c0.58,0.317 1.245,0.497 1.952,0.497c2.25,-0 4.076,-1.826 4.076,-4.076l-0.008,-0.271c0.005,-0.039 0.007,-0.079 0.007,-0.119l0,-3.658c0,-0.538 -0.437,-0.975 -0.974,-0.975c-0.538,0 -0.975,0.437 -0.975,0.975l0,0.562c-0.015,-0.009 -0.03,-0.019 -0.045,-0.028l-0,-1.461c-0,-0.539 -0.438,-0.977 -0.978,-0.977c-0.539,-0 -0.963,0.438 -0.963,0.977l-0,0.892l-0.041,-0l0,-1.524c0,-0.534 -0.433,-0.968 -0.968,-0.968c-0.534,0 -0.968,0.434 -0.968,0.968l0,1.959c-0.024,0.013 -0.049,0.025 -0.073,0.038l0,-6.7c0,-0.552 -0.448,-1 -1,-1c-0.551,-0 -0.999,0.448 -0.999,1l-0,9.038Zm-3.62,-6.425l-4.416,4.416l-0,1.685l1.053,0l-0,-2.357c1.845,-0.292 3.273,-1.845 3.363,-3.744Zm0.221,-2.051l-0.775,-0.774l-7.703,7.703l0.775,0.775l7.703,-7.704Zm-7.505,4.127l0.76,-0.76c-0.266,-0.441 -0.418,-0.957 -0.418,-1.509c-0,0 -1.053,0 -1.053,0c-0,0.843 0.263,1.625 0.711,2.269Zm1.654,-1.654l3.319,-3.32l0,-0.652c0,-0.926 -0.754,-1.678 -1.684,-1.678c-0.93,-0 -1.684,0.752 -1.684,1.678l-0,3.567c-0,0.14 0.017,0.275 0.049,0.405Zm8.235,-0.185c-1.195,-0.692 -2,-1.985 -2,-3.464c0,-2.208 1.792,-4 4,-4c2.208,0 4,1.792 4,4c0,1.479 -0.805,2.772 -2,3.464l0,-2.88c0,-1.104 -0.896,-2 -2,-2c-1.104,0 -2,0.896 -2,2l0,2.88Z"/></svg>