<svg xmlns="http://www.w3.org/2000/svg" xmlns:xlink="http://www.w3.org/1999/xlink" viewBox="0 0 20 20">
<path id="textChannel" fill="#d8d8d8" fill-rule="evenodd" clip-rule="evenodd" d="M13.556,5l-6,0l0.334,-3.012c0.061,-0.545 -0.338,-0.988 -0.89,-0.988c-0.552,0 -1.049,0.443 -1.11,0.988l-0.334,3.012l-2.556,0c-0.552,0 -1,0.448 -1,1c0,0.552 0.448,1 1,1l2.333,0l-0.666,6l-2.667,0c-0.552,0 -1,0.448 -1,1c-0,0.552 0.448,1 1,1l2.444,0l-0.334,3.012c-0.061,0.545 0.338,0.988 0.89,0.988c0.552,0 1.049,-0.443 1.11,-0.988l0.334,-3.012l6,0l-0.334,3.012c-0.061,0.545 0.338,0.988 0.89,0.988c0.552,0 1.049,-0.443 1.11,-0.988l0.334,-3.012l2.556,0c0.552,0 1,-0.448 1,-1c0,-0.552 -0.448,-1 -1,-1l-2.333,0l0.666,-6l2.667,0c0.552,0 1,-0.448 1,-1c0,-0.552 -0.448,-1 -1,-1l-2.444,0l0.334,-3.012c0.061,-0.545 -0.338,-0.988 -0.89,-0.988c-0.552,0 -1.049,0.443 -1.11,0.988l-0.334,3.012Zm-0.223,2l-6,0l-0.666,6l6,0l0.666,-6Z"/></svg>