<svg xmlns="http://www.w3.org/2000/svg" xmlns:xlink="http://www.w3.org/1999/xlink" viewBox="0 0 20 20">
<path id="joinChannel-leaveChannel" fill="#d8d8d8" fill-rule="nonzero" d="M3.416,6.239l-0.871,0c-1.405,0 -2.545,1.141 -2.545,2.546l0,2.481c0,1.405 1.14,2.545 2.545,2.545l0.886,0l5.486,4.919c0.238,0.214 0.58,0.267 0.872,0.137c0.292,-0.131 0.481,-0.421 0.481,-0.741l-0,-16.215c-0,-0.32 -0.189,-0.61 -0.481,-0.741c-0.292,-0.13 -0.634,-0.076 -0.872,0.137l-5.501,4.932Zm9.357,-2.977c0.07,-0.002 0.141,-0.003 0.213,-0.003c3.877,0 7.012,3.148 7.012,7.025c0,3.877 -3.135,7.025 -7.012,7.025c-0.072,0 -0.143,-0.001 -0.213,-0.003l-0,-1.887c0.07,0.003 0.141,0.005 0.213,0.005c2.836,-0 5.127,-2.303 5.127,-5.14c-0,-2.836 -2.291,-5.139 -5.127,-5.139c-0.072,-0 -0.143,0.001 -0.213,0.004l-0,-1.887Zm-0,4.263c0.07,-0.006 0.141,-0.008 0.213,-0.008c1.527,-0 2.767,1.24 2.767,2.767c-0,1.528 -1.24,2.768 -2.767,2.768c-0.072,-0 -0.143,-0.003 -0.213,-0.009l-0,-1.827c0.068,0.016 0.139,0.024 0.213,0.024c0.527,-0 0.955,-0.428 0.955,-0.956c0,-0.527 -0.428,-0.956 -0.955,-0.956c-0.074,0 -0.145,0.009 -0.213,0.024l-0,-1.827Z"/>
</svg>