<svg xmlns="http://www.w3.org/2000/svg" width="144" height="144" viewBox="0 0 144 144">
  <g fill="none" fill-rule="evenodd">
<path fill="#EFEFEF" fill-rule="nonzero" d="M57.592,91.1 C59.516,90.404 61.304,89.5 62.94,88.368 C64.58,87.24 66.128,85.936 67.58,84.44 C69.032,82.948 70.524,81.404 72.052,79.804 C73.436,81.404 74.892,82.948 76.42,84.44 C77.948,85.936 79.568,87.24 81.276,88.368 C82.988,89.496 84.824,90.404 86.792,91.1 C88.752,91.792 90.86,92.136 93.12,92.136 C96.028,92.136 98.668,91.608 101.028,90.552 C103.392,89.496 105.376,88.044 106.976,86.184 C108.572,84.328 109.816,82.164 110.688,79.692 C111.564,77.224 112,74.568 112,71.728 C112,68.888 111.564,66.272 110.688,63.872 C109.816,61.464 108.576,59.38 106.976,57.596 C105.376,55.812 103.408,54.416 101.084,53.396 C98.752,52.372 96.132,51.864 93.22,51.864 C90.896,51.864 88.728,52.232 86.728,52.956 C84.728,53.684 82.872,54.648 81.164,55.848 C79.452,57.048 77.852,58.448 76.36,60.052 C74.872,61.648 73.432,63.292 72.048,64.964 C70.592,63.216 69.12,61.564 67.632,59.996 C66.14,58.432 64.54,57.048 62.828,55.848 C61.116,54.648 59.264,53.684 57.264,52.956 C55.264,52.228 53.06,51.864 50.664,51.864 C47.752,51.864 45.124,52.396 42.804,53.448 C40.468,54.504 38.512,55.916 36.908,57.704 C35.308,59.488 34.084,61.6 33.252,64.036 C32.416,66.472 32,69.108 32,71.94 C32,74.78 32.432,77.436 33.304,79.908 C34.18,82.384 35.452,84.508 37.124,86.296 C38.8,88.08 40.8,89.5 43.124,90.552 C45.46,91.608 48.108,92.136 51.096,92.136 C53.496,92.136 55.664,91.792 57.592,91.1 Z M44.656,78.6 C43.124,76.928 42.364,74.78 42.364,72.164 C42.364,69.764 43.108,67.596 44.608,65.668 C46.096,63.748 48.112,62.776 50.668,62.776 C52.048,62.776 53.424,63.088 54.808,63.704 C56.192,64.32 57.52,65.104 58.796,66.052 C60.064,67 61.284,68.036 62.444,69.16 C63.608,70.292 64.628,71.328 65.504,72.272 C64.628,73.292 63.648,74.332 62.556,75.376 C61.464,76.44 60.308,77.384 59.068,78.216 C57.824,79.056 56.52,79.744 55.136,80.292 C53.756,80.84 52.372,81.112 50.992,81.112 C48.292,81.112 46.184,80.276 44.656,78.6 Z M89.024,80.352 C87.68,79.844 86.384,79.168 85.152,78.332 C83.908,77.496 82.74,76.552 81.656,75.496 C80.564,74.44 79.544,73.368 78.6,72.272 C79.472,71.328 80.452,70.292 81.544,69.16 C82.636,68.036 83.784,67 84.98,66.056 C86.18,65.108 87.456,64.324 88.8,63.708 C90.148,63.092 91.552,62.78 93.004,62.78 C95.696,62.78 97.82,63.688 99.388,65.512 C100.956,67.328 101.736,69.512 101.736,72.064 C101.736,74.612 101.004,76.752 99.552,78.496 C98.096,80.248 96.024,81.116 93.332,81.116 C91.808,81.112 90.368,80.86 89.024,80.352 Z"/>
  </g>
</svg>
