<svg xmlns="http://www.w3.org/2000/svg" width="144" height="144" viewBox="0 0 144 144">
  <g fill="none" fill-rule="evenodd">
<path fill="#EFEFEF" fill-rule="nonzero" d="M65.396,69.028 C64.76,68.552 64.096,68.16 63.408,67.856 C62.712,67.544 62.024,67.388 61.332,67.388 C60.056,67.388 59.048,67.872 58.304,68.832 C57.552,69.8 57.18,70.884 57.18,72.08 C57.18,73.388 57.564,74.464 58.328,75.3 C59.092,76.136 60.148,76.556 61.492,76.556 C62.184,76.556 62.872,76.416 63.568,76.14 C64.26,75.868 64.916,75.524 65.532,75.104 C66.152,74.688 66.736,74.216 67.28,73.688 C67.828,73.164 68.316,72.64 68.752,72.132 C68.316,71.668 67.804,71.148 67.224,70.584 C66.644,70.02 66.032,69.5 65.396,69.028 Z M82.508,67.388 C81.78,67.388 81.076,67.544 80.408,67.856 C79.736,68.16 79.1,68.552 78.496,69.028 C77.896,69.5 77.324,70.02 76.776,70.584 C76.228,71.148 75.732,71.668 75.304,72.14 C75.776,72.688 76.284,73.228 76.832,73.748 C77.38,74.28 77.956,74.748 78.584,75.168 C79.196,75.584 79.84,75.92 80.516,76.176 C81.188,76.432 81.912,76.56 82.672,76.56 C84.02,76.56 85.052,76.124 85.78,75.248 C86.512,74.372 86.868,73.304 86.868,72.028 C86.868,70.756 86.472,69.66 85.696,68.756 C84.916,67.844 83.852,67.388 82.508,67.388 Z M72,33.6 C50.792,33.6 33.6,50.792 33.6,72 C33.6,93.208 50.792,110.4 72,110.4 C93.208,110.4 110.4,93.208 110.4,72 C110.4,50.792 93.208,33.6 72,33.6 Z M91.34,75.848 C90.908,77.084 90.288,78.168 89.488,79.092 C88.688,80.024 87.696,80.748 86.516,81.276 C85.332,81.804 84.016,82.064 82.56,82.064 C81.432,82.064 80.376,81.892 79.396,81.548 C78.412,81.2 77.492,80.748 76.64,80.18 C75.784,79.616 74.976,78.964 74.208,78.22 C73.448,77.468 72.72,76.7 72.024,75.9 C71.264,76.7 70.516,77.472 69.788,78.22 C69.056,78.964 68.288,79.62 67.464,80.18 C66.648,80.748 65.756,81.2 64.792,81.548 C63.832,81.892 62.748,82.064 61.544,82.064 C60.052,82.064 58.728,81.804 57.56,81.276 C56.396,80.748 55.392,80.04 54.56,79.148 C53.724,78.252 53.088,77.192 52.648,75.956 C52.22,74.72 52,73.392 52,71.976 C52,70.556 52.208,69.24 52.628,68.02 C53.048,66.8 53.66,65.748 54.456,64.852 C55.256,63.956 56.236,63.256 57.404,62.724 C58.564,62.2 59.872,61.936 61.332,61.936 C62.532,61.936 63.632,62.116 64.632,62.484 C65.632,62.844 66.556,63.328 67.412,63.928 C68.272,64.524 69.072,65.216 69.82,66 C70.568,66.784 71.3,67.608 72.028,68.484 C72.724,67.648 73.444,66.828 74.184,66.032 C74.936,65.228 75.732,64.528 76.592,63.932 C77.444,63.332 78.372,62.848 79.372,62.488 C80.372,62.12 81.456,61.94 82.612,61.94 C84.072,61.94 85.38,62.188 86.548,62.704 C87.712,63.212 88.692,63.908 89.492,64.8 C90.292,65.696 90.908,66.732 91.344,67.936 C91.784,69.14 92,70.444 92,71.864 C92,73.288 91.784,74.616 91.34,75.848 Z"/>
  </g>
</svg>
