<svg xmlns="http://www.w3.org/2000/svg" width="144" height="144" viewBox="0 0 144 144">
  <g fill="none" fill-rule="evenodd">
<path fill="#EFEFEF" fill-rule="nonzero" d="M95.956,108.516 C96,100 87.212,94.96 78.688,91.288 C70.196,87.632 67.484,84.552 67.484,77.952 C67.484,73.996 70.076,75.284 71.212,68.028 C71.692,65.02 73.98,67.98 74.42,61.112 C74.42,58.376 73.168,57.696 73.168,57.696 C73.168,57.696 73.804,53.644 74.052,50.524 C74.308,47.256 72.46,40.284 64.848,38.144 C63.52,36.78 62.62,34.616 66.716,32.448 C57.756,32.032 55.672,36.72 50.9,40.168 C46.84,43.192 45.744,47.98 45.94,50.528 C46.2,53.648 46.832,57.7 46.832,57.7 C46.832,57.7 45.576,58.38 45.576,61.116 C46.016,67.988 48.312,65.024 48.788,68.032 C49.924,75.288 52.52,74 52.52,77.956 C52.52,84.556 51.672,86.796 43.176,90.452 C34.652,94.12 32,100 32.044,108.516 C32.056,111.064 32,112 32,112 L96,112 C96,112 95.944,111.064 95.956,108.516 Z M100,72 L100,60 L92,60 L92,72 L80,72 L80,80 L92,80 L92,92 L100,92 L100,80 L112,80 L112,72 L100,72 Z"/>
  </g>
</svg>
