<svg xmlns="http://www.w3.org/2000/svg" width="144" height="144" viewBox="0 0 144 144">
  <g fill="none" fill-rule="evenodd">
<path fill="#EFEFEF" fill-rule="nonzero" d="M109.6,68 L96,68 L96,54.4 C96,52 94.4,52 92,52 C89.6,52 88,52 88,54.4 L88,68 L74.4,68 C72,68 72,69.6 72,72 C72,74.4 72,76 74.4,76 L88,76 L88,89.6 C88,92 89.6,92 92,92 C94.4,92 96,92 96,89.6 L96,76 L109.6,76 C112,76 112,74.4 112,72 C112,69.6 112,68 109.6,68 Z M61.6,68 L34.4,68 C32,68 32,69.6 32,72 C32,74.4 32,76 34.4,76 L61.6,76 C64,76 64,74.4 64,72 C64,69.6 64,68 61.6,68 Z M61.6,88 L34.4,88 C32,88 32,89.6 32,92 C32,94.4 32,96 34.4,96 L61.6,96 C64,96 64,94.4 64,92 C64,89.6 64,88 61.6,88 Z M61.6,48 L34.4,48 C32,48 32,49.6 32,52 C32,54.4 32,56 34.4,56 L61.6,56 C64,56 64,54.4 64,52 C64,49.6 64,48 61.6,48 Z"/>
  </g>
</svg>
