<svg xmlns="http://www.w3.org/2000/svg" width="144" height="144" viewBox="0 0 144 144">
  <g fill="none" fill-rule="evenodd">
<path fill="#EFEFEF" fill-rule="nonzero" d="M111.196,52.66 L101.696,45.34 C101.156,44.968 100.4,44.636 99.612,44.392 C98.82,44.148 98,44 97.344,44 L70,44 L73.204,64 L97.344,64 C98,64 98.82,63.852 99.608,63.608 C100.396,63.364 101.156,63.028 101.692,62.664 L111.192,55.336 C111.732,54.972 112,54.488 112,54 C112,53.512 111.732,53.028 111.196,52.66 Z M66,36 L62,36 C60.896,36 60,36.896 60,38 L60,52 L46.656,52 C45.992,52 45.176,52.148 44.388,52.396 C43.596,52.636 42.84,52.968 42.304,53.34 L32.804,60.66 C32.264,61.024 32,61.512 32,62 C32,62.484 32.264,62.968 32.804,63.34 L42.304,70.668 C42.84,71.032 43.596,71.368 44.388,71.608 C45.176,71.852 45.992,72 46.656,72 L60,72 L60,106 C60,107.104 60.896,108 62,108 L66,108 C67.104,108 68,107.104 68,106 L68,38 C68,36.896 67.104,36 66,36 Z"/>
  </g>
</svg>
