<svg xmlns="http://www.w3.org/2000/svg" width="144" height="144" viewBox="0 0 144 144">
  <g fill="none" fill-rule="evenodd">
<path fill="#EFEFEF" fill-rule="nonzero" d="M43.572,57.428 C50.56,51.428 56.08,46.684 71.06,55.148 C78.256,59.212 84.06,60.748 88.888,60.74 C97.348,60.74 102.832,56.036 107.572,51.968 C109.264,50.516 109.48,47.936 108.06,46.212 C106.632,44.484 104.112,44.26 102.42,45.712 C95.436,51.72 89.912,56.464 74.932,47.992 C55.14,36.82 45.868,44.78 38.42,51.18 C36.732,52.632 36.516,55.204 37.936,56.936 C39.36,58.656 41.88,58.884 43.572,57.428 Z M102.42,66.14 C95.436,72.14 89.912,76.892 74.932,68.42 C55.14,57.24 45.868,65.204 38.42,71.6 C36.732,73.052 36.512,75.632 37.936,77.356 C39.356,79.084 41.88,79.308 43.572,77.856 C50.56,71.852 56.08,67.108 71.06,75.568 C78.256,79.64 84.06,81.168 88.888,81.168 C97.348,81.168 102.832,76.464 107.572,72.388 C109.264,70.936 109.48,68.356 108.06,66.636 C106.636,64.904 104.112,64.688 102.42,66.14 Z M102.42,86.564 C95.436,92.572 89.912,97.316 74.932,88.852 C55.14,77.672 45.868,85.632 38.42,92.032 C36.732,93.484 36.512,96.064 37.936,97.788 C39.356,99.516 41.88,99.732 43.572,98.28 C50.56,92.28 56.08,87.54 71.06,96 C78.256,100.064 84.06,101.6 88.888,101.6 C97.348,101.6 102.832,96.888 107.572,92.82 C109.264,91.368 109.48,88.788 108.06,87.064 C106.636,85.336 104.112,85.116 102.42,86.564 Z"/>
  </g>
</svg>
