<svg xmlns="http://www.w3.org/2000/svg" width="144" height="144" viewBox="0 0 144 144">
  <g fill="none" fill-rule="evenodd">
<path fill="#EFEFEF" fill-rule="nonzero" d="M111.48,57.812 C111.956,58.84 111.988,62.972 91.944,72.38 L72.292,81.604 C65.452,84.816 55.528,89.04 51.152,90.208 C48.088,91.024 45.164,88.944 45.164,88.944 C45.164,88.944 36.34,81.044 33.996,79.268 C31.656,77.492 31.856,76.588 34.856,75.628 C36.724,75.032 47.376,77.6 51.916,78.748 C57.272,75.548 62.164,72.804 64.48,71.556 C58.896,67.424 48.448,59.708 45.116,57.356 C41.92,55.096 45.156,54.284 45.156,54.284 C46.628,53.888 49.804,53.372 51.404,53.708 C62.288,55.984 80.456,61.992 81.848,62.452 C85.176,60.708 90.36,58.084 93.536,56.592 C101.836,52.696 110.844,56.444 111.48,57.812 Z"/>
  </g>
</svg>
