<svg xmlns="http://www.w3.org/2000/svg" width="144" height="144" viewBox="0 0 144 144">
  <g fill="none" fill-rule="evenodd">
<path fill="#EFEFEF" fill-rule="nonzero" d="M107.008,96.152 C106.62,97.216 103.72,100.16 82.892,92.64 L62.472,85.268 C55.364,82.704 45.36,78.672 41.44,76.4 C38.696,74.812 38.096,71.272 38.096,71.272 C38.096,71.272 37.444,59.448 37.044,56.536 C36.644,53.624 37.424,53.124 40.228,54.568 C41.972,55.468 47.688,64.816 50.084,68.836 C56.132,70.36 61.532,71.88 64.056,72.632 C63.028,65.764 61.096,52.92 60.404,48.9 C59.74,45.048 62.604,46.76 62.604,46.76 C63.928,47.52 66.536,49.404 67.428,50.768 C73.516,60.072 82.116,77.168 82.772,78.48 C86.356,79.6 91.88,81.412 95.18,82.6 C103.804,85.716 107.528,94.736 107.008,96.152 Z"/>
  </g>
</svg>
