<svg xmlns="http://www.w3.org/2000/svg" width="144" height="144" viewBox="0 0 144 144">
  <g fill="none" fill-rule="evenodd">
<path fill="#EFEFEF" d="M102.256104,88.4492188 C100.602783,92.111328 99.8098144,93.749756 97.6809084,96.9877932 C94.7109376,101.509278 90.5229496,107.139893 85.3334964,107.187988 C80.7238772,107.23169 79.5402836,104.188232 73.2817384,104.222656 C67.0256348,104.25708 65.7180176,107.243164 61.1062012,107.199463 C55.9189452,107.151368 51.9497072,102.066162 48.9775392,97.544678 C40.6691896,84.9016116 39.8007812,70.0610356 44.9248048,62.173096 C48.5673828,56.5678712 54.3112796,53.2861332 59.7128908,53.2861332 C65.2128908,53.2861332 68.6708988,56.3020024 73.2175296,56.3020024 C77.6289064,56.3020024 80.3171388,53.2814944 86.6740724,53.2814944 C91.4797364,53.2814944 96.5717776,55.898682 100.200684,60.419922 C88.3115236,66.9350584 90.2434084,83.9118652 102.256104,88.4492188 Z M81.8500976,48.2307128 C84.160156,45.2653808 85.9155272,41.0783692 85.2785644,36.8000488 C81.5041504,37.0612792 77.090332,39.4606932 74.5134276,42.5910644 C72.1748048,45.43042 70.24292,49.642334 70.9946288,53.739746 C75.1149904,53.8659668 79.3774416,51.4047852 81.8500976,48.2307128 Z"/>
  </g>
</svg>
