<svg xmlns="http://www.w3.org/2000/svg" width="144" height="144" viewBox="0 0 144 144">
  <g fill="none" fill-rule="evenodd">
<path fill="#EFEFEF" fill-rule="nonzero" d="M87.924,40 L56.072,40 C56.072,40 52.088,40 52.088,44 L91.908,44 C91.908,40 87.924,40 87.924,40 Z M99.872,52 C99.872,48 95.892,48 95.892,48 L48.108,48 C48.108,48 44.128,48 44.128,52 L44.128,56 L99.872,56 L99.872,52 Z M107.832,56 C105.48,53.632 105.48,53.632 105.48,53.632 L105.48,60 L38.52,60 L38.52,53.632 C38.52,53.632 38.52,53.632 36.164,56 C33.808,58.368 32.12,59 33.068,64 C34.012,68.984 38.584,96.304 39.264,100 C40.008,104.056 44.132,104 44.132,104 L99.876,104 C99.876,104 103.996,104.056 104.744,100 C105.424,96.304 109.992,68.984 110.94,64 C111.88,59 110.192,58.368 107.832,56 Z M88,79.988 C88,82.204 86.204,84 83.988,84 L60.012,84 C57.796,84 56,82.204 56,79.988 L56,72 L60,72 L60,80 L84,80 L84,72 L88,72 L88,79.988 Z"/>
  </g>
</svg>
