<svg xmlns="http://www.w3.org/2000/svg" width="144" height="144" viewBox="0 0 144 144">
  <g fill="none" fill-rule="evenodd">
<path fill="#EFEFEF" fill-rule="nonzero" d="M72,33.6 C50.788,33.6 33.596,50.792 33.596,72 C33.596,93.212 50.788,110.404 72,110.404 C93.204,110.404 110.4,93.212 110.4,72 C110.4,50.792 93.204,33.6 72,33.6 Z M71.996,102.4 C55.208,102.4 41.596,88.792 41.596,72 C41.596,55.208 55.204,41.6 71.996,41.6 C88.788,41.6 102.4,55.212 102.4,72 C102.4,88.788 88.784,102.4 71.996,102.4 Z M72,64 L56,64 L56,80 L72,80 L72,90 L90,72 L72,54 L72,64 Z"/>
  </g>
</svg>
