<svg xmlns="http://www.w3.org/2000/svg" width="144" height="144" viewBox="0 0 144 144">
  <g fill="none" fill-rule="evenodd">
<path fill="#EFEFEF" fill-rule="nonzero" d="M54.408,111.2 C49.236,111.2 44.392,108.98 40.896,105.44 C34.116,98.576 32.228,86.596 41.732,76.976 C47.296,71.344 69.596,48.764 80.724,37.496 C84.676,33.496 89.704,31.948 94.516,33.256 C99.248,34.536 103.12,38.46 104.388,43.248 C105.676,48.128 104.152,53.22 100.204,57.22 L62.912,94.98 C60.784,97.136 58.376,98.412 55.96,98.668 C53.564,98.924 51.28,98.148 49.68,96.528 C46.784,93.584 46.368,88.06 51.192,83.18 L77.384,56.66 C78.46,55.572 80.204,55.572 81.28,56.66 C82.356,57.748 82.356,59.516 81.28,60.604 L55.084,87.128 C52.82,89.416 52.612,91.604 53.576,92.584 C54,93.008 54.64,93.204 55.38,93.12 C56.512,93.004 57.804,92.256 59.016,91.036 L96.308,53.28 C98.868,50.688 99.848,47.64 99.068,44.7 C98.3,41.8 95.956,39.428 93.096,38.648 C90.192,37.86 87.176,38.856 84.616,41.448 C73.488,52.72 51.192,75.296 45.624,80.928 C38.36,88.284 40.1,96.752 44.788,101.5 C49.48,106.248 57.836,108.016 65.104,100.652 L104.096,61.172 C105.172,60.084 106.916,60.084 107.992,61.172 C109.068,62.26 109.068,64.028 107.992,65.12 L69,104.6 C64.404,109.248 59.256,111.2 54.408,111.2 Z"/>
  </g>
</svg>
