<svg xmlns="http://www.w3.org/2000/svg" width="144" height="144" viewBox="0 0 144 144">
  <g fill="none" fill-rule="evenodd">
<path fill="#EFEFEF" fill-rule="nonzero" d="M98.296,97.352 C95.268,93.148 86.892,82.056 80.016,72.928 C82.8,68.932 85.02,65.668 86.036,63.96 C92.216,53.584 89.532,46.92 86.124,41.28 C82.708,35.636 82.168,32.376 72,32.376 C61.828,32.376 61.288,35.636 57.876,41.284 C54.46,46.924 51.78,53.588 57.96,63.964 C58.976,65.668 61.196,68.936 63.984,72.932 C57.104,82.056 48.728,93.152 45.7,97.356 C44.996,98.332 45.06,100.012 45.736,101.684 C46.256,102.972 48.256,108.732 48.744,109.94 C49.368,111.496 51.4,112.62 53.072,110.308 C54.036,108.972 63.4,96.208 72,84.22 C80.596,96.204 89.964,108.972 90.928,110.308 C92.596,112.62 94.632,111.496 95.256,109.94 C95.744,108.728 97.744,102.972 98.264,101.684 C98.932,100.008 99,98.328 98.296,97.352 Z M70.536,60.252 C66.264,54.316 63.208,47.408 63.208,47.408 C63.208,47.408 64.888,44.376 72,44.376 C79.112,44.376 80.792,47.408 80.792,47.408 C80.792,47.408 77.728,54.316 73.46,60.252 C73.108,60.736 72.588,61.44 72,62.24 C71.404,61.44 70.884,60.736 70.536,60.252 Z"/>
  </g>
</svg>
