<svg xmlns="http://www.w3.org/2000/svg" width="144" height="144" viewBox="0 0 144 144">
  <g fill="none" fill-rule="evenodd">
<path fill="#EFEFEF" fill-rule="nonzero" d="M77,39.196 C59.22,39.196 44.756,53.444 44.324,71.18 L44.324,72 L34.836,72 L49.212,87.576 L63.188,72 L52.5,72 L52.5,71.18 C52.928,57.968 63.732,47.4 77,47.4 C90.544,47.4 101.524,58.416 101.524,72 C101.524,85.584 90.544,96.6 77,96.6 C71.572,96.6 66.556,94.82 62.492,91.828 L56.868,97.844 C62.42,102.196 69.408,104.796 77,104.796 C95.06,104.796 109.696,90.116 109.696,72 C109.696,53.884 95.06,39.196 77,39.196 Z M73,52 L73,72 C73,72.52 73.108,73.04 73.308,73.528 C73.512,74.016 73.804,74.46 74.172,74.828 L86.972,87.628 C88.104,86.896 89.172,86.072 90.12,85.116 L81,76 L81,52 L73,52 Z"/>
  </g>
</svg>
