<svg xmlns="http://www.w3.org/2000/svg" width="144" height="144" viewBox="0 0 144 144">
  <g fill="none" fill-rule="evenodd">
<path fill="#EFEFEF" fill-rule="nonzero" d="M101.646546,59.7481596 C100.211685,58.6158812 97.9505616,58.1464464 95.7956432,58.286978 C94.1302988,58.3931792 92.7519724,58.4254516 91.7776224,59.01734 C87.3114548,61.7256988 86.9097672,76.4292872 92.5059244,78.7535824 C104.401596,83.6955948 108.731346,65.3516428 101.646546,59.7481596 Z M83.733116,75.10017 C79.8780632,70.6259916 77.1683308,64.374088 69.4811096,65.596546 C62.6542568,66.6823616 61.7856504,72.2792052 58.1468888,76.1969716 C53.8281192,80.8519704 45.7270804,84.2664256 43.8907624,91.5476108 C42.5520336,96.8620144 44.3544768,103.117126 47.5448592,105.438217 C53.80958,109.98838 65.4397472,104.939712 73.8635104,105.802818 C78.9062312,106.318946 82.7622036,108.090034 86.6541064,107.996422 C95.7043192,107.783333 103.012741,101.318802 99.0851292,90.8183936 C97.1618348,85.674736 88.6817704,80.84396 83.733116,75.10017 Z M82.6370048,59.3835508 C87.1702348,59.511038 91.8421668,54.323664 92.1413156,49.5139428 C92.531788,43.2348024 88.4235916,36.9394104 82.2726252,38.5475332 C78.6176112,39.5024276 75.6167452,44.1896964 75.3278964,48.7849544 C74.9941864,54.1124056 77.7950096,59.2464504 82.6370048,59.3835508 Z M65.090702,57.9207688 C69.7994844,57.285164 71.7610016,51.6333868 70.9422912,45.1267376 C70.266632,39.7718216 67.3600656,34.5780372 61.0719968,36.3555336 C52.4104272,38.8006764 53.7910404,59.4480952 65.090702,57.9207688 Z M48.6457804,74.3695792 C58.9749832,72.827606 56.5646304,50.6155508 45.3560628,53.1705568 C35.71877,55.3673628 37.007374,76.1065636 48.6457804,74.3695792 Z"/>
  </g>
</svg>
