<svg xmlns="http://www.w3.org/2000/svg" width="144" height="144" viewBox="0 0 144 144">
  <g fill="none" fill-rule="evenodd">
<path fill="#EFEFEF" fill-rule="nonzero" d="M72,40 C53.308,40 34.8,65.924 34.8,89.688 C34.8,95.196 52.936,104 72,104 C91.064,104 109.2,95.196 109.2,89.688 C109.2,65.924 90.692,40 72,40 Z M72.024,94.46 C51.232,94.46 45.332,86.188 45.332,83.572 C45.332,78.424 53.852,65.632 56.956,65.632 C59.832,65.632 63.124,72.876 66.212,72.876 C71.176,72.876 76.48,57.06 80.528,57.06 C84.576,57.06 98.932,77.772 98.932,84.056 C98.932,85.14 94.596,94.46 72.024,94.46 Z"/>
  </g>
</svg>
