<svg xmlns="http://www.w3.org/2000/svg" width="144" height="144" viewBox="0 0 144 144">
  <g fill="none" fill-rule="evenodd">
<path fill="#EFEFEF" fill-rule="nonzero" d="M93.632,72 C93.632,60.936 98.74,54.72 102.74,54.72 C104.192,54.72 108,54.72 108,54.72 C105.328,50.484 103.116,48 93.368,48 L53.336,48 C38.4,48 32,61.764 32,72 C32,82.236 38.4,96 53.336,96 L93.368,96 C103.12,96 105.328,93.516 108,89.28 C108,89.28 106.74,89.28 102.74,89.28 C98.74,89.28 93.632,83.064 93.632,72 Z M82.752,79.18 C82.096,80.18 80.048,79.244 80.048,79.244 L68.22,73.892 C68.22,73.892 67.164,76.572 66.352,78.456 C65.532,80.34 64.908,82.472 61.516,80.088 C58.12,77.696 47.192,67.088 47.192,67.088 C47.192,67.088 45.812,65.952 46.5,64.884 C47.152,63.876 49.204,64.82 49.204,64.82 L61.028,70.164 C61.028,70.164 62.088,67.492 62.9,65.608 C63.72,63.728 64.344,61.584 67.736,63.976 C71.132,66.36 82.056,76.976 82.056,76.976 C82.056,76.976 83.436,78.108 82.752,79.18 Z M107.496,63.712 L104.5,63.712 C102.264,63.712 100.08,66.728 100.08,71.628 C100.08,76.536 102.268,79.548 104.5,79.548 L107.496,79.548 C109.736,79.548 112,76.532 112,71.628 C112,66.728 109.736,63.712 107.496,63.712 Z"/>
  </g>
</svg>
