<svg xmlns="http://www.w3.org/2000/svg" width="144" height="144" viewBox="0 0 144 144">
  <g fill="none" fill-rule="evenodd">
<path fill="#EFEFEF" fill-rule="nonzero" d="M102,36 L101.992,88 C101.992,92.972 96.788,100 87,100 C82.028,100 78,97.388 78,92.5 C78,86.144 83.78,82.3 90,82.3 C91.728,82.3 93.016,82.536 94,82.792 L94,53.456 L66,58.548 L66,96 L65.992,96 C65.992,100.972 60.788,108 51,108 C46.028,108 42,105.388 42,100.5 C42,94.144 47.78,90.3 54,90.3 C55.728,90.3 57.016,90.536 58,90.792 L58,44 L102,36 Z"/>
  </g>
</svg>
