<svg xmlns="http://www.w3.org/2000/svg" width="144" height="144" viewBox="0 0 144 144">
  <g fill="none" fill-rule="evenodd">
<path fill="#EFEFEF" fill-rule="nonzero" d="M64.288,69.204 C64.288,69.204 71.856,68.616 71.856,59.368 C71.856,50.108 65.664,45.604 57.816,45.604 L32,45.604 L32,97.308 L57.816,97.308 C57.816,97.308 73.58,97.824 73.58,82.044 C73.576,82.04 74.264,69.204 64.288,69.204 Z M43.376,54.788 L57.816,54.788 C57.816,54.788 61.328,54.788 61.328,60.164 C61.328,65.548 59.264,66.328 56.92,66.328 L43.376,66.328 L43.376,54.788 Z M57.084,88.116 L43.376,88.116 L43.376,74.2959721 L57.816,74.296 C57.816,74.296 63.048,74.224 63.048,81.396 C63.048,87.444 59.14,88.072 57.084,88.116 Z M94.596,58.752 C75.512,58.752 75.528,78.62 75.528,78.62 C75.528,78.62 74.224,98.384 94.596,98.384 C94.596,98.384 111.568,99.4 111.568,84.636 L102.84,84.636 C102.84,84.636 103.128,90.2 94.888,90.2 C94.888,90.2 86.152,90.808 86.152,81.2 L111.844,81.2 C111.848,81.196 114.68,58.752 94.596,58.752 Z M102.360058,74.296 L86.064,74.296 C86.064,74.296 87.128,66.328 94.792,66.328 C102.456,66.328 102.360058,74.296 102.360058,74.296 Z M104.388,48.64 L83.92,48.64 L83.92,55.016 L104.388,55.016 L104.388,48.64 Z"/>
  </g>
</svg>
