<svg xmlns="http://www.w3.org/2000/svg" width="144" height="144" viewBox="0 0 144 144">
  <g fill="none" fill-rule="evenodd">
<path fill="#EFEFEF" fill-rule="nonzero" d="M90.6,66.048 C81.48,46.42 76.736,38.964 61.836,39.276 C56.528,39.384 57.8,35.428 53.752,36.928 C49.712,38.428 53.18,40.624 49.044,44.02 C37.436,53.552 38.504,62.368 43.888,83.38 C46.156,92.232 38.42,92.664 41.48,101.24 C43.716,107.496 60.196,110.116 77.58,103.668 C94.968,97.216 105.924,84.412 103.688,78.156 C100.628,69.576 94.444,74.312 90.6,66.048 Z M75.696,98.38 C60.168,104.14 47.408,100.756 46.868,99.248 C45.94,96.648 51.88,87.984 69.632,81.396 C87.384,74.808 97.292,77.252 98.328,80.152 C98.94,81.868 91.228,92.616 75.696,98.38 Z M70.704,84.404 C62.588,87.416 56.948,90.86 53.292,93.96 C55.864,96.296 60.68,96.864 65.476,95.084 C71.584,92.824 75.34,87.62 73.856,83.468 C73.836,83.416 73.812,83.376 73.792,83.324 C72.788,83.652 71.76,84.008 70.704,84.404 Z"/>
  </g>
</svg>
