<svg xmlns="http://www.w3.org/2000/svg" width="144" height="144" viewBox="0 0 144 144">
  <g fill="none" fill-rule="evenodd">
<path fill="#EFEFEF" fill-rule="nonzero" d="M72,33.6 C50.788,33.6 33.596,50.792 33.596,72 C33.596,93.212 50.788,110.404 72,110.404 C93.204,110.404 110.4,93.212 110.4,72 C110.4,50.792 93.204,33.6 72,33.6 Z M41.596,72 C41.596,55.212 55.204,41.6 71.996,41.6 C79.312,41.6 86.02,44.188 91.264,48.492 L48.488,91.268 C44.184,86.02 41.596,79.316 41.596,72 Z M71.996,102.396 C64.684,102.396 57.976,99.812 52.736,95.508 L95.512,52.736 C99.812,57.984 102.4,64.684 102.4,72 C102.4,88.788 88.784,102.396 71.996,102.396 Z"/>
  </g>
</svg>
