<svg xmlns="http://www.w3.org/2000/svg" width="144" height="144" viewBox="0 0 144 144">
  <g fill="none" fill-rule="evenodd">
<path fill="#EFEFEF" fill-rule="nonzero" d="M99.796,61.888 C91.092,73.496 83.416,73.896 71.612,74.496 L71.208,74.496 C56.844,74.488 46.656,69.152 46.656,67.168 C46.648,65.284 55.848,60.38 69.076,59.892 L71.436,54 C71.36,54 71.288,53.992 71.208,53.992 C51.576,53.992 40.044,60.24 40.044,66.196 L40.044,74.196 C40.044,77.868 42.372,109.992 70.372,109.992 C98.372,109.992 102.372,77.868 102.372,74.196 L102.372,66.196 C102.372,64.632 101.568,63.048 100.036,61.564 L99.796,61.888 Z M102.356,42.808 C100.592,41.488 98.08,41.84 96.76,43.612 L82.328,62.848 L91.672,39.496 C92.496,37.448 91.496,35.12 89.444,34.292 C87.412,33.472 85.06,34.464 84.244,36.528 L71.208,69.096 C82.736,68.508 88.316,68.188 95.476,58.652 C102.632,49.104 103.152,48.408 103.152,48.408 C104.48,46.644 104.124,44.136 102.356,42.808 Z"/>
  </g>
</svg>
