<svg xmlns="http://www.w3.org/2000/svg" width="144" height="144" viewBox="0 0 144 144">
  <g fill="none" fill-rule="evenodd">
<path fill="#EFEFEF" fill-rule="nonzero" d="M68,74 L76,74 L76,82 L112,82 C112,82 111.404,64.164 111.2,58.584 C111,53.28 109.1,50 103.2,50 L90.368,50 C88.38,46.248 86.24,42.22 85.58,40.976 C84.256,38.484 83.804,38 80.864,38 L63.132,38 C60.192,38 59.744,38.484 58.416,40.976 C57.756,42.22 55.616,46.248 53.632,50 L40.796,50 C34.892,50 33.016,53.28 32.796,58.584 C32.58,63.892 32,82 32,82 L68,82 L68,74 Z M62.596,45.664 C63.516,43.936 63.828,43.6 65.864,43.6 L78.132,43.6 C80.168,43.6 80.484,43.936 81.396,45.664 C81.74,46.304 82.668,48.064 83.696,50 L60.296,50 C61.324,48.064 62.252,46.304 62.596,45.664 Z M76,94 L68,94 L68,86 L34,86 C34,86 34.496,93.188 34.796,99.288 C34.92,101.82 35.668,106 41.996,106 L102,106 C108.328,106 109.06,101.812 109.2,99.288 C109.548,93.016 110,86 110,86 L76,86 L76,94 Z"/>
  </g>
</svg>
