<svg xmlns="http://www.w3.org/2000/svg" width="144" height="144" viewBox="0 0 144 144">
  <g fill="none" fill-rule="evenodd">
<path fill="#EFEFEF" fill-rule="nonzero" d="M104,40 L40,40 C35.6,40 32,43.6 32,48 L32,96 C32,100.4 35.6,104 40,104 L104,104 C108.4,104 112,100.4 112,96 L112,48 C112,43.6 108.4,40 104,40 Z M50,47 C51.656,47 53,48.344 53,50 C53,51.656 51.656,53 50,53 C48.344,53 47,51.656 47,50 C47,48.344 48.344,47 50,47 Z M39,50 C39,48.344 40.344,47 42,47 C43.656,47 45,48.344 45,50 C45,51.656 43.656,53 42,53 C40.344,53 39,51.656 39,50 Z M104,96 L40,96 L40,60 L104,60 L104,96 Z M104,52 L56,52 L56,48 L104.076,48 L104,52 Z"/>
  </g>
</svg>
