<svg xmlns="http://www.w3.org/2000/svg" width="144" height="144" viewBox="0 0 144 144">
  <g fill="none" fill-rule="evenodd">
<path fill="#EFEFEF" fill-rule="nonzero" d="M43.052,86.252 C36.992,92.204 42.112,98.316 34.064,107.368 C30.432,111.46 49.016,110.212 58.22,101.164 C62.128,97.32 61.024,91.728 56.836,87.608 C52.648,83.496 46.956,82.408 43.052,86.252 Z M110.156,34.636 C107.052,31.58 72.64,59.152 62.4,69.22 C57.316,74.22 55.62,76.9 54.064,78.9 C53.384,79.776 54.284,80.04 54.68,80.244 C56.696,81.276 58.104,82.228 59.924,84.016 C61.748,85.804 62.72,87.188 63.76,89.172 C63.972,89.564 64.244,90.444 65.128,89.78 C67.168,88.248 69.892,86.576 74.976,81.584 C85.22,71.52 113.268,37.688 110.156,34.636 Z"/>
  </g>
</svg>
