<svg xmlns="http://www.w3.org/2000/svg" width="144" height="144" viewBox="0 0 144 144">
  <g fill="none" fill-rule="evenodd">
<path fill="#EFEFEF" fill-rule="nonzero" d="M77,36 C57.368,36 45.008,42.368 45.84,47.8 C46.08,49.356 46.74,55.58 47.576,60.892 C37.956,64.628 34.768,70.688 35.196,75.628 C35.704,81.472 40.96,87.728 52.508,88.808 C59.1,89.424 67.032,85.808 72.172,79.628 C71.684,78.8 71.4,77.828 71.4,76.8 C71.4,73.704 73.908,71.2 77,71.2 C80.096,71.2 82.6,73.708 82.6,76.8 C82.6,79.848 80.16,82.324 77.124,82.392 C71.008,90.284 61.692,95.048 52.868,94.492 C53.072,95.788 53.148,98.28 53.252,98.944 C53.612,101.26 62.64,107.984 77,108 C91.36,107.984 100.388,101.26 100.752,98.948 C101.104,96.64 107.316,53.312 108.16,47.8 C108.992,42.368 96.628,36 77,36 Z M40.772,75.14 C40.552,72.568 42.592,69.148 48.468,66.584 C49.312,71.944 50.232,77.772 51.04,82.88 C44.624,81.628 41.048,78.284 40.772,75.14 Z M77,56.096 C62.64,56.088 52.452,50.76 52.452,48.768 C52.444,46.792 62.64,41.608 77,41.616 C91.36,41.608 101.556,46.792 101.548,48.768 C101.548,50.76 91.36,56.088 77,56.096 Z"/>
  </g>
</svg>
