<svg xmlns="http://www.w3.org/2000/svg" width="144" height="144" viewBox="0 0 144 144">
  <g fill="none" fill-rule="evenodd">
<path fill="#EFEFEF" fill-rule="nonzero" d="M72,36 C63.163086,36 56,43.16333 56,52 L88,52 C88,43.16333 80.836914,36 72,36 Z M108,72 L96,72 L96,62.0126952 C96,61.9018552 95.9736328,61.798584 95.9677736,61.6892088 L104.828125,52.8283688 C106.390625,51.2663572 106.390625,48.7336424 104.828125,47.1716304 C103.266602,45.6093744 100.733399,45.6093744 99.1718752,47.1716304 L90.3105472,56.0324704 C90.201172,56.0266112 90.0986328,56 89.9882812,56 L54.0117188,56 C53.9013672,56 53.798828,56.0266112 53.6894532,56.0324708 L44.8281252,47.1716308 C43.2666016,45.6093748 40.7333988,45.6093748 39.1718752,47.1716308 C37.6093752,48.7336424 37.6093752,51.2663572 39.1718752,52.8283692 L48.0322268,61.6892092 C48.0263672,61.798584 48,61.9018556 48,62.0126952 L48,72 L36,72 C33.7910156,72 32,73.7907716 32,76 C32,78.2089844 33.7910156,80 36,80 L48,80 C48,83.1198732 48.625,86.083252 49.7089844,88.8149416 C49.5322264,88.9414064 49.330078,89.0129396 49.1718752,89.1716312 L37.857422,100.485108 C36.2958984,102.047364 36.2958984,104.580078 37.857422,106.14209 C39.419922,107.704102 41.9531252,107.704102 43.5146484,106.14209 L53.9208984,95.73584 C57.4902344,99.8220216 62.4111328,102.70044 68,103.640137 L68,64 L76,64 L76,103.640137 C81.5888672,102.70044 86.5097656,99.8220216 90.0791016,95.736084 L100.485352,106.14209 C102.046875,107.704102 104.580078,107.704102 106.142578,106.14209 C107.704102,104.580078 107.704102,102.047364 106.142578,100.485108 L94.8281248,89.1716312 C94.6699216,89.0129396 94.4677732,88.9414064 94.2910156,88.8149416 C95.375,86.083252 96,83.1198732 96,80 L108,80 C110.208984,80 112,78.2089844 112,76 C112,73.7907716 110.208984,72 108,72 Z"/>
  </g>
</svg>
