<svg xmlns="http://www.w3.org/2000/svg" width="144" height="144" viewBox="0 0 144 144">
  <g fill="none" fill-rule="evenodd">
<path fill="#EFEFEF" fill-rule="nonzero" d="M69.336,56.144 C77.144,56.144 79.7,50.62 76.692,44.772 C73.208,38 84.272,32.152 78.776,32.152 C73.572,32.152 63.832,37.824 62.016,44.884 C60.66,50.18 63.2,56.144 69.336,56.144 Z M90.184,91.948 L88.408,90.416 C86.46,88.736 83.408,88.744 81.468,90.416 L79.7,91.944 C77.22,94.08 74.112,95.148 71.004,95.148 C67.896,95.148 64.788,94.08 62.312,91.948 L60.536,90.412 C58.588,88.74 55.54,88.736 53.6,90.416 L51.824,91.948 C47.052,96.06 39.956,96.172 35.008,92.348 L35.008,108 C35.008,110.208 36.8,112 39.008,112 L103.008,112 C105.216,112 107.008,110.208 107.008,108 L107.008,92.352 C102.06,96.168 94.964,96.068 90.184,91.948 Z M71,60 C40.704,60 35,73.444 35,80 L35,81.876 L39.656,85.888 C41.6,87.572 44.652,87.556 46.596,85.888 L48.372,84.356 C53.32,80.096 60.792,80.092 65.752,84.356 L67.528,85.892 C69.464,87.56 72.508,87.572 74.468,85.888 L76.236,84.36 C81.196,80.092 88.664,80.092 93.62,84.356 L95.396,85.888 C97.344,87.572 100.396,87.556 102.336,85.888 L107,81.876 L107,80 C107,73.444 101.296,60 71,60 Z"/>
  </g>
</svg>
