<svg xmlns="http://www.w3.org/2000/svg" width="144" height="144" viewBox="0 0 144 144">
  <g fill="none" fill-rule="evenodd">
<path fill="#EFEFEF" fill-rule="nonzero" d="M90.4,36 L53.592,36 C50.516,36 48,38.516 48,41.6 L48,102.4 C48,105.48 50.516,108 53.592,108 L90.4,108 C93.476,108 96,105.476 96,102.4 L96,41.6 C96,38.516 93.476,36 90.4,36 Z M60,80 C62.756,80 65,81.788 65,84 C65,86.212 62.756,88 60,88 C57.24,88 55,86.212 55,84 C55,81.788 57.24,80 60,80 Z M55,72 C55,69.788 57.24,68 60,68 C62.756,68 65,69.788 65,72 C65,74.212 62.756,76 60,76 C57.24,76 55,74.212 55,72 Z M60,92 C62.756,92 65,93.788 65,96 C65,98.212 62.756,100 60,100 C57.24,100 55,98.212 55,96 C55,93.788 57.24,92 60,92 Z M72,80 C74.756,80 77,81.788 77,84 C77,86.212 74.756,88 72,88 C69.24,88 67,86.212 67,84 C67,81.788 69.24,80 72,80 Z M67,72 C67,69.788 69.24,68 72,68 C74.756,68 77,69.788 77,72 C77,74.212 74.756,76 72,76 C69.24,76 67,74.212 67,72 Z M72,92 C74.756,92 77,93.788 77,96 C77,98.212 74.756,100 72,100 C69.24,100 67,98.212 67,96 C67,93.788 69.24,92 72,92 Z M84,80 C86.756,80 89,81.788 89,84 C89,86.212 86.756,88 84,88 C81.24,88 79,86.212 79,84 C79,81.788 81.24,80 84,80 Z M79,72 C79,69.788 81.24,68 84,68 C86.756,68 89,69.788 89,72 C89,74.212 86.756,76 84,76 C81.24,76 79,74.212 79,72 Z M84,92 C86.756,92 89,93.788 89,96 C89,98.212 86.756,100 84,100 C81.24,100 79,98.212 79,96 C79,93.788 81.24,92 84,92 Z M52,60 L52,48 L92,48 L92,60 L52,60 Z"/>
  </g>
</svg>
