<svg xmlns="http://www.w3.org/2000/svg" width="144" height="144" viewBox="0 0 144 144">
  <g fill="none" fill-rule="evenodd">
<path fill="#EFEFEF" fill-rule="nonzero" d="M100,44 L96,44 L96,52 L84,52 L84,44 L60,44 L60,52 L48,52 L48,44 L44,44 C39.596,44 36,47.6 36,52 L36,100 C36,104.4 39.596,108 44,108 L100,108 C104.4,108 108,104.4 108,100 L108,52 C108,47.6 104.4,44 100,44 Z M100,100 L44,100 L44,68 L100,68 L100,100 Z M58,36 L50,36 L50,50 L58,50 L58,36 Z M94,36 L86,36 L86,50 L94,50 L94,36 Z"/>
  </g>
</svg>
