<svg xmlns="http://www.w3.org/2000/svg" width="144" height="144" viewBox="0 0 144 144">
  <g fill="none" fill-rule="evenodd">
<path fill="#EFEFEF" fill-rule="nonzero" d="M34.74,72 L44.228,72 L44.228,71.18 C44.66,53.444 59.124,39.196 76.904,39.196 C94.964,39.196 109.6,53.884 109.6,72 C109.6,90.116 94.964,104.796 76.904,104.796 C69.312,104.796 62.324,102.196 56.772,97.844 L62.396,91.828 C66.46,94.82 71.476,96.6 76.904,96.6 C90.448,96.6 101.428,85.584 101.428,72 C101.428,58.416 90.448,47.4 76.904,47.4 C63.636,47.4 52.832,57.972 52.404,71.18 L52.404,72 L63.092,72 L49.116,87.576 L34.74,72 Z"/>
  </g>
</svg>
