<svg xmlns="http://www.w3.org/2000/svg" width="144" height="144" viewBox="0 0 144 144">
  <g fill="none" fill-rule="evenodd">
<path fill="#EFEFEF" fill-rule="nonzero" d="M55.2,80.8 L55.2,56 L40,56 C35.6,56 32,59.6 32,64 L32,88 C32,92.4 35.6,96 40,96 L44,96 L44,108 L56,96 L76,96 C80.4,96 84,92.4 84,88 L84,80.72 C83.744,80.776 83.472,80.804 83.2,80.804 L55.2,80.804 L55.2,80.8 Z M104,36 L68,36 C63.6,36 60,39.6 60,44 L60,76 L88,76 L100,88 L100,76 L104,76 C108.4,76 112,72.404 112,68 L112,44 C112,39.6 108.4,36 104,36 Z"/>
  </g>
</svg>
