<svg xmlns="http://www.w3.org/2000/svg" width="144" height="144" viewBox="0 0 144 144">
  <g fill="none" fill-rule="evenodd">
<path fill="#EFEFEF" fill-rule="nonzero" d="M77.208,59.104 C76.424,58.316 75.148,58.316 74.368,59.104 L63.14,70.564 C62.356,71.36 62.356,72.644 63.14,73.432 L74.368,84.888 C75.148,85.684 76.424,85.68 77.208,84.888 C77.992,84.1 77.992,82.816 77.208,82.02 L68,72 L77.208,61.976 C77.992,61.184 77.992,59.904 77.208,59.104 Z M72,33.6 C50.792,33.6 33.6,50.792 33.6,72 C33.6,93.212 50.792,110.4 72,110.4 C93.208,110.4 110.4,93.212 110.4,72 C110.4,50.792 93.208,33.6 72,33.6 Z M72,105.416 C53.54,105.416 38.584,90.456 38.584,72 C38.584,53.544 53.54,38.584 72,38.584 C90.452,38.584 105.416,53.544 105.416,72 C105.416,90.456 90.452,105.416 72,105.416 Z"/>
  </g>
</svg>
