<svg xmlns="http://www.w3.org/2000/svg" width="144" height="144" viewBox="0 0 144 144">
  <g fill="none" fill-rule="evenodd">
<path fill="#EFEFEF" fill-rule="nonzero" d="M76,72 L66.792,61.976 C66.008,61.184 66.008,59.9 66.792,59.104 C67.576,58.316 68.852,58.316 69.632,59.104 L80.86,70.56 C81.644,71.356 81.644,72.64 80.86,73.428 L69.632,84.884 C68.852,85.68 67.576,85.676 66.792,84.884 C66.008,84.096 66.008,82.812 66.792,82.016 L76,72 Z M72,33.6 C93.208,33.6 110.4,50.792 110.4,72 C110.4,93.212 93.208,110.4 72,110.4 C50.792,110.4 33.6,93.212 33.6,72 C33.6,50.792 50.792,33.6 72,33.6 Z M72,105.416 C90.452,105.416 105.416,90.456 105.416,72 C105.416,53.544 90.452,38.584 72,38.584 C53.54,38.584 38.584,53.544 38.584,72 C38.58,90.456 53.54,105.416 72,105.416 Z"/>
  </g>
</svg>
