<svg xmlns="http://www.w3.org/2000/svg" width="144" height="144" viewBox="0 0 144 144">
  <g fill="none" fill-rule="evenodd">
<path fill="#EFEFEF" fill-rule="nonzero" d="M73.436,63.14 C72.64,62.356 71.356,62.356 70.568,63.14 L59.112,74.368 C58.316,75.148 58.32,76.424 59.112,77.208 C59.9,77.992 61.184,77.992 61.98,77.208 L72,68 L82.024,77.208 C82.816,77.992 84.096,77.992 84.896,77.208 C85.684,76.424 85.684,75.148 84.896,74.368 L73.436,63.14 Z M72,33.6 C50.792,33.6 33.6,50.792 33.6,72 C33.6,93.212 50.792,110.4 72,110.4 C93.208,110.4 110.4,93.212 110.4,72 C110.4,50.792 93.208,33.6 72,33.6 Z M72,105.416 C53.54,105.416 38.584,90.456 38.584,72 C38.584,53.544 53.54,38.584 72,38.584 C90.452,38.584 105.416,53.544 105.416,72 C105.416,90.456 90.452,105.416 72,105.416 Z"/>
  </g>
</svg>
