<svg xmlns="http://www.w3.org/2000/svg" width="144" height="144" viewBox="0 0 144 144">
  <g fill="none" fill-rule="evenodd">
<path fill="#EFEFEF" fill-rule="nonzero" d="M82.02,66.792 L72,76 L61.976,66.792 C61.184,66.008 59.904,66.008 59.104,66.792 C58.316,67.576 58.316,68.852 59.104,69.632 L70.56,80.86 C71.356,81.644 72.64,81.644 73.428,80.86 L84.884,69.632 C85.68,68.852 85.676,67.576 84.884,66.792 C84.096,66.008 82.816,66.008 82.02,66.792 Z M72,33.6 C50.792,33.6 33.6,50.792 33.6,72 C33.6,93.212 50.792,110.4 72,110.4 C93.208,110.4 110.4,93.212 110.4,72 C110.4,50.792 93.208,33.6 72,33.6 Z M72,105.416 C53.54,105.416 38.584,90.456 38.584,72 C38.584,53.544 53.54,38.584 72,38.584 C90.452,38.584 105.416,53.544 105.416,72 C105.416,90.456 90.452,105.416 72,105.416 Z"/>
  </g>
</svg>
