<svg xmlns="http://www.w3.org/2000/svg" width="144" height="144" viewBox="0 0 144 144">
  <g fill="none" fill-rule="evenodd">
<path fill="#EFEFEF" fill-rule="nonzero" d="M102.336,69.488 L110.336,69.488 C110.076,65.292 109.164,61.276 107.664,57.552 L100.64,61.608 C101.536,64.1 102.124,66.74 102.336,69.488 Z M88.404,37.18 C84.584,35.376 80.444,34.152 76.06,33.7 L76.06,41.784 C78.992,42.172 81.792,42.964 84.396,44.124 L88.404,37.18 Z M96.968,54.488 L103.932,50.468 C101.568,46.956 98.612,43.888 95.244,41.328 L91.22,48.296 C93.416,50.08 95.344,52.168 96.968,54.488 Z M72.056,102.284 C55.268,102.284 41.656,88.676 41.656,71.884 C41.656,56.452 53.164,43.74 68.06,41.78 L68.06,33.696 C48.728,35.696 33.656,52.028 33.656,71.884 C33.656,93.096 50.848,110.288 72.06,110.288 C91.356,110.288 107.288,96.036 110.004,77.488 L101.92,77.488 C99.288,91.596 86.928,102.284 72.056,102.284 Z"/>
  </g>
</svg>
