<svg xmlns="http://www.w3.org/2000/svg" width="144" height="144" viewBox="0 0 144 144">
  <g fill="none" fill-rule="evenodd">
<path fill="#EFEFEF" fill-rule="nonzero" d="M112,79.28 C112,89.616 103.424,98 92.852,98 L46.468,98 C38.476,98 32,91.664 32,83.852 C32,76.048 38.476,69.712 46.468,69.712 C47.052,69.712 47.62,69.76 48.184,69.82 C48.036,68.836 47.956,67.828 47.956,66.796 C47.956,55.312 57.48,46 69.236,46 C78.864,46 86.992,52.248 89.62,60.828 C90.672,60.656 91.748,60.564 92.856,60.564 C103.424,60.564 112,68.936 112,79.28 Z"/>
  </g>
</svg>
