<svg xmlns="http://www.w3.org/2000/svg" width="144" height="144" viewBox="0 0 144 144">
  <g fill="none" fill-rule="evenodd">
<path fill="#EFEFEF" fill-rule="nonzero" d="M54.876,91 C53.932,91 52.98,90.668 52.22,89.992 L31.98,72 L53.344,53.008 C54.992,51.548 57.52,51.688 58.988,53.34 C60.456,54.992 60.308,57.52 58.656,58.988 L44.02,72 L57.532,84.008 C59.184,85.476 59.332,88.004 57.864,89.656 C57.076,90.548 55.976,91 54.876,91 Z M90.656,90.992 L112.02,72 L91.78,54.008 C90.128,52.54 87.6,52.688 86.136,54.34 C84.668,55.992 84.816,58.52 86.468,59.988 L99.98,72 L85.344,85.008 C83.692,86.476 83.544,89.004 85.012,90.656 C85.8,91.548 86.9,92 88,92 C88.944,92 89.896,91.668 90.656,90.992 Z M71.944,96.66 L79.944,48.66 C80.308,46.48 78.836,44.42 76.656,44.056 C74.468,43.688 72.412,45.164 72.056,47.344 L64.056,95.344 C63.692,97.524 65.164,99.584 67.344,99.948 C67.568,99.984 67.784,100 68.004,100 C69.924,100 71.62,98.612 71.944,96.66 Z"/>
  </g>
</svg>
