<svg xmlns="http://www.w3.org/2000/svg" width="144" height="144" viewBox="0 0 144 144">
  <g fill="none" fill-rule="evenodd">
<path fill="#EFEFEF" fill-rule="nonzero" d="M99.132,72 C99.132,67.804 101.716,64.5 105.6,62.228 C104.896,59.892 103.972,57.648 102.832,55.54 C98.476,56.68 94.952,54.976 91.988,52.008 C89.024,49.048 88.116,45.524 89.256,41.164 C87.148,40.024 84.904,39.092 82.568,38.4 C80.296,42.28 76.188,44.86 72,44.86 C67.808,44.86 63.704,42.28 61.428,38.4 C59.088,39.092 56.852,40.024 54.744,41.164 C55.884,45.524 54.98,49.048 52.008,52.008 C49.048,54.976 45.524,56.68 41.164,55.54 C40.024,57.648 39.096,59.892 38.4,62.228 C42.28,64.5 44.86,67.804 44.86,72 C44.86,76.188 42.28,80.296 38.4,82.572 C39.1,84.908 40.024,87.148 41.164,89.26 C45.524,88.12 49.048,89.024 52.008,91.988 C54.972,94.956 55.884,98.48 54.744,102.832 C56.852,103.972 59.092,104.904 61.432,105.604 C63.704,101.712 67.812,99.136 72.004,99.136 C76.192,99.136 80.3,101.716 82.576,105.604 C84.912,104.9 87.152,103.972 89.264,102.832 C88.124,98.48 89.028,94.956 91.996,91.988 C94.96,89.028 98.484,87.324 102.84,88.456 C103.98,86.348 104.908,84.112 105.608,81.768 C101.716,79.492 99.132,76.188 99.132,72 Z M72,86.608 C63.928,86.608 57.388,80.068 57.388,72 C57.388,63.928 63.932,57.384 72,57.384 C80.072,57.384 86.608,63.932 86.608,72 C86.608,80.072 80.072,86.608 72,86.608 Z"/>
  </g>
</svg>
