<svg xmlns="http://www.w3.org/2000/svg" width="144" height="144" viewBox="0 0 144 144">
  <g fill="none" fill-rule="evenodd">
<path fill="#EFEFEF" fill-rule="nonzero" d="M44.716,55.992 C43.024,54.592 40.488,54.832 39.084,56.52 L33.976,62.676 C32.576,64.368 32.812,66.908 34.5,68.304 L66.052,94.472 L50.824,61.056 L44.716,55.992 Z M60.052,42.732 L52.772,46.048 C50.776,46.96 49.884,49.348 50.792,51.344 L67.792,88.644 L68.644,51.928 L65.356,44.712 C64.436,42.712 62.052,41.82 60.052,42.732 Z M88.844,43.548 C88.896,41.348 87.136,39.508 84.94,39.456 L76.94,39.272 C74.744,39.22 72.904,40.98 72.852,43.176 L71.896,84.148 L88.656,51.48 L88.844,43.548 Z M108.764,47.348 L101.648,43.696 C99.692,42.696 97.264,43.476 96.26,45.432 L70.696,95.256 C69.692,97.212 70.472,99.64 72.432,100.644 L79.548,104.296 C81.504,105.3 83.928,104.52 84.932,102.564 L110.496,52.74 C111.5,50.776 110.72,48.352 108.764,47.348 Z M83.196,97.172 C82.188,99.14 79.776,99.916 77.812,98.908 C75.844,97.9 75.072,95.492 76.08,93.524 C77.088,91.556 79.496,90.784 81.464,91.792 C83.432,92.796 84.204,95.208 83.196,97.172 Z"/>
  </g>
</svg>
