<svg xmlns="http://www.w3.org/2000/svg" width="144" height="144" viewBox="0 0 144 144">
  <g fill="none" fill-rule="evenodd">
<path fill="#EFEFEF" fill-rule="nonzero" d="M53.816,90.192 C53.816,90.192 72.088,87.684 79.888,79.888 C87.688,72.092 90.192,53.816 90.192,53.816 C90.192,53.816 71.916,56.324 64.12,64.12 C56.324,71.916 53.816,90.192 53.816,90.192 Z M68.068,68.06 C71.34,64.788 77.608,62.46 82.984,61.012 C81.54,66.38 79.204,72.692 75.944,75.94 C73.772,78.12 70.24,78.12 68.068,75.94 C65.888,73.768 65.888,70.24 68.068,68.06 Z M72.004,33.6 C50.792,33.6 33.6,50.792 33.6,72 C33.6,93.212 50.792,110.404 72.004,110.404 C93.208,110.404 110.404,93.212 110.404,72 C110.404,50.792 93.208,33.6 72.004,33.6 Z M72,102.4 C55.212,102.4 41.6,88.792 41.6,72 C41.6,55.212 55.208,41.6 72,41.6 C88.788,41.6 102.404,55.208 102.404,72 C102.404,88.788 88.788,102.4 72,102.4 Z"/>
  </g>
</svg>
