<svg xmlns="http://www.w3.org/2000/svg" width="144" height="144" viewBox="0 0 144 144">
  <g fill="none" fill-rule="evenodd">
<path fill="#EFEFEF" fill-rule="nonzero" d="M68.976,70.08 L40.164,50.284 C37.876,48.752 36,49.876 36,52.784 L36,91.22 C36,94.12 37.876,95.244 40.164,93.72 L68.976,73.916 C68.976,73.916 70.092,73.12 70.092,72.004 C70.092,70.884 68.976,70.08 68.976,70.08 Z M106.4,72.004 C106.4,73.12 105.284,73.916 105.284,73.916 L76.472,93.72 C74.184,95.244 72.308,94.12 72.308,91.22 L72.308,52.784 C72.308,49.876 74.184,48.752 76.472,50.284 L105.28,70.08 C105.28,70.08 106.4,70.884 106.4,72.004 Z"/>
  </g>
</svg>
