<svg xmlns="http://www.w3.org/2000/svg" width="144" height="144" viewBox="0 0 144 144">
  <g fill="none" fill-rule="evenodd">
<path fill="#EFEFEF" fill-rule="nonzero" d="M103.836,50.284 L75.024,70.08 C75.024,70.08 73.908,70.884 73.908,72.004 C73.908,73.124 75.024,73.92 75.024,73.92 L103.836,93.724 C106.124,95.244 108,94.12 108,91.22 L108,52.784 C108,49.876 106.124,48.752 103.836,50.284 Z M67.532,50.284 L38.72,70.08 C38.72,70.08 37.604,70.884 37.604,72.004 C37.604,73.124 38.72,73.92 38.72,73.92 L67.532,93.724 C69.82,95.248 71.696,94.124 71.696,91.224 L71.696,52.784 C71.696,49.876 69.82,48.752 67.532,50.284 Z"/>
  </g>
</svg>
