<svg xmlns="http://www.w3.org/2000/svg" width="144" height="144" viewBox="0 0 144 144">
  <g fill="none" fill-rule="evenodd">
<path fill="#EFEFEF" fill-rule="nonzero" d="M76,32 L44,32 C41.788,32 40,33.788 40,36 L40,84 C40,86.208 41.788,88 44,88 L64,88 L64,96 L72,96 L72,88 L64.004,88 L64.004,80 L72,80 L72,72 L64,72 L64,80 L48,80 L48,40 L72,40 L72,56 L80,56 L80,36 C80,33.792 78.212,32 76,32 Z M64,60 L64,64 L72,64 L72,56 L68,56 C65.788,56 64,57.788 64,60 Z M80,112 L88,112 L88,104 L80,104 L80,112 Z M80,64 L88,64 L88,56 L80,56 L80,64 Z M64,108 C64,110.208 65.788,112 68,112 L72,112 L72,104 L64,104 L64,108 Z M100,56 L96,56 L96,64 L104,64 L104,60 C104,57.792 102.212,56 100,56 Z M96,112 L100,112 C102.212,112 104,110.208 104,108 L104,104 L96,104 L96,112 Z M96,80 L104,80 L104,72 L96,72 L96,80 Z M96,96 L104,96 L104,88 L96,88 L96,96 Z"/>
  </g>
</svg>
