<svg xmlns="http://www.w3.org/2000/svg" width="144" height="144" viewBox="0 0 144 144">
  <g fill="none" fill-rule="evenodd">
<path fill="#EFEFEF" fill-rule="nonzero" d="M82.4,44 C74.536,44 67.44,47.252 62.352,52.476 C60.816,52.164 59.228,52 57.6,52 C44.344,52 33.6,62.744 33.6,76 C33.6,89.256 44.344,100 57.6,100 L82.4,100 C97.864,100 110.4,87.464 110.4,72 C110.4,56.536 97.864,44 82.4,44 Z M57.6,94.912 C52.548,94.912 47.8,92.944 44.224,89.372 C40.656,85.8 38.688,81.048 38.688,76 C38.688,70.952 40.656,66.2 44.228,62.628 C47.8,59.056 52.548,57.088 57.6,57.088 C62.652,57.088 67.4,59.056 70.976,62.628 L78.472,70.128 C79.564,71.22 79.564,72.992 78.472,74.088 C77.376,75.184 75.6,75.18 74.512,74.088 L67.016,66.584 C61.984,61.56 53.22,61.56 48.188,66.584 C45.672,69.104 44.288,72.444 44.288,76 C44.288,79.556 45.672,82.896 48.188,85.416 C51.328,88.552 55.92,89.728 60.152,88.952 C61.448,90.648 62.908,92.212 64.552,93.572 C62.364,94.436 60.02,94.912 57.6,94.912 Z M98.756,88.356 C94.384,92.724 88.576,95.132 82.4,95.132 C76.22,95.132 70.412,92.724 66.04,88.356 L55.204,77.52 C54.112,76.428 54.112,74.652 55.204,73.56 C56.296,72.468 58.072,72.468 59.164,73.56 L70,84.396 C73.312,87.708 77.716,89.532 82.4,89.532 C87.084,89.532 91.484,87.708 94.796,84.396 C98.108,81.084 99.932,76.68 99.932,72 C99.932,67.32 98.108,62.916 94.796,59.604 C91.484,56.292 87.084,54.468 82.4,54.468 C78.908,54.468 75.572,55.488 72.728,57.376 C71.204,56.14 69.52,55.1 67.724,54.26 C71.864,50.828 76.96,48.864 82.404,48.864 C88.58,48.864 94.388,51.272 98.76,55.64 C103.132,60.012 105.536,65.82 105.536,71.996 C105.536,78.172 103.128,83.988 98.756,88.356 Z"/>
  </g>
</svg>
