<svg xmlns="http://www.w3.org/2000/svg" width="144" height="144" viewBox="0 0 144 144">
  <g fill="none" fill-rule="evenodd">
<path fill="#EFEFEF" fill-rule="nonzero" d="M67.2,75.2 L71.6,77.6 C70.8,79.2 69.2,80.8 67.6,82 C66,83.2 64,83.6 62,83.6 C58.8,83.6 56,82.8 54,80.4 C52,78.4 51.2,75.6 51.2,72 C51.2,68.4 52.4,65.6 54.4,63.6 C56,61.6 58.8,60.4 62,60.4 C66.4,60.4 70,62 71.6,65.6 L66.8,68.4 C66,67.2 65.6,66.4 64.8,66 C64,65.6 63.2,65.6 62.8,65.6 C59.6,65.6 58,67.6 58,72 C58,74 58.4,75.6 59.2,76.8 C60,78 61.2,78.4 62.8,78.4 C64.8,78.4 66.4,77.6 67.2,75.2 Z M84,78.4 C82.4,78.4 81.2,78 80.4,76.8 C79.6,75.6 79.2,74 79.2,72 C79.2,67.6 80.8,65.6 84,65.6 C84.8,65.6 85.6,66 86,66.4 C86.8,66.8 87.6,67.6 88,68.8 L92.8,66.4 C90.8,62.8 87.6,61.2 83.2,61.2 C80,61.2 77.6,62.4 75.6,64.4 C73.6,66.4 72.4,69.2 72.4,72.8 C72.4,76.4 73.2,79.2 75.2,81.2 C77.2,83.2 80,84.4 83.2,84.4 C85.2,84.4 87.2,84 88.8,82.8 C90.4,81.6 92,80.4 92.8,78.4 L88,76 C87.6,77.6 86,78.4 84,78.4 Z M110.4,72 C110.4,82.8 106.8,91.6 99.6,98.8 C92,106.4 82.8,110.4 72,110.4 C61.6,110.4 52.4,106.8 44.8,99.2 C37.2,91.6 33.6,82.8 33.6,72 C33.6,61.6 37.2,52.4 44.8,44.8 C52.4,37.2 61.2,33.6 72,33.6 C82.8,33.6 92,37.2 99.2,44.8 C106.8,52 110.4,61.2 110.4,72 Z M103.6,72 C103.6,63.2 100.4,56 94.4,49.6 C88,43.6 80.8,40.4 72,40.4 C63.2,40.4 56,43.6 50,49.6 C43.6,56 40.4,63.6 40.4,72 C40.4,80.4 43.6,88 49.6,94 C56,100.4 63.2,103.2 72,103.2 C80.4,103.2 88,100 94.4,93.6 C100.4,88 103.6,80.8 103.6,72 Z"/>
  </g>
</svg>
