<svg xmlns="http://www.w3.org/2000/svg" width="144" height="144" viewBox="0 0 144 144">
  <g fill="none" fill-rule="evenodd">
<path fill="#EFEFEF" fill-rule="nonzero" d="M99.2,44.8 C92,37.2 82.8,33.6 72,33.6 C61.2,33.6 52.4,37.2 44.8,44.8 C37.2,52.4 33.6,61.6 33.6,72 C33.6,82.4 37.2,91.6 44.8,99.2 C52.4,106.8 61.2,110.4 72,110.4 C82.4,110.4 91.6,106.4 99.6,98.8 C106.8,91.6 110.4,82.4 110.4,72 C110.4,61.2 106.8,52 99.2,44.8 Z M94.4,94 C88,100.4 80.4,103.6 72,103.6 C63.6,103.6 56,100.4 49.6,94.4 C43.6,88 40.4,80.4 40.4,72 C40.4,63.6 43.6,56 50,49.6 C56,43.6 63.2,40.4 72,40.4 C80.8,40.4 88,43.6 94.4,49.6 C100.4,55.6 103.6,63.2 103.6,72 C103.6,80.8 100.4,88 94.4,94 Z M64.4,61.2 L54,61.2 L54,82.4 L59.2,82.4 L59.2,75.6 L63.2,75.6 C70.4,75.6 72,71.2 72,68.4 C72.4,64 70.4,61.2 64.4,61.2 Z M63.6,71.6 L59.2,71.6 L59.2,65.2 L63.6,65.2 C66,65.2 67.2,66.4 67.2,68.4 C67.2,70 66,71.6 63.6,71.6 Z M82,61.2 L73.6,61.2 L73.6,82.4 L82,82.4 C88.4,82.4 92.8,79.2 92.8,71.6 C92.8,64.4 88.4,61.2 82,61.2 Z M82,78 L78.8,78 L78.8,65.6 L82,65.6 C86,65.6 87.6,68.4 87.6,71.6 C87.6,75.2 86,78 82,78 Z"/>
  </g>
</svg>
