<svg xmlns="http://www.w3.org/2000/svg" width="144" height="144" viewBox="0 0 144 144">
  <g fill="none" fill-rule="evenodd">
<path fill="#EFEFEF" fill-rule="nonzero" d="M82.4,62.4 L82.4,78 L78,78 L78,96.4 L66,96.4 L66,78 L61.6,78 L61.6,62.4 C61.6,61.2 62.8,60 64,60 L80,60 C81.2,60 82.4,61.2 82.4,62.4 Z M72,58 C74.8,58 77.2,55.6 77.2,52.8 C77.2,50 74.8,47.6 72,47.6 C69.2,47.6 66.8,50 66.8,52.8 C66.8,55.6 69.2,58 72,58 Z M110.4,72 C110.4,82.8 106.8,91.6 99.6,98.8 C92,106.4 82.8,110.4 72,110.4 C61.6,110.4 52.4,106.8 44.8,99.2 C37.2,91.6 33.6,82.8 33.6,72 C33.6,61.6 37.2,52.4 44.8,44.8 C52.4,37.2 61.2,33.6 72,33.6 C82.8,33.6 92,37.2 99.2,44.8 C106.8,52 110.4,61.2 110.4,72 Z M103.6,72 C103.6,63.2 100.4,56 94.4,49.6 C88,43.6 80.8,40.4 72,40.4 C63.2,40.4 56,43.6 50,49.6 C43.6,56 40.4,63.6 40.4,72 C40.4,80.4 43.6,88 49.6,94 C55.6,100 63.2,103.2 72,103.2 C80.4,103.2 88,100 94.4,93.6 C100.4,88 103.6,80.8 103.6,72 Z"/>
  </g>
</svg>
