<svg xmlns="http://www.w3.org/2000/svg" width="144" height="144" viewBox="0 0 144 144">
  <g fill="none" fill-rule="evenodd">
<path fill="#EFEFEF" fill-rule="nonzero" d="M99.2,44.8 C92,37.2 82.8,33.6 72,33.6 C61.2,33.6 52.4,37.2 44.8,44.8 C37.2,52.4 33.6,61.6 33.6,72 C33.6,82.4 37.2,91.6 44.8,99.2 C52.4,106.8 61.2,110.4 72,110.4 C82.4,110.4 91.6,106.4 99.6,98.8 C106.8,91.6 110.4,82.4 110.4,72 C110.4,61.2 106.8,52 99.2,44.8 Z M94.4,94 C88,100.4 80.4,103.6 72,103.6 C63.6,103.6 56,100.4 49.6,94.4 C43.6,88 40.4,80.4 40.4,72 C40.4,63.6 43.6,56 50,49.6 C56,43.6 63.2,40.4 72,40.4 C80.8,40.4 88,43.6 94.4,49.6 C100.4,55.6 103.6,63.2 103.6,72 C103.6,80.8 100.4,88 94.4,94 Z M97.2,72.8 L89.6,69.6 L89.6,60 L66,50.4 L55.6,54.8 L55.6,65.6 L55.6,65.6 L46.4,69.6 L46.4,79.6 L56.4,84 L66.4,80 L66.8,80 L86.8,88.4 L87.2,88.4 L87.6,88.4 L96.8,84.4 L97.6,84 L97.6,73.2 L97.2,72.8 Z M86.4,85.2 L86.4,85.2 L86.4,85.2 L68.8,78 L68.8,71.2 L86.4,78.4 L86.4,78.8 L86.4,78.8 L86.4,85.2 Z M87.2,76.4 L81.6,74 L88,71.6 L93.6,74 L87.2,76.4 Z M95.6,82.4 L88.8,85.2 L88.8,78.4 L95.6,75.6 L95.6,82.4 Z"/>
  </g>
</svg>
