<svg xmlns="http://www.w3.org/2000/svg" width="144" height="144" viewBox="0 0 144 144">
  <g fill="none" fill-rule="evenodd">
<path fill="#EFEFEF" fill-rule="nonzero" d="M99.2,44.8 C92,37.2 82.8,33.6 72,33.6 C61.2,33.6 52.4,37.2 44.8,44.8 C37.2,52.4 33.6,61.6 33.6,72 C33.6,82.4 37.2,91.6 44.8,99.2 C52.4,106.8 61.2,110.4 72,110.4 C82.4,110.4 91.6,106.4 99.6,98.8 C106.8,91.6 110.4,82.4 110.4,72 C110.4,61.6 106.8,52 99.2,44.8 Z M94.4,94 C88,100.4 80.4,103.6 72,103.6 C63.6,103.6 56,100.4 49.6,94.4 C43.6,88 40.4,80.4 40.4,72 C40.4,68.4 40.8,64.8 42,61.6 L61.6,70.4 C63.6,71.2 65.6,72 67.6,73.2 L72,75.2 L75.6,76.8 C76.4,77.2 76.8,78 76.8,79.2 C76.8,82 74.4,83.2 72,83.2 C68.4,83.2 66,82 63.6,79.6 L58.4,84.8 C61.6,87.6 65.6,89.2 70,89.2 L70,95.2 L74.4,95.2 L74.4,89.2 C79.6,88.8 84,85.6 84.8,80.8 L99.2,87.2 C98.4,89.6 96.4,92 94.4,94 Z M82.8,71.6 C80.8,70.8 78.8,70 76.8,68.8 L73.6,67.2 L68.4,65.2 C68.4,64.8 68,64.4 68,64 C68,61.6 70.8,61.2 72.8,61.2 C75.2,61.2 77.6,62 79.2,63.6 L84.4,58.4 C81.2,56 77.6,55.2 74.8,54.8 L74.8,48.8 L70.4,48.8 L70.4,54.8 C65.6,54.8 61.6,57.2 60.4,61.6 L45.6,54.8 C46.8,52.8 48.4,51.2 50,49.6 C56,43.6 63.2,40.4 72,40.4 C80.8,40.4 88,43.6 94.4,49.6 C100.4,55.6 103.6,63.2 103.6,72 C103.6,74.8 103.2,77.6 102.8,80.4 L82.8,71.6 Z"/>
  </g>
</svg>
