<svg xmlns="http://www.w3.org/2000/svg" width="144" height="144" viewBox="0 0 144 144">
  <g fill="none" fill-rule="evenodd">
<path fill="#EFEFEF" fill-rule="nonzero" d="M99.2,44.8 C92,37.2 82.8,33.6 72,33.6 C61.2,33.6 52.4,37.2 44.8,44.8 C37.2,52.4 33.6,61.6 33.6,72 C33.6,82.4 37.2,91.6 44.8,99.2 C52.4,106.8 61.2,110.4 72,110.4 C82.4,110.4 91.6,106.4 99.6,98.8 C106.8,91.6 110.4,82.4 110.4,72 C110.4,61.2 106.8,52 99.2,44.8 Z M94.4,94 C88,100.4 80.4,103.6 72,103.6 C63.6,103.6 56,100.4 49.6,94.4 C43.6,88 40.4,80.4 40.4,72 C40.4,68.4 40.8,64.8 42,61.6 L52,66 L51.6,66 L51.6,70.4 L55.2,70.4 C55.2,71.2 55.2,71.6 55.2,72.4 L55.2,73.6 L51.6,73.6 L51.6,78 L55.6,78 C56,81.6 57.6,84 59.2,86.4 C62.8,91.2 68.4,93.6 74.8,93.6 C78.8,93.6 82.8,92.4 84.8,91.2 L83.2,84 C82,84.8 78.8,85.6 76,85.6 C72.8,85.6 69.6,84.8 67.6,82.4 C66.8,81.2 66,80 65.6,78 L80,78 L100,86.8 C98.4,89.6 96.4,92 94.4,94 Z M81.6,70.8 L82,70.8 L82,66.4 L71.2,66.4 L66.8,64.4 C67.2,63.6 67.6,62.8 68,62 C70,59.6 72.8,58.4 76,58.4 C78.8,58.4 81.6,59.2 83.2,60 L85.2,52.8 C82.8,51.6 79.6,50.8 75.6,50.8 C69.2,50.8 64,53.2 60.4,57.6 C59.6,58.4 58.8,59.6 58.4,60.4 L45.6,55.2 C46.8,53.2 48.4,51.6 50,50 C56,43.6 63.2,40.4 72,40.4 C80.8,40.4 88,43.6 94.4,49.6 C100.4,55.6 103.6,63.2 103.6,72 C103.6,74.8 103.2,77.6 102.8,80 L81.6,70.8 Z"/>
  </g>
</svg>
