<svg xmlns="http://www.w3.org/2000/svg" width="144" height="144" viewBox="0 0 144 144">
  <g fill="none" fill-rule="evenodd">
<path fill="#EFEFEF" fill-rule="nonzero" d="M104,44 L40,44 C35.596,44 32,47.6 32,52 L32,92 C32,96.4 35.596,100 40,100 L104,100 C108.4,100 112,96.4 112,92 L112,52 C112,47.6 108.4,44 104,44 Z M104,92 L40,92 L40,68 L104,68 L104,92 Z M104,56 L40,56 L40,52 L104,52 L104,56 Z M48,76.4 L48,78.8 L50.4,78.8 L50.4,76.4 L48,76.4 Z M62.4,81.196 L62.4,83.6 L67.2,83.6 L67.2,81.196 L69.6,81.196 L69.6,78.796 L72,78.796 L72,76.396 L67.2,76.396 L67.2,78.796 L64.796,78.796 L64.796,81.196 L62.4,81.196 Z M72,83.6 L72,81.196 L69.596,81.196 L69.596,83.6 L72,83.6 Z M60,83.6 L60,81.196 L55.2,81.196 L55.2,83.6 L60,83.6 Z M62.4,78.796 L64.8,78.796 L64.8,76.396 L60,76.396 L60,81.192 L62.4,81.192 L62.4,78.796 Z M52.796,81.196 L55.2,81.196 L55.2,78.796 L57.6,78.796 L57.6,76.396 L52.8,76.396 L52.8,78.796 L50.4,78.796 L50.4,81.196 L48,81.196 L48,83.6 L52.796,83.6 L52.796,81.196 Z"/>
  </g>
</svg>
