<svg xmlns="http://www.w3.org/2000/svg" width="144" height="144" viewBox="0 0 144 144">
  <g fill="none" fill-rule="evenodd">
<path fill="#EFEFEF" fill-rule="nonzero" d="M77,99.02 L77,108 L69,108 L69,99.428 C62.152,99.028 56.736,97.072 52.036,92.24 L58.908,85.28 C62.344,88.76 67,89.92 72.036,89.92 C78.296,89.92 81.656,87.524 81.656,83.112 C81.656,81.18 81.124,79.556 79.976,78.472 C78.908,77.468 77.688,76.924 75.168,76.54 L68.6,75.612 C63.944,74.916 60.512,73.448 58.064,71.048 C55.472,68.42 54.172,64.864 54.172,60.22 C54.172,51.6 59.7,45.248 69,43.82 L69,36 L77,36 L77,43.728 C82.528,44.308 86.86,46.208 90.66,49.932 L83.944,56.66 C80.508,53.332 76.388,52.872 72.796,52.872 C67.148,52.872 64.4,56.04 64.4,59.832 C64.4,61.224 64.86,62.696 66.004,63.776 C67.072,64.784 68.828,65.632 71.044,65.94 L77.452,66.868 C82.416,67.564 85.544,68.956 87.836,71.12 C90.74,73.904 92.036,77.928 92.036,82.8 C92.036,91.8 85.768,97.448 77,99.02 Z"/>
  </g>
</svg>
