<svg xmlns="http://www.w3.org/2000/svg" width="144" height="144" viewBox="0 0 144 144">
  <g fill="none" fill-rule="evenodd">
<path fill="#EFEFEF" fill-rule="nonzero" d="M89.392,91.396 C87.516,93.272 84.476,93.272 82.604,91.396 L72,79.276 L61.396,91.392 C59.52,93.268 56.48,93.268 54.608,91.392 C52.732,89.516 52.732,86.476 54.608,84.604 L65.64,72.004 L54.604,59.396 C52.728,57.52 52.728,54.484 54.604,52.608 C56.48,50.732 59.516,50.732 61.392,52.608 L72,64.732 L82.604,52.608 C84.48,50.732 87.516,50.732 89.392,52.608 C91.268,54.484 91.268,57.524 89.392,59.396 L78.36,72.004 L89.392,84.604 C91.268,86.48 91.268,89.52 89.392,91.396 Z"/>
  </g>
</svg>
