<svg xmlns="http://www.w3.org/2000/svg" width="144" height="144" viewBox="0 0 144 144">
  <g fill="none" fill-rule="evenodd">
<path fill="#EFEFEF" fill-rule="nonzero" d="M109.26,72 L99.772,72 L99.772,71.18 C99.34,53.444 84.876,39.196 67.096,39.196 C49.036,39.196 34.4,53.884 34.4,72 C34.4,90.116 49.036,104.796 67.096,104.796 C74.688,104.796 81.676,102.196 87.228,97.844 L81.604,91.828 C77.54,94.82 72.524,96.6 67.096,96.6 C53.552,96.6 42.572,85.584 42.572,72 C42.572,58.416 53.552,47.4 67.096,47.4 C80.364,47.4 91.168,57.972 91.596,71.18 L91.596,72 L80.908,72 L94.884,87.576 L109.26,72 Z"/>
  </g>
</svg>
