<svg xmlns="http://www.w3.org/2000/svg" width="144" height="144" viewBox="0 0 144 144">
  <g fill="none" fill-rule="evenodd">
<path fill="#EFEFEF" fill-rule="nonzero" d="M54.064,88.896 C45.016,79.168 45.176,63.92 54.576,54.452 C58.424,50.576 63.232,48.264 68.232,47.508 L67.956,39.2 C60.936,40.052 54.148,43.184 48.768,48.604 C36.172,61.284 36.02,81.76 48.276,94.728 L41.312,101.736 L63.352,102.94 L63.292,79.604 L54.064,88.896 Z M80.652,41.06 L80.712,64.396 L89.94,55.108 C98.988,64.844 98.828,80.092 89.428,89.552 C85.584,93.428 80.772,95.74 75.772,96.496 L76.048,104.8 C83.068,103.948 89.856,100.816 95.24,95.4 C107.832,82.712 107.984,62.236 95.728,49.276 L102.692,42.26 L80.652,41.06 Z"/>
  </g>
</svg>
