<svg xmlns="http://www.w3.org/2000/svg" width="144" height="144" viewBox="0 0 144 144">
  <g fill="none" fill-rule="evenodd">
<path fill="#EFEFEF" fill-rule="nonzero" d="M98.904,82.564 C95.532,88.016 84.764,92.008 72,92.008 C59.236,92.008 48.468,88.016 45.092,82.564 C44.38,81.404 44,82.024 44,82.592 C44,83.168 44,90.6 44,90.6 C44,98.36 56.536,106.4 72,106.4 C87.464,106.4 100,98.36 100,90.604 C100,90.604 100,83.172 100,82.596 C100,82.024 99.616,81.404 98.904,82.564 Z M98.948,62.1 C95.628,66.92 84.82,70.46 72,70.46 C59.18,70.46 48.368,66.92 45.048,62.1 C44.364,61.108 44,61.648 44,62.092 C44,62.544 44,71.52 44,71.52 C44,78.568 56.536,84.276 72,84.276 C87.464,84.276 100,78.564 100,71.52 C100,71.52 100,62.544 100,62.092 C100,61.648 99.632,61.108 98.948,62.1 Z M72,36 C56.536,36 44,40.72 44,46.532 L44,51.572 C44,57.736 56.536,62.736 72,62.736 C87.464,62.736 100,57.736 100,51.572 L100,46.532 C100,40.72 87.464,36 72,36 Z"/>
  </g>
</svg>
