<svg xmlns="http://www.w3.org/2000/svg" width="144" height="144" viewBox="0 0 144 144">
  <g fill="none" fill-rule="evenodd">
<path fill="#EFEFEF" d="M56,32 L48,32 C45.792,32 44,33.792 44,36 L44,44 C44,46.208 45.792,48 48,48 L56,48 C58.208,48 60,46.208 60,44 L60,36 C60,33.792 58.208,32 56,32 Z M76,32 L68,32 C65.792,32 64,33.792 64,36 L64,44 C64,46.208 65.792,48 68,48 L76,48 C78.208,48 80,46.208 80,44 L80,36 C80,33.792 78.208,32 76,32 Z M96,32 L88,32 C85.792,32 84,33.792 84,36 L84,44 C84,46.208 85.792,48 88,48 L96,48 C98.208,48 100,46.208 100,44 L100,36 C100,33.792 98.208,32 96,32 Z M56,52 L48,52 C45.792,52 44,53.792 44,56 L44,64 C44,66.208 45.792,68 48,68 L56,68 C58.208,68 60,66.208 60,64 L60,56 C60,53.792 58.208,52 56,52 Z M76,52 L68,52 C65.792,52 64,53.792 64,56 L64,64 C64,66.208 65.792,68 68,68 L76,68 C78.208,68 80,66.208 80,64 L80,56 C80,53.792 78.208,52 76,52 Z M96,52 L88,52 C85.792,52 84,53.792 84,56 L84,64 C84,66.208 85.792,68 88,68 L96,68 C98.208,68 100,66.208 100,64 L100,56 C100,53.792 98.208,52 96,52 Z M56,72 L48,72 C45.792,72 44,73.792 44,76 L44,84 C44,86.208 45.792,88 48,88 L56,88 C58.208,88 60,86.208 60,84 L60,76 C60,73.792 58.208,72 56,72 Z M76,72 L68,72 C65.792,72 64,73.792 64,76 L64,84 C64,86.208 65.792,88 68,88 L76,88 C78.208,88 80,86.208 80,84 L80,76 C80,73.792 78.208,72 76,72 Z M76,96 L68,96 C65.792,96 64,97.792 64,100 L64,108 C64,110.208 65.792,112 68,112 L76,112 C78.208,112 80,110.208 80,108 L80,100 C80,97.792 78.208,96 76,96 Z M96,72 L88,72 C85.792,72 84,73.792 84,76 L84,84 C84,86.208 85.792,88 88,88 L96,88 C98.208,88 100,86.208 100,84 L100,76 C100,73.792 98.208,72 96,72 Z"/>
  </g>
</svg>
