<svg xmlns="http://www.w3.org/2000/svg" width="144" height="144" viewBox="0 0 144 144">
  <g fill="none" fill-rule="evenodd">
<path fill="#EFEFEF" fill-rule="nonzero" d="M108.592,61.66 L78.816,53.676 L73.604,34.232 C73.168,32.608 71.424,31.664 69.712,32.116 L33.408,41.844 C31.696,42.3 30.664,43.996 31.1,45.62 L44.02,93.824 C44.456,95.448 46.196,96.396 47.904,95.932 L62.356,92.064 L60.388,99.416 C59.952,101.04 60.984,102.736 62.696,103.188 L95.136,111.884 C96.848,112.344 98.584,111.4 99.024,109.768 L110.904,65.432 C111.336,63.808 110.304,62.112 108.592,61.66 Z M37.532,46.524 L68.852,38.14 L80.444,81.412 L49.124,89.796 L37.532,46.524 Z M93.712,105.852 L66.456,98.4 L68.6,90.392 L84.204,86.204 C85.916,85.752 86.956,84.056 86.516,82.432 L80.484,59.924 L104.272,66.448 L93.712,105.852 Z"/>
  </g>
</svg>
