<svg xmlns="http://www.w3.org/2000/svg" width="144" height="144" viewBox="0 0 144 144">
  <g fill="none" fill-rule="evenodd">
<path fill="#EFEFEF" fill-rule="nonzero" d="M72.004,63.2 C67.144,63.2 63.2,67.14 63.2,72 C63.2,76.86 67.144,80.8 72.004,80.8 C76.864,80.8 80.8,76.86 80.8,72 C80.8,67.14 76.864,63.2 72.004,63.2 Z M72.004,52.8 C76.864,52.8 80.8,48.856 80.8,44 C80.8,39.144 76.864,35.2 72.004,35.2 C67.144,35.2 63.2,39.14 63.2,44 C63.2,48.86 67.144,52.8 72.004,52.8 Z M72.004,91.2 C67.144,91.2 63.2,95.14 63.2,100 C63.2,104.86 67.144,108.8 72.004,108.8 C76.864,108.8 80.8,104.86 80.8,100 C80.8,95.14 76.864,91.2 72.004,91.2 Z"/>
  </g>
</svg>
