<svg xmlns="http://www.w3.org/2000/svg" width="144" height="144" viewBox="0 0 144 144">
  <g fill="none" fill-rule="evenodd">
<path fill="#EFEFEF" fill-rule="nonzero" d="M72.004,63.2 C67.144,63.2 63.2,67.14 63.2,72 C63.2,76.86 67.144,80.8 72.004,80.8 C76.864,80.8 80.8,76.86 80.8,72 C80.8,67.14 76.864,63.2 72.004,63.2 Z M44.004,63.2 C39.144,63.2 35.2,67.14 35.2,72 C35.2,76.86 39.144,80.8 44.004,80.8 C48.864,80.8 52.8,76.856 52.8,72 C52.8,67.144 48.864,63.2 44.004,63.2 Z M100.004,63.2 C95.144,63.2 91.2,67.14 91.2,72 C91.2,76.86 95.144,80.8 100.004,80.8 C104.864,80.8 108.8,76.86 108.8,72 C108.8,67.14 104.864,63.2 100.004,63.2 Z"/>
  </g>
</svg>
