<svg xmlns="http://www.w3.org/2000/svg" width="144" height="144" viewBox="0 0 144 144">
  <g fill="none" fill-rule="evenodd">
<path fill="#EFEFEF" fill-rule="nonzero" d="M91,60 L79,60 L79,36 L63,36 L63,60 L51,60 L71,80 L91,60 Z M108.352,86.128 C107.512,85.232 101.908,79.236 100.308,77.672 C99.248,76.636 97.732,76 96.14,76 L89.112,76 L101.368,87.976 L87.192,87.976 C86.784,87.976 86.416,88.184 86.232,88.508 L82.968,96 L59.032,96 L55.768,88.508 C55.584,88.184 55.212,87.976 54.808,87.976 L40.632,87.976 L52.884,76 L45.86,76 C44.272,76 42.756,76.636 41.692,77.672 C40.092,79.24 34.488,85.236 33.648,86.128 C31.692,88.212 30.616,89.872 31.128,91.924 L33.372,104.22 C33.884,106.276 36.136,107.964 38.38,107.964 L103.628,107.964 C105.872,107.964 108.124,106.276 108.636,104.22 L110.88,91.924 C111.384,89.872 110.312,88.212 108.352,86.128 Z"/>
  </g>
</svg>
