<svg xmlns="http://www.w3.org/2000/svg" width="144" height="144" viewBox="0 0 144 144">
  <g fill="none" fill-rule="evenodd">
<path fill="#EFEFEF" fill-rule="nonzero" d="M73.04,71.928 C73.172,71.88 73.312,71.844 73.452,71.804 C73.12,71.064 72.752,70.296 72.336,69.468 C64.816,71.696 57.616,71.716 56.332,71.696 C56.32,71.796 56.32,71.9 56.32,72 C56.32,75.78 57.68,79.412 60.152,82.264 C60.976,80.936 65.344,74.42 73.04,71.928 Z M62.492,84.452 C65.248,86.564 68.54,87.68 72,87.68 C74.068,87.68 76.076,87.28 77.976,86.5 C77.712,84.976 76.796,80.336 74.688,74.812 C66.204,77.812 63,83.46 62.492,84.452 Z M82.22,60.108 C79.376,57.664 75.752,56.32 72,56.32 C70.864,56.32 69.724,56.444 68.6,56.696 C69.42,57.796 71.928,61.28 74.284,65.588 C79.416,63.616 81.736,60.772 82.22,60.108 Z M70.82,66.656 C68.388,62.368 65.856,58.836 65.16,57.892 C60.892,59.96 57.752,63.916 56.708,68.524 L56.776,68.524 C58.4,68.524 64.172,68.392 70.82,66.656 Z M78.056,73.984 C79.916,79.156 80.772,83.452 81.016,84.828 C84.424,82.428 86.752,78.744 87.452,74.656 C86.756,74.444 84.244,73.772 81.084,73.772 C80.052,73.772 79.032,73.844 78.056,73.984 Z M72,33.6 C50.792,33.6 33.6,50.792 33.6,72 C33.6,93.208 50.792,110.4 72,110.4 C93.208,110.4 110.4,93.208 110.4,72 C110.4,50.792 93.208,33.6 72,33.6 Z M72,90.788 C61.632,90.788 53.204,82.36 53.204,72 C53.204,61.632 61.632,53.204 72,53.204 C82.364,53.204 90.792,61.636 90.792,72 C90.792,82.36 82.364,90.788 72,90.788 Z M75.688,68.296 C76.036,69.016 76.36,69.724 76.656,70.42 C76.748,70.648 76.848,70.872 76.94,71.1 C78.048,70.968 79.232,70.904 80.468,70.904 C83.884,70.904 86.72,71.404 87.672,71.592 C87.584,68.192 86.38,64.888 84.264,62.232 C83.624,63.056 80.992,66.084 75.688,68.296 Z"/>
  </g>
</svg>
