<svg xmlns="http://www.w3.org/2000/svg" width="144" height="144" viewBox="0 0 144 144">
  <g fill="none" fill-rule="evenodd">
<path fill="#EFEFEF" fill-rule="nonzero" d="M70.26,61.684 C64.828,52.028 59.016,44.152 58.592,43.572 C49.828,47.716 43.288,55.792 41.244,65.52 C42.068,65.536 55.172,65.692 70.26,61.684 Z M74.172,72.244 C74.58,72.112 74.996,71.988 75.408,71.868 C74.62,70.08 73.76,68.288 72.86,66.524 C56.676,71.372 41.148,71.02 40.6,71.004 C40.588,71.34 40.572,71.668 40.572,72.004 C40.572,80.08 43.624,87.448 48.636,93.012 L48.616,92.988 C48.616,92.988 57.216,77.732 74.172,72.244 Z M52.684,96.776 L52.684,96.76 C52.452,96.58 52.204,96.416 51.972,96.22 C52.396,96.56 52.684,96.776 52.684,96.776 Z M92.756,48.416 C87.22,43.544 79.96,40.572 72,40.572 C69.444,40.572 66.968,40.884 64.592,41.456 C65.072,42.096 70.972,49.932 76.344,59.792 C88.192,55.356 92.668,48.544 92.756,48.416 Z M72,108.8 C51.68,108.8 35.204,92.324 35.204,72.004 C35.2,51.676 51.676,35.2 72,35.2 C92.328,35.2 108.8,51.676 108.8,72.004 C108.8,92.324 92.328,108.8 72,108.8 Z M77.344,77.144 C58.9,83.572 52.808,96.496 52.684,96.76 C58.02,100.924 64.708,103.424 71.996,103.424 C76.348,103.424 80.496,102.54 84.264,100.94 C83.8,98.184 81.972,88.556 77.548,77.072 C77.484,77.096 77.416,77.12 77.344,77.144 Z M78.76,64.48 C79.496,65.972 80.192,67.496 80.852,69.036 C81.088,69.576 81.308,70.124 81.532,70.66 C92.384,69.292 103.072,71.612 103.424,71.684 C103.348,64.232 100.68,57.396 96.276,52.036 C96.204,52.128 91.16,59.408 78.76,64.48 Z M83.444,75.62 C87.568,86.964 89.24,96.188 89.56,98.064 C96.616,93.3 101.632,85.744 103.028,76.984 C102.404,76.784 93.604,73.996 83.444,75.62 Z"/>
  </g>
</svg>
