<svg xmlns="http://www.w3.org/2000/svg" width="144" height="144" viewBox="0 0 144 144">
  <g fill="none" fill-rule="evenodd">
<path fill="#EFEFEF" fill-rule="nonzero" d="M102.152,42.556 C103.728,40.376 104,36 104,36 L40,36 C40,36 40.272,40.376 41.848,42.556 L68,76 L68,100 L60,100 C52,100 52,108 52,108 L92,108 C92,108 92,100 84,100 L76,100 L76,76 L102.152,42.556 Z M69.6,56 C69.6,52.46 72.464,49.6 76,49.6 C79.536,49.6 82.4,52.46 82.4,56 C82.4,59.532 79.536,62.4 76,62.4 C72.464,62.4 69.6,59.532 69.6,56 Z"/>
  </g>
</svg>
