<svg xmlns="http://www.w3.org/2000/svg" width="144" height="144" viewBox="0 0 144 144">
  <g fill="none" fill-rule="evenodd">
<path fill="#EFEFEF" fill-rule="nonzero" d="M56.436,35.608 L33.6,49.828 L49.244,62.944 L72,48.172 L56.436,35.608 Z M85.808,95.968 C85.4,95.968 84.996,95.836 84.668,95.56 L72,85.048 L59.332,95.564 C59.004,95.836 58.596,95.972 58.192,95.972 C57.852,95.972 57.512,95.88 57.216,95.684 L47.832,89.552 L47.832,93.168 L72,108.392 L96.168,93.164 L96.168,89.548 L86.784,95.68 C86.488,95.876 86.148,95.968 85.808,95.968 Z M110.4,49.828 L87.56,35.608 L72,48.172 L94.752,62.944 L110.4,49.828 Z M72,77.164 L86.112,88.876 L108.676,74.124 L94.752,62.944 L72,77.164 Z M57.888,88.876 L72,77.164 L49.244,62.944 L35.324,74.124 L57.888,88.876 Z"/>
  </g>
</svg>
