<svg xmlns="http://www.w3.org/2000/svg" width="144" height="144" viewBox="0 0 144 144">
  <g fill="none" fill-rule="evenodd">
<path fill="#EFEFEF" fill-rule="nonzero" d="M72.812,34.244 C72.704,33.384 71.292,33.384 71.188,34.244 C67.656,62.672 49.596,68.532 49.596,88.292 C49.596,100.504 59.852,110.4 72,110.4 C84.144,110.4 94.4,100.5 94.4,88.292 C94.4,68.532 76.344,62.672 72.812,34.244 Z M69.4,65.672 C69.164,66.548 68.908,67.448 68.644,68.384 C67.04,74.08 65.22,80.54 65.22,88.008 C65.22,92.056 62.828,93.492 60.596,93.492 C58.04,93.492 55.972,91.4 55.972,88.828 C55.972,80 60.22,74.232 63.972,69.148 C65.152,67.556 66.26,66.048 67.16,64.548 C67.572,63.86 68.68,63.892 69.184,64.572 C69.42,64.892 69.5,65.3 69.4,65.672 Z"/>
  </g>
</svg>
