<svg xmlns="http://www.w3.org/2000/svg" width="144" height="144" viewBox="0 0 144 144">
  <g fill="none" fill-rule="evenodd">
<path fill="#EFEFEF" fill-rule="nonzero" d="M102.244,41.756 C96.476,35.984 92.144,36.848 92.144,36.848 L67.936,61.056 L40.84,88.148 L36.8,107.196 L55.852,103.156 L82.948,76.072 L107.156,51.864 C107.152,51.864 108.02,47.532 102.244,41.756 Z M54.72,100.868 L48.224,102.268 C47.6,101.096 46.844,99.924 45.464,98.54 C44.08,97.156 42.908,96.408 41.736,95.776 L43.136,89.284 L45.016,87.408 C45.016,87.408 48.548,87.48 52.54,91.472 C56.528,95.456 56.604,98.996 56.604,98.996 L54.72,100.868 Z"/>
  </g>
</svg>
