<svg xmlns="http://www.w3.org/2000/svg" width="144" height="144" viewBox="0 0 144 144">
  <g fill="none" fill-rule="evenodd">
<path fill="#EFEFEF" fill-rule="nonzero" d="M90.432,80.688 C90.432,84.048 91.388,85.388 93.888,85.388 C99.46,85.388 103.008,78.288 103.008,66.48 C103.008,48.432 89.856,39.792 73.436,39.792 C56.544,39.792 41.18,51.12 41.18,72.528 C41.18,92.976 54.62,104.112 75.26,104.112 C82.268,104.112 86.972,103.344 94.168,100.944 L95.712,107.372 C88.608,109.68 81.016,110.348 75.164,110.348 C48.092,110.348 33.592,95.468 33.592,72.524 C33.592,49.388 50.396,33.644 73.532,33.644 C97.628,33.644 110.392,48.044 110.392,65.708 C110.392,80.684 105.692,92.108 90.908,92.108 C84.184,92.108 79.772,89.42 79.196,83.464 C77.468,90.088 72.86,92.108 66.616,92.108 C58.264,92.108 51.256,85.672 51.256,72.716 C51.256,59.66 57.404,51.596 68.444,51.596 C74.3,51.596 77.948,53.9 79.572,57.548 L82.36,52.46 L90.424,52.46 L90.424,80.688 L90.432,80.688 Z M78.628,68.016 C78.628,62.74 74.688,60.528 71.424,60.528 C67.872,60.528 63.94,63.404 63.94,71.856 C63.94,78.576 66.916,82.32 71.424,82.32 C74.592,82.32 78.628,80.304 78.628,74.736 L78.628,68.016 Z"/>
  </g>
</svg>
