<svg xmlns="http://www.w3.org/2000/svg" width="144" height="144" viewBox="0 0 144 144">
  <g fill="none" fill-rule="evenodd">
<path fill="#EFEFEF" fill-rule="nonzero" d="M72,33.6 C50.792,33.6 33.6,50.792 33.6,72 C33.6,93.208 50.792,110.4 72,110.4 C93.204,110.4 110.4,93.208 110.4,71.996 C110.4,50.792 93.204,33.6 72,33.6 Z M72,102.396 C55.212,102.396 41.6,88.788 41.6,71.996 C41.6,55.204 55.208,41.6 72,41.6 C88.788,41.6 102.404,55.208 102.404,72 C102.404,88.792 88.788,102.396 72,102.396 Z M62.004,71 C65.316,71 68,67.868 68,64 C68,60.132 65.312,57 62,57 C58.688,57 56,60.132 56,64 C56,67.868 58.688,71 62.004,71 Z M82,71 C85.316,71 88,67.868 88,64 C88,60.132 85.312,57 82,57 C78.688,57 76,60.136 76,64 C76,67.864 78.688,71 82,71 Z M89.364,77.344 C87.912,76.6 86.104,77.172 85.332,78.624 C85.196,78.888 81.856,84.996 72.004,84.996 C62.2,84.996 58.84,78.944 58.672,78.628 C57.92,77.168 56.144,76.572 54.656,77.312 C53.176,78.056 52.576,79.856 53.316,81.34 C53.516,81.736 58.308,90.996 72.004,90.996 C85.704,90.996 90.488,81.732 90.684,81.336 C91.42,79.868 90.828,78.096 89.364,77.344 Z"/>
  </g>
</svg>
