<svg xmlns="http://www.w3.org/2000/svg" width="144" height="144" viewBox="0 0 144 144">
  <g fill="none" fill-rule="evenodd">
<path fill="#EFEFEF" fill-rule="nonzero" d="M72,33.6 C50.792,33.6 33.6,50.792 33.6,72 C33.6,93.208 50.792,110.4 72,110.4 C93.204,110.4 110.4,93.208 110.4,71.996 C110.4,50.792 93.204,33.6 72,33.6 Z M72,102.396 C55.212,102.396 41.6,88.788 41.6,71.996 C41.6,55.208 55.208,41.596 72,41.596 C88.788,41.596 102.4,55.204 102.4,71.996 C102.4,88.788 88.788,102.396 72,102.396 Z M82,57.004 C78.688,57.004 76,60.136 76,64 C76,67.864 78.688,71 82,71 C85.316,71 88,67.868 88,64 C88,60.132 85.316,57.004 82,57.004 Z M62.004,71 C65.316,71 68,67.868 68,64 C68,60.132 65.312,57 62,57 C58.688,57 56,60.132 56,64 C56,67.868 58.688,71 62.004,71 Z M84,81 L60,81 C58.344,81 57,82.344 57,84 C57,85.656 58.344,87 60,87 L84,87 C85.656,87 87,85.656 87,84 C87,82.34 85.66,81 84,81 Z"/>
  </g>
</svg>
