<svg xmlns="http://www.w3.org/2000/svg" width="144" height="144" viewBox="0 0 144 144">
  <g fill="none" fill-rule="evenodd">
<path fill="#EFEFEF" fill-rule="nonzero" d="M62,71 C65.316,71 68,67.868 68,64 C68,60.132 65.316,57 62,57 C58.684,57 56,60.136 56,64 C56,67.864 58.688,71 62,71 Z M72,33.6 C50.792,33.6 33.6,50.792 33.6,72 C33.6,93.208 50.792,110.4 72,110.4 C93.204,110.4 110.4,93.208 110.4,71.996 C110.4,50.792 93.204,33.6 72,33.6 Z M72,102.396 C55.212,102.396 41.6,88.788 41.6,71.996 C41.6,55.208 55.208,41.596 72,41.596 C88.792,41.596 102.4,55.208 102.4,72 C102.4,88.788 88.788,102.396 72,102.396 Z M89.364,77.344 C87.912,76.596 86.104,77.172 85.332,78.624 C85.196,78.884 81.856,84.996 72.004,84.996 C62.2,84.996 58.84,78.944 58.672,78.628 C57.92,77.168 56.144,76.572 54.656,77.312 C53.176,78.052 52.572,79.856 53.316,81.34 C53.516,81.736 58.308,90.996 72.004,90.996 C85.704,90.996 90.488,81.732 90.684,81.336 C91.42,79.868 90.828,78.096 89.364,77.344 Z M77,67 L87,67 C88.656,67 90,65.656 90,64 C90,62.344 88.656,61 87,61 L77,61 C75.344,61 74,62.344 74,64 C74,65.66 75.344,67 77,67 Z"/>
  </g>
</svg>
