<svg xmlns="http://www.w3.org/2000/svg" width="144" height="144" viewBox="0 0 144 144">
  <g fill="none" fill-rule="evenodd">
<path fill="#EFEFEF" fill-rule="nonzero" d="M72.004,33.6 C50.792,33.6 33.6,50.792 33.6,72 C33.6,93.212 50.792,110.404 72.004,110.404 C93.208,110.404 110.404,93.212 110.404,72 C110.4,50.792 93.204,33.6 72.004,33.6 Z M72,102.396 C55.212,102.396 41.6,88.788 41.6,71.996 C41.6,55.208 55.208,41.596 72,41.596 C88.788,41.596 102.4,55.204 102.4,71.996 C102.4,88.788 88.788,102.396 72,102.396 Z M82.004,71 C85.316,71 88.004,67.868 88.004,64 C88.004,60.132 85.316,57 82.004,57 C78.692,57 76.004,60.132 76.004,64 C76.004,67.868 78.688,71 82.004,71 Z M62.004,71 C65.316,71 68.004,67.868 68.004,64 C68.004,60.132 65.316,57 62.004,57 C58.692,57 56.004,60.132 56.004,64 C56.004,67.868 58.688,71 62.004,71 Z M72.008,77 C58.312,77 53.52,86.26 53.32,86.656 C52.576,88.14 53.18,89.94 54.66,90.684 C55.092,90.896 55.548,91 56,91 C57.1,91 58.16,90.396 58.688,89.344 C58.72,89.276 61.976,83 72.008,83 C81.86,83 85.2,89.108 85.32,89.34 C86.056,90.82 87.86,91.432 89.344,90.684 C90.828,89.948 91.428,88.14 90.688,86.66 C90.492,86.264 85.704,77 72.008,77 Z"/>
  </g>
</svg>
