<svg xmlns="http://www.w3.org/2000/svg" width="144" height="144" viewBox="0 0 144 144">
  <g fill="none" fill-rule="evenodd">
<path fill="#EFEFEF" fill-rule="nonzero" d="M99.992,48.72 L87.376,39.02 C83.888,36.336 78.836,36.996 76.148,40.48 L42.548,84.068 C39.864,87.552 40.52,92.596 44.008,95.28 L56.62,104.98 C60.108,107.664 65.16,107.004 67.848,103.52 L101.452,59.932 C104.136,56.448 103.48,51.404 99.992,48.72 Z M66.192,97.868 L64.044,100.592 C63.436,101.38 62.504,101.832 61.488,101.832 C60.992,101.832 60.252,101.716 59.548,101.176 L46.936,91.476 C46.264,90.96 45.836,90.208 45.724,89.356 C45.612,88.504 45.836,87.668 46.352,87 L48.5,84.276 C49.108,83.488 50.04,83.032 51.06,83.032 C51.556,83.032 52.296,83.148 53,83.688 L65.616,93.388 C66.288,93.904 66.716,94.656 66.828,95.508 C66.932,96.36 66.708,97.196 66.192,97.868 Z"/>
  </g>
</svg>
