<svg xmlns="http://www.w3.org/2000/svg" width="144" height="144" viewBox="0 0 144 144">
  <g fill="none" fill-rule="evenodd">
<path fill="#EFEFEF" fill-rule="nonzero" d="M103,44 L64.784,44 C63.024,44 60.5,44.944 59.176,46.1 L31.992,69.892 C30.668,71.048 30.668,72.948 31.992,74.104 L59.176,97.892 C60.5,99.048 63.024,100 64.784,100 L103,100 C107.4,100 111,96.4 111,92 L111,52 C111,47.6 107.4,44 103,44 Z M91.764,88 L81.536,77.772 L71.312,88 L65.54,82.228 L75.764,72 L65.54,61.772 L71.312,56 L81.54,66.22 L91.76,56 L97.536,61.772 L87.312,72 L97.54,82.22 L91.764,88 Z"/>
  </g>
</svg>
