<svg xmlns="http://www.w3.org/2000/svg" width="144" height="144" viewBox="0 0 144 144">
  <g fill="none" fill-rule="evenodd">
<path fill="#EFEFEF" fill-rule="nonzero" d="M101.2,50.2 C101.2,45.4 94.4,45 94.4,45 L78,43.8 C78,43.8 77.6,39.4 74.4,37.8 C71.2,36.6 67.6,37 65.2,37 C62.4,37 62,40.6 62,43.4 C62,46.6 62,50.2 62,52.2 C62,56.2 60.4,57.8 55.6,57.8 L46.4,57.8 C44,57.8 42,58.2 42,60.2 C42,62.2 45.2,80.2 49.2,84.2 C51.6,86.6 66.4,88.2 69.6,88.2 C72.8,88.2 71.6,79 72.4,79 C73.2,79 74.4,84.2 79.2,85.4 C84,86.6 90.8,86.2 91.2,89.8 C91.6,94.6 92,100.2 89.2,100.6 L82.4,101 C77.6,100.6 78.8,95.4 81.2,95.4 C83.2,95.4 84.4,95.4 84.4,95.4 L84.8,89.8 C84.8,89.8 74,88.6 73.6,95.8 C73.2,102.6 74.4,105.4 75.2,106.2 C76,107 77.6,108.2 90.8,108.2 C108,109 101.2,55 101.2,50.2 Z M93.6,74.2 C93.2,75 90.4,73 88,73 C85.6,73 82.8,74.2 82,73.4 C81.2,72.6 82.4,65.4 87.2,65.4 C92,65.4 94.4,73.4 93.6,74.2 Z M53.2,51.4 C51.2,51.4 41.6,51.4 41.6,51.4 L55.6,37.8 C55.6,37.8 55.2,49 55.2,49.8 C55.2,50.6 54.8,51.4 53.2,51.4 Z"/>
  </g>
</svg>
