<svg xmlns="http://www.w3.org/2000/svg" width="144" height="144" viewBox="0 0 144 144">
  <g fill="none" fill-rule="evenodd">
<path fill="#EFEFEF" fill-rule="nonzero" d="M92,96 L40,96 L40,60 L50.38,60 C50.38,60 53.136,56.416 59.06,52 L36,52 C33.788,52 32,53.796 32,56 L32,100 C32,102.212 33.788,104 36,104 L96,104 C98.212,104 100,102.212 100,100 L100,85.016 L92,91.596 L92,96 Z M85.444,68.2 L85.444,82.404 L112,61.6 L85.444,41.604 L85.444,54.128 C53.2,54.128 53.2,86 53.2,86 C62.328,71.008 67.944,68.2 85.444,68.2 Z"/>
  </g>
</svg>
