<svg xmlns="http://www.w3.org/2000/svg" width="144" height="144" viewBox="0 0 144 144">
  <g fill="none" fill-rule="evenodd">
<path fill="#EFEFEF" fill-rule="nonzero" d="M106.085938,37.9104004 C104.527832,36.347412 101.992432,36.347168 100.429932,37.909912 L37.9140624,100.433838 C36.3515624,101.996338 36.3515624,104.531494 37.9145508,106.089844 C39.4770508,107.652588 42.0080568,107.652344 43.5705568,106.0896 L106.085693,43.5664064 C107.648682,42.0039064 107.648682,39.4729004 106.085938,37.9104004 Z M44.4335936,85.989258 L54.6708984,75.7553712 C54.392578,74.5429688 54.21875,73.2939452 54.21875,72 C54.21875,62.4843752 62.1796876,54.7656248 72,54.7656248 C73.1445312,54.7656248 74.2578124,54.8916012 75.3417968,55.0922848 L80.1503904,50.285644 C77.576172,49.868164 74.8769532,49.6015624 72,49.6015624 C45.7578124,49.6015624 32,68.9296876 32,72 C32,73.6938476 36.229492,80.3632812 44.4335936,85.989258 Z M99.580078,58.0185548 L89.3320312,68.263672 C89.607422,69.4697264 89.7773436,70.7138672 89.7773436,72 C89.7773436,81.5156248 81.8203124,89.2265624 72,89.2265624 C70.864258,89.2265624 69.760742,89.0996092 68.6845704,88.9023436 L63.868164,93.7167968 C66.4375,94.1323244 69.1308592,94.3984376 72,94.3984376 C98.2421876,94.3984376 112,75.0625 112,72 C112,70.3027344 107.775391,63.6406248 99.580078,58.0185548 Z"/>
  </g>
</svg>
