<svg xmlns="http://www.w3.org/2000/svg" width="144" height="144" viewBox="0 0 144 144">
  <g fill="none" fill-rule="evenodd">
<path fill="#EFEFEF" fill-rule="nonzero" d="M72,49.6 C45.756,49.6 32,68.928 32,72 C32,75.064 45.756,94.4 72,94.4 C98.24,94.4 112,75.064 112,72 C112,68.928 98.24,49.6 72,49.6 Z M72,89.228 C62.18,89.228 54.22,81.516 54.22,72 C54.22,62.484 62.18,54.764 72,54.764 C81.82,54.764 89.776,62.484 89.776,72 C89.776,81.516 81.82,89.228 72,89.228 Z M72,72 C70.372,70.212 74.652,63.384 72,63.384 C67.088,63.384 63.108,67.244 63.108,72 C63.108,76.756 67.088,80.616 72,80.616 C76.908,80.616 80.892,76.756 80.892,72 C80.892,69.812 73.384,73.516 72,72 Z"/>
  </g>
</svg>
