<svg xmlns="http://www.w3.org/2000/svg" width="144" height="144" viewBox="0 0 144 144">
  <g fill="none" fill-rule="evenodd">
<path fill="#EFEFEF" fill-rule="nonzero" d="M100,36 L44,36 C39.6,36 36,39.6 36,44 L36,100 C36,104.404 39.6,108 44,108 L72,108 L72,80 L64,80 L64,70.1 L72,70.1 L72,61.9 C72,53.244 76.848,47.164 87.064,47.164 L94.276,47.172 L94.276,57.592 L89.488,57.592 C85.512,57.592 84,60.576 84,63.344 L84,70.104 L94.272,70.104 L92,80 L84,80 L84,108 L100,108 C104.4,108 108,104.404 108,100 L108,44 C108,39.6 104.4,36 100,36 Z"/>
  </g>
</svg>
