<svg xmlns="http://www.w3.org/2000/svg" width="144" height="144" viewBox="0 0 144 144">
  <g fill="none" fill-rule="evenodd">
<path fill="#EFEFEF" fill-rule="nonzero" d="M72,33.6 C50.792,33.6 33.6,50.792 33.6,72 C33.6,93.208 50.792,110.4 72,110.4 C93.208,110.4 110.4,93.208 110.4,72 C110.4,50.792 93.208,33.6 72,33.6 Z M81.096,60.136 L75.324,60.136 C74.64,60.136 73.88,61.036 73.88,62.232 L73.88,66.4 L81.1,66.4 L80.008,72.344 L73.88,72.344 L73.88,90.188 L67.068,90.188 L67.068,72.344 L60.888,72.344 L60.888,66.4 L67.068,66.4 L67.068,62.904 C67.068,57.888 70.548,53.812 75.324,53.812 L81.096,53.812 L81.096,60.136 Z"/>
  </g>
</svg>
