<svg xmlns="http://www.w3.org/2000/svg" width="144" height="144" viewBox="0 0 144 144">
  <g fill="none" fill-rule="evenodd">
<path fill="#EFEFEF" fill-rule="nonzero" d="M48.016,110.268 C49.244,106.34 51.096,100.812 53.58,92.82 C64.408,91.104 68.888,94.184 75.764,81.904 C70.184,83.612 63.456,78.736 63.816,76.62 C64.18,74.508 79.468,78.144 89.48,63.928 C76.86,66.712 72.824,60.584 74.452,59.66 C78.208,57.524 89.356,58.772 95.3,52.984 C98.364,50.004 99.8,42.76 98.552,40.176 C97.056,37.052 87.928,32.392 82.896,32.832 C77.864,33.268 69.972,51.992 67.628,51.848 C65.292,51.7 64.816,43.456 68.904,35.796 C64.596,37.704 56.7,43.632 54.224,48.7 C49.612,58.128 54.656,79.764 53.04,80.532 C51.42,81.304 45.976,70.608 44.352,65.756 C42.132,73.192 42.08,80.64 48.564,90.532 C46.12,97.024 44.784,104.496 44.58,108.296 C44.484,111.332 47.476,111.984 48.016,110.268 Z"/>
  </g>
</svg>
