<svg xmlns="http://www.w3.org/2000/svg" width="144" height="144" viewBox="0 0 144 144">
  <g fill="none" fill-rule="evenodd">
<path fill="#EFEFEF" fill-rule="nonzero" d="M69.718342,63.4009592 C68.2235376,63.7759592 67.2933544,65.3892404 67.640816,67.0025216 C70.5073664,80.3111152 71.1335184,94.260334 69.4468884,107.342369 C69.2369616,108.984947 70.29744,110.500572 71.8175816,110.727135 C71.9478804,110.746666 72.0781752,110.756432 72.2048536,110.756432 C73.5693592,110.756432 74.760136,109.670494 74.9555824,108.170494 C76.7327012,94.3658028 76.0775916,79.6607244 73.0554092,65.6431464 C72.7079468,64.0259592 71.2131424,63.0337716 69.718342,63.4009592 Z M63.2758444,80.2935372 C61.7484664,80.4458808 60.6228388,81.9068184 60.763994,83.5572092 C61.4408184,91.42635 61.2634696,99.1939316 60.2355648,106.64315 C60.0111632,108.281822 61.0607832,109.809166 62.5773044,110.051354 C62.7148396,110.074791 62.8523764,110.084557 62.9899136,110.084557 C64.3435628,110.084557 65.5307196,109.014244 65.737022,107.525963 C66.8264536,99.6021352 67.0182836,91.350178 66.3016468,83.002522 C66.160488,81.3521308 64.756172,80.121662 63.2758444,80.2935372 Z M67.6335792,53.6568184 C64.4991952,54.4439276 61.8353308,56.5025216 60.1306036,59.4517404 C58.4258748,62.4048652 57.8902072,65.8911932 58.6177024,69.2661932 C58.9687824,70.9048652 59.2872868,72.54549 59.5659788,74.184162 C59.8374328,75.8150212 61.3213784,76.8911932 62.798086,76.5943184 C64.3109852,76.2954904 65.3099364,74.7310372 65.0312424,73.1021308 C64.7380752,71.3736152 64.4050904,69.6431464 64.0322952,67.9087716 C63.6414032,66.0923652 63.93095,64.2173652 64.8502732,62.6275216 C65.769596,61.0357248 67.2064896,59.9243968 68.8895036,59.5025216 C72.378586,58.6255684 75.856808,60.9849436 76.6639292,64.7388496 C79.649918,78.5845528 80.4317056,92.4575996 78.987572,105.975182 C78.8102228,107.621666 79.9068948,109.109947 81.4306528,109.2994 C81.5392344,109.313072 81.647816,109.318932 81.7527772,109.318932 C83.1462404,109.318932 84.3478736,108.191978 84.510746,106.662682 C86.0272676,92.4595528 85.2092856,77.8970528 82.0785216,63.3814276 C80.5801012,56.4107248 74.1158868,52.0474432 67.6335792,53.6568184 Z M57.9915504,55.7876776 C58.9470652,54.4868964 58.7407608,52.6001776 57.5355072,51.572834 C56.3266352,50.5435372 54.582094,50.7720528 53.6338156,52.0650216 C53.1452008,52.7310372 52.6891576,53.4322092 52.26931,54.1587716 C49.254366,59.381428 48.3024692,65.5513496 49.5945892,71.5337716 C51.9689008,82.5591624 52.5226668,93.885334 51.1979732,104.289635 C50.9880504,105.93026 52.0521468,107.443932 53.5722864,107.670494 C53.7025852,107.688072 53.8292636,107.697838 53.95594,107.697838 C55.324066,107.697838 56.5148428,106.609947 56.7066704,105.106041 C58.1218468,93.9849432 57.5355068,81.9068184 55.0091796,70.1743964 C54.0572836,65.7544748 54.7594432,61.1939276 56.9889812,57.3306464 C57.3002472,56.791584 57.6332304,56.277912 57.9915504,55.7876776 Z M91.43824,83.2759592 C89.9072416,83.3579904 88.7237052,84.7642404 88.7997092,86.4204904 C89.053066,91.9556468 88.973442,97.5161972 88.5644532,102.945885 C88.4377748,104.598228 89.5778772,106.045494 91.1088752,106.18026 C91.1848832,106.186119 91.2608908,106.190026 91.3368948,106.190026 C92.770172,106.190026 93.986282,105.002526 94.102104,103.434166 C94.53281,97.7447132 94.6160544,91.9204908 94.3518408,86.1236156 C94.2758332,84.4673652 92.9366608,83.2329904 91.43824,83.2759592 Z M90.7614136,79.1372872 C90.8772356,79.1372872 90.9930536,79.1294748 91.1088752,79.1138496 C92.6326332,78.9107248 93.7112084,77.4107248 93.5230024,75.7681464 C92.9619976,70.8775216 92.144016,65.947834 91.1016348,61.1177556 C88.8901936,50.8189276 80.1023404,43.3423648 70.2069548,43.3423648 C68.6433828,43.3423648 67.0798108,43.5337712 65.5524328,43.9126772 C64.289272,44.2290836 63.0514408,44.6685364 61.8679044,45.2212708 C60.4599668,45.8794756 59.8120976,47.6470536 60.4201528,49.166584 C61.031828,50.6880684 62.6714076,51.3892404 64.0757256,50.729084 C64.9516184,50.3189276 65.8745576,49.992756 66.8047408,49.7583808 C67.9158896,49.48299 69.059612,49.3423652 70.2069548,49.3423652 C77.543438,49.3423652 84.0510864,54.8638496 85.687046,62.4771308 C86.6859932,67.1060372 87.4677812,71.82674 88.0070684,76.5064276 C88.1807976,78.0259592 89.3788108,79.1372872 90.7614136,79.1372872 Z M100.128372,58.8658028 C98.8652036,52.975178 96.0674284,47.5650224 92.0462948,43.2115068 C90.9640996,42.0396316 89.2050816,42.043294 88.115646,43.2151688 C87.0262144,44.3850908 87.0262144,46.3089188 88.1084096,47.4807936 C91.3984256,51.0432928 93.6822544,55.5098452 94.7137792,60.3106268 C97.3016356,72.3242988 98.4598388,84.6506764 98.1558072,96.7053604 C98.1159972,98.3616104 99.3248672,100 100.859482,100 L100.935494,100 C102.437531,100 103.671746,98.5002824 103.715172,96.871376 C104.03006,84.3030204 102.824806,71.3775216 100.128372,58.8658028 Z M44.5600308,83.4185372 C44.6939476,83.4185372 44.8314848,83.4087716 44.9690208,83.3872872 C46.4855412,83.1470528 47.535162,81.6216624 47.3143788,79.9829904 C46.9777764,77.510334 46.5325928,74.9732248 45.9860668,72.4361152 C44.4695464,65.4185372 45.5843152,58.1743964 49.1276876,52.0435372 C52.660204,45.9243976 58.1978552,41.6529132 64.705498,40.0181476 C70.3263972,38.6216632 76.3092312,39.445882 81.4777072,42.2505696 C82.8422128,43.0005696 84.5179864,42.3990072 85.209286,40.9204916 C85.9005892,39.4400228 85.3468212,37.6353352 83.9750788,36.8911948 C77.65926,33.459554 70.344494,32.4673668 63.453194,34.1724448 C55.4941772,36.1724448 48.7295572,41.3911948 44.4080164,48.8677564 C40.0792388,56.3638496 38.718352,65.2173652 40.571474,73.7954904 C41.0818072,76.1704904 41.4980352,78.5435372 41.8129216,80.854084 C42.0156068,82.3462716 43.2027636,83.4185372 44.5600308,83.4185372 Z M45.3888692,88 L45.2947652,88 C43.7601476,88 42.5585132,88.9973564 42.6091848,90.6536064 C42.7177664,94.0442312 42.6236624,96.9735716 42.3304924,100.211853 C42.1784788,101.860291 43.2968668,103.322029 44.8242448,103.484139 C44.9147296,103.493904 45.0088332,103.494309 45.099318,103.494309 C46.510876,103.494309 47.7197488,102.5448 47.860904,100.995972 C48.1794104,97.495972 48.2843716,94.1046756 48.1685516,90.4484256 C48.1142616,88.8273316 46.8800536,88 45.3888692,88 Z"/>
  </g>
</svg>
