<svg xmlns="http://www.w3.org/2000/svg" width="144" height="144" viewBox="0 0 144 144">
  <g fill="none" fill-rule="evenodd">
<path fill="#EFEFEF" fill-rule="nonzero" d="M101.46,44.536 C94.756,37.832 86.344,35.384 83.664,38.064 L72.88,48.848 C71.244,50.488 69.816,55.964 70.472,61.504 L37.828,94.148 C35.892,96.084 37.46,100.788 41.332,104.664 C45.204,108.54 49.916,110.1 51.848,108.172 L84.492,75.524 C90.036,76.18 95.512,74.752 97.148,73.12 L107.932,62.332 C110.612,59.652 108.164,51.236 101.46,44.536 Z M65.564,77.156 C64.072,75.668 64.56,72.772 66.64,70.688 C68.724,68.604 71.624,68.116 73.112,69.608 C74.6,71.092 74.116,73.996 72.032,76.076 C69.948,78.164 67.052,78.648 65.564,77.156 Z M92.564,53.432 C87.372,48.244 86.072,41.392 86.532,40.932 C86.992,40.468 93.572,42.04 98.768,47.232 C103.96,52.424 105.52,59.016 105.068,59.468 C104.62,59.916 97.752,58.628 92.564,53.432 Z"/>
  </g>
</svg>
