<svg xmlns="http://www.w3.org/2000/svg" width="144" height="144" viewBox="0 0 144 144">
  <g fill="none" fill-rule="evenodd">
<path fill="#EFEFEF" fill-rule="nonzero" d="M54.392,66.164 C54.392,59.616 56.128,55.452 61.948,54.516 C63.98,54.116 68.212,54.26 70.904,54.26 L70.904,64.26 C70.904,64.356 70.916,64.516 70.94,64.596 C71.048,65 71.416,65.296 71.852,65.296 C72.096,65.296 72.324,65.172 72.564,64.936 L97.508,40 L80.76,40 L62.192,40 C47.496,40 40,48.46 40,64.264 L40,97.412 L54.392,83.004 L54.392,66.164 Z M89.6,60.992 L89.6,77.828 C89.6,84.376 87.864,88.548 82.044,89.476 C80.012,89.876 75.78,89.736 73.092,89.736 L73.092,79.736 C73.092,79.648 73.076,79.488 73.056,79.4 C72.944,79 72.576,78.704 72.144,78.696 C71.896,78.696 71.672,78.828 71.428,79.064 L46.488,103.992 L63.236,104 L81.808,104 C96.5,104 104,95.54 104,79.736 L104,46.588 L89.6,60.992 Z"/>
  </g>
</svg>
