<svg xmlns="http://www.w3.org/2000/svg" width="144" height="144" viewBox="0 0 144 144">
  <g fill="none" fill-rule="evenodd">
<path fill="#EFEFEF" fill-rule="nonzero" d="M39.376,91.556 C41.368,93.06 45.752,86.844 47.144,87.896 C48.536,88.948 43.864,94.944 45.032,95.824 C46.2,96.704 51.084,90.868 52.44,91.888 C53.792,92.908 49.228,98.984 50.692,100.092 C52.16,101.2 56.94,95.284 58.1,96.16 C59.26,97.036 55.008,103.348 56.352,104.36 C57.696,105.376 62.276,99.308 63.392,100.152 C64.512,100.996 60.016,107.124 62.008,108.628 C64,110.128 83.488,72.772 83.488,72.772 L67.984,61.016 C67.984,61.016 37.384,90.056 39.376,91.556 Z M84.092,35.324 L70.644,55.948 L87.128,68.384 L104.712,51.4 C102.604,45.388 90.952,36.028 84.092,35.324 Z"/>
  </g>
</svg>
