<svg xmlns="http://www.w3.org/2000/svg" width="144" height="144" viewBox="0 0 144 144">
  <g fill="none" fill-rule="evenodd">
<path fill="#EFEFEF" fill-rule="nonzero" d="M72,33.6 C50.792,33.6 33.6,50.792 33.6,72 C33.6,93.208 50.792,110.4 72,110.4 C93.208,110.4 110.4,93.208 110.4,72 C110.4,50.792 93.208,33.6 72,33.6 Z M61.744,80 C57.36,80 53.816,76.42 53.816,72 C53.816,67.58 57.364,64 61.744,64 C66.12,64 69.672,67.58 69.672,72 C69.672,76.42 66.116,80 61.744,80 Z M82.26,80 C77.88,80 74.328,76.42 74.328,72 C74.328,67.58 77.88,64 82.26,64 C86.644,64 90.188,67.58 90.188,72 C90.188,76.42 86.64,80 82.26,80 Z"/>
  </g>
</svg>
