<svg xmlns="http://www.w3.org/2000/svg" width="144" height="144" viewBox="0 0 144 144">
  <g fill="none" fill-rule="evenodd">
<path fill="#EFEFEF" fill-rule="nonzero" d="M65.6,48 C65.6,42.696 61.304,38.4 56,38.4 C50.696,38.4 46.4,42.696 46.4,48 C46.4,51.868 48.704,55.184 52,56.704 L52,87.3 C48.7,88.816 46.4,92.132 46.4,96 C46.4,101.304 50.696,105.6 56,105.6 C61.304,105.6 65.6,101.3 65.6,96 C65.6,92.132 63.296,88.816 60,87.296 L60,56.704 C63.3,55.184 65.6,51.868 65.6,48 Z M61.536,96 C61.536,99.056 59.056,101.54 56,101.54 C52.936,101.54 50.46,99.056 50.46,96 C50.46,92.936 52.936,90.46 56,90.46 C59.056,90.46 61.536,92.936 61.536,96 Z M56,53.54 C52.94,53.54 50.464,51.056 50.464,48 C50.464,44.936 52.94,42.46 56.004,42.46 C59.06,42.46 61.54,44.936 61.54,48 C61.536,51.056 59.056,53.54 56,53.54 Z M92,87.296 L92,56.704 C95.3,55.184 97.6,51.872 97.6,48 C97.6,42.696 93.304,38.4 88,38.4 C82.696,38.4 78.4,42.696 78.4,48 C78.4,51.868 80.704,55.184 84,56.704 L84,87.3 C80.7,88.82 78.4,92.132 78.4,96.004 C78.4,101.308 82.696,105.604 88,105.604 C93.304,105.604 97.6,101.304 97.6,96.004 C97.6,92.132 95.3,88.816 92,87.296 Z M82.464,48 C82.464,44.936 84.94,42.46 88.004,42.46 C91.06,42.46 93.54,44.936 93.54,48 C93.54,51.056 91.06,53.54 88.004,53.54 C84.94,53.54 82.464,51.056 82.464,48 Z M88,101.54 C84.936,101.54 82.46,99.056 82.46,96 C82.46,92.936 84.936,90.46 88,90.46 C91.056,90.46 93.536,92.936 93.536,96 C93.536,99.056 91.056,101.54 88,101.54 Z"/>
  </g>
</svg>
