<svg xmlns="http://www.w3.org/2000/svg" width="144" height="144" viewBox="0 0 144 144">
  <g fill="none" fill-rule="evenodd">
<path fill="#EFEFEF" fill-rule="nonzero" d="M82.6367188,66.038086 C84.395508,61.6933596 81.1845704,56.0048828 77.7968752,52.4160156 C79.1103516,47.6586912 79.28418,41.1298828 75.6953128,38.1142576 C72.107422,35.0981444 65.7060548,36.3940428 61.2451176,38.5063476 C57.1269532,35.788086 50.9707032,33.604492 46.993164,36.0854492 C43.017578,38.5664064 42.2714844,45.055664 42.9013672,49.9501952 C39.0429688,53.0273436 35.0644532,58.2070312 36.1953124,62.7558592 C37.3261716,67.3046872 43.2666016,70.0195312 48.1171876,70.9321288 C49.850586,75.5527344 53.5478516,80.9370116 58.2236328,81.267578 C61.5361328,81.5019532 64.7031248,79.142578 67.1191408,76.2143552 C72.00293,82.2949216 75.4462892,88.7255856 77.339844,95.0405272 C74.4492188,90.7143556 68.4589844,87 56,87 C56,103.620117 68.1679688,107.01123 76,107.01123 L88.8007812,107.019531 C88.8007812,96.1279296 84.8564452,83.3808592 75.642578,71.4160156 C78.770508,70.4282228 81.555664,68.7070312 82.6367188,66.038086 Z M65.1308592,65.1586916 C60.5429688,68.020508 54.5039064,66.6220704 51.642578,62.0341796 C48.7802736,57.4467772 50.1787108,51.4072264 54.7666016,48.54541 C59.3544924,45.6835936 65.3935548,47.083008 68.2558592,51.669922 C71.1171876,56.2578124 69.71875,62.2968752 65.1308592,65.1586916 Z M88.080078,79.9912108 C92.410156,88.6708984 94.7548828,97.8032224 94.7900388,106.8125 C107.985352,97.3281248 108,79.8251952 108,63.0112304 C108,63.0112304 93.3173828,67.1499024 88.080078,79.9912108 Z"/>
  </g>
</svg>
