<svg xmlns="http://www.w3.org/2000/svg" width="144" height="144" viewBox="0 0 144 144">
  <g fill="none" fill-rule="evenodd">
<path fill="#EFEFEF" fill-rule="nonzero" d="M88,90.4 C84.132,90.4 80.816,92.704 79.296,96 L66,96 C62.688,96 60,93.312 60,90 L60,74.6 C61.824,75.472 63.844,76 66,76 L79.296,76 C80.816,79.296 84.128,81.6 88,81.6 C93.304,81.6 97.6,77.3 97.6,72 C97.6,66.7 93.304,62.4 88,62.4 C84.132,62.4 80.816,64.704 79.296,68 L66,68 C62.688,68 60,65.312 60,62 L60,52.704 C63.3,51.184 65.6,47.868 65.6,44 C65.6,38.696 61.304,34.4 56,34.4 C50.696,34.4 46.4,38.696 46.4,44 C46.4,47.868 48.704,51.184 52,52.704 L52,90 C52,97.732 58.268,104 66,104 L79.296,104 C80.816,107.296 84.128,109.6 88,109.6 C93.304,109.6 97.6,105.3 97.6,100 C97.6,94.7 93.304,90.4 88,90.4 Z M88,66.46 C91.056,66.46 93.536,68.936 93.536,72 C93.536,75.056 91.056,77.54 88,77.54 C84.936,77.54 82.46,75.056 82.46,72 C82.464,68.936 84.94,66.46 88,66.46 Z M56,38.46 C59.056,38.46 61.536,40.936 61.536,44 C61.536,47.056 59.056,49.54 56,49.54 C52.94,49.54 50.464,47.056 50.464,44 C50.464,40.936 52.94,38.46 56,38.46 Z M88,105.54 C84.936,105.54 82.46,103.056 82.46,100 C82.46,96.936 84.936,94.46 88,94.46 C91.056,94.46 93.536,96.936 93.536,100 C93.536,103.056 91.056,105.54 88,105.54 Z"/>
  </g>
</svg>
