<svg xmlns="http://www.w3.org/2000/svg" width="144" height="144" viewBox="0 0 144 144">
  <g fill="none" fill-rule="evenodd">
<path fill="#EFEFEF" fill-rule="nonzero" d="M76,87.296 L76,56.704 C79.3,55.184 81.6,51.872 81.6,48 C81.6,42.696 77.304,38.4 72,38.4 C66.696,38.4 62.4,42.696 62.4,48 C62.4,51.868 64.704,55.184 68,56.704 L68,87.3 C64.7,88.816 62.4,92.132 62.4,96 C62.4,101.304 66.696,105.6 72,105.6 C77.304,105.6 81.6,101.3 81.6,96 C81.6,92.132 79.3,88.816 76,87.296 Z M72,42.46 C75.056,42.46 77.536,44.936 77.536,48 C77.536,51.056 75.056,53.54 72,53.54 C68.94,53.54 66.464,51.056 66.464,48 C66.464,44.936 68.94,42.46 72,42.46 Z M72,101.54 C68.936,101.54 66.46,99.056 66.46,96 C66.46,92.936 68.936,90.46 72,90.46 C75.056,90.46 77.536,92.936 77.536,96 C77.536,99.056 75.056,101.54 72,101.54 Z"/>
  </g>
</svg>
