<svg xmlns="http://www.w3.org/2000/svg" width="144" height="144" viewBox="0 0 144 144">
  <g fill="none" fill-rule="evenodd">
<path fill="#EFEFEF" fill-rule="nonzero" d="M97.6,48 C97.6,42.696 93.304,38.4 88,38.4 C82.696,38.4 78.4,42.696 78.4,48 C78.4,51.844 80.672,55.136 83.936,56.668 C83.608,63.004 78.856,65.156 70.596,68.252 C67.116,69.56 63.28,71.008 60,73.188 L60,56.704 C63.3,55.184 65.6,51.868 65.6,48 C65.6,42.696 61.304,38.4 56,38.4 C50.696,38.4 46.4,42.696 46.4,48 C46.4,51.868 48.704,55.184 52,56.704 L52,87.3 C48.7,88.816 46.4,92.132 46.4,96 C46.4,101.304 50.696,105.6 56,105.6 C61.304,105.6 65.6,101.3 65.6,96 C65.6,92.156 63.328,88.864 60.064,87.332 C60.392,81 65.148,78.844 73.404,75.748 C81.524,72.7 91.568,68.904 91.964,56.724 C95.28,55.212 97.6,51.884 97.6,48 Z M56,42.46 C59.056,42.46 61.536,44.936 61.536,48 C61.536,51.056 59.056,53.54 56,53.54 C52.94,53.54 50.464,51.056 50.464,48 C50.464,44.936 52.94,42.46 56,42.46 Z M56,101.54 C52.936,101.54 50.46,99.056 50.46,96 C50.46,92.936 52.936,90.46 56,90.46 C59.056,90.46 61.536,92.936 61.536,96 C61.536,99.056 59.056,101.54 56,101.54 Z M88,53.54 C84.936,53.54 82.46,51.056 82.46,48 C82.46,44.936 84.936,42.46 88,42.46 C91.056,42.46 93.536,44.936 93.536,48 C93.536,51.056 91.056,53.54 88,53.54 Z"/>
  </g>
</svg>
