<svg xmlns="http://www.w3.org/2000/svg" width="144" height="144" viewBox="0 0 144 144">
  <g fill="none" fill-rule="evenodd">
<path fill="#EFEFEF" fill-rule="nonzero" d="M104,91.296 L104,82 C104,74.268 97.732,68 90,68 L82,68 C78.688,68 76,65.312 76,62 L76,52.704 C79.3,51.184 81.6,47.872 81.6,44 C81.6,38.696 77.304,34.4 72,34.4 C66.696,34.4 62.4,38.696 62.4,44 C62.4,47.868 64.704,51.184 68,52.704 L68,62 C68,65.312 65.312,68 62,68 L54,68 C46.268,68 40,74.268 40,82 L40,91.296 C36.7,92.816 34.4,96.132 34.4,100 C34.4,105.304 38.696,109.6 44,109.6 C49.304,109.6 53.6,105.3 53.6,100 C53.6,96.132 51.296,92.816 48,91.296 L48,82 C48,78.688 50.688,76 54,76 L62,76 C64.156,76 66.176,75.472 68,74.6 L68,91.296 C64.7,92.816 62.4,96.132 62.4,100 C62.4,105.304 66.696,109.6 72,109.6 C77.304,109.6 81.6,105.3 81.6,100 C81.6,96.132 79.296,92.816 76,91.296 L76,74.6 C77.824,75.472 79.844,76 82,76 L90,76 C93.312,76 96,78.688 96,82 L96,91.296 C92.7,92.816 90.4,96.128 90.4,100 C90.4,105.304 94.696,109.6 100,109.6 C105.304,109.6 109.6,105.3 109.6,100 C109.6,96.132 107.3,92.816 104,91.296 Z M72,38.46 C75.056,38.46 77.536,40.936 77.536,44 C77.536,47.056 75.056,49.54 72,49.54 C68.94,49.54 66.464,47.056 66.464,44 C66.464,40.936 68.94,38.46 72,38.46 Z M44,105.54 C40.936,105.54 38.46,103.056 38.46,100 C38.46,96.936 40.936,94.46 44,94.46 C47.056,94.46 49.536,96.936 49.536,100 C49.536,103.056 47.056,105.54 44,105.54 Z M72,105.54 C68.936,105.54 66.46,103.056 66.46,100 C66.46,96.936 68.936,94.46 72,94.46 C75.056,94.46 77.536,96.936 77.536,100 C77.536,103.056 75.056,105.54 72,105.54 Z M100,105.54 C96.936,105.54 94.46,103.056 94.46,100 C94.46,96.936 96.936,94.46 100,94.46 C103.056,94.46 105.536,96.936 105.536,100 C105.536,103.056 103.056,105.54 100,105.54 Z"/>
  </g>
</svg>
