<svg xmlns="http://www.w3.org/2000/svg" width="144" height="144" viewBox="0 0 144 144">
  <g fill="none" fill-rule="evenodd">
<path fill="#EFEFEF" fill-rule="nonzero" d="M105.62,43.196 C105.172,41.436 102.996,40 100.78,40 L43.22,40 C41,40 38.824,41.436 38.38,43.196 L37.576,48 L106.42,48 L105.62,43.196 Z M109.648,52 L34.348,52 C32.98,52 31.912,53.176 32.04,54.54 L35.732,101.216 C35.884,102.792 37.212,104 38.796,104 L105.2,104 C106.788,104 108.112,102.792 108.264,101.216 L111.956,54.54 C112.088,53.176 111.016,52 109.648,52 Z M81.752,65.5 C83.824,65.5 85.504,67.18 85.504,69.252 C85.504,71.324 83.824,73.004 81.752,73.004 C79.68,73.004 78,71.32 78,69.248 C78,67.18 79.68,65.5 81.752,65.5 Z M54,88 L63.944,65.144 L75.252,83.448 L84.948,78.632 L90,88 L54,88 Z"/>
  </g>
</svg>
