<svg xmlns="http://www.w3.org/2000/svg" width="144" height="144" viewBox="0 0 144 144">
  <g fill="none" fill-rule="evenodd">
<path fill="#EFEFEF" fill-rule="nonzero" d="M105.62,51.196 C105.176,49.436 103,48 100.78,48 L73.524,48 C71.308,48 68.204,46.728 66.636,45.172 L64.252,42.82 C62.684,41.264 59.584,40 57.368,40 L44.348,40 C42.128,40 40.112,41.788 39.868,43.976 L38.7,56 L106.424,56 L105.62,51.196 Z M109.648,60 L34.352,60 C32.984,60 31.912,61.176 32.044,62.54 L35.736,101.216 C35.884,102.792 37.212,104 38.8,104 L105.2,104 C106.788,104 108.112,102.792 108.264,101.216 L111.956,62.54 C112.088,61.176 111.016,60 109.648,60 Z"/>
  </g>
</svg>
