<svg xmlns="http://www.w3.org/2000/svg" width="144" height="144" viewBox="0 0 144 144">
  <g fill="none" fill-rule="evenodd">
<path fill="#EFEFEF" fill-rule="nonzero" d="M50.68,35 C48.648,35 47,36.648 47,38.68 L47,104.744 C47,107.244 50.06,108.448 51.768,106.624 L69.652,87.464 C69.924,87.168 70.304,87 70.708,87 L83.656,87 C85.6,87 87.276,85.628 87.66,83.72 L96.104,41.664 C96.796,38.216 94.16,35 90.644,35 L50.68,35 Z M66.352,79.76 L55,93.108 L55,44.372 C55,43.616 55.616,43 56.372,43 L84.932,43 C86.3,43 87.324,44.252 87.052,45.592 L85.4,53.812 C85.264,54.504 84.656,55 83.952,55 L69.112,55 C67.944,55 67,55.944 67,57.112 L67,61.992 C67,62.548 67.452,63 68.012,63 L81.188,63 C82.412,63 83.332,64.12 83.092,65.324 L80.636,77.556 C80.464,78.396 79.724,79 78.868,79 L68,79 C67.364,79 66.764,79.276 66.352,79.76 Z"/>
  </g>
</svg>
