<svg xmlns="http://www.w3.org/2000/svg" width="144" height="144" viewBox="0 0 144 144">
  <g fill="none" fill-rule="evenodd">
<path fill="#EFEFEF" fill-rule="nonzero" d="M72,35 C52.368,35 40,41.048 40,47.004 L40,55.004 C40,58.676 64,79.004 64,79.004 L64,103.004 C63.996,105.74 68,107.004 72,107.004 C76,107.004 80.004,105.74 80,103.004 L80,79.004 C80,79.004 104,58.676 104,55.004 L104,47.004 C104,41.048 91.632,35 72,35 Z M72,55.492 C57.636,55.488 47.448,50.16 47.448,48.168 C47.44,46.188 57.64,40.844 72,40.852 C86.36,40.844 96.56,46.188 96.552,48.164 C96.552,50.16 86.364,55.488 72,55.492 Z"/>
  </g>
</svg>
