<svg xmlns="http://www.w3.org/2000/svg" width="144" height="144" viewBox="0 0 144 144">
  <g fill="none" fill-rule="evenodd">
<path fill="#EFEFEF" d="M109.776,69.444 C106.248,49.74 98.36,43.928 94.164,43.928 C87.616,43.928 85.936,48.796 72,48.96 C58.064,48.796 56.384,43.928 49.836,43.928 C45.64,43.928 37.748,49.74 34.22,69.444 C32.208,80.692 30.024,97.484 35.228,99.5 C41.704,102.008 43.9,95.736 51.012,90.436 C58.232,85.064 61.696,83.8 72,83.8 C82.304,83.8 85.768,85.064 92.988,90.436 C100.1,95.732 102.296,102.008 108.772,99.5 C113.976,97.484 111.792,80.696 109.776,69.444 Z M56,72 C51.58,72 48,68.416 48,64 C48,59.58 51.58,56 56,56 C60.42,56 64,59.58 64,64 C64,68.416 60.416,72 56,72 Z M84,72 C81.788,72 80,70.212 80,68 C80,65.788 81.788,64 84,64 C86.212,64 88,65.788 88,68 C88,70.212 86.212,72 84,72 Z M92,64 C89.788,64 88,62.212 88,60 C88,57.788 89.788,56 92,56 C94.212,56 96,57.788 96,60 C96,62.212 94.212,64 92,64 Z"/>
  </g>
</svg>
