<svg xmlns="http://www.w3.org/2000/svg" width="144" height="144" viewBox="0 0 144 144">
  <g fill="none" fill-rule="evenodd">
<path fill="#EFEFEF" fill-rule="nonzero" d="M64.508,85.4 C61.752,90.188 63.608,94.12 67.436,96.328 C71.26,98.54 75.6,98.188 78.364,93.4 C81.12,88.62 98.552,45.94 97.036,45.064 C95.52,44.188 67.268,80.616 64.508,85.4 Z M72,55 C73.752,55 75.456,55.148 77.124,55.436 C78.876,53.24 80.836,50.82 82.744,48.524 C79.336,47.54 75.736,47 72,47 C49.572,47 32,65.916 32,90.064 C32,91.548 32.064,93.032 32.196,94.476 C32.392,96.68 34.356,98.296 36.532,98.108 C38.736,97.904 40.36,95.968 40.164,93.764 C40.056,92.556 40,91.304 40,90.064 C40,70.4 54.056,55 72,55 Z M100.876,60 C99.76,63 98.58,66.056 97.54,68.696 C101.6,74.576 104,81.952 104,90.064 C104,91.328 103.94,92.604 103.828,93.836 C103.628,96.04 105.248,97.984 107.448,98.188 C107.568,98.196 107.692,98.204 107.816,98.204 C109.86,98.204 111.608,96.64 111.796,94.564 C111.928,93.084 112,91.572 112,90.064 C112,78.248 107.788,67.704 100.876,60 Z"/>
  </g>
</svg>
