<svg xmlns="http://www.w3.org/2000/svg" width="144" height="144" viewBox="0 0 144 144">
  <g fill="none" fill-rule="evenodd">
<path fill="#EFEFEF" fill-rule="nonzero" d="M84.72,77.236 C81.848,77.236 79.52,80.464 79.52,84.432 C79.52,88.408 81.848,91.636 84.72,91.636 C87.592,91.636 89.92,88.408 89.92,84.432 C89.916,80.464 87.592,77.236 84.72,77.236 Z M102.824,58.504 C103.42,57.044 103.444,48.748 100.284,40.8 C100.284,40.8 93.04,41.596 82.08,49.12 C79.78,48.48 75.888,48.168 72.004,48.168 C68.112,48.168 64.224,48.48 61.924,49.12 C50.96,41.596 43.716,40.8 43.716,40.8 C40.56,48.748 40.592,57.044 41.18,58.504 C37.468,62.536 35.2,67.38 35.2,73.988 C35.2,102.732 59.052,103.192 65.068,103.192 C66.436,103.192 69.14,103.2 72.004,103.2 C74.864,103.2 77.572,103.192 78.932,103.192 C84.956,103.192 108.8,102.732 108.8,73.988 C108.8,67.38 106.536,62.536 102.824,58.504 Z M72.112,99.66 L71.888,99.66 C56.804,99.66 45.052,97.864 45.052,83.2 C45.052,79.684 46.292,76.428 49.24,73.724 C54.148,69.216 62.46,71.6 71.888,71.6 C71.928,71.6 71.968,71.6 72.004,71.6 C72.044,71.6 72.076,71.6 72.112,71.6 C81.54,71.6 89.856,69.216 94.768,73.724 C97.708,76.428 98.948,79.684 98.948,83.2 C98.948,97.864 87.2,99.66 72.112,99.66 Z M59.284,77.236 C56.412,77.236 54.084,80.464 54.084,84.432 C54.084,88.408 56.412,91.636 59.284,91.636 C62.16,91.636 64.488,88.408 64.488,84.432 C64.488,80.464 62.16,77.236 59.284,77.236 Z"/>
  </g>
</svg>
