<svg xmlns="http://www.w3.org/2000/svg" width="144" height="144" viewBox="0 0 144 144">
  <g fill="none" fill-rule="evenodd">
<path fill="#EFEFEF" fill-rule="nonzero" d="M72.06,71.796 C72.06,71.796 72.02,71.796 72,71.796 L71.94,71.796 C67.176,71.796 62.98,70.584 60.496,72.868 C59.012,74.236 58.388,75.884 58.388,77.656 C58.388,85.064 64.32,85.976 71.944,85.976 L72.06,85.976 C79.68,85.976 85.616,85.06 85.616,77.656 C85.616,75.884 84.992,74.232 83.508,72.868 C81.02,70.584 76.824,71.796 72.06,71.796 Z M65.572,81.92 C64.12,81.92 62.948,80.288 62.948,78.28 C62.948,76.272 64.12,74.648 65.572,74.648 C67.024,74.648 68.2,76.272 68.2,78.28 C68.204,80.288 67.028,81.92 65.572,81.92 Z M78.424,81.92 C76.972,81.92 75.796,80.288 75.796,78.28 C75.796,76.272 76.972,74.648 78.424,74.648 C79.872,74.648 81.048,76.272 81.048,78.28 C81.052,80.288 79.876,81.92 78.424,81.92 Z M72,33.6 C50.792,33.6 33.6,50.792 33.6,72 C33.6,93.208 50.792,110.4 72,110.4 C93.208,110.4 110.4,93.208 110.4,72 C110.4,50.792 93.208,33.6 72,33.6 Z M75.504,87.756 C74.816,87.756 73.448,87.756 72,87.764 C70.552,87.756 69.184,87.756 68.496,87.756 C65.456,87.756 53.408,87.52 53.408,73 C53.408,69.664 54.552,67.22 56.428,65.18 C56.132,64.444 56.116,60.252 57.708,56.236 C57.708,56.236 61.372,56.636 66.912,60.44 C68.068,60.116 70.036,59.952 72,59.952 C73.964,59.952 75.928,60.116 77.092,60.436 C82.632,56.632 86.296,56.232 86.296,56.232 C87.888,60.248 87.876,64.444 87.576,65.176 C89.452,67.216 90.596,69.66 90.596,72.996 C90.592,87.524 78.544,87.756 75.504,87.756 Z"/>
  </g>
</svg>
