<svg xmlns="http://www.w3.org/2000/svg" width="144" height="144" viewBox="0 0 144 144">
  <g fill="none" fill-rule="evenodd">
<path fill="#EFEFEF" fill-rule="nonzero" d="M72,33.6 C50.82,33.6 33.596,50.828 33.596,72 C33.596,93.172 50.82,110.4 72,110.4 C93.172,110.4 110.4,93.172 110.4,72 C110.4,50.828 93.172,33.6 72,33.6 Z M104.752,72 C104.752,79.492 102.208,86.4 97.968,91.92 C96.768,90.984 95.492,88.452 96.692,85.828 C97.904,83.188 98.22,77.076 97.94,74.696 C97.676,72.32 96.44,66.596 93.084,66.54 C89.732,66.492 87.432,65.384 85.44,61.408 C81.308,53.136 93.196,51.548 89.064,46.972 C87.908,45.684 81.932,52.26 81.056,43.496 C81,42.868 81.596,41.928 82.4,40.952 C95.376,45.312 104.752,57.58 104.752,72 Z M67.5,39.572 C66.716,41.1 64.648,41.72 63.392,42.868 C60.656,45.344 59.48,45 58.008,47.376 C56.524,49.752 51.74,53.172 51.74,54.892 C51.74,56.612 54.156,58.636 55.364,58.244 C56.572,57.844 59.76,57.868 61.632,58.524 C63.508,59.188 77.288,59.852 72.896,71.5 C71.504,75.204 65.404,74.58 63.78,80.712 C63.536,81.612 62.692,85.456 62.64,86.712 C62.54,88.656 64.016,95.984 62.14,95.984 C60.256,95.984 55.188,89.428 55.188,88.24 C55.188,87.052 53.876,82.888 53.876,79.32 C53.876,75.756 47.804,75.812 47.804,71.072 C47.804,66.8 51.096,64.672 50.356,62.62 C49.632,60.58 43.848,60.512 41.436,60.26 C45.648,49.336 55.556,41.228 67.5,39.572 Z M61.696,103.08 C63.664,102.04 63.864,100.696 65.648,100.628 C67.688,100.536 69.348,99.832 71.648,99.324 C73.688,98.88 77.34,96.808 80.552,96.544 C83.264,96.324 88.612,96.684 90.052,99.3 C84.872,102.744 78.66,104.752 71.996,104.752 C68.4,104.752 64.936,104.156 61.696,103.08 Z"/>
  </g>
</svg>
