<svg xmlns="http://www.w3.org/2000/svg" width="144" height="144" viewBox="0 0 144 144">
  <g fill="none" fill-rule="evenodd">
<path fill="#EFEFEF" fill-rule="nonzero" d="M72,32 C53,32 37.6,47.224 37.6,66 C37.6,84.776 53,100 72,100 L72,112 C85.472,105.312 106.4,90.78 106.4,66 C106.4,47.224 91,32 72,32 Z M68,70.964 C68,76.276 63.916,80.652 58.72,81.116 C58.228,81.16 57.808,80.764 57.808,80.272 L57.808,76.864 C57.808,76.44 58.124,76.088 58.544,76.024 C60.668,75.72 62.292,74.076 62.732,72 L54.928,72 C53.312,72 52,70.688 52,69.072 L52,58.928 C52,57.312 53.312,56 54.928,56 L65.072,56 C66.688,56 68,57.312 68,58.928 L68,70.964 Z M92,70.964 C92,76.276 87.916,80.652 82.72,81.116 C82.228,81.16 81.808,80.764 81.808,80.272 L81.808,76.864 C81.808,76.44 82.124,76.088 82.544,76.024 C84.668,75.716 86.292,74.076 86.732,72 L78.928,72 C77.312,72 76,70.688 76,69.072 L76,58.928 C76,57.312 77.312,56 78.928,56 L89.072,56 C90.688,56 92,57.312 92,58.928 L92,70.964 Z"/>
  </g>
</svg>
