<svg xmlns="http://www.w3.org/2000/svg" width="144" height="144" viewBox="0 0 144 144">
  <g fill="none" fill-rule="evenodd">
<path fill="#EFEFEF" fill-rule="nonzero" d="M72,33.6 C50.792,33.6 33.6,50.792 33.6,72 C33.6,93.208 50.792,110.4 72,110.4 C93.208,110.4 110.4,93.208 110.4,72 C110.4,50.792 93.208,33.6 72,33.6 Z M69.788,88.484 C67.376,89.656 64.78,89.78 63.776,89.78 C63.584,89.78 63.476,89.78 63.476,89.78 C63.476,89.78 63.384,89.78 63.26,89.78 C61.692,89.78 53.888,89.42 53.888,82.312 C53.888,75.328 62.388,74.78 64.992,74.78 L65.06,74.78 C63.556,72.772 63.868,70.748 63.868,70.748 C63.736,70.756 63.544,70.764 63.308,70.764 C62.328,70.764 60.436,70.608 58.812,69.56 C56.82,68.28 55.812,66.1 55.812,63.084 C55.812,54.56 65.12,54.216 65.212,54.208 L74.508,54.208 L74.508,54.412 C74.508,55.452 72.64,55.656 71.368,55.828 C70.936,55.892 70.068,55.976 69.824,56.1 C72.18,57.36 72.56,59.336 72.56,62.28 C72.56,65.632 71.248,67.404 69.856,68.648 C68.992,69.42 68.316,70.024 68.316,70.836 C68.316,71.632 69.244,72.444 70.324,73.392 C72.088,74.948 74.508,77.064 74.508,80.636 C74.508,84.328 72.92,86.968 69.788,88.484 Z M90,72 L84,72 L84,78 L80,78 L80,72 L74,72 L74,68 L80,68 L80,62 L84,62 L84,68 L90,68 L90,72 Z M64.892,76.6 C64.684,76.6 64.476,76.608 64.264,76.624 C62.488,76.756 60.848,77.42 59.664,78.5 C58.488,79.564 57.888,80.908 57.972,82.264 C58.152,85.108 61.204,86.772 64.912,86.508 C68.56,86.244 70.992,84.14 70.816,81.296 C70.648,78.624 68.324,76.6 64.892,76.6 Z M68.388,61.14 C67.42,57.74 65.86,56.732 63.436,56.732 C63.176,56.732 62.912,56.772 62.66,56.84 C61.608,57.14 60.772,58.016 60.308,59.32 C59.832,60.64 59.804,62.016 60.212,63.584 C60.952,66.388 62.944,68.42 64.952,68.42 C65.216,68.42 65.48,68.388 65.728,68.312 C67.924,67.696 69.3,64.344 68.388,61.14 Z"/>
  </g>
</svg>
