<svg xmlns="http://www.w3.org/2000/svg" width="144" height="144" viewBox="0 0 144 144">
  <g fill="none" fill-rule="evenodd">
<path fill="#EFEFEF" fill-rule="nonzero" d="M51.770508,103.203369 L82.4345704,85.8937988 L75.85376,78.6000976 L51.770508,103.203369 Z M40.5688476,39.4924316 C40.2175292,40.125244 40,40.8527832 40,41.659668 L40,102.163574 C40,103.283448 40.4184572,104.244385 41.0524904,105.00415 L71.558594,73.8391112 L40.5688476,39.4924316 Z M101.918213,68.9277344 L91.2282712,62.8933104 L80.3391112,74.017822 L88.145752,82.6699216 L101.918213,74.8955076 C103.171142,74.2622072 103.862549,73.1149904 104,71.9116212 C103.862549,70.708252 103.171142,69.5610352 101.918213,68.9277344 Z M85.4597168,59.6369628 L48.5808104,38.819336 L76.0434568,69.256592 L85.4597168,59.6369628 Z"/>
  </g>
</svg>
