<svg xmlns="http://www.w3.org/2000/svg" width="144" height="144" viewBox="0 0 144 144">
  <g fill="none" fill-rule="evenodd">
<path fill="#EFEFEF" fill-rule="nonzero" d="M38.956,54.356 C38.956,60.332 40.952,64.644 44.884,67.176 C48.108,69.256 51.844,69.568 53.788,69.568 C54.26,69.568 54.64,69.544 54.904,69.528 C54.904,69.528 54.288,73.544 57.264,77.512 L57.128,77.512 C51.972,77.512 35.156,78.588 35.156,92.42 C35.156,106.484 50.6,107.2 53.7,107.2 C53.944,107.2 54.088,107.192 54.088,107.192 C54.12,107.192 54.34,107.2 54.72,107.2 C56.708,107.2 61.848,106.952 66.62,104.628 C72.812,101.628 75.952,96.392 75.952,89.088 C75.952,82.032 71.168,77.832 67.676,74.76 C65.544,72.884 63.7,71.268 63.7,69.696 C63.7,68.096 65.048,66.892 66.748,65.368 C69.504,62.908 72.104,59.4 72.104,52.768 C72.104,46.94 71.348,43.024 66.688,40.54 C67.172,40.292 68.892,40.112 69.74,39.992 C72.264,39.648 75.956,39.256 75.956,37.196 L75.956,36.8 L57.56,36.8 C57.376,36.808 38.956,37.488 38.956,54.356 Z M68.652,90.408 C69.004,96.032 64.192,100.18 56.964,100.704 C49.624,101.244 43.584,97.94 43.232,92.32 C43.06,89.616 44.248,86.976 46.572,84.868 C48.928,82.736 52.164,81.416 55.684,81.156 C56.1,81.132 56.512,81.108 56.924,81.108 C63.72,81.112 68.32,85.104 68.652,90.408 Z M63.848,50.504 C65.652,56.856 62.928,63.488 58.584,64.716 C58.084,64.856 57.572,64.924 57.048,64.924 C53.072,64.924 49.132,60.9 47.668,55.352 C46.852,52.248 46.92,49.52 47.856,46.904 C48.772,44.324 50.428,42.592 52.508,42.004 C53.008,41.864 53.524,41.792 54.048,41.792 C58.848,41.792 61.936,43.784 63.848,50.504 Z M95,64 L95,52 L87,52 L87,64 L75,64 L75,72 L87,72 L87,84 L95,84 L95,72 L107,72 L107,64 L95,64 Z"/>
  </g>
</svg>
