<svg xmlns="http://www.w3.org/2000/svg" width="144" height="144" viewBox="0 0 144 144">
  <g fill="none" fill-rule="evenodd">
<path fill="#EFEFEF" fill-rule="nonzero" d="M46.208,80.952 C48.064,88.468 50.424,91.756 58.296,95.2 C66.172,98.64 69.912,102.4 73,102.4 C76.084,102.4 79.592,99.112 87.464,95.664 C95.34,92.22 93.236,91.172 95.092,83.656 L73,94.4 L46.208,80.952 Z M111.044,61.344 L77.744,42.696 C75.136,41.236 70.864,41.236 68.256,42.696 L34.952,61.344 C32.344,62.804 32.344,65.196 34.952,66.656 L68.252,85.304 C70.86,86.764 75.132,86.764 77.74,85.304 L99.268,73.248 L75.924,67.78 C75.024,68 74.036,68.124 73,68.124 C68.792,68.124 65.384,66.1 65.384,63.6 C65.384,61.092 68.796,59.068 73,59.068 C76.264,59.068 79.04,60.296 80.12,62.004 L104.848,70.12 L111.044,66.652 C113.648,65.196 113.648,62.804 111.044,61.344 Z M100.868,96.68 C100.608,98.22 106,100.752 106.512,96.252 C108.828,75.964 104.848,70.128 104.848,70.128 L99.268,73.252 C99.268,73.248 104,77.752 100.868,96.68 Z"/>
  </g>
</svg>
