<svg xmlns="http://www.w3.org/2000/svg" width="144" height="144" viewBox="0 0 144 144">
  <g fill="none" fill-rule="evenodd">
<path fill="#EFEFEF" d="M64,48 L52,48 C49.788,48 48,49.788 48,52 L48,64 C48,66.208 49.788,68 52,68 L64,68 C66.212,68 68,66.208 68,64 L68,52 C68,49.792 66.212,48 64,48 Z M92,48 L80,48 C77.788,48 76,49.788 76,52 L76,64 C76,66.208 77.788,68 80,68 L92,68 C94.212,68 96,66.208 96,64 L96,52 C96,49.792 94.212,48 92,48 Z M64,76 L52,76 C49.788,76 48,77.788 48,80 L48,92 C48,94.208 49.788,96 52,96 L64,96 C66.212,96 68,94.208 68,92 L68,80 C68,77.792 66.212,76 64,76 Z M92,76 L80,76 C77.788,76 76,77.788 76,80 L76,92 C76,94.208 77.788,96 80,96 L92,96 C94.212,96 96,94.208 96,92 L96,80 C96,77.792 94.212,76 92,76 Z"/>
  </g>
</svg>
