<svg xmlns="http://www.w3.org/2000/svg" width="144" height="144" viewBox="0 0 144 144">
  <g fill="none" fill-rule="evenodd">
<path fill="#EFEFEF" fill-rule="nonzero" d="M72,36.796 C52.556,36.796 36.8,52.556 36.8,72 C36.8,91.436 52.556,107.204 72.004,107.204 C91.444,107.204 107.204,91.44 107.204,72 C107.2,52.556 91.444,36.796 72,36.796 Z M86.152,73.352 C84.248,70.688 82.3,68.072 80.164,65.596 C78.16,63.26 76.028,61.032 73.708,59.016 C71.396,57 68.876,55.088 66.108,53.752 C64.248,52.852 62.332,52.18 60.352,51.608 C60.128,51.548 59.52,51.272 59.344,51.548 C59.232,51.72 59.32,52.04 59.336,52.228 C59.392,52.64 59.44,53.048 59.492,53.46 C60.084,58.372 60.308,63.56 58.78,68.336 C57.964,70.908 56.468,73.256 54.48,75.08 C52.828,76.596 50.472,78.12 48.132,78.008 C47.7,77.992 47.26,77.916 46.836,77.772 C44.332,76.928 44.184,74.228 44.168,72 C44.152,69.608 44.44,67.22 45.032,64.9 C45.212,64.188 45.436,63.488 45.672,62.792 C48.412,54.848 54.752,48.384 62.708,45.564 C65.684,44.508 68.836,43.976 72,43.976 C81.304,43.976 90.156,48.756 95.268,56.524 C96.548,58.476 97.576,60.588 98.332,62.788 L98.32,62.788 C98.564,63.484 98.788,64.188 98.972,64.896 C99.556,67.216 99.852,69.608 99.836,71.996 C99.804,76.496 98.356,81.464 92.704,79.08 C90.036,77.952 87.808,75.672 86.152,73.352 Z"/>
  </g>
</svg>
