<svg xmlns="http://www.w3.org/2000/svg" width="144" height="144" viewBox="0 0 144 144">
  <g fill="none" fill-rule="evenodd">
<path fill="#EFEFEF" fill-rule="nonzero" d="M72,33.6 C50.788,33.6 33.596,50.792 33.596,72 C33.596,93.212 50.788,110.404 72,110.404 C93.204,110.404 110.4,93.212 110.4,72 C110.4,50.792 93.204,33.6 72,33.6 Z M76,102.1 L76,84 L68,84 L68,102.1 C54.416,100.316 43.68,89.584 41.892,76 L60,76 L60,68 L41.892,68 C43.68,54.416 54.416,43.684 68,41.9 L68,60 L76,60 L76,41.9 C89.576,43.688 100.312,54.42 102.1,68 L84,68 L84,76 L102.1,76 C100.312,89.576 89.576,100.312 76,102.1 Z"/>
  </g>
</svg>
