<svg xmlns="http://www.w3.org/2000/svg" width="144" height="144" viewBox="0 0 144 144">
  <g fill="none" fill-rule="evenodd">
<path fill="#EFEFEF" fill-rule="nonzero" d="M103.696,101.26 C103.468,101.956 102.924,102.728 102.032,102.988 C101.388,103.176 80.08,109.348 79.424,109.52 C77.548,110.02 76.244,109.652 75.388,108.896 C74.084,107.748 59.016,97.496 40.008,96.528 C37.976,96.428 38.972,88.724 44.78,88.724 C48.76,88.724 60.396,91.616 61.8,90.208 C62.884,89.12 63.376,82.692 58.852,71.476 L58.852,71.476 L49.752,48.928 C48.888,46.788 49.928,44.356 52.064,43.492 C54.204,42.628 56.644,43.664 57.5,45.804 C57.5,45.804 64.664,63.556 65.444,65.48 C66.216,67.4 67.168,68.128 68.204,67.728 C69.128,67.376 69.32,66.76 68.76,64.892 L60.576,40.78 C59.832,38.596 61,36.228 63.184,35.484 C65.372,34.736 67.748,35.908 68.484,38.092 L76.268,61.02 C76.956,63.036 77.684,64.092 78.836,63.604 C79.528,63.312 79.48,62.252 79.296,61.328 L73.832,39.444 C73.272,37.2 74.636,34.936 76.876,34.376 C79.116,33.82 81.376,35.176 81.94,37.42 L86.98,57.588 C87.716,60.552 88.392,61.62 89.564,61.328 C90.76,61.036 90.704,60.052 90.54,59.24 C90.16,57.34 87.052,41.928 87.052,41.928 C86.64,39.868 87.972,37.868 90.028,37.456 C92.08,37.044 94.084,38.376 94.492,40.428 L98.284,59.272 L98.288,59.276 C98.288,59.276 98.288,59.276 98.288,59.28 L100.56,70.58 C101.056,72.712 101.624,74.72 102.36,76.688 C106.7,88.244 104.436,98.944 103.696,101.26 Z"/>
  </g>
</svg>
