<svg xmlns="http://www.w3.org/2000/svg" width="144" height="144" viewBox="0 0 144 144">
  <g fill="none" fill-rule="evenodd">
<path fill="#EFEFEF" fill-rule="nonzero" d="M72,33.6 C50.792,33.6 33.6,50.792 33.6,72 C33.6,93.208 50.792,110.4 72,110.4 C93.204,110.4 110.4,93.208 110.4,71.996 C110.4,50.792 93.204,33.6 72,33.6 Z M71.396,94.396 L71.192,94.396 C68.064,94.304 65.856,91.996 65.948,88.912 C66.036,85.88 68.296,83.676 71.32,83.676 L71.504,83.684 C74.72,83.776 76.904,86.06 76.812,89.232 C76.72,92.272 74.5,94.396 71.396,94.396 Z M84.56,68.272 C83.824,69.312 82.208,70.616 80.168,72.204 L77.92,73.752 C76.688,74.712 75.944,75.62 75.668,76.504 C75.444,77.2 75.34,77.388 75.32,78.808 L75.32,79.168 L66.74,79.168 L66.764,78.44 C66.872,75.464 66.944,73.704 68.18,72.252 C70.12,69.98 74.4,67.22 74.58,67.104 C75.196,66.644 75.712,66.12 76.096,65.556 C76.996,64.312 77.392,63.336 77.392,62.384 C77.392,61.048 77,59.812 76.22,58.72 C75.468,57.656 74.04,57.128 71.976,57.128 C69.928,57.128 68.524,57.776 67.688,59.112 C66.824,60.476 66.388,61.912 66.388,63.38 L66.388,63.748 L57.544,63.748 L57.56,63.364 C57.788,57.952 59.724,54.052 63.3,51.776 C65.552,50.332 68.356,49.6 71.624,49.6 C75.896,49.6 79.512,50.64 82.352,52.688 C85.236,54.764 86.696,57.876 86.696,61.932 C86.692,64.2 85.976,66.332 84.56,68.272 Z"/>
  </g>
</svg>
