<svg xmlns="http://www.w3.org/2000/svg" width="144" height="144" viewBox="0 0 144 144">
  <g fill="none" fill-rule="evenodd">
<path fill="#EFEFEF" fill-rule="nonzero" d="M88.36,40.932 C83.8,37.644 78.072,36 71.176,36 C65.932,36 61.504,37.156 57.908,39.472 C52.2,43.096 49.168,49.252 48.8,57.932 L62.028,57.932 C62.028,55.4 62.768,52.972 64.24,50.62 C65.716,48.276 68.22,47.104 71.752,47.104 C75.344,47.104 77.82,48.056 79.168,49.956 C80.524,51.864 81.2,53.972 81.2,56.284 C81.2,58.3 80.192,60.144 78.972,61.816 C78.304,62.792 77.424,63.692 76.328,64.512 C76.328,64.512 69.156,69.112 66.008,72.808 C64.184,74.948 64.02,78.16 63.856,82.76 C63.848,83.088 63.972,83.768 65.116,83.768 C66.264,83.768 74.38,83.768 75.4,83.768 C76.424,83.768 76.636,83.012 76.648,82.672 C76.72,81 76.904,80.14 77.212,79.172 C77.788,77.344 79.364,75.752 81.128,74.376 L84.768,71.868 C88.056,69.304 90.676,67.204 91.836,65.556 C93.812,62.852 95.204,59.516 95.204,55.556 C95.2,49.096 92.92,44.228 88.36,40.932 Z M70.964,91.696 C66.408,91.556 62.648,94.712 62.504,99.656 C62.364,104.592 65.936,107.86 70.496,107.992 C75.252,108.132 78.912,105.084 79.06,100.14 C79.196,95.196 75.724,91.836 70.964,91.696 Z"/>
  </g>
</svg>
