<svg xmlns="http://www.w3.org/2000/svg" width="144" height="144" viewBox="0 0 144 144">
  <g fill="none" fill-rule="evenodd">
<path fill="#EFEFEF" fill-rule="nonzero" d="M106.688,77 L100,77 L100,101 C100,102.78 99.224,105 96,105 L80,105 L80,81 L64,81 L64,105 L48,105 C44.776,105 44,102.78 44,101 L44,77 L37.312,77 C34.92,77 35.432,75.704 37.072,74.008 L69.168,41.88 C69.948,41.072 70.972,40.672 72,40.632 C73.028,40.672 74.052,41.068 74.832,41.88 L106.924,74.004 C108.568,75.704 109.08,77 106.688,77 Z"/>
  </g>
</svg>
