<svg xmlns="http://www.w3.org/2000/svg" width="144" height="144" viewBox="0 0 144 144">
  <g fill="none" fill-rule="evenodd">
<path fill="#EFEFEF" fill-rule="nonzero" d="M94.4,50.304 C94.4,41.748 94.4,40.912 94.4,40.912 C94.4,37.756 84.368,32 72,32 C59.628,32 49.6,37.756 49.6,40.912 C49.6,40.912 49.6,41.748 49.6,50.304 C49.6,58.868 65.108,65.936 65.108,72 C65.108,78.056 49.6,85.124 49.6,93.688 C49.6,102.252 49.6,103.088 49.6,103.088 C49.6,106.24 59.628,112 72,112 C84.368,112 94.4,106.24 94.4,103.084 C94.4,103.084 94.4,102.248 94.4,93.684 C94.4,85.12 78.892,78.052 78.892,71.996 C78.892,65.936 94.4,58.868 94.4,50.304 Z M55.764,41.312 C58.548,39.556 63.764,36.984 72.22,36.984 C80.672,36.984 88.244,41.312 88.244,41.312 C88.812,41.656 91.036,42.844 89.512,43.748 C86.16,45.736 79.6,47.828 72,47.828 C64.4,47.828 58.064,45.524 54.704,43.532 C53.18,42.632 55.764,41.312 55.764,41.312 Z M74.004,72 C74.004,76.772 77.988,79.844 82.208,83.944 C85.292,86.936 89.512,91.036 89.512,93.684 L89.512,98.996 C85.632,97.064 74.024,95.176 74.024,88.98 C74.024,85.848 69.972,85.848 69.972,88.98 C69.972,95.176 58.364,97.064 54.484,98.996 L54.484,93.684 C54.484,91.036 58.708,86.932 61.788,83.944 C66.008,79.844 69.992,76.772 69.992,72 C69.992,67.228 66.008,64.156 61.788,60.056 C58.704,57.056 54.484,52.956 54.484,50.304 L54.3,46.312 C58.404,48.524 64.908,50.624 72,50.624 C79.088,50.624 85.624,48.524 89.732,46.312 L89.512,50.304 C89.512,52.952 85.288,57.056 82.208,60.056 C77.992,64.156 74.004,67.228 74.004,72 Z"/>
  </g>
</svg>
