<svg xmlns="http://www.w3.org/2000/svg" width="144" height="144" viewBox="0 0 144 144">
  <g fill="none" fill-rule="evenodd">
<path fill="#EFEFEF" fill-rule="nonzero" d="M75.636,52 C83.172,52 89.304,58.392 89.304,66.244 C89.304,66.788 89.256,67.404 89.156,68.18 C89.156,68.18 88.504,73.228 88.332,74.556 C88.16,75.884 89.076,77.156 90.444,77.168 C91.812,77.176 97.044,77.208 97.044,77.208 C100.876,77.232 104,80.548 104,84.6 C104,88.68 100.86,92 97,92 L48.668,92 C43.888,92 40,87.912 40,82.888 C40,79.236 42.076,75.948 45.292,74.508 C45.292,74.508 46.976,73.756 47.896,73.344 C48.816,72.932 49.928,71.62 49.96,70.244 C49.992,68.868 50.024,67.388 50.024,67.388 C50.072,65.248 51.708,63.508 53.664,63.508 C53.792,63.508 54.04,63.532 54.492,63.648 C54.492,63.648 57.588,64.436 58.648,64.704 C59.708,64.972 61.072,64.44 61.568,63.468 C62.064,62.496 63.58,59.544 63.58,59.544 C65.972,54.892 70.592,52 75.636,52 L75.636,52 Z M75.636,44 C67.312,44 60.092,48.828 56.464,55.896 C55.564,55.668 54.636,55.512 53.668,55.512 C47.32,55.512 42.176,60.728 42.028,67.208 C36.132,69.844 32,75.864 32,82.888 C32,92.34 39.46,100 48.668,100 L97,100 C105.284,100 112,93.104 112,84.6 C112,76.128 105.332,69.26 97.088,69.208 C97.212,68.236 97.3,67.252 97.3,66.244 C97.304,53.96 87.604,44 75.636,44 L75.636,44 Z"/>
  </g>
</svg>
