<svg xmlns="http://www.w3.org/2000/svg" width="144" height="144" viewBox="0 0 144 144">
  <g fill="none" fill-rule="evenodd">
<path fill="#EFEFEF" fill-rule="nonzero" d="M100.5,59.68 L92.316,37.14 C91.712,35.476 89.936,34.592 88.36,35.172 L33.968,55.024 C32.392,55.6 31.596,57.412 32.204,59.076 L40.828,82.84 L40.828,70.108 C40.828,64.356 45.42,59.68 51.068,59.68 L65.44,59.68 L82.58,47.648 L92.496,59.68 L100.5,59.68 Z M108.952,67 L51.068,67 C49.388,67 48.02,68.336 48.02,70.108 L48.02,107.788 C48.024,109.564 49.392,111 51.068,111 L108.952,111 C110.632,111 112,109.564 112,107.788 L112,70.108 C112,68.336 110.632,67 108.952,67 Z M104,103 L56,103 L56,95 L63.936,78.928 L75.008,92.672 L85.4,82.024 L98.752,77.204 L104,91 L104,103 Z"/>
  </g>
</svg>
