<svg xmlns="http://www.w3.org/2000/svg" width="144" height="144" viewBox="0 0 144 144">
  <g fill="none" fill-rule="evenodd">
<path fill="#EFEFEF" d="M108,40 L36,40 C33.788,40 32,41.788 32,44 L32,100 C32,102.208 33.788,104 36,104 L108,104 C110.212,104 112,102.208 112,100 L112,44 C112,41.792 110.212,40 108,40 Z M104,96 L40,96 L40,48 L104,48 L104,96 Z M89.26,75.508 L76.336,81.928 L61.256,57.524 L48,88 L96,88 L89.26,75.508 Z M85,68 C87.76,68 90,65.76 90,63 C90,60.24 87.76,58 85,58 C82.24,58 80,60.24 80,63 C80,65.76 82.24,68 85,68 Z"/>
  </g>
</svg>
