<svg xmlns="http://www.w3.org/2000/svg" width="144" height="144" viewBox="0 0 144 144">
  <g fill="none" fill-rule="evenodd">
<path fill="#EFEFEF" fill-rule="nonzero" d="M104,44 L40,44 C37.788,44 36,45.788 36,48 L36,96 C36,98.208 37.788,100 40,100 L104,100 C106.212,100 108,98.208 108,96 L108,48 C108,45.792 106.212,44 104,44 Z M85,58 C87.76,58 90,60.24 90,63 C90,65.76 87.76,68 85,68 C82.24,68 80,65.76 80,63 C80,60.24 82.24,58 85,58 Z M48,88 L61.256,57.524 L76.332,81.932 L89.256,75.512 L96,88 L48,88 Z"/>
  </g>
</svg>
