<svg xmlns="http://www.w3.org/2000/svg" width="144" height="144" viewBox="0 0 144 144">
  <g fill="none" fill-rule="evenodd">
<path fill="#EFEFEF" fill-rule="nonzero" d="M109.012,68.168 C107.46,66.504 99.952,59.084 96.524,55.696 C95.472,54.66 93.968,54 92.392,54 L51.608,54 C50.032,54 48.528,54.66 47.476,55.696 C44.044,59.084 36.54,66.5 34.988,68.168 C33.048,70.252 32.096,71.776 32.492,73.964 C32.888,76.152 34.356,84.58 34.716,86.26 C35.068,87.936 37.452,90 39.676,90 L104.324,90 C106.548,90 108.932,87.936 109.288,86.26 C109.644,84.58 111.116,76.152 111.512,73.964 C111.908,71.776 110.956,70.248 109.012,68.168 Z M88.056,70.012 C87.652,70.012 87.284,70.22 87.104,70.544 L83.864,78 L60.136,78 L56.9,70.544 C56.72,70.22 56.352,70.012 55.948,70.012 L41.892,70.012 L49.98,62 L94.02,62 L102.112,70.012 L88.056,70.012 Z"/>
  </g>
</svg>
