<svg xmlns="http://www.w3.org/2000/svg" width="144" height="144" viewBox="0 0 144 144">
  <g fill="none" fill-rule="evenodd">
<path fill="#EFEFEF" fill-rule="nonzero" d="M95.608,54.4 C87.292,54.4 78.176,59.032 72,66.064 C65.82,59.032 56.7,54.4 48.384,54.4 C40.464,54.4 32,59.024 32,72 C32,84.976 40.464,89.592 48.384,89.6 L48.384,89.6 C56.7,89.6 65.816,84.968 71.996,77.936 C78.172,84.968 87.288,89.6 95.604,89.6 C103.528,89.6 112,84.976 112,72 C112,59.024 103.528,54.4 95.608,54.4 Z M48.384,82.564 C42.336,82.564 39.2,79.008 39.2,72 C39.2,64.992 42.336,61.436 48.384,61.436 C55.076,61.436 62.84,65.78 67.612,72 C62.84,78.22 55.076,82.564 48.384,82.564 Z M95.608,82.564 C88.916,82.564 81.152,78.22 76.38,72 C81.148,65.78 88.92,61.436 95.608,61.436 C101.656,61.436 104.8,64.992 104.8,72 C104.8,79.008 101.656,82.564 95.608,82.564 Z"/>
  </g>
</svg>
