<svg xmlns="http://www.w3.org/2000/svg" width="144" height="144" viewBox="0 0 144 144">
  <g fill="none" fill-rule="evenodd">
<path fill="#EFEFEF" fill-rule="nonzero" d="M72,33.6 C50.788,33.6 33.596,50.792 33.596,72 C33.596,93.212 50.788,110.404 72,110.404 C93.204,110.404 110.4,93.212 110.4,72 C110.4,50.792 93.204,33.6 72,33.6 Z M75.584,47.464 C79.328,47.464 80.428,49.636 80.428,52.12 C80.428,55.22 77.948,58.088 73.712,58.088 C70.168,58.088 68.48,56.308 68.584,53.36 C68.584,50.876 70.66,47.464 75.584,47.464 Z M65.992,95 C63.432,95 61.564,93.444 63.352,86.624 L66.284,74.524 C66.792,72.588 66.876,71.812 66.284,71.812 C65.52,71.812 62.196,73.148 60.236,74.468 L58.96,72.376 C65.18,67.18 72.332,64.132 75.392,64.132 C77.952,64.132 78.376,67.156 77.1,71.812 L73.74,84.532 C73.144,86.78 73.4,87.556 73.996,87.556 C74.764,87.556 77.276,86.628 79.748,84.68 L81.196,86.624 C75.144,92.672 68.548,95 65.992,95 Z"/>
  </g>
</svg>
