<svg xmlns="http://www.w3.org/2000/svg" width="144" height="144" viewBox="0 0 144 144">
  <g fill="none" fill-rule="evenodd">
<path fill="#EFEFEF" fill-rule="nonzero" d="M81.728,32 C87.088,32 89.768,35.648 89.768,39.828 C89.768,45.048 85.112,49.876 79.052,49.876 C73.976,49.876 71.016,46.876 71.156,41.916 C71.156,37.744 74.68,32 81.728,32 Z M65.236,112 C61.004,112 57.904,109.392 60.864,97.904 L65.72,77.536 C66.564,74.28 66.704,72.972 65.72,72.972 C64.452,72.972 58.964,75.22 55.712,77.44 L53.6,73.92 C63.888,65.176 75.724,60.052 80.804,60.052 C85.032,60.052 85.736,65.144 83.624,72.972 L78.06,94.38 C77.076,98.16 77.496,99.464 78.484,99.464 C79.752,99.464 83.912,97.896 88,94.636 L90.4,97.892 C80.392,108.08 69.46,112 65.236,112 Z"/>
  </g>
</svg>
