<svg xmlns="http://www.w3.org/2000/svg" width="144" height="144" viewBox="0 0 144 144">
  <g fill="none" fill-rule="evenodd">
<path fill="#EFEFEF" fill-rule="nonzero" d="M86.991,59.60452 C86.3181198,57.860358 84.939522,56.4817602 83.19536,55.80888 C82.006107,55.3681432 80.7499258,55.1351758 79.48172,55.12016 C77.37256,55.02392 76.74024,55.00368 71.39992,55.00368 C66.0596,55.00368 65.42728,55.02392 63.31812,55.12012 C62.0499142,55.1351358 60.793733,55.3681032 59.60448,55.80884 C57.860318,56.4817202 56.4817202,57.860318 55.80884,59.60448 C55.3681032,60.793733 55.1351358,62.0499142 55.12012,63.31812 C55.02392,65.42728 55.00368,66.05992 55.00368,71.39992 C55.00368,76.73992 55.02396,77.37256 55.12012,79.48172 C55.1351072,80.7499286 55.3680756,82.0061148 55.80884,83.19536 C56.4817202,84.939522 57.860318,86.3181198 59.60448,86.991 C60.793733,87.4317368 62.0499142,87.6647042 63.31812,87.67972 C65.42676,87.77572 66.05932,87.79616 71.39992,87.79616 C76.74052,87.79616 77.37308,87.77588 79.48172,87.67972 C80.7499258,87.6647042 82.006107,87.4317368 83.19536,86.991 C84.939522,86.3181198 86.3181198,84.939522 86.991,83.19536 C87.4317644,82.0061148 87.6647328,80.7499286 87.67972,79.48172 C87.77572,77.3726 87.79616,76.74028 87.79616,71.39992 C87.79616,66.05956 87.77592,65.42728 87.67972,63.31812 C87.6646996,62.0499276 87.4317322,60.7937602 86.991,59.60452 L86.991,59.60452 Z M71.39992,81.6702 C65.727801,81.6702 61.12964,77.072039 61.12964,71.39992 C61.12964,65.727801 65.727801,61.12964 71.39992,61.12964 C77.072039,61.12964 81.6702,65.727801 81.6702,71.39992 C81.6702106,74.1237708 80.5881698,76.736063 78.6621164,78.6621164 C76.736063,80.5881698 74.1237708,81.6702106 71.39992,81.6702 L71.39992,81.6702 Z M82.07592,63.12392 C80.7504366,63.12392 79.67592,62.0494034 79.67592,60.72392 C79.67592,59.3984366 80.7504366,58.32392 82.07592,58.32392 C83.4014034,58.32392 84.47592,59.3984366 84.47592,60.72392 C84.47592,62.0494034 83.4014034,63.12392 82.07592,63.12392 Z"/>
    <circle cx="71.4" cy="71.4" r="6.668" fill="#000" fill-rule="nonzero"/>
    <path fill="#EFEFEF" fill-rule="nonzero" d="M71.39992,32.99992 C50.1921856,32.99992 32.99992,50.1921856 32.99992,71.39992 C32.99992,92.6076544 50.1921856,109.79992 71.39992,109.79992 C92.6076544,109.79992 109.79992,92.6076544 109.79992,71.39992 C109.799973,61.2155906 105.754287,51.4483695 98.552879,44.246961 C91.3514706,37.0455526 81.5842494,32.999867 71.39992,32.99992 Z M91.27956,79.64592 C91.2462632,81.3050722 90.9319156,82.9465714 90.34988,84.50064 C89.3111056,87.1872014 87.1873214,89.3109856 84.50076,90.34976 C82.9466914,90.9317956 81.3051922,91.2461432 79.64604,91.27944 C77.51272,91.37696 76.83156,91.39992 71.39992,91.39992 C65.96828,91.39992 65.28712,91.37696 63.15384,91.27956 C61.4946878,91.2462632 59.8531886,90.9319156 58.29912,90.34988 C55.6125586,89.3111056 53.4887744,87.1873214 52.45,84.50076 C51.8679644,82.9466914 51.5536169,81.3051922 51.52032,79.64604 C51.42288,77.51272 51.39992,76.83156 51.39992,71.39992 C51.39992,65.96828 51.42288,65.28712 51.52028,63.15384 C51.5535769,61.4946878 51.8679244,59.8531886 52.44996,58.29912 C53.488725,55.6125434 55.6125106,53.4887434 58.29908,52.44996 C59.8531486,51.8679244 61.4946478,51.5535769 63.1538,51.52028 C65.28712,51.42288 65.96828,51.39992 71.39992,51.39992 C76.83156,51.39992 77.51272,51.42288 79.646,51.52028 C81.3051522,51.5535769 82.9466514,51.8679244 84.50072,52.44996 C87.1872814,53.4887344 89.3110656,55.6125186 90.34984,58.29908 C90.9318756,59.8531486 91.2462232,61.4946478 91.27952,63.1538 C91.37696,65.28712 91.39992,65.96828 91.39992,71.39992 C91.39992,76.83156 91.37696,77.51272 91.27956,79.646 L91.27956,79.64592 Z"/>
  </g>
</svg>
