<svg xmlns="http://www.w3.org/2000/svg" width="144" height="144" viewBox="0 0 144 144">
  <g fill="none" fill-rule="evenodd">
<path fill="#EFEFEF" fill-rule="nonzero" d="M107.78344,57.15724 C107.723626,54.1707553 107.157833,51.2160342 106.11012,48.41872 C105.206158,46.0165616 103.789101,43.84049 101.95776,42.04224 C100.15951,40.210899 97.9834384,38.7938424 95.58128,37.88988 C92.7839658,36.8421673 89.8292448,36.2763742 86.84276,36.21656 C83.00292,36.04152 81.77708,36 72,36 C62.22292,36 60.99708,36.04152 57.15724,36.21656 C54.1707553,36.2763742 51.2160342,36.8421673 48.41872,37.88988 C46.0165616,38.7938424 43.84049,40.210899 42.04224,42.04224 C40.210899,43.84049 38.7938424,46.0165616 37.88988,48.41872 C36.8421673,51.2160342 36.2763742,54.1707553 36.21656,57.15724 C36.04152,60.99708 36,62.22292 36,72 C36,81.77708 36.04152,83.00292 36.21656,86.84276 C36.2763742,89.8292448 36.8421673,92.7839658 37.88988,95.58128 C38.7938424,97.9834384 40.210899,100.15951 42.04224,101.95776 C43.8404245,103.789181 46.0165149,105.20625 48.41872,106.11012 C51.2160342,107.157833 54.1707553,107.723626 57.15724,107.78344 C60.99708,107.95876 62.22292,108 72,108 C81.77708,108 83.00292,107.95876 86.84276,107.78344 C89.8292448,107.723626 92.7839658,107.157833 95.58128,106.11012 C100.417018,104.239875 104.239835,100.417058 106.11008,95.58132 C107.157793,92.7840058 107.723586,89.8292848 107.7834,86.8428 C107.95848,83.00292 108,81.77708 108,72 C108,62.22292 107.95848,60.99708 107.78344,57.15724 Z M101.30372,86.54712 C101.276701,88.8298996 100.857337,91.0910338 100.06396,93.23168 C98.852987,96.3713916 96.3713846,98.8530086 93.23168,100.064 C91.0910262,100.857349 88.8298968,101.276712 86.54712,101.30376 C82.75148,101.4768 81.61304,101.51344 72,101.51344 C62.38696,101.51344 61.24852,101.4768 57.45288,101.30372 C55.1701055,101.276685 52.9089763,100.857335 50.76832,100.064 C49.2046011,99.4870246 47.7901186,98.5668354 46.62892,97.37112 C45.4331852,96.209914 44.5129817,94.795417 43.936,93.23168 C43.1426232,91.0910338 42.7232593,88.8298996 42.69624,86.54712 C42.5232,82.75096 42.48656,81.61256 42.48656,72 C42.48656,62.38744 42.5232,61.24904 42.69628,57.45288 C42.723315,55.1701055 43.1426645,52.9089763 43.936,50.76832 C44.5129753,49.2046011 45.4331646,47.7901186 46.62888,46.62892 C47.790086,45.4331852 49.204583,44.5129817 50.76832,43.936 C52.9089739,43.1426509 55.1701031,42.7232878 57.45288,42.69624 C61.24904,42.5232 62.38744,42.48656 72,42.48656 C81.61256,42.48656 82.75096,42.5232 86.54712,42.69628 C88.8298968,42.7233278 91.0910262,43.1426909 93.23168,43.93604 C94.795399,44.5130153 96.2098814,45.4332046 97.37108,46.62892 C98.5668098,47.7901145 99.487013,49.2045973 100.064,50.76832 C100.857349,52.9089739 101.276712,55.1701031 101.30376,57.45288 C101.47684,61.24888 101.51348,62.38768 101.51348,72 C101.51348,81.61232 101.4768,82.75096 101.30372,86.54712 L101.30372,86.54712 Z M72,53.51344 C61.7901548,53.51344 53.51344,61.7901548 53.51344,72 C53.51344,82.2098452 61.7901548,90.48656 72,90.48656 C82.2098452,90.48656 90.48656,82.2098452 90.48656,72 C90.4864496,61.7902006 82.2097994,53.5135505 72,53.51344 Z M72,84 C65.372583,84 60,78.627417 60,72 C60,65.372583 65.372583,60 72,60 C78.627417,60 84,65.372583 84,72 C84,75.1825978 82.735718,78.2348448 80.4852814,80.4852814 C78.2348448,82.735718 75.1825978,84 72,84 Z M95.53688,52.7832 C95.53688,55.1690701 93.6027502,57.1032 91.21688,57.1032 C88.8310098,57.1032 86.89688,55.1690701 86.89688,52.7832 C86.89688,50.3973299 88.8310098,48.4632 91.21688,48.4632 C93.6027502,48.4632 95.53688,50.3973299 95.53688,52.7832 L95.53688,52.7832 Z"/>
  </g>
</svg>
