<svg xmlns="http://www.w3.org/2000/svg" width="144" height="144" viewBox="0 0 144 144">
  <g fill="none" fill-rule="evenodd">
<path fill="#EFEFEF" fill-rule="nonzero" d="M108.236,75.592 L95.552,43.884 C94.616,41.536 92.344,40 89.816,40 L80.08,40 L81.6,56.26 L92.4,56.26 L72,73.172 L51.6,56.26 L62.4,56.26 L63.92,40 L54.184,40 C51.656,40 49.384,41.536 48.448,43.884 L35.764,75.592 C34.612,78.476 34.272,81.62 34.78,84.68 L37.14,98.836 C37.636,101.816 40.212,104 43.232,104 L100.764,104 C103.784,104 106.36,101.816 106.856,98.836 L109.216,84.68 C109.732,81.62 109.392,78.476 108.236,75.592 Z M99.836,92.98 C99.548,94.724 98.04,96 96.272,96 L47.728,96 C45.96,96 44.452,94.724 44.164,92.98 L42.704,84.208 C42.332,82.004 44.032,80 46.268,80 L97.736,80 C99.968,80 101.668,82.004 101.3,84.208 L99.836,92.98 Z"/>
  </g>
</svg>
