<svg xmlns="http://www.w3.org/2000/svg" width="144" height="144" viewBox="0 0 144 144">
  <g fill="none" fill-rule="evenodd">
<path fill="#EFEFEF" fill-rule="nonzero" d="M106.4,48 L37.6,48 C34.516,48 32,50.516 32,53.6 L32,90.4 C32,93.476 34.516,96 37.596,96 L106.396,96 C109.476,96 111.996,93.476 111.996,90.4 L111.996,53.6 C112,50.516 109.476,48 106.4,48 Z M76,56 L84,56 L84,64 L76,64 L76,56 Z M88,68 L88,76 L80,76 L80,68 L88,68 Z M64,56 L72,56 L72,64 L64,64 L64,56 Z M76,68 L76,76 L68,76 L68,68 L76,68 Z M52,56 L60,56 L60,64 L52,64 L52,56 Z M64,68 L64,76 L56,76 L56,68 L64,68 Z M40,56 L48,56 L48,64 L40,64 L40,56 Z M52,68 L52,76 L44,76 L44,68 L52,68 Z M48,88 L40,88 L40,80 L48,80 L48,88 Z M92,88 L52,88 L52,80 L92,80 L92,88 Z M104,88 L96,88 L96,80 L104,80 L104,88 Z M92,76 L92,68 L100,68 L100,76 L92,76 Z M104,64 L88,64 L88,56 L104,56 L104,64 Z"/>
  </g>
</svg>
