<svg xmlns="http://www.w3.org/2000/svg" width="144" height="144" viewBox="0 0 144 144">
  <g fill="none" fill-rule="evenodd">
<path fill="#EFEFEF" d="M98.728,92 C90.548,71.572 81,66.188 81,56 L81,44 L83,44 C84.104,44 85,43.104 85,42 L85,38 C85,36.896 84.104,36 83,36 L63,36 C61.896,36 61,36.896 61,38 L61,42 C61,43.104 61.896,44 63,44 L65,44 L65,56 C65,66.188 55.452,71.572 47.272,92 C44.668,98.5 37.98,108 73,108 C108.02,108 101.332,98.5 98.728,92 Z M92.26,99.004 C89.452,99.844 83.864,100.8 73,100.8 C62.136,100.8 56.548,99.844 53.74,99.004 C52.744,98.708 52.356,97.552 52.708,96.492 C53.588,93.812 55.248,89.18 58.352,84.008 C65.936,71.372 73.804,85.996 80.352,85.996 C86.9,85.996 85.104,79.752 87.648,84.008 C90.744,89.184 92.412,93.812 93.292,96.492 C93.644,97.552 93.256,98.704 92.26,99.004 Z"/>
  </g>
</svg>
