<svg xmlns="http://www.w3.org/2000/svg" width="144" height="144" viewBox="0 0 144 144">
  <g fill="none" fill-rule="evenodd">
<path fill="#EFEFEF" fill-rule="nonzero" d="M50.608,33 C44.992,31.892 39.46,35.5 38.332,41.092 C33.912,62.912 33.912,81.08 38.332,102.908 C39.32,107.808 43.68,111.2 48.552,111.2 C49.232,111.2 49.92,111.136 50.612,111 C56.26,109.884 59.928,104.448 58.796,98.856 C54.884,79.528 54.884,64.464 58.796,45.136 C59.924,39.552 56.256,34.116 50.608,33 Z M99,40 L64.744,40 C65.036,41.868 65.068,43.804 64.676,45.76 C60.932,64.64 60.932,79.352 64.676,98.24 C65.068,100.2 65.036,102.132 64.744,104 L99,104 C103.4,104 107,100.4 107,96 L107,48 C107,43.6 103.404,40 99,40 Z M79,90 C75.688,90 73,87.312 73,84 C73,80.688 75.688,78 79,78 C82.312,78 85,80.688 85,84 C85,87.312 82.312,90 79,90 Z M99,68 L71,68 L71,52 L99,52 L99,68 Z"/>
  </g>
</svg>
