<svg xmlns="http://www.w3.org/2000/svg" width="144" height="144" viewBox="0 0 144 144">
  <g fill="none" fill-rule="evenodd">
<path fill="#EFEFEF" fill-rule="nonzero" d="M111.012,75.636 C108.516,68.808 101.548,64.732 92.368,64.732 C92.008,64.732 91.664,64.74 91.32,64.756 L91.256,56.504 C91.256,56.504 104.896,54.152 105.356,54.076 C105.816,54 105.888,53.6 105.792,53.152 C105.7,52.708 105.124,49.62 105.04,49.248 C104.932,48.724 104.632,48.74 104.212,48.812 C103.796,48.884 91.212,50.656 91.212,50.656 C91.212,50.656 91.164,42.844 91.16,42.344 C91.156,41.844 90.884,41.712 90.384,41.72 C89.884,41.728 86.704,41.776 86.284,41.784 C85.864,41.792 85.628,41.98 85.636,42.376 C85.644,42.776 85.768,51.604 85.768,51.604 C85.768,51.604 73.524,53.712 73.192,53.776 C72.856,53.832 72.512,53.988 72.588,54.348 C72.664,54.708 73.348,58.724 73.42,59.036 C73.492,59.356 73.708,59.552 74.172,59.464 C74.632,59.388 85.868,57.448 85.868,57.448 L86.008,65.52 C81.7,66.644 78.804,68.816 76.984,70.732 C73.912,73.96 72.156,78.28 72.156,82.584 C72.156,88.928 76.04,92.7 81.468,93.364 C94.116,94.912 101.944,81.124 104.544,74.504 C108.932,80.528 105.568,91.92 96.168,98.424 C95.996,98.54 95.776,98.94 96.036,99.252 C96.296,99.564 98.2,101.9 98.512,102.276 C98.832,102.66 99.336,102.512 99.536,102.368 C109.576,95.448 114.18,84.308 111.012,75.636 Z M81.468,88.388 C77.604,87.904 77.692,84.732 77.692,82.576 C77.692,79.484 79,76.256 81.196,73.952 C82.536,72.536 84.196,71.468 86.112,70.756 L86.44,87.864 C84.9,88.388 83.244,88.604 81.468,88.388 Z M91.176,86.176 L91.36,69.74 C91.696,69.724 92.024,69.7 92.368,69.7 C95.46,69.7 98.344,70.28 99.908,71.144 C101.472,72.012 95.816,81.996 91.176,86.176 Z M55.376,55.504 C55.256,55.128 54.964,54.924 54.592,54.924 L46.792,54.924 C46.42,54.924 46.132,55.128 46.016,55.5 C44.368,60.696 32.096,99.46 32.032,99.664 C31.964,99.868 31.988,99.968 32.28,99.968 L39.212,99.968 C39.512,99.968 39.608,99.876 39.668,99.68 C39.728,99.476 43.7,86.408 43.7,86.408 L57.684,86.408 C57.684,86.408 61.652,99.48 61.716,99.68 C61.78,99.876 61.872,99.968 62.168,99.968 L69.104,99.968 C69.392,99.968 69.416,99.868 69.352,99.664 C69.296,99.464 57.02,60.7 55.376,55.504 Z M44.904,80.776 L50.692,59.776 L56.48,80.776 L44.904,80.776 Z"/>
  </g>
</svg>
