<svg xmlns="http://www.w3.org/2000/svg" width="144" height="144" viewBox="0 0 144 144">
  <g fill="none" fill-rule="evenodd">
<path fill="#EFEFEF" fill-rule="nonzero" d="M111.016,94.524 C110.028,93.04 104,84 104,84 L104,48 C104,43.592 100.4,40 96,40 L48,40 C43.596,40 40,43.592 40,48 L40,84 C40,84 33.972,93.04 32.984,94.524 C32,96 32,96.852 32,98 L32,100 C32,102 34,104 35.996,104 L108.004,104 C110,104 112,102 112,100 L112,98 C112,96.852 112,96 111.016,94.524 Z M60,96 L62.4,92 L81.6,92 L84,96 L60,96 Z M96,80 L48,80 L48,48 L96,48 L96,80 Z"/>
  </g>
</svg>
