<svg xmlns="http://www.w3.org/2000/svg" width="144" height="144" viewBox="0 0 144 144">
  <g fill="none" fill-rule="evenodd">
<path fill="#EFEFEF" fill-rule="nonzero" d="M66.296,90.304 C64.388,91.696 60.476,94.4 52.772,94.4 C42.128,94.4 32,86.828 32,72.78 C32,58.188 42.548,49.6 53.416,49.6 C65.604,49.6 70.148,54.032 73.992,66.036 L77.016,75.272 C79.22,82.024 83.868,86.912 93.12,86.912 C99.352,86.912 102.648,85.528 102.648,82.116 C102.648,79.436 101.092,77.492 96.42,76.38 L90.184,74.904 C82.584,73.06 79.56,69.084 79.56,62.804 C79.56,52.74 87.624,49.6 95.868,49.6 C105.216,49.6 110.896,53.016 111.628,61.328 L102.464,62.436 C102.096,58.468 99.712,56.804 95.316,56.804 C91.284,56.804 88.808,58.648 88.808,61.788 C88.808,64.56 90.004,66.224 94.036,67.148 L99.9,68.444 C107.78,70.288 112,74.172 112,81.656 C112,90.892 104.304,94.4 92.936,94.4 C77.084,94.4 71.584,87.196 68.656,78.236 L65.72,69 C63.524,62.252 61.76,57.392 53.696,57.392 C48.104,57.392 40.82,61.056 40.82,72.416 C40.82,81.284 46.912,86.832 53.236,86.832 C58.596,86.832 61.82,83.816 63.492,82.308 L66.296,90.304 Z"/>
  </g>
</svg>
