<svg xmlns="http://www.w3.org/2000/svg" width="144" height="144" viewBox="0 0 144 144">
  <g fill="none" fill-rule="evenodd">
<path fill="#EFEFEF" fill-rule="nonzero" d="M72,33.6 C50.792,33.6 33.6,50.792 33.6,72 C33.6,93.208 50.792,110.4 72,110.4 C93.208,110.4 110.4,93.208 110.4,72 C110.4,50.792 93.208,33.6 72,33.6 Z M82.576,83.32 C74.568,83.32 71.788,79.68 70.312,75.148 L68.828,70.484 C67.72,67.08 66.824,64.616 62.752,64.616 C59.928,64.616 56.248,66.468 56.248,72.208 C56.248,76.684 59.328,79.488 62.52,79.488 C65.228,79.488 66.856,77.964 67.704,77.2 L69.12,81.248 C68.156,81.944 66.184,83.316 62.292,83.316 C56.908,83.316 51.792,79.488 51.792,72.396 C51.792,65.02 57.124,60.676 62.612,60.676 C68.772,60.676 71.064,62.916 73.012,68.988 L74.54,73.652 C75.652,77.06 78,79.536 82.676,79.536 C85.824,79.536 87.492,78.832 87.492,77.108 C87.492,75.756 86.704,74.772 84.344,74.216 L81.196,73.464 C77.352,72.536 75.824,70.528 75.824,67.348 C75.824,62.264 79.896,60.676 84.068,60.676 C88.792,60.676 91.66,62.404 92.028,66.604 L87.4,67.16 C87.216,65.16 86.012,64.316 83.788,64.316 C81.752,64.316 80.504,65.252 80.504,66.84 C80.504,68.24 81.104,69.076 83.144,69.544 L86.104,70.2 C90.084,71.132 92.216,73.092 92.216,76.872 C92.212,81.548 88.32,83.32 82.576,83.32 Z"/>
  </g>
</svg>
