<svg xmlns="http://www.w3.org/2000/svg" width="144" height="144" viewBox="0 0 144 144">
  <g fill="none" fill-rule="evenodd">
<path fill="#EFEFEF" fill-rule="nonzero" d="M69.992,79.404 C71.792,80.656 74.192,80.656 75.992,79.404 L112.344,58.28 C113.288,57.624 113.184,56.208 112.152,55.696 L75.332,41.548 C73.86,40.816 72.124,40.816 70.652,41.548 L33.832,55.696 C32.8,56.204 32.696,57.624 33.64,58.28 L69.992,79.404 Z M112.152,76.244 L102.208,71.312 L79.308,84.62 C77.432,85.856 75.252,86.504 72.992,86.504 C70.732,86.504 68.552,85.852 66.676,84.62 L43.792,71.304 L33.832,76.24 C32.8,76.752 32.696,78.168 33.64,78.824 L69.992,104.06 C71.792,105.312 74.192,105.312 75.992,104.06 L112.344,78.824 C113.288,78.172 113.184,76.756 112.152,76.244 Z"/>
  </g>
</svg>
