<svg xmlns="http://www.w3.org/2000/svg" width="144" height="144" viewBox="0 0 144 144">
  <g fill="none" fill-rule="evenodd">
<path fill="#EFEFEF" fill-rule="nonzero" d="M99.152,44.848 C84.156,29.852 59.844,29.852 44.852,44.848 C29.852,59.848 29.852,84.16 44.844,99.152 C59.844,114.152 84.156,114.152 99.156,99.152 C114.148,84.156 114.148,59.844 99.152,44.848 Z M58.992,85.008 C51.804,77.82 51.804,66.172 58.992,58.988 C66.172,51.804 77.828,51.804 85.016,58.988 C92.204,66.176 92.196,77.824 85.016,85.008 C77.828,92.196 66.18,92.196 58.992,85.008 Z M93.388,83.516 C97.26,76.32 97.264,67.68 93.388,60.48 L100.52,56.64 C105.676,66.204 105.676,77.8 100.528,87.352 L93.388,83.516 Z M87.356,43.476 L83.512,50.612 C76.316,46.744 67.676,46.744 60.488,50.612 L56.644,43.48 C66.204,38.328 77.792,38.328 87.356,43.476 Z M43.48,56.64 L50.616,60.484 C46.744,67.676 46.744,76.312 50.612,83.508 L43.476,87.352 C38.324,77.796 38.328,66.204 43.48,56.64 Z M56.636,100.516 L60.48,93.384 C67.676,97.26 76.32,97.26 83.516,93.384 L87.36,100.524 C77.792,105.672 66.2,105.672 56.636,100.516 Z"/>
  </g>
</svg>
