<svg xmlns="http://www.w3.org/2000/svg" width="144" height="144" viewBox="0 0 144 144">
  <g fill="none" fill-rule="evenodd">
<path fill="#EFEFEF" fill-rule="nonzero" d="M72,59.188 C64.9,59.188 59.2,64.892 59.2,71.992 C59.2,79.084 64.9,84.788 72,84.788 C79.096,84.788 84.796,79.084 84.796,71.992 C84.796,64.892 79.096,59.188 72,59.188 Z M72,80.188 C67.468,80.188 63.796,76.524 63.796,71.992 C63.796,67.46 67.468,63.788 72,63.788 C76.528,63.788 80.2,67.46 80.2,71.992 C80.196,76.524 76.524,80.188 72,80.188 Z M92,52 C90.752,50.752 88.468,51.008 86.908,52.568 C85.348,54.132 85.096,56.404 86.344,57.656 C87.592,58.908 89.872,58.656 91.436,57.092 C92.996,55.532 93.248,53.248 92,52 Z M52.568,86.916 C51.004,88.476 50.752,90.752 52,92 C53.248,93.248 55.528,93 57.092,91.436 C58.656,89.872 58.908,87.592 57.66,86.344 C56.412,85.096 54.128,85.352 52.568,86.916 Z M52,52 C50.752,53.248 51.004,55.532 52.564,57.092 C54.128,58.656 56.408,58.904 57.656,57.656 C58.904,56.408 58.652,54.124 57.088,52.564 C55.532,51.008 53.248,50.752 52,52 Z M86.908,91.428 C88.468,92.992 90.748,93.248 92,92 C93.252,90.752 92.996,88.468 91.432,86.904 C89.868,85.34 87.592,85.092 86.34,86.34 C85.088,87.588 85.348,89.868 86.908,91.428 Z M72,51.992 C73.764,51.992 75.2,50.204 75.2,47.992 C75.196,45.78 73.764,44 72,44 C70.232,44 68.796,45.78 68.796,47.992 C68.796,50.204 70.228,51.992 72,51.992 Z M72,100 C73.764,100 75.2,98.212 75.2,96 C75.2,93.788 73.768,92.008 72.004,92.008 C70.236,92.008 68.8,93.788 68.8,96 C68.796,98.212 70.228,100 72,100 Z M52,72 C52,70.236 50.2,68.8 47.988,68.8 C45.776,68.8 44,70.236 44,72 C44,73.768 45.776,75.2 47.988,75.2 C50.2,75.2 52,73.768 52,72 Z M100,72 C100,70.236 98.208,68.8 95.996,68.8 C93.784,68.8 92,70.236 92,72 C92,73.768 93.784,75.2 95.996,75.2 C98.208,75.2 100,73.768 100,72 Z"/>
  </g>
</svg>
