<svg xmlns="http://www.w3.org/2000/svg" width="144" height="144" viewBox="0 0 144 144">
  <g fill="none" fill-rule="evenodd">
<path fill="#EFEFEF" fill-rule="nonzero" d="M108,68.796 C107.272,68.796 104.804,68.796 104.08,68.796 C101.868,68.796 100.08,70.232 100.08,72 C100.08,73.764 101.868,75.196 104.08,75.196 C104.808,75.196 107.276,75.196 108,75.196 C110.208,75.196 112,73.768 112,72 C112,70.236 110.204,68.796 108,68.796 Z M72,50 C59.796,50 50,59.796 50,72 C50,84.204 59.796,94 72,94 C84.2,94 94,84.204 94,72 C94,59.796 84.196,50 72,50 Z M72,88 C63.156,88 56,80.836 56,72 C56,63.156 63.156,56 72,56 C80.836,56 88,63.156 88,72 C88,80.836 80.836,88 72,88 Z M44,72 C44,70.236 42.204,68.796 40,68.796 C39.26,68.796 36.736,68.796 36,68.796 C33.788,68.796 32,70.232 32,72 C32,73.764 33.788,75.196 36,75.196 C36.736,75.196 39.26,75.196 40,75.196 C42.204,75.196 44,73.764 44,72 Z M72,44 C73.764,44 75.196,42.212 75.196,40 C75.196,39.264 75.196,36.736 75.196,36 C75.196,33.788 73.764,32 72,32 C70.232,32 68.796,33.788 68.796,36 C68.796,36.736 68.796,39.264 68.796,40 C68.796,42.212 70.232,44 72,44 Z M72,100 C70.232,100 68.796,101.788 68.796,104 C68.796,104.736 68.796,107.264 68.796,108 C68.796,110.212 70.232,112 72,112 C73.764,112 75.196,110.212 75.196,108 C75.196,107.264 75.196,104.736 75.196,104 C75.196,101.788 73.764,100 72,100 Z M101.46,47.064 C103.024,45.5 103.276,43.22 102.028,41.972 C100.78,40.724 98.496,40.98 96.94,42.544 C96.508,42.972 94.568,44.912 94.14,45.34 C92.576,46.904 92.324,49.184 93.572,50.432 C94.82,51.68 97.104,51.424 98.664,49.86 C99.092,49.428 101.028,47.492 101.46,47.064 Z M45.336,94.132 C44.904,94.568 42.964,96.508 42.536,96.936 C40.972,98.5 40.72,100.772 41.968,102.02 C43.216,103.268 45.5,103.02 47.056,101.456 C47.488,101.028 49.428,99.088 49.856,98.66 C51.42,97.096 51.672,94.816 50.424,93.564 C49.176,92.312 46.892,92.576 45.336,94.132 Z M47.06,42.54 C45.5,40.976 43.216,40.72 41.968,41.968 C40.72,43.216 40.976,45.5 42.532,47.064 C42.964,47.492 44.904,49.432 45.332,49.86 C46.896,51.424 49.172,51.68 50.42,50.432 C51.668,49.184 51.416,46.9 49.856,45.34 C49.428,44.908 47.492,42.968 47.06,42.54 Z M94.136,98.664 C94.568,99.092 96.508,101.032 96.936,101.46 C98.5,103.024 100.776,103.272 102.024,102.032 C103.272,100.784 103.02,98.5 101.456,96.94 C101.028,96.512 99.088,94.572 98.66,94.144 C97.096,92.58 94.816,92.324 93.564,93.572 C92.312,94.82 92.572,97.1 94.136,98.664 Z"/>
  </g>
</svg>
