<svg xmlns="http://www.w3.org/2000/svg" width="144" height="144" viewBox="0 0 144 144">
  <g fill="none" fill-rule="evenodd">
<path fill="#EFEFEF" d="M60.744,107.688 C63.9,109.728 67.548,111.108 72,111 C76.444,111.108 80.1,109.728 83.256,107.688 L83.188,99 L60.812,99 L60.744,107.688 Z M82.788,95 C82.788,77.572 101.308,71.608 99.92,54.248 C99.048,43.296 91.628,31.008 72,31.008 C52.372,31.008 44.952,43.296 44.076,54.252 C42.688,71.608 61.212,77.572 61.212,95 L82.788,95 Z M52,55 C52.828,44.608 60.452,39 72,39 C83.544,39 90.616,44.484 91.444,54.876 C91.896,60.572 88.624,64.368 84.208,70.58 C80.952,75.164 77.796,79.952 76,87 L68,87 C66.204,79.952 63.048,75.164 59.788,70.576 C55.376,64.368 51.544,60.696 52,55 Z"/>
  </g>
</svg>
