<svg xmlns="http://www.w3.org/2000/svg" width="144" height="144" viewBox="0 0 144 144">
  <g fill="none" fill-rule="evenodd">
<path fill="#EFEFEF" fill-rule="nonzero" d="M34.76,77.324 L40.212,78.676 L44.316,72.232 L36.516,70.304 C34.564,69.82 32.592,71 32.108,72.944 C31.624,74.876 32.808,76.836 34.76,77.324 Z M105.924,78.368 L88.072,94.432 L67.084,78.188 C66.684,77.884 66.224,77.656 65.732,77.54 L62.94,76.844 L58.832,83.288 L63.232,84.38 L86.02,102.012 C86.684,102.52 87.468,102.768 88.256,102.768 C89.132,102.768 90.008,102.456 90.692,101.84 L110.804,83.732 C112.292,82.396 112.408,80.108 111.06,78.624 C109.712,77.144 107.416,77.024 105.924,78.368 Z M66.736,60.72 L86.284,73.236 C87.936,74.292 90.128,73.852 91.244,72.252 L111.352,43.284 C112.496,41.636 112.084,39.376 110.428,38.244 C108.772,37.104 106.512,37.516 105.368,39.164 L87.256,65.248 L67.592,52.66 C66.776,52.136 65.788,51.964 64.84,52.168 C63.896,52.38 63.072,52.956 62.556,53.768 L32.568,100.836 C31.488,102.524 31.992,104.768 33.688,105.836 C34.288,106.22 34.964,106.4 35.632,106.4 C36.836,106.4 38.016,105.804 38.704,104.72 L66.736,60.72 Z"/>
  </g>
</svg>
