<svg xmlns="http://www.w3.org/2000/svg" width="144" height="144" viewBox="0 0 144 144">
  <g fill="none" fill-rule="evenodd">
<path fill="#EFEFEF" fill-rule="nonzero" d="M52,44 C52,48.4 49.2,52 44,52 C39.2,52 36,48.4 36,44.4 C36,40 39.2,36 44,36 C48.8,36 52,39.6 52,44 Z M36,108 L52,108 L52,56 L36,56 L36,108 Z M90.4,56.8 C82,56.8 77.2,61.6 75.2,64.8 L74.8,64.8 L74,58 L59.6,58 C59.6,62.4 60,67.6 60,73.6 L60,108 L76,108 L76,79.6 C76,78 76,76.8 76.4,75.6 C77.6,72.8 79.6,69.2 84,69.2 C89.6,69.2 92,74 92,80.4 L92,108 L108,108 L108,78.4 C108,63.6 100.4,56.8 90.4,56.8 Z"/>
  </g>
</svg>
