<svg xmlns="http://www.w3.org/2000/svg" width="144" height="144" viewBox="0 0 144 144">
  <g fill="none" fill-rule="evenodd">
<path fill="#EFEFEF" fill-rule="nonzero" d="M63.436,91.764 L60.196,94.984 C57.392,97.764 52.824,97.764 50.016,94.984 C48.672,93.648 47.932,91.868 47.932,89.976 C47.932,88.084 48.676,86.312 50.016,84.968 L61.936,73.148 C64.404,70.696 69.052,67.088 72.44,70.448 C73.996,71.992 76.504,71.984 78.052,70.428 C79.592,68.872 79.584,66.36 78.028,64.82 C72.276,59.108 63.764,60.164 56.352,67.52 L44.432,79.344 C41.572,82.18 40,85.96 40,89.976 C40,94 41.576,97.772 44.432,100.608 C47.376,103.528 51.24,104.992 55.108,104.992 C58.976,104.992 62.844,103.532 65.784,100.608 L69.028,97.388 C70.584,95.848 70.592,93.34 69.048,91.788 C67.5,90.236 64.992,90.228 63.436,91.764 Z M99.564,45.828 C93.376,39.692 84.728,39.36 79.008,45.04 L74.972,49.048 C73.416,50.592 73.404,53.1 74.948,54.652 C76.492,56.208 79,56.216 80.556,54.672 L84.596,50.668 C87.556,47.724 91.44,48.944 93.98,51.456 C95.324,52.796 96.068,54.572 96.068,56.464 C96.068,58.356 95.324,60.132 93.98,61.468 L81.26,74.084 C75.444,79.848 72.716,77.148 71.552,75.992 C69.996,74.448 67.488,74.46 65.948,76.012 C64.404,77.568 64.412,80.08 65.968,81.616 C68.64,84.264 71.688,85.576 74.88,85.576 C78.788,85.576 82.92,83.608 86.852,79.708 L99.572,67.096 C102.42,64.256 104,60.48 104,56.464 C104,52.444 102.42,48.668 99.564,45.828 Z"/>
  </g>
</svg>
