<svg xmlns="http://www.w3.org/2000/svg" width="144" height="144" viewBox="0 0 144 144">
  <g fill="none" fill-rule="evenodd">
<path fill="#EFEFEF" fill-rule="nonzero" d="M72,33.6 C50.792,33.6 33.6,50.792 33.6,72 C33.6,93.208 50.792,110.4 72,110.4 C93.208,110.4 110.4,93.208 110.4,72 C110.4,50.792 93.208,33.6 72,33.6 Z M62.6,87.916 L54.824,87.916 L54.824,62.892 L62.6,62.892 L62.6,87.916 Z M58.664,59.82 C56.208,59.82 54.62,58.08 54.62,55.928 C54.62,53.732 56.256,52.044 58.764,52.044 C61.272,52.044 62.808,53.732 62.856,55.928 C62.856,58.08 61.272,59.82 58.664,59.82 Z M91,87.916 L83.224,87.916 L83.224,74.048 C83.224,70.82 82.096,68.628 79.284,68.628 C77.136,68.628 75.86,70.112 75.296,71.54 C75.088,72.048 75.036,72.768 75.036,73.484 L75.036,87.912 L67.256,87.912 L67.256,70.872 C67.256,67.748 67.156,65.136 67.052,62.888 L73.808,62.888 L74.164,66.364 L74.32,66.364 C75.344,64.732 77.852,62.324 82.048,62.324 C87.164,62.324 91,65.752 91,73.12 L91,87.916 Z"/>
  </g>
</svg>
