<svg xmlns="http://www.w3.org/2000/svg" width="144" height="144" viewBox="0 0 144 144">
  <g fill="none" fill-rule="evenodd">
<path fill="#EFEFEF" fill-rule="nonzero" d="M89.6,68 L66.4,68 C64.192,68 64,69.788 64,72 C64,74.212 64.192,76 66.4,76 L89.6,76 C91.808,76 92,74.212 92,72 C92,69.788 91.808,68 89.6,68 Z M97.6,88 L66.4,88 C64.192,88 64,89.788 64,92 C64,94.212 64.192,96 66.4,96 L97.6,96 C99.808,96 100,94.212 100,92 C100,89.788 99.808,88 97.6,88 Z M66.4,56 L97.6,56 C99.808,56 100,54.212 100,52 C100,49.788 99.808,48 97.6,48 L66.4,48 C64.192,48 64,49.788 64,52 C64,54.212 64.192,56 66.4,56 Z M53.6,68 L46.4,68 C44.192,68 44,69.788 44,72 C44,74.212 44.192,76 46.4,76 L53.6,76 C55.808,76 56,74.212 56,72 C56,69.788 55.808,68 53.6,68 Z M53.6,88 L46.4,88 C44.192,88 44,89.788 44,92 C44,94.212 44.192,96 46.4,96 L53.6,96 C55.808,96 56,94.212 56,92 C56,89.788 55.808,88 53.6,88 Z M53.6,48 L46.4,48 C44.192,48 44,49.788 44,52 C44,54.212 44.192,56 46.4,56 L53.6,56 C55.808,56 56,54.212 56,52 C56,49.788 55.808,48 53.6,48 Z"/>
  </g>
</svg>
