<svg xmlns="http://www.w3.org/2000/svg" width="144" height="144" viewBox="0 0 144 144">
  <g fill="none" fill-rule="evenodd">
<path fill="#EFEFEF" fill-rule="nonzero" d="M109.468,104.408 L104,88 L98,88 L101.332,104 L42.668,104 L46,88 L40,88 L34.528,104.408 C33.14,108.584 35.6,112 40,112 L104,112 C108.4,112 110.86,108.584 109.468,104.408 Z M92,52 C92,40.956 83.048,32 72,32 C60.952,32 52,40.956 52,52 C52,71.1 72,92 72,92 C72,92 92,71.1 92,52 Z M61.2,52.24 C61.2,46.276 66.032,41.444 72,41.444 C77.968,41.444 82.8,46.276 82.8,52.24 C82.8,58.208 77.964,63.04 72,63.04 C66.036,63.04 61.2,58.204 61.2,52.24 Z"/>
  </g>
</svg>
