<svg xmlns="http://www.w3.org/2000/svg" width="144" height="144" viewBox="0 0 144 144">
  <g fill="none" fill-rule="evenodd">
<path fill="#EFEFEF" fill-rule="nonzero" d="M95.2,64 L88,64 L88,54.4 C88,42.812 82.66,36 72,36 C61.336,36 56,42.812 56,54.4 L56,56 L64,56 L64,52.796 C64,47.016 67.188,44 72,44 C76.812,44 80,47.016 80,52.796 L80,64 L48,64 C45.788,64 44,66.584 44,68.796 L44,100 C44,102.196 45.712,104.556 47.804,105.228 L52.592,106.776 C54.688,107.444 58.2,108 60.4,108 L83.6,108 C85.796,108 89.312,107.444 91.404,106.772 L96.188,105.224 C98.284,104.556 100,102.196 100,100 L100,68.796 C100,66.584 97.408,64 95.2,64 Z"/>
  </g>
</svg>
