<svg xmlns="http://www.w3.org/2000/svg" width="144" height="144" viewBox="0 0 144 144">
  <g fill="none" fill-rule="evenodd">
<path fill="#EFEFEF" fill-rule="nonzero" d="M102.18,93.868 L87.064,78.752 C89.344,75.012 90.656,70.612 90.656,65.912 C90.656,52.244 78.812,40.404 65.144,40.404 C51.476,40.4 40.4,51.48 40.4,65.148 C40.4,78.812 52.244,90.656 65.908,90.656 C70.456,90.656 74.708,89.42 78.368,87.28 L93.564,102.484 C95.052,103.968 97.464,103.968 98.948,102.484 L102.72,98.712 C104.204,97.228 103.664,95.352 102.18,93.868 Z M48.016,65.148 C48.016,55.684 55.684,48.016 65.144,48.016 C74.608,48.016 83.04,56.444 83.04,65.912 C83.04,75.372 75.368,83.044 65.908,83.044 C56.444,83.04 48.016,74.608 48.016,65.148 Z"/>
  </g>
</svg>
