<svg xmlns="http://www.w3.org/2000/svg" width="144" height="144" viewBox="0 0 144 144">
  <g fill="none" fill-rule="evenodd">
<path fill="#EFEFEF" fill-rule="nonzero" d="M80.66,103.44 C80.548,104.676 81.528,105.776 82.84,105.884 L98.78,107.188 C100.096,107.296 101.264,106.376 101.38,105.14 L102.624,91.992 L81.904,90.288 L80.66,103.44 Z M41.376,91.996 L42.624,105.144 C42.736,106.38 43.908,107.3 45.224,107.192 L61.164,105.888 C62.476,105.78 63.456,104.676 63.348,103.444 L62.1,90.296 L41.376,91.996 Z M39.324,70.332 L40.608,83.896 L61.332,82.192 L60.044,68.644 C60.016,68.316 60,67.98 60,67.644 C60,61.424 65.384,56.364 72,56.364 C78.616,56.364 84,61.428 84,67.644 C84,67.98 83.984,68.316 83.952,68.644 L82.668,82.192 L103.392,83.896 L104.676,70.332 C104.76,69.432 104.796,68.536 104.796,67.644 C104.8,50.636 90.088,36.8 72,36.8 C53.912,36.8 39.2,50.636 39.2,67.644 C39.2,68.536 39.244,69.432 39.324,70.332 Z"/>
  </g>
</svg>
