<svg xmlns="http://www.w3.org/2000/svg" width="144" height="144" viewBox="0 0 144 144">
  <g fill="none" fill-rule="evenodd">
<path fill="#EFEFEF" fill-rule="nonzero" d="M72,33.5998536 C50.7922364,33.5998536 33.6000976,50.7922364 33.6000976,72 C33.6000976,93.2077636 50.7922364,110.399902 72,110.399902 C93.2077636,110.399902 110.399902,93.2077636 110.399902,72 C110.399902,50.7922364 93.2077636,33.5998536 72,33.5998536 Z M56.9252928,60 L87.003662,60 C88.5988768,60 87.777832,62.0468752 86.909668,62.5722656 C86.041504,63.0957032 74.024414,70.3603516 73.576416,70.6298828 C73.128418,70.899414 72.548584,71.0283204 71.965332,71.0283204 C71.381836,71.0283204 70.802002,70.899414 70.354248,70.6298828 C69.90625,70.3603516 57.888916,63.0957032 57.020752,62.5722656 C56.152832,62.0468752 55.3315428,60 56.9252928,60 Z M88,82 C88,82.8398436 86.993164,84 86.222168,84 L57.777832,84 C57.006836,84 56,82.8398436 56,82 C56,82 56,67.7822264 56,67.413086 C56,67.0458984 55.993164,66.5673828 56.6875,66.975586 C57.673584,67.5537108 69.75,74.6757812 70.354248,75.03125 C70.958252,75.3867188 71.381836,75.4294432 71.965332,75.4294432 C72.548584,75.4294432 72.972168,75.3867184 73.576416,75.03125 C74.180664,74.6757816 86.326416,67.555664 87.3125,66.9775392 C88.006836,66.569336 88,67.0478516 88,67.4150392 C88,67.7841796 88,82 88,82 Z"/>
  </g>
</svg>
