<svg xmlns="http://www.w3.org/2000/svg" width="144" height="144" viewBox="0 0 144 144">
  <g fill="none" fill-rule="evenodd">
<path fill="#EFEFEF" fill-rule="nonzero" d="M38.296,53.144 C40.248,54.192 67.288,68.72 68.296,69.26 C69.304,69.8 70.608,70.056 71.92,70.056 C73.232,70.056 74.536,69.8 75.544,69.26 C76.552,68.72 103.592,54.192 105.544,53.144 C107.5,52.092 109.348,48 105.76,48 L38.084,48 C34.496,48 36.344,52.092 38.296,53.144 Z M106.452,61.956 C104.232,63.112 76.904,77.352 75.544,78.064 C74.184,78.776 73.232,78.86 71.92,78.86 C70.608,78.86 69.656,78.776 68.296,78.064 C66.936,77.352 39.764,63.108 37.544,61.952 C35.984,61.136 36,62.092 36,62.828 C36,63.564 36,92 36,92 C36,93.68 38.264,96 40,96 L104,96 C105.736,96 108,93.68 108,92 C108,92 108,63.568 108,62.832 C108,62.096 108.016,61.14 106.452,61.956 Z"/>
  </g>
</svg>
