<svg xmlns="http://www.w3.org/2000/svg" width="144" height="144" viewBox="0 0 144 144">
  <g fill="none" fill-rule="evenodd">
<path fill="#EFEFEF" fill-rule="nonzero" d="M72,48 C76.416,48 80,44.416 80,40 C80,35.58 76.416,32 72,32 C67.584,32 64,35.58 64,40 C64,44.416 67.584,48 72,48 Z M95.912,78.332 C94.372,71.232 91.68,59.58 87.744,54.756 C83.916,50.064 76.204,49.868 72,49.868 L72,49.868 C67.796,49.868 60.084,50.064 56.256,54.756 C52.32,59.58 49.628,71.232 48.088,78.332 C47.236,82.264 52.704,83.708 54.132,79.752 C56.256,73.86 57.896,68.912 61.488,64.808 C63.376,76.436 56.408,96.672 56,108 C56,110.208 57.792,112 60,112 C61.704,112 63.16,110.936 63.736,109.432 C65.564,103.084 72,85.42 72,85.42 L72,85.42 L72,85.42 C72,85.42 78.436,103.084 80.264,109.432 C80.84,110.936 82.296,112 84,112 C86.208,112 88,110.208 88,108 C87.592,96.672 80.624,76.436 82.512,64.812 C86.104,68.916 87.744,73.864 89.868,79.756 C91.292,83.708 96.764,82.264 95.912,78.332 Z"/>
  </g>
</svg>
