<svg xmlns="http://www.w3.org/2000/svg" width="144" height="144" viewBox="0 0 144 144">
  <g fill="none" fill-rule="evenodd">
<path fill="#EFEFEF" fill-rule="nonzero" d="M109.788,45.872 L85.788,33.872 C84.664,33.308 83.336,33.308 82.208,33.872 L59.688,45.132 L37.264,37.656 C36.04,37.248 34.704,37.452 33.66,38.208 C32.616,38.96 32,40.168 32,41.452 L32,93.456 C32,94.972 32.856,96.356 34.212,97.032 L58.212,109.032 C58.776,109.312 59.388,109.456 60,109.456 C60.612,109.456 61.228,109.316 61.788,109.032 L84.308,97.776 L106.732,105.252 C107.952,105.652 109.292,105.448 110.336,104.696 C111.38,103.944 111.996,102.736 111.996,101.456 L111.996,49.448 C112,47.932 111.144,46.548 109.788,45.872 Z M64,51.924 L80,43.924 L80,90.976 L64,98.976 L64,51.924 Z M40,47 L56,52.332 L56,98.976 L40,90.976 L40,47 Z M104,95.908 L88,90.572 L88,43.924 L104,51.924 L104,95.908 Z"/>
  </g>
</svg>
