<svg xmlns="http://www.w3.org/2000/svg" width="144" height="144" viewBox="0 0 144 144">
  <g fill="none" fill-rule="evenodd">
<path fill="#EFEFEF" fill-rule="nonzero" d="M110.324,55.36 C110.152,53.484 108.476,52.148 106.644,52.44 C99.676,53.552 83.34,60 72,60 C60.66,60 44.324,53.552 37.356,52.44 C35.524,52.148 33.852,53.48 33.676,55.356 C33.108,61.484 32,77.8 32,80.272 C32,83.592 45.888,91.2 56,91.2 C65.808,91.2 67.8,80.272 72,80.272 C76.2,80.272 78.192,91.2 88,91.2 C98.112,91.2 112,83.592 112,80.272 C112,77.8 110.892,61.484 110.324,55.36 Z M62.64,74.88 C61.228,76.152 57.3,79.16 52.516,78.22 C47.732,77.28 44.84,72.928 43.852,71.188 C43.612,70.764 43.688,70.228 44.028,69.92 C45.44,68.648 49.368,65.64 54.156,66.58 C58.94,67.52 61.832,71.872 62.82,73.612 C63.056,74.036 62.98,74.572 62.64,74.88 Z M100.148,71.188 C99.164,72.932 96.272,77.28 91.484,78.22 C86.7,79.16 82.768,76.152 81.36,74.88 C81.016,74.572 80.944,74.036 81.18,73.612 C82.164,71.868 85.056,67.52 89.844,66.58 C94.628,65.64 98.56,68.648 99.968,69.92 C100.312,70.228 100.388,70.764 100.148,71.188 Z"/>
  </g>
</svg>
