<svg xmlns="http://www.w3.org/2000/svg" width="144" height="144" viewBox="0 0 144 144">
  <g fill="none" fill-rule="evenodd">
<path fill="#EFEFEF" fill-rule="nonzero" d="M72,72 C74.112,72 76.104,72.416 78.016,73.024 L53.708,36.564 C53.472,36.212 53.08,36 52.656,36 L38.432,36 C37.964,36 37.68,36.524 37.944,36.916 L62.868,74.304 C65.616,72.88 68.692,72 72,72 Z M105.568,36 L91.344,36 C90.92,36 90.528,36.212 90.292,36.564 L75,59.5 L83,71.5 L106.056,36.916 C106.316,36.524 106.036,36 105.568,36 Z M72,76 C63.164,76 56,83.164 56,92 C56,100.836 63.164,108 72,108 C80.836,108 88,100.836 88,92 C88,83.164 80.836,76 72,76 Z M80.448,92.468 C80.696,92.724 80.656,93.1 80.36,93.3 C80.064,93.5 79.98,93.912 80.164,94.216 C80.352,94.52 80.236,94.876 79.904,95.012 C79.572,95.148 79.404,95.532 79.524,95.868 C79.644,96.204 79.456,96.528 79.108,96.592 C78.76,96.656 78.512,96.996 78.56,97.348 C78.608,97.7 78.356,97.98 78,97.968 C77.644,97.956 77.332,98.24 77.304,98.592 C77.276,98.944 76.972,99.168 76.628,99.084 C76.284,99 75.916,99.208 75.816,99.552 C75.716,99.896 75.372,100.048 75.052,99.892 C74.732,99.736 74.332,99.868 74.164,100.18 C73.996,100.492 73.628,100.572 73.344,100.352 C73.06,100.132 72.644,100.176 72.416,100.448 C72.188,100.72 71.812,100.72 71.58,100.448 C71.348,100.176 70.932,100.132 70.652,100.352 C70.372,100.572 70.004,100.492 69.832,100.18 C69.66,99.868 69.264,99.736 68.944,99.892 C68.624,100.048 68.28,99.892 68.18,99.552 C68.08,99.212 67.716,99 67.368,99.084 C67.02,99.168 66.716,98.948 66.692,98.592 C66.668,98.236 66.356,97.956 66,97.964 C65.644,97.976 65.392,97.696 65.44,97.344 C65.488,96.992 65.24,96.652 64.892,96.588 C64.544,96.524 64.352,96.2 64.476,95.864 C64.6,95.528 64.424,95.144 64.096,95.008 C63.768,94.872 63.652,94.516 63.836,94.212 C64.024,93.908 63.936,93.496 63.64,93.296 C63.344,93.096 63.308,92.72 63.552,92.464 C63.8,92.208 63.8,91.788 63.552,91.528 C63.304,91.268 63.344,90.896 63.64,90.696 C63.936,90.496 64.02,90.084 63.836,89.78 C63.648,89.476 63.764,89.12 64.096,88.984 C64.428,88.848 64.596,88.464 64.476,88.128 C64.356,87.792 64.544,87.468 64.892,87.404 C65.24,87.34 65.488,87 65.44,86.648 C65.392,86.296 65.644,86.016 66,86.028 C66.356,86.04 66.668,85.756 66.696,85.404 C66.724,85.052 67.028,84.828 67.372,84.912 C67.716,84.996 68.084,84.788 68.184,84.444 C68.284,84.1 68.628,83.948 68.948,84.104 C69.268,84.26 69.668,84.128 69.836,83.816 C70.004,83.504 70.372,83.424 70.656,83.644 C70.94,83.864 71.356,83.82 71.584,83.548 C71.812,83.276 72.188,83.276 72.42,83.548 C72.652,83.82 73.068,83.864 73.348,83.644 C73.628,83.424 73.996,83.504 74.168,83.816 C74.34,84.128 74.736,84.26 75.056,84.104 C75.376,83.948 75.72,84.104 75.82,84.444 C75.92,84.784 76.284,84.996 76.632,84.912 C76.98,84.828 77.284,85.048 77.308,85.404 C77.332,85.76 77.648,86.04 78.004,86.028 C78.36,86.016 78.612,86.296 78.564,86.648 C78.516,87 78.764,87.34 79.112,87.404 C79.46,87.468 79.652,87.792 79.528,88.128 C79.404,88.464 79.58,88.848 79.908,88.984 C80.236,89.12 80.352,89.476 80.168,89.78 C79.98,90.084 80.068,90.496 80.364,90.696 C80.66,90.896 80.696,91.272 80.452,91.528 C80.208,91.784 80.2,92.212 80.448,92.468 Z"/>
  </g>
</svg>
