<svg xmlns="http://www.w3.org/2000/svg" width="144" height="144" viewBox="0 0 144 144">
  <g fill="none" fill-rule="evenodd">
<path fill="#EFEFEF" fill-rule="nonzero" d="M72,33.5998536 C50.7922364,33.5998536 33.6000976,50.7922364 33.6000976,72 C33.6000976,93.2077636 50.7922364,110.399902 72,110.399902 C93.2077636,110.399902 110.399902,93.2077636 110.399902,72 C110.399902,50.7922364 93.2077636,33.5998536 72,33.5998536 Z M88.8000488,62.666748 L88.3337404,62.666748 C88.3337404,62.666748 86.9333496,62.666748 86.9333496,64.0671388 C86.9333496,65.4672852 86.9333496,79.933838 86.9333496,79.933838 C86.9333496,79.933838 86.9333496,81.333008 88.3337404,81.333008 L88.8000488,81.333008 L88.8000492,85.0664064 L77.6000976,85.0664064 L77.6000976,81.333008 L79.4665528,81.333008 L79.4665528,63.9733888 L79.2800292,63.9733888 L73.5595704,85.0664064 L68.5217284,85.0664064 L62.8532716,63.9733888 L62.666748,63.9733888 L62.666748,81.333008 L64.5334472,81.333008 L64.5334472,85.0664064 L55.1999512,85.0664064 L55.1999512,81.333008 L55.6662596,81.333008 C55.6662596,81.333008 57.0666504,81.333008 57.0666504,79.9328616 C57.0666504,78.5327152 57.0666504,64.0659184 57.0666504,64.0659184 C57.0666504,64.0659184 57.0666504,62.6667484 55.6662596,62.6667484 L55.1999512,62.6667484 L55.1999512,58.9335936 L67.583496,58.9335936 L71.927002,75.0969236 L72.0700684,75.0969236 L76.4538576,58.9335936 L88.8000492,58.9335936 L88.8000492,62.666748 L88.8000488,62.666748 Z"/>
  </g>
</svg>
