<svg xmlns="http://www.w3.org/2000/svg" width="144" height="144" viewBox="0 0 144 144">
  <g fill="none" fill-rule="evenodd">
<path fill="#EFEFEF" fill-rule="nonzero" d="M107.000954,52 C107.000954,52 104,52 104,55.0005704 C104,58.0011408 104,89.0016844 104,89.0016844 C104,89.0016844 104,92 107.000954,92 L108,92 L108,100 L84,100 L84,92 L88,92 L88,54.7998048 L87.6000976,54.7998048 L75.3417968,100 L64.5463868,100 L52.3999044,54.7998048 L52.000002,54.7998048 L52.000002,92 L56.000002,92 L56.000002,100 L36.000002,100 L36.000002,92 L36.9990528,92 C36.9990528,92 40.000002,92 40.000002,88.9994276 C40.000002,85.9988592 40.000002,54.9983176 40.000002,54.9983176 C40.000002,54.9983176 40.000002,52 36.9990524,52 L36.000002,52 L36.000002,44 L62.5361348,44 L71.84375,78.6367188 L72.1503908,78.6367188 L81.5439452,44 L108,44 L108,52 L107.000954,52 Z"/>
  </g>
</svg>
