<svg xmlns="http://www.w3.org/2000/svg" width="144" height="144" viewBox="0 0 144 144">
  <g fill="none" fill-rule="evenodd">
<path fill="#EFEFEF" fill-rule="nonzero" d="M100.892,60.12 C94.556,45.376 84.364,34.16 79.208,36.252 C70.452,39.816 84.424,56.908 41.42,74.384 C37.704,75.9 36.764,81.936 38.32,85.552 C39.872,89.16 44.952,92.756 48.668,91.248 C49.312,90.984 51.672,90.224 51.672,90.224 C54.324,93.788 57.1,91.676 58.088,93.936 C59.272,96.656 61.844,102.568 62.72,104.576 C63.596,106.584 65.58,108.444 67.02,107.896 C68.456,107.348 73.348,105.488 75.22,104.78 C77.092,104.068 77.536,102.396 76.964,101.084 C76.348,99.664 73.82,99.248 73.096,97.592 C72.376,95.944 70.02,90.64 69.344,88.968 C68.424,86.696 70.38,84.844 73.224,84.552 C92.8,82.504 96.46,94.6 103.124,91.888 C108.272,89.788 107.224,74.852 100.892,60.12 Z M98.688,84.024 C97.54,84.484 89.836,78.416 84.916,66.956 C79.992,55.504 80.612,45.036 81.756,44.568 C82.9,44.108 90.416,51.436 95.336,62.888 C100.26,74.34 99.832,83.556 98.688,84.024 Z"/>
  </g>
</svg>
