<svg xmlns="http://www.w3.org/2000/svg" width="144" height="144" viewBox="0 0 144 144">
  <g fill="none" fill-rule="evenodd">
<path fill="#EFEFEF" fill-rule="nonzero" d="M97.6,68 L46.4,68 C44.192,68 44,69.788 44,72 C44,74.212 44.192,76 46.4,76 L97.6,76 C99.808,76 100,74.212 100,72 C100,69.788 99.808,68 97.6,68 Z M97.6,84 L46.4,84 C44.192,84 44,85.788 44,88 C44,90.212 44.192,92 46.4,92 L97.6,92 C99.808,92 100,90.212 100,88 C100,85.788 99.808,84 97.6,84 Z M46.4,60 L97.6,60 C99.808,60 100,58.212 100,56 C100,53.788 99.808,52 97.6,52 L46.4,52 C44.192,52 44,53.788 44,56 C44,58.212 44.192,60 46.4,60 Z"/>
  </g>
</svg>
