<svg xmlns="http://www.w3.org/2000/svg" width="144" height="144" viewBox="0 0 144 144">
  <g fill="none" fill-rule="evenodd">
<path fill="#EFEFEF" fill-rule="nonzero" d="M97.596,62.572 L97.596,73.6 C97.596,82.544 91.024,92.116 76,93.436 L76,104 L86.4,104 C87.28,104 88,104.72 88,105.6 L88,110.4 C88,111.284 87.276,112 86.4,112 L57.6,112 C56.72,112 56,111.28 56,110.4 L56,105.6 C56,104.72 56.72,104 57.596,104 L68,104 L68,93.436 C52.968,92.116 46.4,82.544 46.4,73.6 L46.4,62.572 C46.4,61.688 47.12,60.972 48,60.972 L50.4,60.972 C51.28,60.972 52,61.692 52,62.572 L52,73.6 C52,78.944 56.212,88 72,88 C87.784,88 92,78.944 92,73.6 L92,62.572 C92,61.688 92.72,60.972 93.596,60.972 L96,60.972 C96.88,60.968 97.596,61.688 97.596,62.572 Z M72,80 C81.384,80 84,76.14 84,73.6 L84,60.968 L60,60.968 L60,73.6 C60,76.14 62.608,80 72,80 Z M84,38.4 C84,35.852 81.384,32 72,32 C62.608,32 60,35.852 60,38.4 L60,55.368 L84,55.368 L84,38.4 Z"/>
  </g>
</svg>
