<svg xmlns="http://www.w3.org/2000/svg" width="144" height="144" viewBox="0 0 144 144">
  <g fill="none" fill-rule="evenodd">
<path fill="#EFEFEF" fill-rule="nonzero" d="M70.184,101.032 L74.004,101.032 L74.004,109.604 C100.044,106.868 113.932,81.032 111.688,62.84 C109.432,44.64 89.884,32.072 67.912,34.76 C45.944,37.456 30.04,54.392 32.288,72.596 C34.34,89.148 50.696,101.048 70.184,101.032 Z M94.776,83.44 L87.452,83.44 L87.452,63.628 C87.452,62.832 87.38,62.08 87.24,61.4 C87.124,60.808 86.904,60.308 86.584,59.876 C86.28,59.476 85.836,59.148 85.264,58.9 C84.656,58.636 83.812,58.5 82.772,58.5 C80.624,58.5 78.944,59.064 77.768,60.164 C76.604,61.256 76.036,62.696 76.036,64.564 L76.036,83.44 L68.716,83.44 L68.716,63.628 C68.716,62.808 68.64,62.048 68.48,61.372 C68.344,60.772 68.116,60.264 67.788,59.824 C67.48,59.416 67.072,59.112 66.532,58.876 C65.956,58.628 65.172,58.5 64.212,58.5 C62.964,58.5 61.892,58.736 61.032,59.196 C60.14,59.664 59.412,60.236 58.868,60.884 C58.316,61.54 57.912,62.22 57.672,62.908 C57.424,63.596 57.304,64.148 57.304,64.564 L57.304,83.44 L49.976,83.44 L49.976,52.656 L57.008,52.656 L57.008,55.056 C59.304,53.024 62.232,51.992 65.732,51.992 C67.772,51.992 69.656,52.404 71.328,53.212 C72.552,53.8 73.544,54.672 74.28,55.82 C75.204,54.828 76.296,54.016 77.536,53.384 C79.352,52.46 81.368,51.992 83.532,51.992 C85.14,51.992 86.624,52.164 87.94,52.5 C89.312,52.844 90.516,53.4 91.52,54.148 C92.552,54.92 93.36,55.928 93.928,57.148 C94.492,58.352 94.776,59.788 94.776,61.428 L94.776,83.44 Z"/>
  </g>
</svg>
