<svg xmlns="http://www.w3.org/2000/svg" width="144" height="144" viewBox="0 0 144 144">
  <g fill="none" fill-rule="evenodd">
<path fill="#EFEFEF" fill-rule="nonzero" d="M88.016,32 L55.984,32 C51.576,32 48,35.576 48,39.984 L48,104.012 C48,108.424 51.576,112 55.984,112 L88.012,112 C92.424,112 96,108.424 96,104.016 L96,39.984 C96,35.576 92.424,32 88.016,32 Z M72,108 C69.24,108 67,106.212 67,104 C67,101.788 69.24,100 72,100 C74.76,100 77,101.788 77,104 C77,106.212 74.76,108 72,108 Z M88,96 L56,96 L56,40 L88,40 L88,96 Z"/>
  </g>
</svg>
