<svg xmlns="http://www.w3.org/2000/svg" width="144" height="144" viewBox="0 0 144 144">
  <g fill="none" fill-rule="evenodd">
<path fill="#EFEFEF" fill-rule="nonzero" d="M35.912,74.564 C35.028,75.156 34.744,76.404 35.276,77.324 L40.46,86.3 C40.992,87.22 42.212,87.6 43.168,87.132 L59,79.464 L59,107 L67,107 L67,75.584 L83.284,67.692 L72.804,49.532 L35.912,74.564 Z M104.828,43.148 C100.344,35.388 90.412,32.728 82.644,37.212 C79.004,39.312 76.612,42.648 75.44,46.368 L87.344,66.992 C91.148,67.84 95.236,67.432 98.884,65.332 C106.652,60.848 109.312,50.92 104.828,43.148 Z"/>
  </g>
</svg>
