<svg xmlns="http://www.w3.org/2000/svg" width="144" height="144" viewBox="0 0 144 144">
  <g fill="none" fill-rule="evenodd">
<path fill="#EFEFEF" fill-rule="nonzero" d="M93.608,89.608 L83.1,59.468 C80.212,51.176 71.236,46.588 62.732,48.856 L54.828,33.516 C54.112,32.132 52.436,31.6 51.076,32.332 C49.72,33.064 49.2,34.788 49.92,36.176 L57.636,51.144 C51.488,55.224 48.292,62.96 50.32,70.24 L58.876,101.024 C61.284,109.672 71.196,114.08 81.16,111.032 C90.996,107.58 96.56,98.084 93.608,89.608 Z M67.596,67.692 C64.676,68.652 61.552,67.004 60.616,64.008 C59.676,61.016 61.288,57.816 64.204,56.856 C67.124,55.896 70.252,57.544 71.188,60.536 C72.124,63.528 70.516,66.732 67.596,67.692 Z"/>
  </g>
</svg>
