<svg xmlns="http://www.w3.org/2000/svg" width="144" height="144" viewBox="0 0 144 144">
  <g fill="none" fill-rule="evenodd">
<path fill="#EFEFEF" d="M96,36 L48,36 C45.788,36 44,37.788 44,40 L44,104 C44,106.208 45.788,108 48,108 L96,108 C98.212,108 100,106.208 100,104 L100,40 C100,37.792 98.212,36 96,36 Z M83.18,78.076 C82.44,79.604 81.688,79.684 82.016,78.076 C82.86,73.92 82.288,64.992 76,64 L76,83 C76,86.892 74.208,90.28 69.444,91.812 C64.82,93.288 59.648,91.748 58.436,88.428 C57.224,85.108 59.944,81.068 64.508,79.404 C67.056,78.476 70.008,78.236 72,79 L72,52 L76,52 C76,61.42 92.26,59.356 83.18,78.076 Z"/>
  </g>
</svg>
