<svg xmlns="http://www.w3.org/2000/svg" width="144" height="144" viewBox="0 0 144 144">
  <g fill="none" fill-rule="evenodd">
<path fill="#EFEFEF" fill-rule="nonzero" d="M53.096,59.66 C53.896,59.66 54.672,59.776 55.4,60.004 C58.16,56.912 61.22,54.096 64.532,51.604 C64.392,51.02 64.316,50.408 64.316,49.784 C64.316,48.916 64.46,48.08 64.724,47.3 C61.008,44.644 56.976,42.408 52.68,40.684 C48.66,43.168 45.152,46.408 42.352,50.208 C44.428,53.888 46.896,57.316 49.704,60.436 C50.728,59.94 51.876,59.66 53.096,59.66 Z M45.264,67.488 C45.264,66.388 45.496,65.34 45.9,64.396 C43.388,61.628 41.112,58.652 39.12,55.48 C36.62,60.448 35.2,66.06 35.2,72.004 C35.2,78.88 37.096,85.316 40.38,90.824 C41.556,84.208 43.784,77.948 46.86,72.216 C45.86,70.904 45.264,69.26 45.264,67.488 Z M72.144,41.956 C74.212,41.956 76.084,42.76 77.488,44.072 C81.572,42.316 85.872,40.964 90.348,40.104 C84.944,36.988 78.68,35.2 72,35.2 C67.444,35.2 63.084,36.036 59.056,37.552 C62.252,39.132 65.3,40.972 68.164,43.052 C69.332,42.356 70.688,41.956 72.144,41.956 Z M83.848,78.832 C84.336,77.816 85.028,76.916 85.884,76.208 C83.572,69.1 79.912,62.592 75.196,56.996 C74.26,57.396 73.228,57.612 72.14,57.612 C70.44,57.612 68.876,57.064 67.592,56.152 C64.752,58.308 62.124,60.724 59.736,63.364 C60.488,64.56 60.924,65.972 60.924,67.488 C60.924,68.3 60.8,69.088 60.564,69.832 C67.432,74.416 75.34,77.568 83.848,78.832 Z M94.004,89.404 C94.108,90.888 94.168,92.38 94.168,93.888 C94.168,96.544 94,99.16 93.68,101.732 C99.92,97.176 104.672,90.7 107.068,83.176 C104.228,83.864 101.316,84.356 98.344,84.636 C97.652,86.784 96.056,88.512 94.004,89.404 Z M82.016,84.096 C72.928,82.588 64.508,79.12 57.176,74.16 C55.984,74.888 54.588,75.316 53.092,75.316 C52.536,75.316 52.004,75.26 51.484,75.152 C47.976,81.8 45.732,89.22 45.088,97.088 C48.592,100.848 52.864,103.876 57.668,105.908 C63.636,96.736 71.972,89.152 82.016,84.096 Z M96.704,44.724 C90.804,45.296 85.172,46.78 79.932,48.996 C79.956,49.26 79.972,49.52 79.972,49.784 C79.972,51.02 79.676,52.184 79.168,53.22 C84.412,59.376 88.476,66.54 91.044,74.384 C94.232,74.448 96.952,76.392 98.124,79.164 C101.668,78.804 105.116,78.124 108.436,77.148 C108.676,75.468 108.804,73.748 108.804,72 C108.8,61.184 104.136,51.456 96.704,44.724 Z M85.956,88.276 C76.58,92.668 68.74,99.432 63.064,107.7 C65.924,108.416 68.916,108.8 72,108.8 C77.548,108.8 82.808,107.564 87.528,105.364 C88.288,101.652 88.688,97.816 88.688,93.888 C88.688,92.468 88.624,91.06 88.516,89.668 C87.572,89.364 86.704,88.896 85.956,88.276 Z"/>
  </g>
</svg>
