<svg xmlns="http://www.w3.org/2000/svg" width="144" height="144" viewBox="0 0 144 144">
  <g fill="none" fill-rule="evenodd">
<path fill="#EFEFEF" fill-rule="nonzero" d="M104.696,39.304 C100.288,34.896 96.368,36.196 96.368,36.196 L61.812,70.724 L56,88 L73.268,82.184 L107.804,47.632 C107.804,47.632 109.1,43.712 104.696,39.304 Z M74.42,78.42 L72.536,80.3 L66.644,82.3 C66.228,81.34 65.708,80.392 64.652,79.34 C63.596,78.284 62.652,77.764 61.692,77.348 L63.692,71.456 L65.576,69.576 C65.576,69.576 68.68,69.22 71.724,72.268 C74.772,75.312 74.42,78.42 74.42,78.42 Z M96,100 L44,100 L44,48 L64,48 L72,40 L44,40 C39.6,40 36,43.6 36,48 L36,100 C36,104.4 39.6,108 44,108 L96,108 C100.4,108 104,104.4 104,100 L104,72 L96,80 L96,100 Z"/>
  </g>
</svg>
