<svg xmlns="http://www.w3.org/2000/svg" width="144" height="144" viewBox="0 0 144 144">
  <g fill="none" fill-rule="evenodd">
<path fill="#EFEFEF" fill-rule="nonzero" d="M106.76,81.376 L99.852,75.224 C97.852,73.444 97.852,70.528 99.852,68.748 L106.76,62.592 C108.76,60.812 108.228,59.156 105.576,58.896 L96.416,58.028 C93.768,57.78 92.336,55.496 93.252,52.964 L98.112,39.432 C99.024,36.892 97.908,35.972 95.636,37.376 L84.832,44.056 C82.56,45.472 79.62,44.696 78.308,42.352 L74.396,35.368 C73.08,33.016 70.908,33.008 69.568,35.336 L65.932,41.656 C64.584,43.996 61.5,44.988 59.08,43.88 L52.68,40.944 C50.248,39.824 48.388,41.112 48.532,43.808 L48.876,50.268 C49.024,52.964 47.032,55.736 44.46,56.432 L38.28,58.088 C35.712,58.784 35.24,60.808 37.24,62.588 L44.148,68.744 C46.148,70.524 46.148,73.44 44.148,75.22 L37.24,81.376 C35.24,83.156 35.768,84.884 38.412,85.204 L46.792,86.22 C49.436,86.54 50.908,88.9 50.064,91.464 L45.768,104.496 C44.924,107.06 46.128,108.052 48.44,106.716 L58.292,101.012 C60.604,99.676 63.716,100.412 65.208,102.644 L69.296,108.8 C70.784,111.036 73.02,110.916 74.256,108.528 L77.852,101.596 C79.092,99.204 82.06,98.228 84.444,99.424 L91.38,102.892 C93.772,104.08 95.608,102.852 95.464,100.164 L95.116,93.696 C94.976,91 96.96,88.236 99.54,87.54 L105.712,85.876 C108.288,85.18 108.76,83.156 106.76,81.376 Z M76,88 L68,88 L68,80 L76,80 L76,88 Z M76,76 L68,76 L68,56 L76,56 L76,76 Z"/>
  </g>
</svg>
