<svg xmlns="http://www.w3.org/2000/svg" width="144" height="144" viewBox="0 0 144 144">
  <g fill="none" fill-rule="evenodd">
<path fill="#EFEFEF" d="M88,52 L72,52 L72,60 L88,60 L88,52 Z M88,64 L72,64 L72,68 L88,68 L88,64 Z M68,52 L56,52 L56,68 L68,68 L68,52 Z M68,76 L88,76 L88,72 L68,72 L68,76 Z M80,84 L88,84 L88,80 L80,80 L80,84 Z M88,88 L56,88 L56,92 L88,92 L88,88 Z M76,80 L56,80 L56,84 L76,84 L76,80 Z M64,72 L56,72 L56,76 L64,76 L64,72 Z M100,36 L44,36 C41.788,36 40,37.788 40,40 L40,104 C40,106.208 41.788,108 44,108 L100,108 C102.212,108 104,106.208 104,104 L104,40 C104,37.792 102.212,36 100,36 Z M96,100 L48,100 L48,44 L96,44 L96,100 Z"/>
  </g>
</svg>
