<svg xmlns="http://www.w3.org/2000/svg" width="144" height="144" viewBox="0 0 144 144">
  <g fill="none" fill-rule="evenodd">
<path fill="#EFEFEF" fill-rule="nonzero" d="M92,65.52 L92,100 L44,100 L44,52 L78.48,52 C78.188,50.712 78,49.38 78,48 C78,46.62 78.188,45.288 78.48,44 L44,44 C39.592,44 36,47.6 36,52 L36,100 C36,104.4 39.6,108 44,108 L92,108 C96.4,108 100,104.4 100,100 L100,65.52 C98.712,65.812 97.38,66 96,66 C94.62,66 93.288,65.812 92,65.52 Z M96,36 C89.372,36 84,41.372 84,48 C84,54.628 89.372,60 96,60 C102.628,60 108,54.628 108,48 C108,41.372 102.628,36 96,36 Z"/>
  </g>
</svg>
