<svg xmlns="http://www.w3.org/2000/svg" width="144" height="144" viewBox="0 0 144 144">
  <g fill="none" fill-rule="evenodd">
<path fill="#EFEFEF" fill-rule="nonzero" d="M107.2,101.6 C108,102.4 108,103.6 107.2,104.4 L104.4,107.2 C103.6,108 102.4,108 101.6,107.2 L36.8,42.4 C36,41.6 36,40.4 36.8,39.6 L39.6,36.8 C40.4,36 41.6,36 42.4,36.8 L107.2,101.6 Z M96,60 C102.8,60 108,54.8 108,48 C108,41.2 102.8,36 96,36 C89.2,36 84,41.2 84,48 C84,54.8 89.2,60 96,60 Z M92,65.6 L92,80.8 L100,88.8 L100,65.6 C98.8,66 97.2,66 96,66 C94.8,66 93.2,66 92,65.6 Z M78.4,52 C78,50.8 78,49.2 78,48 C78,46.8 78,45.2 78.4,44 L55.2,44 L63.2,52 L78.4,52 Z M52,92 L52,63.2 L44,55.2 L44,92 C44,96.4 47.6,100 52,100 L88.8,100 L80.8,92 L52,92 Z"/>
  </g>
</svg>
