<svg xmlns="http://www.w3.org/2000/svg" width="144" height="144" viewBox="0 0 144 144">
  <g fill="none" fill-rule="evenodd">
<path fill="#EFEFEF" fill-rule="nonzero" d="M101.024,81.012 C100.64,78.344 98.58,76.264 95.928,75.644 C85.62,73.228 83.036,67.292 82.6,60.708 C80.772,60.368 77.52,60 72,60 C66.48,60 63.228,60.368 61.4,60.708 C60.964,67.292 58.38,73.228 48.072,75.644 C45.42,76.268 43.36,78.344 42.976,81.012 L40.988,94.78 C40.288,99.628 43.848,104 48.8,104 L95.2,104 C100.148,104 103.712,99.628 103.012,94.78 L101.024,81.012 Z M72,93.968 C66.42,93.968 61.896,89.488 61.896,83.968 C61.896,78.448 66.42,73.968 72,73.968 C77.58,73.968 82.104,78.448 82.104,83.968 C82.104,89.488 77.576,93.968 72,93.968 Z M111.8,56 C111.704,50 96.432,40.004 72,40 C47.564,40.004 32.292,50 32.2,56 C32.108,62 32.284,69.808 42.34,68.508 C54.104,66.984 53.38,62.876 53.38,57.004 C53.38,52.908 62.948,51.92 72,51.92 C81.052,51.92 90.616,52.908 90.62,57.004 C90.62,62.876 89.896,66.984 101.66,68.508 C111.712,69.808 111.892,62 111.8,56 Z"/>
  </g>
</svg>
