<svg xmlns="http://www.w3.org/2000/svg" width="144" height="144" viewBox="0 0 144 144">
  <g fill="none" fill-rule="evenodd">
<path fill="#EFEFEF" fill-rule="nonzero" d="M86.4,44 L60,44 L60,32 L52,32 L52,106.4 C52,109.48 54.516,112 57.592,112 L86.4,112 C89.476,112 92,109.476 92,106.4 L92,49.604 C92,46.516 89.476,44 86.4,44 Z M64,92 C61.236,92 59,90.212 59,88 C59,85.788 61.236,84 64,84 C66.764,84 69,85.788 69,88 C69,90.212 66.764,92 64,92 Z M69,100 C69,102.212 66.764,104 64,104 C61.236,104 59,102.212 59,100 C59,97.788 61.236,96 64,96 C66.764,96 69,97.788 69,100 Z M60,76 L60,52 L84,52 L84,76 L60,76 Z M80,92 C77.236,92 75,90.212 75,88 C75,85.788 77.236,84 80,84 C82.764,84 85,85.788 85,88 C85,90.212 82.764,92 80,92 Z M85,100 C85,102.212 82.764,104 80,104 C77.236,104 75,102.212 75,100 C75,97.788 77.236,96 80,96 C82.764,96 85,97.788 85,100 Z"/>
  </g>
</svg>
