<svg xmlns="http://www.w3.org/2000/svg" width="144" height="144" viewBox="0 0 144 144">
  <g fill="none" fill-rule="evenodd">
<path fill="#EFEFEF" fill-rule="nonzero" d="M57.716,73.388 C59.664,65.544 66.712,59.812 75.08,59.812 C80.024,59.812 84.656,61.832 88.008,65.34 C89.424,64.884 91.08,64.532 92.552,64.5 L92.552,63.98 C92.552,54.052 85.172,46 76.072,46 C69.568,46 63.992,50.152 61.312,56.124 C59.336,54.788 57.028,53.984 54.536,53.984 C47.396,53.984 41.612,60.292 41.612,68.076 C41.612,68.916 41.708,69.732 41.84,70.528 C36.332,71.072 32.02,76.704 32.02,82.848 C32.02,82.912 32.036,82.964 32.036,83.028 C32.032,83.084 32,83.14 32,83.196 C32,85.656 32.856,87.904 34.244,89.72 C36.212,92.368 39.292,94 42.804,94 L47.848,94 C46.864,92.048 46.256,89.872 46.256,87.54 C46.252,80.592 51.176,74.772 57.716,73.388 Z M103.556,81.108 C103.456,81.108 103.356,81.136 103.256,81.14 C103.284,80.844 103.344,80.556 103.344,80.252 C103.344,74.364 98.572,69.596 92.684,69.596 C90.34,69.596 88.192,70.372 86.428,71.66 C84.244,67.6 80.012,64.812 75.076,64.812 C67.924,64.812 62.128,70.608 62.128,77.76 C62.128,77.852 62.152,77.932 62.156,78.024 C61.684,77.952 61.212,77.88 60.72,77.88 C55.38,77.88 51.06,82.204 51.06,87.54 C51.06,88.208 51.128,88.86 51.256,89.488 C52.168,94.332 56.408,98 61.52,98 L104.344,98 L104.344,97.924 C108.632,97.516 112,93.948 112,89.556 C112,84.892 108.22,81.108 103.556,81.108 Z"/>
  </g>
</svg>
