<svg xmlns="http://www.w3.org/2000/svg" width="144" height="144" viewBox="0 0 144 144">
  <g fill="none" fill-rule="evenodd">
<path fill="#EFEFEF" fill-rule="nonzero" d="M74.38,52.784 L76.164,58.268 C77.64,57.004 79.504,55.872 81.928,55.088 C84.288,54.32 86.372,53.888 88.256,53.64 L86.536,48.348 C84.632,48.624 82.532,49.068 80.216,49.82 C77.904,50.572 75.996,51.62 74.38,52.784 Z M78.088,64.204 L79.872,69.688 C81.348,68.424 83.212,67.292 85.636,66.508 C87.996,65.74 90.08,65.308 91.964,65.06 L90.244,59.768 C88.34,60.044 86.24,60.488 83.924,61.24 C81.612,61.988 79.708,63.036 78.088,64.204 Z M81.8,75.62 L83.584,81.104 C85.06,79.84 86.924,78.708 89.348,77.924 C91.708,77.156 93.792,76.724 95.676,76.476 L93.956,71.184 C92.052,71.46 89.952,71.904 87.636,72.656 C85.32,73.404 83.416,74.456 81.8,75.62 Z M53.552,84.308 L55.272,89.6 C56.94,88.696 58.88,87.82 61.24,87.056 C63.664,86.268 65.836,86.088 67.772,86.244 L65.988,80.76 C63.992,80.768 61.836,81.04 59.528,81.788 C57.212,82.54 55.252,83.412 53.552,84.308 Z M46.132,61.472 L47.852,66.764 C49.52,65.86 51.46,64.988 53.82,64.22 C56.244,63.432 58.416,63.252 60.352,63.408 L58.572,57.92 C56.576,57.932 54.42,58.2 52.108,58.952 C49.792,59.704 47.832,60.576 46.132,61.472 Z M49.84,72.892 L51.56,78.184 C53.228,77.28 55.168,76.404 57.528,75.64 C59.952,74.852 62.124,74.672 64.06,74.828 L62.28,69.34 C60.284,69.348 58.128,69.62 55.82,70.368 C53.504,71.12 51.54,71.996 49.84,72.892 Z M76.256,37.64 C69.364,39.88 65.764,44.648 64.044,47.876 C60.756,46.276 55.044,44.536 48.152,46.776 C38.06,50.056 32.276,57.284 32.276,57.284 L48.656,107.632 C49.16,109.18 51.24,109.54 52.168,108.204 C54.164,105.328 58.008,101.572 65.196,99.236 C72.068,97.004 77.072,99.452 79.816,101.548 C80.904,102.38 82.464,101.788 82.864,100.476 C83.872,97.168 86.492,92.316 93.304,90.104 C100.5,87.764 105.82,88.548 109.128,89.704 C110.668,90.24 112.128,88.736 111.628,87.188 L95.276,36.812 C95.276,36.812 86.348,34.364 76.256,37.64 Z M75.804,93.024 C72.528,92.048 68.2,91.592 63.24,93.2 C58.236,94.824 54.732,96.996 52.444,98.816 L39.464,58.888 C40.896,57.456 44.212,54.72 50.112,52.804 C55.668,51 60.224,52.544 63.228,54.316 L75.804,93.024 Z M103.38,82.268 C100.456,82.14 96.344,82.444 91.34,84.072 C86.38,85.684 83.148,88.6 81.072,91.312 L68.496,52.604 C69.88,49.404 72.656,45.476 78.216,43.672 C84.112,41.756 88.404,42.02 90.404,42.336 L103.38,82.268 Z"/>
  </g>
</svg>
