<svg xmlns="http://www.w3.org/2000/svg" width="144" height="144" viewBox="0 0 144 144">
  <g fill="none" fill-rule="evenodd">
<path fill="#EFEFEF" fill-rule="nonzero" d="M94.96,42.432 C80.848,37.688 66.696,38.588 52.08,47.528 C40.668,54.5 33.208,71.832 35.668,84.256 C38.58,98.94 53.072,108.236 72.64,102.86 C93.74,97.064 98.836,84.676 98.156,81.524 C97.476,78.372 87.496,74.916 91.284,67.532 C96.036,58.28 103.8,62.936 107.212,61.044 C110.632,59.156 109.368,47.276 94.96,42.432 Z M80.376,85.256 C77.184,86.128 73.884,84.232 73.004,81.02 C72.12,77.8 73.996,74.496 77.188,73.624 C80.38,72.752 83.676,74.64 84.56,77.86 C85.44,81.072 83.568,84.384 80.376,85.256 Z"/>
  </g>
</svg>
