<svg xmlns="http://www.w3.org/2000/svg" width="144" height="144" viewBox="0 0 144 144">
  <g fill="none" fill-rule="evenodd">
<path fill="#EFEFEF" fill-rule="nonzero" d="M106.56,42.536 C105.184,43.02 37.276,66.952 35.936,67.424 C34.8,67.824 34.548,68.804 35.896,69.34 C37.5,69.984 51.08,75.424 51.08,75.424 L51.08,75.424 L60.08,79.028 C60.08,79.028 103.432,47.196 104.016,46.764 C104.608,46.332 105.288,47.144 104.86,47.608 C104.432,48.076 73.376,81.66 73.376,81.66 L73.376,81.668 L71.568,83.68 L73.964,84.968 L73.964,84.968 C73.964,84.968 92.564,94.984 93.892,95.696 C95.056,96.32 96.564,95.804 96.9,94.36 C97.296,92.656 108.28,45.316 108.524,44.26 C108.84,42.888 107.932,42.052 106.56,42.536 Z M60,100.648 C60,101.632 60.556,101.908 61.324,101.212 C62.328,100.296 72.724,90.968 72.724,90.968 L60,84.392 L60,100.648 Z"/>
  </g>
</svg>
