<svg xmlns="http://www.w3.org/2000/svg" width="144" height="144" viewBox="0 0 144 144">
  <g fill="none" fill-rule="evenodd">
<path fill="#EFEFEF" fill-rule="nonzero" d="M63.656,74.708 L70.292,74.708 C84.708,74.708 92.888,68.216 95.492,54.868 C95.576,54.428 95.652,54.004 95.716,53.58 C95.86,52.676 95.932,51.864 95.964,51.084 C95.988,50.548 96.004,50.232 96,49.936 C95.968,48.372 95.692,47.048 95.136,45.78 C94.62,44.596 93.84,43.432 92.684,42.108 C89.272,38.228 83.328,36 76.228,36 L53.616,36 C52.024,36 50.668,37.16 50.42,38.732 L46.34,65.016 L41.264,97.756 C41.08,98.936 41.992,100 43.184,100 L54.272,100 L57.668,79.828 C58.136,76.868 60.656,74.708 63.656,74.708 Z M100.068,56.36 C96.9,71.444 86.64,79.448 70.288,79.448 L63.656,79.448 C63,79.448 62.448,79.92 62.344,80.576 L57.924,108 L69.552,108 C70.944,108 72.132,106.988 72.348,105.612 L72.464,105.012 L74.684,90.956 L74.828,90.18 C75.044,88.804 76.232,87.792 77.624,87.792 L79.384,87.792 C90.784,87.792 99.708,83.16 102.316,69.768 C103.388,64.248 102.844,59.632 100.068,56.36 Z"/>
  </g>
</svg>
