<svg xmlns="http://www.w3.org/2000/svg" width="144" height="144" viewBox="0 0 144 144">
  <g fill="none" fill-rule="evenodd">
<path fill="#EFEFEF" fill-rule="nonzero" d="M90.76,42.644 C83.184,37.128 77.792,37.248 75.744,37.58 C75.168,37.672 74.684,38.004 74.344,38.472 L55.864,63.968 L46.812,76.46 C45.704,77.988 45.064,79.804 44.964,81.688 L43.78,104.184 C43.696,105.804 45.308,106.976 46.82,106.396 L67.844,98.356 C69.616,97.676 71.156,96.496 72.268,94.96 L79.644,84.78 L99.788,56.984 C100.144,56.492 100.288,55.892 100.188,55.292 C99.852,53.188 98.24,48.084 90.76,42.644 Z M67.908,93.86 L59.736,97.016 C59.416,97.14 59.06,97.04 58.852,96.768 C57.8,95.428 56.548,94.1 54.552,92.648 C52.556,91.2 50.908,90.416 49.312,89.824 C48.992,89.704 48.788,89.4 48.808,89.056 L49.296,80.312 L51.492,77.292 C51.492,77.292 56.408,76.616 62.824,81.284 C69.232,85.948 70.108,90.836 70.108,90.836 L67.908,93.86 Z"/>
  </g>
</svg>
