<svg xmlns="http://www.w3.org/2000/svg" width="144" height="144" viewBox="0 0 144 144">
  <g fill="none" fill-rule="evenodd">
<path fill="#EFEFEF" fill-rule="nonzero" d="M55.232,39.292 C42.876,45.644 35.2,58.176 35.2,72.084 C35.2,74.616 35.52,77.184 36.084,79.756 L67.88,50.8 C64.488,47.716 55.576,39.604 55.232,39.292 Z M87.172,38.504 C82.372,36.324 77.268,35.2 71.996,35.2 C68.26,35.2 64.576,35.824 61,36.964 L87.172,60.768 L87.172,38.504 Z M92.768,41.752 L92.768,84.22 L106.708,84.22 C108.08,80.292 108.796,76.204 108.796,72.08 C108.8,59.948 102.708,48.592 92.768,41.752 Z M37.852,85.716 C40.548,92.488 45.28,98.316 51.324,102.452 L51.324,73.452 L43.144,80.896 C40.352,83.432 38.024,85.56 37.852,85.716 Z M56.92,105.7 C60.66,107.388 64.572,108.428 68.6,108.8 L75.356,108.8 C87.432,107.676 98.264,100.528 104.152,89.824 L56.92,89.824 L56.92,105.7 Z"/>
  </g>
</svg>
