<svg xmlns="http://www.w3.org/2000/svg" width="144" height="144" viewBox="0 0 144 144">
  <g fill="none" fill-rule="evenodd">
<path fill="#EFEFEF" fill-rule="nonzero" d="M51.096,93.148 L42.676,106.148 L43.572,110.4 L47.812,109.492 L56.228,96.5 C55.332,96.02 54.444,95.508 53.584,94.94 C52.712,94.376 51.88,93.772 51.096,93.148 Z M86.744,88.608 C86.8,88.492 86.836,88.364 86.888,88.24 C87.1,87.772 87.288,87.304 87.44,86.812 C87.464,86.724 87.476,86.636 87.504,86.556 C87.66,86.012 87.792,85.476 87.896,84.924 C87.896,84.896 87.896,84.876 87.896,84.84 C88.676,80.164 87.316,74.948 84.204,70.236 L88.644,63.38 C93.76,64.032 98.184,62.744 100.312,59.452 C104.004,53.76 99.512,44.284 90.292,38.28 C81.064,32.272 70.6,32.02 66.916,37.704 C64.78,41 65.404,45.572 68.088,49.996 L63.64,56.852 C58.084,55.92 52.776,56.788 48.828,59.412 C48.804,59.42 48.776,59.428 48.76,59.444 C48.3,59.756 47.852,60.1 47.432,60.46 C47.364,60.516 47.284,60.568 47.228,60.624 C46.836,60.96 46.484,61.336 46.144,61.712 C46.064,61.808 45.952,61.892 45.876,61.992 C45.452,62.476 45.06,62.988 44.716,63.532 C39.18,72.064 43.904,84.976 55.248,92.368 C66.6,99.76 80.288,98.824 85.812,90.292 C86.16,89.752 86.48,89.188 86.744,88.608 Z M83.484,48.776 C79.936,46.468 78.204,42.828 79.624,40.632 C81.04,38.444 85.068,38.544 88.608,40.852 C92.164,43.16 93.88,46.808 92.468,48.996 C91.056,51.184 87.036,51.084 83.484,48.776 Z"/>
  </g>
</svg>
