<svg xmlns="http://www.w3.org/2000/svg" width="144" height="144" viewBox="0 0 144 144">
  <g fill="none" fill-rule="evenodd">
<path fill="#EFEFEF" fill-rule="nonzero" d="M72,33.6 C50.792,33.6 33.6,50.792 33.6,72 C33.6,93.208 50.792,110.4 72,110.4 C93.208,110.4 110.4,93.208 110.4,72 C110.4,50.792 93.208,33.6 72,33.6 Z M74.628,81.1 C72.164,80.912 71.132,79.692 69.204,78.524 C68.144,84.088 66.848,89.424 63.008,92.212 C61.82,83.796 64.744,77.484 66.104,70.776 C63.788,66.876 66.38,59.032 71.268,60.96 C77.28,63.344 66.06,75.46 73.592,76.976 C81.456,78.552 84.668,63.328 79.792,58.384 C72.744,51.236 59.284,58.22 60.94,68.452 C61.34,70.952 63.928,71.712 61.972,75.164 C57.464,74.164 56.116,70.608 56.292,65.868 C56.568,58.108 63.264,52.672 69.976,51.924 C78.468,50.98 86.436,55.04 87.54,63.032 C88.776,72.048 83.704,81.804 74.628,81.1 Z"/>
  </g>
</svg>
