<svg xmlns="http://www.w3.org/2000/svg" width="144" height="144" viewBox="0 0 144 144">
  <g fill="none" fill-rule="evenodd">
<path fill="#EFEFEF" fill-rule="nonzero" d="M66.468,85.908 C64.364,96.924 61.8,107.484 54.196,113 C51.852,96.352 57.64,83.852 60.332,70.58 C55.744,62.86 60.884,47.332 70.552,51.16 C82.452,55.864 60.248,79.848 75.152,82.848 C90.716,85.972 97.068,55.848 87.416,46.052 C73.476,31.9 46.832,45.72 50.112,65.98 C50.908,70.932 56.024,72.432 52.156,79.268 C43.232,77.292 40.568,70.252 40.912,60.868 C41.464,45.508 54.708,34.76 67.996,33.268 C84.8,31.384 100.572,39.44 102.752,55.244 C105.204,73.088 95.168,92.416 77.196,91.024 C72.324,90.644 70.284,88.228 66.468,85.908 Z"/>
  </g>
</svg>
