<svg xmlns="http://www.w3.org/2000/svg" width="144" height="144" viewBox="0 0 144 144">
  <g fill="none" fill-rule="evenodd">
<path fill="#EFEFEF" fill-rule="nonzero" d="M32,88 L32,93.992 C32,95.1 32.9,96 34.008,96 L37.996,96 C39.1,96 40,95.1 40,93.992 L40,88 C40,84.164 43.204,78.908 48,76.884 L48,68.464 C38.736,70.608 32,79.88 32,88 Z M80.26,50.804 L70.14,58.396 C68.752,59.436 67.064,60 65.328,60 L56.02,60 C53.8,60 52,61.8 52,64.02 L52,79.984 C52,82.2 53.8,84 56.02,84 L65.328,84 C67.064,84 68.752,84.564 70.14,85.604 L80.264,93.196 C82.688,95.016 85.64,96 88.672,96 L96,96 L96,48 L88.672,48 C85.64,48 82.688,48.984 80.26,50.804 Z M100,56 L100,64 L112,64 L112,56 L100,56 Z M100,88 L112,88 L112,80 L100,80 L100,88 Z"/>
  </g>
</svg>
