<svg xmlns="http://www.w3.org/2000/svg" width="144" height="144" viewBox="0 0 144 144">
  <g fill="none" fill-rule="evenodd">
<path fill="#EFEFEF" fill-rule="nonzero" d="M109.552,33.62 C109.108,32.364 107.736,31.7 106.476,32.136 C105.216,32.572 104.552,33.956 104.988,35.216 C108.704,45.896 101.328,53.872 95.704,58.144 L93.432,54.888 C92.668,53.796 90.96,52.888 89.632,52.872 L76.88,52.928 C75.552,52.904 73.58,53.512 72.492,54.28 L34.916,80.628 C33.096,81.908 32.656,84.416 33.928,86.244 L51.004,110.676 C52.284,112.496 54.328,112.276 56.152,111.004 L93.728,84.652 C94.808,83.888 96.056,82.24 96.496,80.98 L100.488,68.4 C100.928,67.144 100.66,65.228 99.896,64.136 L98.512,62.152 C106.064,56.364 113.904,46.136 109.552,33.62 Z M92.068,71.052 C89.16,73.092 85.144,72.38 83.108,69.468 C81.064,66.548 81.776,62.532 84.688,60.484 C87,58.864 90,58.98 92.16,60.552 C91.072,61.208 90.324,61.592 90.184,61.652 C88.98,62.224 88.464,63.668 89.032,64.872 C89.448,65.748 90.316,66.264 91.22,66.264 C91.564,66.264 91.916,66.184 92.248,66.028 C93.024,65.66 93.856,65.224 94.724,64.708 C95.112,67.084 94.168,69.576 92.068,71.052 Z"/>
  </g>
</svg>
