<svg xmlns="http://www.w3.org/2000/svg" width="144" height="144" viewBox="0 0 144 144">
  <g fill="none" fill-rule="evenodd">
<path fill="#EFEFEF" fill-rule="nonzero" d="M82.3,74.612 C82.772,73.58 84.08,72.624 85.208,72.496 C86.336,72.368 87.364,71.336 87.492,70.208 C87.628,69.088 88.58,67.776 89.608,67.3 C90.64,66.824 91.3,65.528 91.084,64.42 C90.852,63.308 91.356,61.768 92.188,61.004 C93.024,60.228 93.252,58.792 92.696,57.8 C92.14,56.816 92.14,55.196 92.696,54.212 C93.252,53.216 93.024,51.78 92.188,51.008 C91.356,50.236 90.856,48.7 91.084,47.592 C91.3,46.48 90.64,45.18 89.608,44.704 C88.584,44.228 87.628,42.924 87.492,41.796 C87.36,40.676 86.332,39.644 85.208,39.508 C84.08,39.376 82.772,38.42 82.3,37.396 C81.82,36.364 80.524,35.704 79.412,35.932 C78.3,36.152 76.764,35.652 75.996,34.82 C75.224,33.98 73.784,33.756 72.796,34.312 C71.808,34.868 70.188,34.868 69.204,34.312 C68.216,33.748 66.78,33.972 66,34.812 C65.236,35.644 63.7,36.144 62.584,35.924 C61.476,35.7 60.176,36.36 59.704,37.392 C59.228,38.416 57.92,39.372 56.792,39.5 C55.664,39.64 54.636,40.668 54.504,41.792 C54.368,42.916 53.42,44.224 52.388,44.696 C51.364,45.172 50.7,46.472 50.924,47.584 C51.144,48.692 50.644,50.232 49.812,51 C48.98,51.768 48.748,53.208 49.304,54.204 C49.86,55.188 49.86,56.808 49.304,57.792 C48.748,58.784 48.976,60.22 49.812,61 C50.648,61.76 51.144,63.3 50.924,64.416 C50.7,65.524 51.364,66.824 52.388,67.296 C53.42,67.772 54.368,69.084 54.5,70.204 C54.636,71.332 55.66,72.364 56.788,72.492 C57.916,72.62 59.224,73.58 59.7,74.608 C60.172,75.632 61.472,76.292 62.58,76.072 C63.692,75.852 65.232,76.348 65.996,77.184 C66.772,78.016 68.208,78.248 69.2,77.692 C70.184,77.136 71.804,77.136 72.792,77.692 C73.78,78.248 75.22,78.016 75.992,77.184 C76.764,76.344 78.296,75.852 79.408,76.072 C80.524,76.296 81.824,75.636 82.3,74.612 Z M71,69.596 C63.488,69.596 57.4,63.504 57.4,56 C57.4,48.488 63.488,42.396 71,42.396 C78.512,42.396 84.6,48.488 84.6,56 C84.6,63.504 78.508,69.596 71,69.596 Z M54.9,77.636 L49.928,105.832 L62.44,103.976 L73.564,110 L78.516,81.916 C76.128,82.608 73.608,83 70.996,83 C64.96,83 59.4,80.992 54.9,77.636 Z M86.844,77.828 C85.6,78.732 84.276,79.532 82.884,80.216 L79.892,97.16 L93.368,89.848 L86.844,77.828 Z"/>
  </g>
</svg>
