<svg xmlns="http://www.w3.org/2000/svg" width="144" height="144" viewBox="0 0 144 144">
  <g fill="none" fill-rule="evenodd">
<path fill="#EFEFEF" fill-rule="nonzero" d="M38.004,56 L106.004,56 C108.284,56 107.912,53.568 106.776,53.172 C105.636,52.776 93.004,48 90.8,48 L88,48 L88,36 L56,36 L56,48 L53.204,48 C51.004,48 38.368,52.776 37.232,53.172 C36.096,53.568 35.724,56 38.004,56 Z M108,60 L36,60 C33.8,60 32,61.8 32,64 L32,84 C32,86.204 33.8,88 36,88 L45.132,88 L41.604,108 L102.4,108 L98.868,88 L108,88 C110.204,88 112,86.204 112,84 L112,64 C112,61.8 110.204,60 108,60 Z M50.412,100 L55.204,71.988 L88.8,71.988 L93.596,100 L50.412,100 Z"/>
  </g>
</svg>
