<svg xmlns="http://www.w3.org/2000/svg" width="144" height="144" viewBox="0 0 144 144">
  <g fill="none" fill-rule="evenodd">
<path fill="#EFEFEF" fill-rule="nonzero" d="M71.868,64.772 L52,84 L64,84 L64,108 L80,108 L80,84 L92,84 L71.868,64.772 Z M104,36 L40,36 C35.6,36 32,39.6 32,44 L32,92 C32,96.4 35.6,100 40,100 L56,100 L56,92 L40,92 L40,56 L104,56 L104,92 L88,92 L88,100 L104,100 C108.4,100 112,96.4 112,92 L112,44 C112,39.6 108.4,36 104,36 Z M42,49 C40.344,49 39,47.656 39,46 C39,44.344 40.344,43 42,43 C43.656,43 45,44.344 45,46 C45,47.656 43.656,49 42,49 Z M50,49 C48.344,49 47,47.656 47,46 C47,44.344 48.344,43 50,43 C51.656,43 53,44.344 53,46 C53,47.656 51.656,49 50,49 Z M104,48 L56,48 L56,44 L104.076,44 L104,48 Z"/>
  </g>
</svg>
