<svg xmlns="http://www.w3.org/2000/svg" width="144" height="144" viewBox="0 0 144 144">
  <g fill="none" fill-rule="evenodd">
<path fill="#EFEFEF" fill-rule="nonzero" d="M72,33.5998536 C50.7922364,33.5998536 33.6000976,50.7922364 33.6000976,72 C33.6000976,93.2077636 50.7922364,110.399902 72,110.399902 C93.2077636,110.399902 110.399902,93.2077636 110.399902,72 C110.399902,50.7922364 93.2077636,33.5998536 72,33.5998536 Z M88.0307616,81.2824708 C87.2976072,81.66333 86.1540528,80.7934572 85.08374,79.2001956 C84.66333,80.940186 83.60791,82.513428 82.1125484,83.7746584 C83.6860348,84.3510744 84.712402,85.2993168 84.712402,86.3742676 C84.712402,88.1433104 81.931396,89.5705568 78.5009764,89.5705568 C75.4074704,89.5705568 72.8417968,88.4074708 72.3679196,86.8828128 L71.6301268,86.8828128 C71.1557616,88.4074712 68.5952148,89.5705568 65.5014648,89.5705568 C62.0710448,89.5705568 59.2902832,88.1433108 59.2902832,86.3742676 C59.2902832,85.2993164 60.3166504,84.3510744 61.8903808,83.7746584 C60.3901368,82.513428 59.3393556,80.9401856 58.9138184,79.2001956 C57.843994,80.7934572 56.7004396,81.6633304 55.971924,81.2824708 C54.9113772,80.7351076 55.1215824,77.763428 56.4411624,74.6652832 C57.4770512,72.2216796 58.8898928,70.4230956 59.9548344,70.0324708 C59.940186,69.8762208 59.9353032,69.7197268 59.9353032,69.5634768 C59.9353032,68.6152348 60.1994632,67.7453616 60.6437992,67.04126 C60.6394044,66.982666 60.6342772,66.9243164 60.6342772,66.875244 C60.6342772,66.4357908 60.7419432,66.034912 60.9174804,65.6831052 C61.1862792,59.3398436 65.315918,54.305908 72.0014648,54.305908 C78.6816404,54.305908 82.8112792,59.3398436 83.0849608,65.6831052 C83.260986,66.034912 83.3637692,66.4357908 83.3637692,66.875244 C83.3637692,66.9243164 83.3637692,66.982666 83.3537596,67.0412596 C83.8034668,67.7453612 84.0622556,68.6152344 84.0622556,69.5634764 C84.0622556,69.7197264 84.0578612,69.8762204 84.0427244,70.0324704 C85.1132812,70.4230952 86.5202636,72.2216792 87.5566404,74.6652828 C88.8808592,77.7634276 89.0861816,80.7351076 88.0307616,81.2824708 Z"/>
  </g>
</svg>
