<svg xmlns="http://www.w3.org/2000/svg" width="144" height="144" viewBox="0 0 144 144">
  <g fill="none" fill-rule="evenodd">
<path fill="#EFEFEF" fill-rule="nonzero" d="M100.02,84.072 C96.904,81.884 93.016,82.032 90.804,85.18 C88.592,88.32 73.132,107.712 47.8,99.656 C48.756,100.492 49.76,101.28 50.82,102.024 C67.432,113.728 90.388,109.736 102.084,93.124 C104.304,89.976 103.136,86.268 100.02,84.072 Z M51.14,81.604 C49.524,78.12 40.464,55.032 60.1,37.12 C58.9,37.536 57.712,38.004 56.54,38.548 C38.104,47.088 30.076,68.96 38.616,87.4 C40.228,90.884 44.028,91.736 47.488,90.136 C50.944,88.532 52.752,85.088 51.14,81.604 Z M75.304,35.292 C71.48,34.948 68.848,37.808 68.504,41.604 C68.164,45.4 70.244,48.688 74.068,49.032 C77.892,49.376 102.416,53.072 108.108,79.04 C108.356,77.796 108.532,76.532 108.652,75.244 C110.472,55 95.544,37.112 75.304,35.292 Z M59.564,74.12 C58.508,76.596 58.34,78.972 59.188,79.408 C59.772,79.712 60.684,79.016 61.54,77.744 C61.88,79.132 62.72,80.392 63.92,81.4 C62.664,81.86 61.84,82.62 61.84,83.476 C61.84,84.892 64.064,86.032 66.804,86.032 C69.276,86.032 71.324,85.104 71.704,83.884 C71.804,83.884 72.196,83.884 72.292,83.884 C72.672,85.104 74.72,86.032 77.196,86.032 C79.94,86.032 82.16,84.892 82.16,83.476 C82.16,82.616 81.34,81.86 80.08,81.4 C81.276,80.392 82.12,79.136 82.456,77.744 C83.312,79.016 84.224,79.712 84.812,79.408 C85.656,78.972 85.492,76.596 84.432,74.12 C83.604,72.168 82.48,70.728 81.624,70.416 C81.64,70.292 81.64,70.164 81.64,70.04 C81.64,69.28 81.432,68.588 81.072,68.024 C81.08,67.976 81.08,67.932 81.08,67.892 C81.08,67.54 80.996,67.22 80.856,66.94 C80.64,61.868 77.34,57.844 72,57.844 C66.656,57.844 63.356,61.868 63.14,66.936 C63,67.216 62.912,67.536 62.912,67.888 C62.912,67.928 62.916,67.972 62.92,68.02 C62.568,68.588 62.356,69.284 62.356,70.04 C62.356,70.164 62.36,70.288 62.372,70.416 C61.52,70.728 60.392,72.164 59.564,74.12 Z"/>
  </g>
</svg>
