<svg xmlns="http://www.w3.org/2000/svg" width="144" height="144" viewBox="0 0 144 144">
  <g fill="none" fill-rule="evenodd">
<path fill="#EFEFEF" fill-rule="nonzero" d="M100,64 L52.084,64 L87.98,42.94 L84,36 L38.944,62.284 C37.12,63.348 36,65.296 36,67.408 L36,100 C36,104.42 39.58,108 44,108 L100,108 C104.42,108 108,104.42 108,100 L108,72 C108,67.58 104.42,64 100,64 Z M94,100 C90.688,100 88,97.312 88,94 C88,90.688 90.688,88 94,88 C97.312,88 100,90.688 100,94 C100,97.312 97.312,100 94,100 Z M100,80 L44,80 L44,72 L100,72 L100,80 Z"/>
  </g>
</svg>
