<svg xmlns="http://www.w3.org/2000/svg" width="144" height="144" viewBox="0 0 144 144">
  <g fill="none" fill-rule="evenodd">
<path fill="#EFEFEF" fill-rule="nonzero" d="M54.693758,107 C51.184494,107 48.09334,105.557823 45.9884968,102.942536 C43.4083664,99.7317124 42.5828668,95.2006992 43.6620904,90.1817744 L43.894374,89.1019368 L51.7884312,90.8275264 L51.5561484,91.9037784 C50.9986684,94.4831928 51.2238044,96.56395 52.1886728,97.7657628 C52.7818888,98.5011984 53.6252552,98.877892 54.6937576,98.877892 C57.7956328,98.877892 60.8724932,93.9127812 63.1953256,85.2059064 C60.65093,84.3413168 58.3138044,83.0641636 56.233976,81.3959736 L55.379888,80.7107624 L60.4115004,74.3537028 L61.2727352,75.0425036 C62.3698268,75.92503 63.5955672,76.6461184 64.928516,77.191418 C65.6039236,73.316914 66.1435352,69.0621304 66.5402064,64.516762 L66.636692,63.4189872 L74.6808396,64.1293104 L74.5843544,65.2270888 C74.176964,69.9051972 73.6230584,74.2963028 72.940502,78.2999572 C78.4902876,77.7403068 83.5469128,74.5904768 86.3593292,69.8549688 C90.9692572,62.0916096 89.1360052,52.373056 82.0031244,46.7442624 C78.9548532,44.3370464 74.4771464,42.970744 70.2960472,43.1788192 C65.0786096,43.3976568 60.6795196,45.7469352 57.2238596,50.2420792 C53.0642032,55.6484488 52.6246508,63.7526244 56.1803724,69.5069808 L56.7592928,70.4433212 L49.8980028,74.737564 L49.3190824,73.797638 C43.9658464,65.1266404 44.5876504,53.3919088 50.8378564,45.2662088 C55.7443944,38.8804488 62.3555336,35.3795816 69.9601288,35.0602932 C76.1674536,34.8163428 82.4140856,36.7422956 86.9882812,40.3477384 C97.365982,48.5344248 100.017586,62.6978972 93.2956656,74.0200636 C90.3367308,79.0031072 85.7661132,82.8022748 80.3235356,84.8471548 C81.3312872,86.3826048 82.1889492,88.2194084 83.1716876,90.9028608 L83.804214,92.660738 C85.7911256,98.2106076 86.6988176,98.7056864 88.7857968,98.7056864 C89.7292212,98.7056864 90.7619892,98.3038844 91.4123836,97.6796624 C92.6631388,96.4814356 93.0312192,94.1782548 92.5094752,90.8311136 L92.3379436,89.7405108 L100.317764,88.4812944 L100.489296,89.5718972 C101.432724,95.6240212 100.217704,100.46356 96.9800336,103.566755 C94.8108672,105.640333 91.8233448,106.827794 88.7857968,106.827794 C85.0621144,106.827794 82.0460048,105.435842 79.8268088,102.69499 C78.2865904,100.800786 77.4325028,98.8384224 76.206764,95.423116 L75.59568,93.7190524 C74.1769636,89.848134 72.922634,87.8929452 71.1143988,86.89203 C70.5640676,88.9978956 69.956558,90.9674352 69.2990148,92.7647756 C65.8397828,102.210678 60.926098,107 54.693758,107 Z"/>
  </g>
</svg>
