<svg xmlns="http://www.w3.org/2000/svg" width="144" height="144" viewBox="0 0 144 144">
  <g fill="none" fill-rule="evenodd">
<path fill="#EFEFEF" fill-rule="nonzero" d="M72,33.5998536 C50.7922364,33.5998536 33.6000976,50.7922364 33.6000976,72 C33.6000976,93.2077636 50.7922364,110.399902 72,110.399902 C93.2077636,110.399902 110.399902,93.2077636 110.399902,72 C110.399902,50.7922364 93.2077636,33.5998536 72,33.5998536 Z M84.8583984,88.7734376 C83.7419432,89.8408204 82.2041016,90.4519044 80.6406248,90.4519044 C78.7236328,90.4519044 77.1711424,89.735596 76.0288084,88.3247072 C75.2360836,87.3496096 74.7963864,86.3393556 74.1655272,84.5812988 L73.85083,83.7043456 C73.1206052,81.71167 72.4748536,80.705322 71.5441892,80.1899412 C71.260742,81.2739256 70.948242,82.2878416 70.6096188,83.2131344 C68.8291012,88.0751948 66.2998044,90.5405268 63.0915524,90.5405268 C61.285156,90.5405268 59.6940916,89.7983392 58.6105952,88.452148 C57.2824704,86.799316 56.8574212,84.4667964 57.4130856,81.8833004 L57.5324704,81.3276364 L61.5959468,82.21582 L61.476562,82.7697752 C61.1894528,84.097656 61.3054196,85.1687008 61.8020016,85.7873532 C62.1074216,86.1657712 62.5415036,86.3598628 63.0915524,86.3598628 C64.688232,86.3598628 66.2722164,83.8039544 67.4677732,79.3220212 C66.1579588,78.8769528 64.955078,78.2197264 63.8845212,77.3608396 L63.444824,77.0083004 L66.034912,73.73584 L66.4780272,74.090332 C67.0429688,74.5446776 67.673828,74.9160156 68.3598632,75.1965332 C68.7075196,73.2021484 68.9853516,71.0119628 69.1894532,68.6723632 L69.239258,68.1071776 L73.3798828,68.4729004 L73.3303224,69.037842 C73.1206056,71.4460452 72.8354492,73.7062992 72.4841308,75.767334 C75.3408204,75.479248 77.9438476,73.857666 79.3916016,71.420166 C81.7644044,67.423828 80.8208008,62.4213868 77.14917,59.5239256 C75.5800784,58.2846676 73.2751464,57.5815428 71.1228028,57.6884764 C68.437256,57.8012696 66.1728516,59.010498 64.3940428,61.3244628 C62.2526852,64.1074216 62.0266112,68.2790528 63.8569336,71.2409668 L64.1547852,71.7229004 L60.6230468,73.9335936 L60.3249512,73.4497068 C57.569336,68.986328 57.8894044,62.9458008 61.1066896,58.7629396 C63.6323244,55.4760744 67.0354004,53.673828 70.9499512,53.5095216 C74.1452636,53.3840332 77.3605956,54.3752444 79.715332,56.2312012 C85.0571288,60.4453124 86.4221192,67.736084 82.961914,73.5642092 C81.4389648,76.1291508 79.0861816,78.0847172 76.284668,79.1374512 C76.8032228,79.9277344 77.2448732,80.8732912 77.7507324,82.2546388 L78.076172,83.159424 C79.0991212,86.0163576 79.5661624,86.2709964 80.6406252,86.2709964 C81.1262208,86.2709964 81.6577152,86.0642092 81.992676,85.7429204 C82.6364748,85.1262212 82.825928,83.9406744 82.5573732,82.217774 L82.4689944,81.6562504 L86.5766604,81.0080572 L86.6650392,81.5695808 C87.1506348,84.6848144 86.5251464,87.1760252 84.8583984,88.7734376 Z"/>
  </g>
</svg>
