<svg xmlns="http://www.w3.org/2000/svg" width="144" height="144" viewBox="0 0 144 144">
  <g fill="none" fill-rule="evenodd">
<path fill="#EFEFEF" fill-rule="nonzero" d="M72,52 C49.9086916,52 32,69.9084472 32,92 L38,92 C38,73.222168 53.2226564,58 72,58 C90.7773436,58 106,73.222168 106,92 L112,92 C112,69.9084472 94.0913084,52 72,52 Z M72,76 C63.163086,76 56,83.16333 56,92 L62,92 C62,86.4770508 66.4770508,82 72,82 C77.5229492,82 82,86.4770508 82,92 L88,92 C88,83.16333 80.836914,76 72,76 Z M72,64 C56.5361328,64 44,76.5358888 44,92 L50,92 C50,79.8496092 59.8496092,70 72,70 C84.1503908,70 94,79.8496092 94,92 L100,92 C100,76.5358888 87.4638672,64 72,64 Z"/>
  </g>
</svg>
