<svg xmlns="http://www.w3.org/2000/svg" width="144" height="144" viewBox="0 0 144 144">
  <g fill="none" fill-rule="evenodd">
<path fill="#EFEFEF" fill-rule="nonzero" d="M72,33.6 C50.792,33.6 33.6,50.792 33.6,72 C33.6,93.208 50.792,110.4 72,110.4 C93.208,110.4 110.4,93.208 110.4,72 C110.4,50.792 93.208,33.6 72,33.6 Z M85.612,69.928 C85.7,70.608 85.748,71.296 85.748,72 C85.748,80.704 78.78,87.764 70.18,87.764 C61.588,87.764 54.616,80.7 54.616,72 C54.616,63.288 61.584,56.232 70.18,56.232 C71.416,56.232 72.612,56.388 73.764,56.66 L73.764,65.64 C71.948,64.976 69.704,65.072 67.6,66.084 C63.792,67.928 61.86,72.06 63.284,75.328 C64.712,78.592 68.956,79.752 72.768,77.908 C75.392,76.644 77.704,73.596 77.704,69.768 L77.704,58.196 C78.032,58.376 78.352,58.58 78.664,58.78 C81.62,60.64 86.016,63.124 91.148,63.388 C93.152,63.492 90.36,68.524 85.612,69.928 Z"/>
  </g>
</svg>
