<svg xmlns="http://www.w3.org/2000/svg" width="144" height="144" viewBox="0 0 144 144">
  <g fill="none" fill-rule="evenodd">
<path fill="#EFEFEF" fill-rule="nonzero" d="M96.812,72.004 C96.812,89.232 83.02,103.2 66.008,103.2 C48.996,103.2 35.2,89.232 35.2,72.004 C35.2,54.768 48.992,40.8 66.004,40.8 C68.448,40.8 70.82,41.104 73.1,41.652 L73.1,59.416 C69.492,58.096 65.06,58.292 60.888,60.308 C53.348,63.948 49.524,72.136 52.348,78.588 C55.168,85.048 63.576,87.34 71.112,83.696 C76.308,81.188 80.884,75.148 80.884,67.58 L80.884,44.684 C81.532,45.044 82.164,45.436 82.784,45.84 C88.64,49.52 97.336,54.448 107.496,54.964 C111.456,55.16 105.94,65.128 96.544,67.908 C96.72,69.244 96.812,70.612 96.812,72.004 Z"/>
  </g>
</svg>
