<svg xmlns="http://www.w3.org/2000/svg" width="144" height="144" viewBox="0 0 144 144">
  <g fill="none" fill-rule="evenodd">
<path fill="#EFEFEF" fill-rule="nonzero" d="M96.956,108.516 C96.956,99.532 88.208,94.96 79.688,91.288 C71.196,87.632 68.484,84.552 68.484,77.952 C68.484,73.996 71.076,75.284 72.212,68.028 C72.692,65.02 74.98,67.98 75.42,61.112 C75.42,58.376 74.168,57.696 74.168,57.696 C74.168,57.696 74.804,53.644 75.052,50.524 C75.308,47.256 73.46,40.284 65.848,38.144 C64.52,36.78 63.62,34.616 67.716,32.448 C58.756,32.032 56.672,36.72 51.9,40.168 C47.84,43.192 46.744,47.98 46.94,50.528 C47.2,53.648 47.832,57.7 47.832,57.7 C47.832,57.7 46.576,58.38 46.576,61.116 C47.016,67.988 49.312,65.024 49.788,68.032 C50.924,75.288 53.52,74 53.52,77.956 C53.52,84.556 52.672,86.796 44.176,90.452 C35.652,94.12 33,100 33.044,108.516 C33.056,111.064 33,112 33,112 L97,112 C97,112 96.956,111.064 96.956,108.516 Z M97,72.156 L87.804,62.564 L83.56,66.808 L93.156,76 L83.564,85.192 L87.808,89.436 L97,79.844 L106.192,89.436 L110.436,85.192 L100.844,76 L110.432,66.808 L106.188,62.564 L97,72.156 Z"/>
  </g>
</svg>
