<svg xmlns="http://www.w3.org/2000/svg" width="144" height="144" viewBox="0 0 144 144">
  <g fill="none" fill-rule="evenodd">
<path fill="#EFEFEF" fill-rule="nonzero" d="M65.872,35.46 C48.468,38.376 35.2,53.508 35.2,71.744 C35.2,80.808 38.48,89.096 43.916,95.508 C56.8,89.272 65.804,75.164 65.872,58.744 L65.872,35.46 Z M72.008,81.032 C69.716,90.524 62.868,98.632 54.336,104.024 C59.576,106.9 65.6,108.54 72,108.54 C78.408,108.54 84.432,106.9 89.672,104.024 C81.14,98.632 74.296,90.524 72.008,81.032 Z M78.14,58.572 C78.14,75.064 87.164,89.244 100.088,95.508 C105.52,89.096 108.8,80.804 108.8,71.744 C108.8,53.508 95.54,38.384 78.14,35.464 L78.14,58.572 Z"/>
  </g>
</svg>
