<svg xmlns="http://www.w3.org/2000/svg" width="144" height="144" viewBox="0 0 144 144">
  <g fill="none" fill-rule="evenodd">
<path fill="#EFEFEF" fill-rule="nonzero" d="M80.732,82.276 C80.732,82.276 108.968,61.9 105.836,38.58 C105.768,38.072 105.6,37.728 105.388,37.508 C105.172,37.288 104.84,37.116 104.336,37.048 C81.548,33.844 61.64,62.736 61.64,62.736 C44.368,60.668 45.624,64.112 37.744,83.04 C36.236,86.648 38.68,87.892 41.36,86.876 C44.04,85.868 49.952,83.632 49.952,83.632 L60.312,94.224 C60.312,94.224 58.128,100.28 57.14,103.02 C56.148,105.764 57.36,108.264 60.892,106.724 C79.388,98.66 82.756,99.948 80.732,82.276 Z M84.768,58.612 C82.376,56.16 82.376,52.196 84.768,49.744 C87.16,47.3 91.036,47.3 93.432,49.744 C95.824,52.188 95.824,56.156 93.432,58.612 C91.036,61.056 87.156,61.056 84.768,58.612 Z"/>
  </g>
</svg>
