<svg xmlns="http://www.w3.org/2000/svg" width="144" height="144" viewBox="0 0 144 144">
  <g fill="none" fill-rule="evenodd">
<path fill="#EFEFEF" fill-rule="nonzero" d="M41.6,41.6 L41.6,51.068 C69.944,51.068 92.92,74.052 92.92,102.396 L102.396,102.396 C102.396,68.82 75.176,41.6 41.6,41.6 Z M41.6,60.548 L41.6,70.024 C59.476,70.024 73.972,84.516 73.972,102.4 L83.444,102.4 C83.444,79.288 64.708,60.548 41.6,60.548 Z M50.676,84.236 C45.66,84.236 41.596,88.308 41.596,93.32 C41.596,98.332 45.66,102.4 50.676,102.4 C55.692,102.4 59.752,98.336 59.752,93.32 C59.752,88.304 55.692,84.236 50.676,84.236 Z"/>
  </g>
</svg>
