<svg xmlns="http://www.w3.org/2000/svg" width="144" height="144" viewBox="0 0 144 144">
  <g fill="none" fill-rule="evenodd">
<path fill="#EFEFEF" fill-rule="nonzero" d="M88.996,33.752 L33.752,89.004 C31.416,91.34 31.416,95.156 33.76,97.5 L46.5,110.248 C48.836,112.584 52.664,112.592 54.996,110.256 L110.248,55.004 C112.584,52.664 112.584,48.84 110.248,46.504 L97.504,33.752 C95.156,31.408 91.336,31.42 88.996,33.752 Z M47.716,93.248 L44.68,96.284 L37.096,88.696 L40.132,85.66 L47.716,93.248 Z M59.86,93.248 L56.824,96.284 L43.164,82.624 L46.2,79.584 L59.86,93.248 Z M59.86,81.104 L56.824,84.14 L49.232,76.556 L52.272,73.516 L59.86,81.104 Z M65.932,75.032 L62.896,78.068 L55.312,70.484 L58.348,67.444 L65.932,75.032 Z M78.072,75.032 L75.036,78.068 L61.38,64.412 L64.416,61.376 L78.072,75.032 Z M78.072,62.892 L75.036,65.928 L67.452,58.344 L70.488,55.308 L78.072,62.892 Z M84.144,56.824 L81.108,59.86 L73.52,52.272 L76.556,49.236 L84.144,56.824 Z M96.288,56.824 L93.248,59.86 L79.592,46.2 L82.628,43.16 L96.288,56.824 Z M96.284,44.684 L93.248,47.72 L85.664,40.128 L88.7,37.096 L96.284,44.684 Z"/>
  </g>
</svg>
