<svg xmlns="http://www.w3.org/2000/svg" width="144" height="144" viewBox="0 0 144 144">
  <g fill="none" fill-rule="evenodd">
<path fill="#EFEFEF" fill-rule="nonzero" d="M65.52,54.36 C65.52,46.208 58.912,39.6 50.76,39.6 C42.608,39.6 36,46.208 36,54.36 C36,62.512 42.608,69.12 50.76,69.12 C54.6,69.12 58.064,67.616 60.692,65.216 L68,71.964 L68.048,72 L68.032,72.012 L60.688,78.784 C58.064,76.384 54.6,74.88 50.76,74.88 C42.608,74.88 36,81.488 36,89.64 C36,97.792 42.608,104.4 50.76,104.4 C58.912,104.4 65.52,97.792 65.52,89.64 C65.52,88.452 65.344,87.312 65.076,86.208 L76.452,78.244 L92.96,90.504 C101.808,96.7 108,87.852 108,87.852 L65.076,57.792 C65.34,56.688 65.52,55.548 65.52,54.36 Z M50.76,61.56 C46.784,61.56 43.56,58.336 43.56,54.36 C43.56,50.384 46.784,47.16 50.76,47.16 C54.736,47.16 57.96,50.384 57.96,54.36 C57.96,58.336 54.736,61.56 50.76,61.56 Z M50.76,96.84 C46.784,96.84 43.56,93.616 43.56,89.64 C43.56,85.664 46.784,82.44 50.76,82.44 C54.736,82.44 57.96,85.664 57.96,89.64 C57.96,93.616 54.736,96.84 50.76,96.84 Z M108,56.152 C108,56.152 101.808,47.304 92.96,53.5 L80.14,62.44 L89.556,69.032 L108,56.152 Z"/>
  </g>
</svg>
