<svg xmlns="http://www.w3.org/2000/svg" width="144" height="144" viewBox="0 0 144 144">
  <g fill="none" fill-rule="evenodd">
<path fill="#EFEFEF" fill-rule="nonzero" d="M50.572,105.136 C50.572,106.032 50.284,107.104 49.98,108 L72.928,108 C74.24,106.492 74.98,104.676 74.98,102.632 C74.98,97.092 68.404,94.016 54.016,87.264 L51.992,86.32 C44.9,82.948 39.648,79.98 36,76.444 L36,94.036 C36.704,93.94 37.436,93.868 38.232,93.868 C50.236,93.872 50.572,105.024 50.572,105.136 Z M100,36 L85.048,36 C92.04,40.712 94.916,47.368 94.916,52.568 C94.916,61.344 87.572,64.188 84.008,64.188 L82.924,64.196 C74.74,64.196 70.564,59.208 70.508,49.368 C70.024,48.984 67.756,47.556 61.12,47.556 C53.28,47.556 50.028,53.728 50.028,57.032 C50.028,60.924 52.2,65.252 67.964,70.56 C94.908,79.576 94.908,91.58 94.908,102.172 L94.908,102.276 C94.908,104.024 94.784,105.972 94.44,108 L100,108 C104.4,108 108,104.404 108,100 L108,44 C108,39.6 104.4,36 100,36 Z"/>
  </g>
</svg>
