<svg xmlns="http://www.w3.org/2000/svg" width="144" height="144" viewBox="0 0 144 144">
  <g fill="none" fill-rule="evenodd">
<path fill="#EFEFEF" fill-rule="nonzero" d="M59.2,72 C59.2,79.072 64.932,84.804 72,84.804 C79.072,84.804 84.796,79.072 84.796,72 C84.796,64.932 79.072,59.2 72,59.2 C64.928,59.2 59.2,64.932 59.2,72 Z M50.116,67.2 C52.312,57.136 61.272,49.6 72,49.6 C78.184,49.6 83.78,52.108 87.836,56.16 C89.712,58.036 92.752,58.036 94.624,56.16 C96.5,54.284 96.5,51.244 94.624,49.372 C88.836,43.584 80.836,40 72,40 C57.672,40 45.544,49.416 41.468,62.404 L32,62.404 L32,72 L44.796,72 C48.792,72 49.776,68.748 50.116,67.2 Z M99.2,72 C95.204,72 94.22,75.256 93.884,76.796 C91.688,86.86 82.728,94.396 72,94.396 C65.812,94.396 60.216,91.888 56.164,87.832 C54.288,85.956 51.248,85.956 49.372,87.832 C47.5,89.708 47.5,92.748 49.372,94.62 C55.164,100.416 63.164,104 72,104 C86.328,104 98.452,94.576 102.532,81.6 L112,81.6 L112,72 L99.2,72 Z"/>
  </g>
</svg>
