<svg xmlns="http://www.w3.org/2000/svg" width="144" height="144" viewBox="0 0 144 144">
  <g fill="none" fill-rule="evenodd">
<path fill="#EFEFEF" fill-rule="nonzero" d="M56.492,61 L59.656,40 L43.2,40 L36.324,58 C36.112,58.64 36,59.304 36,60 C36,64.416 40.6,68 46.284,68 C51.524,68 55.856,64.944 56.492,61 Z M72,68 C77.68,68 82.284,64.416 82.284,60 C82.284,59.836 82.272,59.672 82.264,59.516 L80.228,40 L63.772,40 L61.732,59.5 C61.724,59.664 61.716,59.828 61.716,60 C61.716,64.416 66.32,68 72,68 Z M92,72.184 L92,88 L52,88 L52,72.208 C50.248,72.84 48.32,73.2 46.284,73.2 C45.504,73.2 44.748,73.108 44,73.004 L44,98.4 C44,101.48 46.516,104 49.592,104 L94.4,104 C97.48,104 100,101.476 100,98.4 L100,73.008 C99.248,73.108 98.496,73.204 97.716,73.204 C95.692,73.2 93.756,72.832 92,72.184 Z M107.68,58 L100.796,40 L84.344,40 L87.504,60.968 C88.12,64.928 92.452,68 97.716,68 C103.396,68 108,64.416 108,60 C108,59.304 107.888,58.64 107.68,58 Z"/>
  </g>
</svg>
