<svg xmlns="http://www.w3.org/2000/svg" width="144" height="144" viewBox="0 0 144 144">
  <g fill="none" fill-rule="evenodd">
<path fill="#EFEFEF" fill-rule="nonzero" d="M88,100 C88,104.416 91.576,108 96,108 C100.416,108 104,104.416 104,100 C104,95.576 100.416,92 96,92 C91.576,92 88,95.576 88,100 Z M48,100 C48,104.416 51.58,108 56,108 C60.412,108 64,104.416 64,100 C64,95.576 60.412,92 56,92 C51.58,92 48,95.576 48,100 Z M62.188,80.688 L106.46,68.04 C107.304,67.796 108,66.884 108,66 L108,44 L52,44 L52,37.6 C52,36.72 51.276,36 50.404,36 L37.596,36 C36.72,36 36,36.72 36,37.6 L36,44 L44,44 L51.64,79.828 L52,83.6 L52,90.196 C52,91.072 52.72,91.796 53.6,91.796 L106.4,91.796 C107.28,91.796 108,91.068 108,90.196 L108,84 L63.008,84 C58.408,84 58.312,81.796 62.188,80.688 Z"/>
  </g>
</svg>
