<svg xmlns="http://www.w3.org/2000/svg" width="144" height="144" viewBox="0 0 144 144">
  <g fill="none" fill-rule="evenodd">
<path fill="#EFEFEF" fill-rule="nonzero" d="M105.596,62 L85.568,62 L78.32,69.248 C76.508,71.06 74.096,72.056 71.536,72.056 C68.968,72.056 66.56,71.056 64.744,69.244 C62.936,67.436 61.936,65.028 61.932,62.464 C61.932,62.308 61.972,62.156 61.976,62 L38.4,62 C37.072,62 36,63.072 36,64.4 L36,74 L108,74 L108,64.4 C108,63.072 106.92,62 105.596,62 Z M75.072,65.996 L95.292,45.776 C96.232,44.84 96.24,43.324 95.3,42.38 L91.62,38.7 C90.684,37.764 89.164,37.768 88.22,38.7 L68,58.924 C66.048,60.876 66.048,64.044 68,65.996 C69.952,67.944 73.116,67.948 75.072,65.996 Z M47.292,103.084 C47.68,104.688 49.352,106 51,106 L93,106 C94.648,106 96.32,104.688 96.708,103.084 L102.8,78 L41.2,78 L47.292,103.084 Z"/>
  </g>
</svg>
