<svg xmlns="http://www.w3.org/2000/svg" width="144" height="144" viewBox="0 0 144 144">
  <g fill="none" fill-rule="evenodd">
<path fill="#EFEFEF" fill-rule="nonzero" d="M104.484,45.084 C103.304,44.06 96.86,38.16 95.656,37.12 C94.46,36.084 92.632,36 91.248,36 L52.752,36 C51.372,36 49.544,36.084 48.344,37.12 C47.14,38.16 40.696,44.064 39.516,45.084 C38.328,46.108 37.344,47.656 37.66,49.852 C37.976,52.056 45.22,104.496 45.408,105.744 C45.592,106.988 46.68,107.972 48,108 L96,108 C97.32,107.972 98.408,106.988 98.592,105.74 C98.78,104.496 106.024,52.052 106.344,49.848 C106.656,47.656 105.672,46.108 104.484,45.084 Z M72,79.892 C59.008,79.892 56.228,61.508 55.652,57.72 L63,57.72 C64.104,63.244 66.616,72.696 72,72.696 C77.384,72.696 79.9,63.244 81,57.72 L88.352,57.72 C87.772,61.508 84.992,79.892 72,79.892 Z M44.68,48.024 L52,40 L92,40 L99.32,48.024 L44.68,48.024 Z"/>
  </g>
</svg>
