<svg xmlns="http://www.w3.org/2000/svg" width="144" height="144" viewBox="0 0 144 144">
  <g fill="none" fill-rule="evenodd">
<path fill="#EFEFEF" fill-rule="nonzero" d="M92.372,58.776 L96.052,58.776 L96.052,70.224 L112,54.128 L96.048,38.028 L96.048,47.576 L92.368,47.576 C77.592,47.576 69.264,58.528 61.912,68.184 C55.304,76.872 49.592,84.38 40.368,84.38 L32,84.38 L32,95.576 L40.372,95.576 C55.148,95.576 63.476,84.632 70.828,74.968 C77.436,66.276 83.148,58.776 92.372,58.776 Z M53.64,65.832 C54.272,65.02 54.904,64.184 55.548,63.34 C57.108,61.284 58.764,59.12 60.556,56.956 C55.268,52.02 48.896,48.38 40.372,48.38 L32,48.38 L32,59.576 L40.372,59.576 C45.68,59.576 49.82,62.068 53.64,65.832 Z M96.048,85.176 L92.368,85.176 C86.74,85.176 82.42,82.372 78.404,78.224 C78.004,78.748 77.6,79.28 77.192,79.812 C75.428,82.132 73.532,84.616 71.436,87.084 C76.86,92.38 83.436,96.38 92.364,96.38 L96.044,96.38 L96.044,105.972 L112,89.872 L96.048,73.772 L96.048,85.176 Z"/>
  </g>
</svg>
