<svg xmlns="http://www.w3.org/2000/svg" width="144" height="144" viewBox="0 0 144 144">
  <g fill="none" fill-rule="evenodd">
<path fill="#EFEFEF" fill-rule="nonzero" d="M72,89 C67.624,89 64.076,92.576 64.076,97 C64.076,101.416 67.624,105 72,105 C76.376,105 79.92,101.416 79.92,97 C79.92,92.58 76.376,89 72,89 Z M55.2,80.032 L60.8,85.688 C66.984,79.44 77.016,79.44 83.204,85.688 L88.8,80.032 C79.524,70.66 64.476,70.66 55.2,80.032 Z M44,68.712 L49.6,74.368 C61.968,61.876 82.024,61.876 94.396,74.368 L100,68.712 C84.54,53.096 59.46,53.096 44,68.712 Z M32.796,57.4 L38.396,63.056 C56.952,44.312 87.04,44.312 105.6,63.056 L111.2,57.4 C89.552,35.532 54.448,35.532 32.796,57.4 Z"/>
  </g>
</svg>
