<svg xmlns="http://www.w3.org/2000/svg" width="144" height="144" viewBox="0 0 144 144">
  <g fill="none" fill-rule="evenodd">
<path fill="#EFEFEF" fill-rule="nonzero" d="M90.752,72.272 C89.656,71.936 88.9,71.704 89.476,70.24 C90.72,67.052 90.852,64.304 89.504,62.34 C86.972,58.66 80.048,58.856 72.112,62.24 C72.112,62.232 69.62,63.348 70.256,61.332 C71.48,57.344 71.292,54 69.392,52.072 C65.088,47.68 53.644,52.236 43.824,62.228 C36.468,69.712 32.2,77.64 32.2,84.5 C32.2,97.624 48.728,106.4 64.9,106.4 C86.096,106.4 100.2,93.064 100.2,83.112 C100.2,77.092 95.224,73.68 90.752,72.272 Z M64.944,100.516 C52.044,101.796 40.9,95.928 40.064,87.416 C39.228,78.9 49.008,70.956 61.912,69.664 C74.816,68.384 85.956,74.248 86.792,82.764 C87.628,91.288 77.848,99.236 64.944,100.516 Z M111.8,61.588 C111.796,48.34 101.056,37.604 87.8,37.604 C86.252,37.604 85.004,38.852 85.004,40.4 C85.004,41.948 86.252,43.196 87.8,43.196 C97.964,43.196 106.204,51.44 106.204,61.604 C106.204,63.152 107.456,64.4 109.004,64.4 C110.552,64.4 111.8,63.148 111.8,61.6 L111.8,61.588 Z M100.676,61.18 C99.4,54.932 94.472,50.008 88.224,48.728 C86.712,48.416 85.232,49.392 84.92,50.908 C84.612,52.416 85.584,53.9 87.1,54.212 C91.164,55.04 94.364,58.244 95.196,62.304 C95.508,63.82 96.988,64.788 98.5,64.484 C100.008,64.172 100.988,62.688 100.676,61.18 Z M58.328,78.008 C53.128,79.056 49.62,83.416 50.492,87.744 C51.364,92.08 56.28,94.744 61.48,93.696 C66.676,92.648 70.184,88.288 69.316,83.96 C68.444,79.632 63.52,76.96 58.328,78.008 Z"/>
  </g>
</svg>
