<svg xmlns="http://www.w3.org/2000/svg" width="144" height="144" viewBox="0 0 144 144">
  <g fill="none" fill-rule="evenodd">
<path fill="#EFEFEF" fill-rule="nonzero" d="M80.656,71.408 C79.736,70.792 78.6,70.26 77.292,69.828 C76,69.4 74.54,69.008 72.944,68.656 C71.688,68.36 70.772,68.124 70.228,67.968 C69.696,67.82 69.164,67.608 68.644,67.336 C68.148,67.08 67.752,66.772 67.472,66.42 C67.212,66.092 67.08,65.7 67.08,65.24 C67.08,64.488 67.48,63.856 68.3,63.304 C69.148,62.732 70.296,62.444 71.704,62.444 C73.224,62.444 74.328,62.7 74.988,63.216 C75.668,63.748 76.26,64.504 76.748,65.464 C77.172,66.216 77.552,66.736 77.924,67.064 C78.32,67.424 78.888,67.612 79.616,67.612 C80.42,67.612 81.096,67.324 81.636,66.744 C82.172,66.172 82.444,65.516 82.444,64.792 C82.444,64.04 82.232,63.26 81.828,62.488 C81.424,61.716 80.78,60.972 79.92,60.276 C79.06,59.58 77.972,59.028 76.676,58.612 C75.388,58.196 73.84,57.988 72.088,57.988 C69.888,57.988 67.948,58.3 66.316,58.924 C64.664,59.556 63.38,60.476 62.5,61.656 C61.612,62.844 61.164,64.22 61.164,65.748 C61.164,67.348 61.592,68.708 62.436,69.796 C63.264,70.868 64.404,71.724 65.812,72.344 C67.196,72.944 68.924,73.476 70.968,73.928 C72.464,74.248 73.68,74.56 74.572,74.848 C75.428,75.12 76.136,75.52 76.672,76.036 C77.18,76.528 77.428,77.152 77.428,77.96 C77.428,78.968 76.952,79.788 75.976,80.484 C74.972,81.188 73.64,81.54 72.016,81.54 C70.832,81.54 69.876,81.368 69.16,81.016 C68.452,80.672 67.9,80.236 67.512,79.712 C67.108,79.164 66.732,78.468 66.384,77.648 C66.072,76.892 65.68,76.312 65.228,75.912 C64.76,75.496 64.172,75.296 63.5,75.296 C62.672,75.296 61.984,75.56 61.444,76.076 C60.9,76.608 60.624,77.248 60.624,77.992 C60.624,79.172 61.048,80.408 61.884,81.64 C62.712,82.876 63.8,83.868 65.124,84.6 C66.972,85.608 69.34,86.116 72.164,86.116 C74.516,86.116 76.58,85.74 78.308,85.008 C80.048,84.264 81.392,83.212 82.3,81.892 C83.212,80.564 83.676,79.04 83.676,77.376 C83.676,75.984 83.408,74.784 82.876,73.812 C82.344,72.844 81.596,72.04 80.656,71.408 Z M72,33.6 C50.792,33.6 33.6,50.792 33.6,72 C33.6,93.208 50.792,110.4 72,110.4 C93.208,110.4 110.4,93.208 110.4,72 C110.4,50.792 93.208,33.6 72,33.6 Z M81.204,93.5 C79.256,93.5 77.42,93 75.812,92.108 C74.648,92.336 73.444,92.452 72.212,92.452 C61.36,92.452 52.556,83.388 52.556,72.224 C52.556,70.824 52.696,69.464 52.956,68.152 C51.96,66.416 51.388,64.392 51.388,62.228 C51.388,55.752 56.492,50.492 62.792,50.492 C65.02,50.492 67.096,51.156 68.856,52.296 C69.944,52.1 71.072,52 72.212,52 C83.072,52 91.872,61.056 91.872,72.228 C91.872,73.712 91.716,75.164 91.42,76.564 C92.176,78.136 92.604,79.9 92.604,81.776 C92.6,88.248 87.5,93.5 81.204,93.5 Z"/>
  </g>
</svg>
