<svg xmlns="http://www.w3.org/2000/svg" width="144" height="144" viewBox="0 0 144 144">
  <g fill="none" fill-rule="evenodd">
<path fill="#EFEFEF" fill-rule="nonzero" d="M106.684,80.148 C107.212,77.656 107.496,75.06 107.496,72.396 C107.496,52.452 91.776,36.28 72.388,36.28 C70.344,36.28 68.34,36.468 66.388,36.812 C63.248,34.78 59.54,33.6 55.56,33.6 C44.316,33.6 35.2,42.976 35.2,54.548 C35.2,58.408 36.224,62.032 37.996,65.14 C37.532,67.484 37.284,69.916 37.284,72.4 C37.284,92.344 53.004,108.516 72.384,108.516 C74.588,108.516 76.732,108.312 78.812,107.916 C81.68,109.5 84.952,110.4 88.436,110.4 C99.68,110.4 108.796,101.024 108.796,89.456 C108.8,86.108 108.036,82.952 106.684,80.148 Z M90.396,89.664 C88.772,92.024 86.372,93.9 83.264,95.228 C80.188,96.548 76.496,97.212 72.296,97.212 C67.256,97.212 63.028,96.304 59.724,94.5 C57.364,93.188 55.42,91.416 53.944,89.228 C52.456,87.008 51.7,84.812 51.7,82.696 C51.7,81.376 52.192,80.228 53.16,79.288 C54.12,78.36 55.356,77.88 56.824,77.88 C58.028,77.88 59.072,78.256 59.916,78.988 C60.724,79.692 61.416,80.74 61.972,82.08 C62.596,83.548 63.276,84.784 63.992,85.76 C64.68,86.696 65.672,87.488 66.932,88.104 C68.204,88.72 69.924,89.032 72.032,89.032 C74.932,89.032 77.312,88.4 79.104,87.14 C80.856,85.904 81.704,84.436 81.704,82.632 C81.704,81.204 81.26,80.084 80.344,79.204 C79.392,78.292 78.124,77.572 76.6,77.08 C75.004,76.572 72.836,76.016 70.156,75.44 C66.516,74.636 63.424,73.684 60.96,72.612 C58.44,71.512 56.412,69.98 54.928,68.064 C53.428,66.132 52.66,63.696 52.66,60.836 C52.66,58.108 53.46,55.648 55.044,53.524 C56.616,51.424 58.904,49.784 61.856,48.656 C64.768,47.548 68.24,46.984 72.16,46.984 C75.292,46.984 78.052,47.36 80.348,48.092 C82.66,48.836 84.612,49.836 86.144,51.068 C87.692,52.312 88.84,53.64 89.56,55.012 C90.288,56.412 90.66,57.792 90.66,59.136 C90.66,60.424 90.176,61.596 89.216,62.62 C88.256,63.652 87.044,64.168 85.616,64.168 C84.32,64.168 83.296,63.84 82.592,63.2 C81.936,62.608 81.248,61.668 80.496,60.332 C79.62,58.62 78.56,57.268 77.344,56.324 C76.164,55.396 74.192,54.924 71.48,54.924 C68.964,54.924 66.916,55.448 65.404,56.472 C63.932,57.468 63.224,58.6 63.224,59.936 C63.224,60.764 63.456,61.452 63.928,62.036 C64.428,62.668 65.132,63.216 66.02,63.676 C66.94,64.156 67.888,64.532 68.84,64.804 C69.816,65.084 71.456,65.492 73.7,66.032 C76.544,66.656 79.152,67.36 81.456,68.116 C83.796,68.888 85.816,69.836 87.464,70.936 C89.144,72.068 90.48,73.516 91.42,75.24 C92.368,76.976 92.848,79.116 92.848,81.6 C92.852,84.58 92.024,87.288 90.396,89.664 Z"/>
  </g>
</svg>
