<svg xmlns="http://www.w3.org/2000/svg" width="144" height="144" viewBox="0 0 144 144">
  <g fill="none" fill-rule="evenodd">
<path fill="#EFEFEF" fill-rule="nonzero" d="M84,60.32 C89.524,60.32 94,55.844 94,50.32 C94,44.796 89.524,40.32 84,40.32 C78.476,40.32 74,44.796 74,50.32 C74,55.844 78.48,60.32 84,60.32 Z M107.38,55.772 C93.06,65.992 86.464,64.204 80,64 C75.528,63.772 74,65.192 74,68.32 L74.004,92.32 C74.004,112.32 107.688,106.04 94.664,72.524 C101.348,68.688 106.968,62.788 110.168,58.876 C111.812,56.444 110.056,53.896 107.38,55.772 Z M60,40.32 C54.476,40.32 50,44.796 50,50.32 C50,55.844 54.476,60.32 60,60.32 C65.524,60.32 70,55.844 70,50.32 C70,44.796 65.52,40.32 60,40.32 Z M64,64 C57.536,64.204 50.94,65.992 36.62,55.772 C33.944,53.896 32.188,56.444 33.832,58.872 C37.032,62.788 42.652,68.684 49.336,72.52 C36.312,106.036 69.996,112.316 69.996,92.316 L70,68.316 C70,65.192 68.472,63.772 64,64 Z"/>
  </g>
</svg>
