<svg xmlns="http://www.w3.org/2000/svg" width="144" height="144" viewBox="0 0 144 144">
  <g fill="none" fill-rule="evenodd">
<path fill="#EFEFEF" fill-rule="nonzero" d="M72.092,96.128 C62.06,96.128 55.08,89.908 55.08,89.908 L49.148,103.36 C53.24,105.548 57.516,107.104 59.984,107.924 L53.616,109.448 C50.632,110.16 47.632,108.316 46.916,105.332 L34.556,53.62 C33.84,50.636 35.68,47.636 38.668,46.916 L53.532,43.36 C49.892,47.476 48.48,52.368 48.836,57.96 C49.392,66.732 57.784,73.476 67.772,77.248 C86.576,84.352 82.116,96.128 72.092,96.128 Z M109.444,90.376 L97.08,38.664 C96.368,35.68 93.368,33.836 90.38,34.556 L79.728,37.104 C82.444,37.524 87.824,38.704 93.748,41.816 L89.112,54.668 C89.112,54.668 85.252,50.356 74.9,49.832 C65.06,49.332 59.588,59.98 78.776,66.252 C93.472,71.056 98.168,80.316 97.924,88.884 C97.8,93.336 96.24,96.956 94.436,99.688 L105.336,97.08 C108.32,96.368 110.16,93.368 109.444,90.376 Z"/>
  </g>
</svg>
