<svg xmlns="http://www.w3.org/2000/svg" width="144" height="144" viewBox="0 0 144 144">
  <g fill="none" fill-rule="evenodd">
<path fill="#EFEFEF" fill-rule="nonzero" d="M50.248,53.264 C45.76,57.74 26.14,85.724 43.092,102.672 C60.036,119.624 88.012,100 92.508,95.516 C96.992,91.04 91.168,77.936 79.5,66.268 C67.824,54.592 54.736,48.764 50.248,53.264 Z M87.304,91.624 C85.976,92.936 75.724,89.796 65.848,79.912 C55.98,70.036 52.824,59.78 54.152,58.46 C55.464,57.132 65.728,60.288 75.592,70.164 C85.476,80.032 88.624,90.296 87.304,91.624 Z M90.736,58.928 L98.352,51.304 C99.916,49.74 99.916,47.212 98.352,45.648 C96.792,44.084 94.26,44.084 92.696,45.648 L85.08,53.272 C83.516,54.836 83.516,57.368 85.08,58.928 C86.64,60.488 89.172,60.488 90.736,58.928 Z M73.496,50.2 C75.428,51.272 77.86,50.58 78.936,48.648 L83.284,40.944 C84.356,39.012 83.664,36.58 81.732,35.504 C79.804,34.428 77.368,35.124 76.292,37.056 L71.944,44.76 C70.872,46.696 71.568,49.132 73.496,50.2 Z M108.488,62.264 C107.42,60.332 104.98,59.636 103.048,60.712 L95.288,64.956 C93.356,66.028 92.66,68.468 93.736,70.396 C94.808,72.328 97.244,73.024 99.176,71.948 L106.936,67.704 C108.868,66.628 109.564,64.196 108.488,62.264 Z"/>
  </g>
</svg>
