<svg xmlns="http://www.w3.org/2000/svg" width="144" height="144" viewBox="0 0 144 144">
  <g fill="none" fill-rule="evenodd">
<path fill="#EFEFEF" fill-rule="nonzero" d="M34.688,86.22 L36,80.616 L34.688,74.828 C34.652,74.656 34.32,74.524 33.924,74.524 C33.516,74.524 33.188,74.656 33.16,74.828 L32,80.616 L33.156,86.216 C33.188,86.396 33.516,86.52 33.92,86.52 C34.32,86.524 34.652,86.4 34.688,86.22 Z M42.892,89.328 L44,80.672 L42.892,67.28 C42.856,66.944 42.436,66.672 41.936,66.672 C41.428,66.672 41.004,66.944 40.984,67.28 L40,80.672 L40.984,89.328 C41.008,89.672 41.428,89.936 41.936,89.936 C42.436,89.936 42.856,89.672 42.892,89.328 Z M51.072,89.188 L52,80.68 L51.072,62.852 C51.048,62.428 50.556,62.1 49.944,62.1 C49.336,62.1 48.844,62.428 48.82,62.852 L48,80.68 L48.82,89.196 C48.844,89.608 49.336,89.94 49.944,89.94 C50.556,89.936 51.048,89.608 51.072,89.188 Z M59.24,89.064 L60,80.68 L59.24,62.72 C59.22,62.228 58.656,61.836 57.96,61.836 C57.256,61.836 56.696,62.228 56.676,62.72 L56,80.68 L56.68,89.064 C56.696,89.556 57.26,89.948 57.96,89.948 C58.656,89.944 59.22,89.564 59.24,89.064 Z M67.4,88.952 L68,80.688 L67.4,60.092 C67.384,59.524 66.744,59.072 65.968,59.072 C65.192,59.072 64.552,59.532 64.54,60.096 L64,80.68 L64.54,88.952 C64.552,89.516 65.192,89.976 65.968,89.976 C66.744,89.976 67.384,89.524 67.4,88.952 Z M73.108,89.984 C73.14,89.984 101.508,90 101.688,90 C107.384,90 112,85.532 112,80.024 C112,74.516 107.384,70.056 101.688,70.056 C100.276,70.056 98.932,70.336 97.704,70.828 C96.884,61.844 89.092,54.796 79.588,54.796 C77.264,54.796 74.996,55.24 72.996,55.984 C72.212,56.28 72.008,56.576 72,57.164 L72,88.804 C72.008,89.416 72.496,89.92 73.108,89.984 Z"/>
  </g>
</svg>
