<svg xmlns="http://www.w3.org/2000/svg" width="144" height="144" viewBox="0 0 144 144">
  <g fill="none" fill-rule="evenodd">
<path fill="#EFEFEF" fill-rule="nonzero" d="M52,38.4 C52,36.188 50.208,36 48,36 C45.788,36 44,36.188 44,38.4 L44,72 L52,72 L52,38.4 Z M44,105.6 C44,107.804 45.788,108 48,108 C50.208,108 52,107.804 52,105.6 L52,92 L44,92 L44,105.6 Z M57.596,76 L38.396,76 C36.184,76 36,77.792 36,80 L36,84 C36,86.212 36.184,88 38.396,88 L57.6,88 C59.8,88 60,86.212 60,84 L60,80 C60,77.792 59.8,76 57.596,76 Z M105.596,80 L86.392,80 C84.184,80 84,81.792 84,84 L84,88 C84,90.212 84.184,92 86.396,92 L105.6,92 C107.8,92 108,90.212 108,88 L108,84 C108,81.792 107.8,80 105.596,80 Z M84,60 C84,57.792 83.8,56 81.596,56 L62.396,56 C60.184,56 60,57.792 60,60 L60,64 C60,66.212 60.184,68 62.396,68 L81.6,68 C83.8,68 84,66.212 84,64 L84,60 Z M76,38.4 C76,36.188 74.208,36 72,36 C69.788,36 68,36.188 68,38.4 L68,52 L76,52 L76,38.4 Z M68,105.6 C68,107.804 69.788,108 72,108 C74.208,108 76,107.804 76,105.6 L76,72 L68,72 L68,105.6 Z M100,38.4 C100,36.188 98.208,36 96,36 C93.788,36 92,36.188 92,38.4 L92,76 L100,76 L100,38.4 Z M92,105.6 C92,107.804 93.788,108 96,108 C98.208,108 100,107.804 100,105.6 L100,96 L92,96 L92,105.6 Z"/>
  </g>
</svg>
