<svg xmlns="http://www.w3.org/2000/svg" width="144" height="144" viewBox="0 0 144 144">
  <g fill="none" fill-rule="evenodd">
<path fill="#EFEFEF" fill-rule="nonzero" d="M88.804,68.776 C94.36,76.308 96.076,82.844 95.04,83.884 C94,84.916 87.468,83.204 79.928,77.648 L57.824,99.756 C74.568,107.108 96.332,91.684 100.244,87.772 C103.944,84.084 100.632,74.536 92.82,64.756 L88.804,68.776 Z M66.668,63.764 C62.272,57.132 60.944,51.672 61.892,50.724 C62.824,49.788 68.292,51.108 74.92,55.512 L79.012,51.412 C69.956,44.716 61.432,42.076 57.984,45.536 C54.272,49.24 40.192,69.044 45.06,85.364 L66.668,63.764 Z M106.084,37.912 C104.524,36.348 101.992,36.348 100.428,37.912 L37.912,100.432 C36.348,101.996 36.348,104.528 37.912,106.088 C39.476,107.652 42.004,107.652 43.568,106.088 L106.084,43.568 C107.648,42.004 107.648,39.472 106.084,37.912 Z"/>
  </g>
</svg>
