<svg xmlns="http://www.w3.org/2000/svg" width="144" height="144" viewBox="0 0 144 144">
  <g fill="none" fill-rule="evenodd">
<path fill="#EFEFEF" fill-rule="nonzero" d="M56,86 L72,96 L88,86 L88,52 L56,52 L56,86 Z M50,72 C50,67.58 46.416,64 42,64 C37.584,64 34,67.58 34,72 C34,76.42 37.584,80 42,80 C46.416,80 50,76.42 50,72 Z M102,64 C97.584,64 94,67.58 94,72 C94,76.42 97.584,80 102,80 C106.416,80 110,76.42 110,72 C110,67.58 106.416,64 102,64 Z M49.94,56.796 C54.96,49.536 63.208,45.2 72,45.2 C80.632,45.2 88.792,49.424 93.824,56.492 C95.62,59.008 99.116,59.596 101.632,57.808 C104.152,56.016 104.74,52.516 102.948,49.996 C95.82,39.98 84.248,34 72,34 C59.532,34 47.84,40.14 40.732,50.428 C38.976,52.972 39.612,56.46 42.152,58.22 C44.7,59.972 48.184,59.336 49.94,56.796 Z M93.824,87.508 C88.792,94.58 80.632,98.8 72,98.8 C63.208,98.8 54.96,94.464 49.94,87.204 C48.184,84.66 44.696,84.028 42.152,85.78 C39.608,87.54 38.972,91.028 40.732,93.572 C47.84,103.86 59.532,110 72,110 C84.248,110 95.82,104.02 102.948,94.004 C104.74,91.484 104.152,87.988 101.632,86.192 C99.116,84.404 95.62,84.992 93.824,87.508 Z"/>
  </g>
</svg>
