<svg xmlns="http://www.w3.org/2000/svg" width="144" height="144" viewBox="0 0 144 144">
  <g fill="none" fill-rule="evenodd">
<path fill="#EFEFEF" fill-rule="nonzero" d="M72,33.6 C50.792,33.6 33.6,50.792 33.6,72 C33.6,93.208 50.792,110.4 72,110.4 C93.208,110.4 110.4,93.208 110.4,72 C110.4,50.792 93.208,33.6 72,33.6 Z M83.856,87.348 C83.264,87.348 82.856,87.124 82.42,86.86 C78.368,84.408 73.348,83.12 67.908,83.12 C65.132,83.12 62.136,83.448 59.004,84.088 L58.624,84.184 C58.224,84.28 57.82,84.384 57.508,84.384 C56.248,84.384 55.26,83.404 55.26,82.148 C55.26,80.876 55.98,79.976 57.176,79.748 C60.912,78.896 64.432,78.484 67.924,78.484 C74.244,78.484 79.9,79.944 84.728,82.844 C85.56,83.328 86.08,83.884 86.08,85.12 C86.076,86.352 85.084,87.348 83.856,87.348 Z M86.968,78.616 C86.26,78.616 85.8,78.348 85.388,78.108 C78.088,73.772 67.2,72.336 58.248,74.72 C58.1,74.764 57.968,74.804 57.84,74.844 C57.504,74.952 57.184,75.056 56.744,75.056 C55.272,75.056 54.076,73.852 54.076,72.368 C54.076,70.94 54.82,69.94 56.172,69.56 C59.62,68.616 62.868,67.988 67.532,67.988 C75.076,67.988 82.388,69.88 88.116,73.308 C89.16,73.9 89.632,74.72 89.632,75.94 C89.632,77.42 88.436,78.616 86.968,78.616 Z M90.5,68.664 C89.836,68.664 89.424,68.508 88.816,68.172 C83.86,65.196 76.132,63.428 68.12,63.428 C63.948,63.428 60.16,63.888 56.852,64.78 C56.74,64.808 56.632,64.84 56.52,64.876 C56.168,64.98 55.728,65.108 55.272,65.108 C53.516,65.108 52.14,63.716 52.14,61.94 C52.14,60.396 53.008,59.216 54.456,58.788 C58.448,57.608 63.048,57.016 68.116,57.016 C77.24,57.016 85.928,59.04 91.944,62.58 C93.08,63.22 93.636,64.196 93.636,65.548 C93.636,67.292 92.256,68.664 90.5,68.664 Z"/>
  </g>
</svg>
