<svg xmlns="http://www.w3.org/2000/svg" width="144" height="144" viewBox="0 0 144 144">
  <g fill="none" fill-rule="evenodd">
<path fill="#EFEFEF" fill-rule="nonzero" d="M72,36.8 C52.556,36.8 36.8,52.552 36.8,72 C36.8,91.436 52.556,107.2 72,107.2 C91.448,107.2 107.196,91.44 107.196,72 C107.196,52.556 91.452,36.8 72,36.8 Z M85.912,90.008 C85.22,90.008 84.736,89.744 84.228,89.436 C79.472,86.552 73.58,85.04 67.196,85.04 C63.94,85.04 60.424,85.428 56.756,86.18 L56.308,86.292 C55.844,86.404 55.368,86.528 55.004,86.528 C53.52,86.528 52.36,85.376 52.36,83.904 C52.36,82.412 53.2,81.356 54.608,81.092 C58.992,80.092 63.12,79.604 67.216,79.604 C74.636,79.604 81.268,81.324 86.94,84.72 C87.912,85.288 88.524,85.944 88.524,87.392 C88.52,88.836 87.352,90.008 85.912,90.008 Z M89.564,79.764 C88.736,79.764 88.192,79.448 87.712,79.168 C79.14,74.084 66.38,72.396 55.868,75.196 C55.692,75.248 55.532,75.296 55.388,75.344 C54.992,75.468 54.624,75.592 54.104,75.592 C52.376,75.592 50.972,74.18 50.972,72.44 C50.972,70.764 51.848,69.592 53.428,69.144 C57.48,68.032 61.284,67.296 66.76,67.296 C75.608,67.296 84.188,69.516 90.912,73.54 C92.136,74.24 92.692,75.196 92.692,76.624 C92.692,78.36 91.288,79.764 89.564,79.764 Z M93.708,68.084 C92.928,68.084 92.448,67.896 91.728,67.508 C85.916,64.02 76.848,61.944 67.452,61.944 C62.556,61.944 58.108,62.484 54.228,63.532 C54.096,63.564 53.972,63.6 53.836,63.64 C53.424,63.764 52.908,63.912 52.376,63.912 C50.312,63.912 48.7,62.28 48.7,60.196 C48.7,58.384 49.716,57 51.42,56.496 C56.104,55.112 61.496,54.412 67.444,54.412 C78.156,54.412 88.348,56.792 95.408,60.936 C96.736,61.692 97.388,62.836 97.388,64.424 C97.388,66.476 95.772,68.084 93.708,68.084 Z"/>
  </g>
</svg>
