<svg xmlns="http://www.w3.org/2000/svg" width="144" height="144" viewBox="0 0 144 144">
  <g fill="none" fill-rule="evenodd">
<path fill="#EFEFEF" fill-rule="nonzero" d="M96,40 L48,40 C43.6,40 40,43.6 40,48 L40,96 C40,100.4 43.6,104 48,104 L96,104 C100.4,104 104,100.4 104,96 L104,48 C104,43.6 100.4,40 96,40 Z M84.244,91.156 L72,78.916 L59.756,91.156 L52.84,84.244 L65.084,72 L52.844,59.756 L59.76,52.84 L72,65.084 L84.236,52.84 L91.152,59.756 L78.916,72 L91.156,84.244 L84.244,91.156 Z"/>
  </g>
</svg>
