<svg xmlns="http://www.w3.org/2000/svg" width="144" height="144" viewBox="0 0 144 144">
  <g fill="none" fill-rule="evenodd">
<path fill="#EFEFEF" fill-rule="nonzero" d="M59.504,59.98 C57.716,61.08 64.292,76.948 65.896,79.532 C67.296,81.808 70.268,82.5 72.528,81.108 C74.8,79.7 75.508,76.732 74.108,74.468 C72.52,71.876 61.288,58.876 59.504,59.98 Z M58.164,42.608 C61.876,41.316 65.852,40.6 70,40.6 C74.148,40.6 78.124,41.316 81.836,42.608 C83.152,43.064 84.896,42.148 84.124,40.164 C83.56,38.724 83.016,37.316 82.796,36.744 C82.272,35.388 80.396,34.268 79.58,34.084 C76.492,33.388 73.292,33 70,33 C66.708,33 63.508,33.388 60.416,34.084 C59.6,34.268 57.728,35.388 57.204,36.744 C56.984,37.316 56.436,38.724 55.876,40.164 C55.104,42.148 56.848,43.068 58.164,42.608 Z M106.392,45.744 C105.624,44.824 104.808,43.924 103.94,43.056 C103.076,42.188 102.176,41.376 101.26,40.604 C100.648,40.088 98.848,39.668 97.708,40.808 C96.572,41.948 91.116,47.396 91.116,47.396 C92.724,48.548 94.288,49.816 95.736,51.26 C97.184,52.704 98.444,54.268 99.6,55.88 C99.6,55.88 105.052,50.432 106.188,49.292 C107.332,48.148 106.912,46.352 106.392,45.744 Z M70,44.6 C52.1,44.6 37.596,59.104 37.596,77 C37.596,94.9 52.1,109.404 70,109.404 C87.892,109.404 102.4,94.9 102.4,77 C102.4,59.108 87.892,44.6 70,44.6 Z M70,101.404 C56.528,101.404 45.6,90.48 45.6,77.004 C45.6,63.528 56.524,52.604 70,52.604 C83.476,52.604 94.404,63.528 94.404,77.004 C94.404,90.476 83.476,101.404 70,101.404 Z"/>
  </g>
</svg>
