<svg xmlns="http://www.w3.org/2000/svg" width="144" height="144" viewBox="0 0 144 144">
  <g fill="none" fill-rule="evenodd">
<path fill="#EFEFEF" fill-rule="nonzero" d="M72,33.6 C50.792,33.6 33.6,50.792 33.6,72 C33.6,93.208 50.792,110.4 72,110.4 C93.208,110.4 110.4,93.208 110.4,72 C110.4,50.792 93.208,33.6 72,33.6 Z M72,63.14 C70.828,63.14 69.876,64.092 69.876,65.256 L69.876,77.928 C69.876,82.904 65.816,86.952 60.832,86.952 C55.848,86.952 51.788,82.904 51.788,77.928 L51.788,72.624 L58.704,72.624 L58.704,77.928 C58.704,79.1 59.656,80.044 60.828,80.044 C62,80.044 62.952,79.1 62.952,77.928 L62.952,65.256 C62.96,60.28 67.012,56.236 72,56.236 C76.984,56.236 81.044,60.284 81.044,65.26 L81.044,67.672 L76.884,69.008 L74.124,67.672 L74.124,65.256 C74.124,64.092 73.176,63.14 72,63.14 Z M92.212,77.928 C92.212,82.904 88.152,86.952 83.168,86.952 C78.18,86.952 74.12,82.904 74.12,77.928 L74.12,72.512 L76.88,73.848 L81.04,72.512 L81.04,77.928 C81.04,79.1 81.992,80.044 83.164,80.044 C84.336,80.044 85.284,79.1 85.284,77.928 L85.284,72.624 L92.208,72.624 L92.208,77.928 L92.212,77.928 Z"/>
  </g>
</svg>
