<svg xmlns="http://www.w3.org/2000/svg" width="144" height="144" viewBox="0 0 144 144">
  <g fill="none" fill-rule="evenodd">
<path fill="#EFEFEF" fill-rule="nonzero" d="M76.204,64.236 L81.664,66.876 L89.9,64.236 L89.9,59.46 C89.9,49.608 81.868,41.6 72,41.6 C62.132,41.6 54.1,49.608 54.1,59.46 L54.1,84.54 C54.1,86.852 52.212,88.736 49.896,88.736 C47.576,88.736 45.692,86.852 45.692,84.54 L45.692,74.04 L32,74.04 L32,84.54 C32,94.384 40.028,102.4 49.9,102.4 C59.768,102.4 67.796,94.384 67.796,84.54 L67.796,59.46 C67.796,57.148 69.684,55.264 72.004,55.264 C74.32,55.264 76.208,57.148 76.208,59.46 L76.208,64.236 L76.204,64.236 Z M98.304,74.04 L98.304,84.54 C98.304,86.852 96.42,88.736 94.1,88.736 C91.78,88.736 89.896,86.852 89.896,84.54 L89.896,73.828 L81.66,76.46 L76.2,73.828 L76.2,84.54 C76.2,94.384 84.232,102.4 94.1,102.4 C103.968,102.4 112,94.384 112,84.54 L112,74.04 L98.304,74.04 Z"/>
  </g>
</svg>
