<svg xmlns="http://www.w3.org/2000/svg" width="144" height="144" viewBox="0 0 144 144">
  <g fill="none" fill-rule="evenodd">
<path fill="#EFEFEF" fill-rule="nonzero" d="M104,48 L100,48 L100,108 L104,108 C108.4,108 112,104.4 112,100 L112,56 C112,51.6 108.4,48 104,48 Z M32,56 L32,100 C32,104.4 35.596,108 40,108 L44,108 L44,48 L40,48 C35.596,48 32,51.6 32,56 Z M86,39.624 C83.276,38.36 78.444,36 71.924,36 C65.392,36 60.724,38.36 58,39.624 L58,48 L48,48 L48,108 L96,108 L96,48 L86,48 L86,39.624 Z M80,48 L64,48 L64,42.656 C66.136,41.736 68.312,40.796 71.924,40.796 C75.532,40.796 77.868,41.732 80,42.656 L80,48 Z"/>
  </g>
</svg>
