<svg xmlns="http://www.w3.org/2000/svg" width="144" height="144" viewBox="0 0 144 144">
  <g fill="none" fill-rule="evenodd">
<path fill="#EFEFEF" fill-rule="nonzero" d="M73.144,107.284 C67.428,106.356 62.212,104.856 58.436,103.592 C58.252,103.532 55.312,102.464 54.408,102.112 C53.296,101.684 52.716,100.388 53.14,99.272 C53.484,98.372 54.656,95.476 54.736,95.296 C56.336,91.616 58.736,86.684 61.916,81.78 C62.032,86.592 63.104,91.376 65.08,95.804 C67,100.112 69.756,104.028 73.144,107.284 Z M72.692,60.108 C61.528,37.352 36.732,38.164 32.82,48.336 C29.816,56.144 42.96,74.744 73.208,61.312 C73.216,61.308 73.216,61.308 73.224,61.304 C73.12,61.116 72.768,60.316 72.692,60.108 Z M78.24,59.22 C78.244,59.22 78.248,59.216 78.248,59.216 C95.332,51.628 92.944,38.452 88.524,36.76 C82.576,34.484 71.764,43.256 77.936,58.548 C77.996,58.656 78.2,59.108 78.24,59.22 Z M109.652,75.88 C107.068,70.08 102.32,65.924 96.8,63.944 C96.244,63.744 95.676,63.652 95.108,63.652 C92.24,63.652 89.48,66.032 89.22,69.004 C88.784,73.96 89.768,79.008 91.94,83.876 C94.08,88.672 97.116,92.728 101.02,95.704 C102.036,96.48 103.28,96.844 104.52,96.844 C106.756,96.844 108.988,95.66 109.876,93.54 C112.16,88.092 112.264,81.728 109.652,75.88 Z M96.688,101.356 C91.908,97.708 88.12,92.8 85.428,86.772 C82.7,80.656 81.584,74.472 82.12,68.388 C82.268,66.696 82.764,65.064 83.56,63.572 C83.42,63.608 83.116,63.68 83.104,63.684 C80.592,64.312 78.156,65.4 75.992,66.82 C72.856,68.876 70.092,71.928 68.904,75.528 C68.584,76.5 68.34,77.568 68.26,78.588 C67.88,83.46 68.672,88.492 70.804,93.268 C72.868,97.888 75.944,101.74 79.656,104.68 C81.92,106.468 86,107.6 89.336,107.6 C92.468,107.6 95.56,106.668 98.336,105.26 C99.204,104.82 101.116,103.628 101.24,103.544 C99.58,103.12 98.024,102.376 96.688,101.356 Z"/>
  </g>
</svg>
