<svg xmlns="http://www.w3.org/2000/svg" width="144" height="144" viewBox="0 0 144 144">
  <g fill="none" fill-rule="evenodd">
<path fill="#EFEFEF" fill-rule="nonzero" d="M100.01416,52 L79.98584,52 C75.5754396,52 72,55.5751952 72,59.9855956 L72,104.01416 C72,108.42456 75.5754396,112 79.98584,112 L100.01416,112 C104.42456,112 108,108.42456 108,104.01416 L108,59.9855956 C108,55.5751952 104.42456,52 100.01416,52 Z M90,108 C87.2382812,108 85,106.210693 85,104 C85,101.789062 87.2382812,100 90,100 C92.7580568,100 95,101.789062 95,104 C95,106.210693 92.7580568,108 90,108 Z M100,96 L80,96 L80,60 L100,60 L100,96 Z M64,96 L44,96 L44,40 L92,40 L92,44 L100,44 L100,40 C100,35.5957032 96.4023436,32 92,32 L44,32 C39.6015624,32 36,35.5957032 36,40 L36,104 C36,108.398438 39.6015624,112 44,112 L66.2207032,112 C64.8457032,109.640625 64,106.935547 64,104.013672 L64,96 Z"/>
  </g>
</svg>
