<svg xmlns="http://www.w3.org/2000/svg" width="144" height="144" viewBox="0 0 144 144">
  <g fill="none" fill-rule="evenodd">
<path fill="#EFEFEF" fill-rule="nonzero" d="M96,32 L48,32 C43.6,32 40,35.596 40,40 L40,104 C40,108.4 43.6,112 48,112 L96,112 C100.404,112 104,108.4 104,104 L104,40 C104,35.596 100.404,32 96,32 Z M72,108 C69.24,108 67,106.212 67,104 C67,101.788 69.24,100 72,100 C74.756,100 77,101.788 77,104 C77,106.212 74.756,108 72,108 Z M96,96 L48,96 L48,40 L96,40 L96,96 Z"/>
  </g>
</svg>
