<svg xmlns="http://www.w3.org/2000/svg" width="144" height="144" viewBox="0 0 144 144">
  <g fill="none" fill-rule="evenodd">
<path fill="#EFEFEF" d="M94,76 L50,76 C48.9,76 48,76.9 48,78 L48,82 C48,83.104 48.9,84 50,84 L94,84 C95.104,84 96,83.104 96,82 L96,78 C96,76.9 95.104,76 94,76 Z M94,60 L50,60 C48.9,60 48,60.9 48,62 L48,66 C48,67.104 48.9,68 50,68 L94,68 C95.104,68 96,67.104 96,66 L96,62 C96,60.9 95.104,60 94,60 Z M74,92 L50,92 C48.9,92 48,92.9 48,94 L48,98 C48,99.104 48.9,100 50,100 L74,100 C75.104,100 76,99.104 76,98 L76,94 C76,92.9 75.104,92 74,92 Z M94,44 L50,44 C48.9,44 48,44.9 48,46 L48,50 C48,51.104 48.9,52 50,52 L94,52 C95.104,52 96,51.104 96,50 L96,46 C96,44.9 95.104,44 94,44 Z"/>
  </g>
</svg>
