<svg xmlns="http://www.w3.org/2000/svg" width="144" height="144" viewBox="0 0 144 144">
  <g fill="none" fill-rule="evenodd">
<path fill="#EFEFEF" fill-rule="nonzero" d="M84,72.492 L84,36 C84,33.788 82.212,32 80,32 L63.196,32 C60.988,32 60,33.788 60,36 L60,72.492 C54.224,76.368 50.4,82.924 50.4,90.4 C50.4,102.328 60.072,112 72,112 C83.928,112 93.6,102.328 93.6,90.4 C93.6,82.924 89.776,76.368 84,72.492 Z M72,103.6 C64.708,103.6 58.8,97.692 58.8,90.4 C58.8,84.512 62.68,79.588 68,77.884 L68,48 L76,48 L76,77.884 C81.32,79.588 85.2,84.512 85.2,90.4 C85.2,97.688 79.292,103.6 72,103.6 Z"/>
  </g>
</svg>
