<svg xmlns="http://www.w3.org/2000/svg" width="144" height="144" viewBox="0 0 144 144">
  <g fill="none" fill-rule="evenodd">
<path fill="#EFEFEF" fill-rule="nonzero" d="M86.592,62.448 C86.06,61.028 100.748,47.912 92.184,37.284 C90.18,34.8 83.38,49.184 73.724,55.696 C68.396,59.288 56,66.936 56,71.164 L56,98.532 C56,103.616 75.656,109 90.592,109 C96.068,109 104,74.696 104,69.248 C104,63.776 87.116,63.872 86.592,62.448 Z M52,62.828 C49.368,62.828 40,64.428 40,75.32 L40,94.712 C40,105.596 49.368,106.796 52,106.796 C54.628,106.796 48,104.508 48,97.756 L48,72.264 C48,65.192 54.628,62.828 52,62.828 Z"/>
  </g>
</svg>
