<svg xmlns="http://www.w3.org/2000/svg" width="144" height="144" viewBox="0 0 144 144">
  <g fill="none" fill-rule="evenodd">
<path fill="#EFEFEF" fill-rule="nonzero" d="M92.852,60.564 C91.748,60.564 90.668,60.656 89.616,60.828 C86.992,52.248 78.86,46 69.236,46 C57.48,46 47.956,55.312 47.956,66.796 C47.956,67.828 48.036,68.836 48.184,69.82 C47.616,69.756 47.048,69.712 46.468,69.712 C38.476,69.712 32,76.048 32,83.852 C32,91.664 38.476,98 46.468,98 L92.852,98 C103.424,98 112,89.616 112,79.28 C112,68.936 103.424,60.564 92.852,60.564 Z M77.484,77.804 C75.508,80.616 67.028,89.36 66.668,89.724 C66.252,90.24 65.104,91.1 64.016,90.388 C63.7,90.184 63.328,89.78 63.328,88.972 C63.328,88.2 63.68,87.408 63.72,87.324 L67.852,78.176 C67.08,77.864 65.744,77.332 64.712,76.88 L64.44,76.764 C63.392,76.32 62.088,75.764 62.088,74.336 C62.088,73.648 62.412,72.844 63.084,71.9 C65.064,69.08 73.54,60.344 73.904,59.972 C74.316,59.464 75.464,58.604 76.556,59.308 C76.868,59.512 77.24,59.924 77.24,60.724 C77.24,61.496 76.888,62.288 76.848,62.38 L72.712,71.52 C73.492,71.832 74.824,72.372 75.86,72.816 L76.132,72.932 C77.18,73.376 78.484,73.932 78.484,75.368 C78.484,76.056 78.156,76.852 77.484,77.804 Z"/>
  </g>
</svg>
