<svg xmlns="http://www.w3.org/2000/svg" width="144" height="144" viewBox="0 0 144 144">
  <g fill="none" fill-rule="evenodd">
<path fill="#EFEFEF" fill-rule="nonzero" d="M51.624,78.164 L65.828,92.376 L91.9,66.304 L77.688,52.1 L51.624,78.164 Z M108.416,58.656 L102.372,52.608 C101.216,53.232 99.9,53.592 98.496,53.592 C94.024,53.592 90.4,49.968 90.4,45.5 C90.4,44.092 90.756,42.772 91.384,41.624 L85.34,35.576 C83.764,34.004 81.188,34.004 79.612,35.576 L35.572,79.616 C34,81.184 34,83.764 35.572,85.344 L41.62,91.384 C42.776,90.76 44.092,90.4 45.5,90.4 C49.968,90.4 53.592,94.024 53.592,98.5 C53.592,99.9 53.236,101.22 52.608,102.376 L58.656,108.416 C60.232,109.992 62.804,109.992 64.384,108.416 L108.416,64.384 C109.992,62.804 109.992,60.228 108.416,58.656 Z M65.828,98.876 L45.124,78.164 L77.692,45.6 L98.396,66.304 L65.828,98.876 Z"/>
  </g>
</svg>
