<svg xmlns="http://www.w3.org/2000/svg" width="144" height="144" viewBox="0 0 144 144">
  <g fill="none" fill-rule="evenodd">
<path fill="#EFEFEF" fill-rule="nonzero" d="M72,33.6 C50.792,33.6 33.6,50.792 33.6,72 C33.6,93.208 50.792,110.4 72,110.4 C93.204,110.4 110.4,93.208 110.4,71.996 C110.4,50.792 93.204,33.6 72,33.6 Z M72,102.396 C55.212,102.396 41.6,88.788 41.6,71.996 C41.6,55.208 55.208,41.596 72,41.596 L72,41.596 L72,72 L99.168,58.416 C101.22,62.508 102.4,67.108 102.4,72 C102.4,88.788 88.788,102.396 72,102.396 Z"/>
  </g>
</svg>
