<svg xmlns="http://www.w3.org/2000/svg" width="144" height="144" viewBox="0 0 144 144">
  <g fill="none" fill-rule="evenodd">
<path fill="#EFEFEF" fill-rule="nonzero" d="M44.54,59.56 C48.272,56.66 51.368,58.66 55.5,63.444 C55.964,63.984 56.588,63.352 56.944,63.044 C57.296,62.732 62.748,57.824 63.016,57.6 C63.28,57.364 63.6,56.924 63.18,56.432 C62.752,55.94 61.204,53.932 60.208,52.628 C52.976,43.168 79.992,36.752 75.844,36.652 C73.732,36.596 65.26,36.496 63.992,36.636 C58.86,37.176 52.416,41.972 49.172,44.208 C44.928,47.112 43.344,48.816 43.084,49.052 C41.884,50.1 42.892,52.52 40.716,54.428 C38.416,56.44 36.98,54.916 35.648,56.084 C34.988,56.668 33.14,58.052 32.612,58.512 C32.08,58.98 31.984,59.768 32.528,60.396 C32.528,60.396 37.584,65.98 38.008,66.476 C38.428,66.964 39.572,67.388 40.276,66.76 C40.984,66.136 42.804,64.548 43.108,64.268 C43.42,64.004 42.908,60.824 44.54,59.56 Z M67.372,61.628 C66.892,61.072 66.296,61.056 65.784,61.512 L60.048,66.52 C59.596,66.92 59.532,67.652 59.94,68.12 L93.116,105.876 C93.892,106.768 95.236,106.86 96.12,106.088 L100,102.836 C100.888,102.056 100.98,100.704 100.208,99.804 L67.372,61.628 Z M111.608,45.56 C111.312,43.584 110.288,43.996 109.756,44.832 C109.224,45.676 106.872,49.24 105.904,50.856 C104.944,52.456 102.576,55.62 98.168,52.496 C93.576,49.252 95.172,46.988 95.972,45.464 C96.776,43.932 99.244,39.636 99.6,39.104 C99.956,38.564 99.54,36.996 98.116,37.652 C96.688,38.308 88.024,41.752 86.824,46.692 C85.596,51.716 87.852,56.208 83.424,60.668 L78.052,66.268 L83.448,72.532 L90.064,66.252 C91.64,64.668 95.008,63.128 98.056,63.824 C104.588,65.3 108.152,62.848 110.3,58.792 C112.228,55.168 111.908,47.536 111.608,45.56 Z M42.956,100.212 C42.124,101.048 42.124,102.408 42.956,103.244 L46.76,106.964 C47.592,107.8 48.912,107.448 49.744,106.612 L69.372,87.316 L63.36,80.46 L42.956,100.212 Z"/>
  </g>
</svg>
