<svg xmlns="http://www.w3.org/2000/svg" width="144" height="144" viewBox="0 0 144 144">
  <g fill="none" fill-rule="evenodd">
<path fill="#EFEFEF" fill-rule="nonzero" d="M72,80.312 C81.56,80.312 89.568,77.064 90.052,72.82 C88.628,68.836 87.076,64.484 85.552,60.212 C84.496,63.256 78.652,65.416 72,65.416 C65.348,65.416 59.504,63.256 58.448,60.212 C56.924,64.484 55.372,68.836 53.952,72.82 C54.436,77.064 62.44,80.312 72,80.312 Z M72,53.492 C76.496,53.492 80.668,52.1 81.892,49.936 C80.208,45.208 78.764,41.148 77.848,38.592 C77.24,36.884 74.484,36 72,36 C69.516,36 66.76,36.884 66.152,38.592 C65.24,41.148 63.792,45.208 62.108,49.936 C63.332,52.1 67.508,53.492 72,53.492 Z M107.12,84.264 L92.1,78.208 L93.832,83.036 C93.744,88.152 83.816,92.232 72,92.232 C60.188,92.232 50.252,88.156 50.168,83.036 L51.9,78.208 L36.88,84.264 C32.668,85.96 32.488,89.1 36.488,91.24 L64.736,106.388 C68.728,108.528 75.268,108.528 79.264,106.388 L107.516,91.24 C111.512,89.1 111.332,85.96 107.12,84.264 Z"/>
  </g>
</svg>
