<svg xmlns="http://www.w3.org/2000/svg" width="144" height="144" viewBox="0 0 144 144">
  <g fill="none" fill-rule="evenodd">
<path fill="#EFEFEF" fill-rule="nonzero" d="M45.556,60.452 L49.96,104.084 C50.204,105.928 59.108,111.992 72,112 C84.9,111.992 93.804,105.928 94.044,104.084 L98.452,60.452 C91.716,64.22 81.648,66 72,66 C62.36,66 52.288,64.22 45.556,60.452 Z M84.672,38.04 L81.236,34.236 C79.908,32.344 78.468,32 75.664,32 L68.34,32 C65.54,32 64.096,32.344 62.772,34.236 L59.336,38.04 C49.056,39.836 41.6,44.6 41.6,48.116 L41.6,48.796 C41.6,54.984 55.212,60 72,60 C88.792,60 102.404,54.984 102.404,48.796 L102.404,48.116 C102.404,44.6 94.952,39.836 84.672,38.04 Z M80.28,49.36 L76,44 L68,44 L63.728,49.36 L56.928,49.36 C56.928,49.36 64.376,40.476 65.372,39.272 C66.132,38.352 66.908,38 67.916,38 L76.088,38 C77.1,38 77.876,38.352 78.636,39.272 C79.628,40.476 87.08,49.36 87.08,49.36 L80.28,49.36 Z"/>
  </g>
</svg>
