<svg xmlns="http://www.w3.org/2000/svg" width="144" height="144" viewBox="0 0 144 144">
  <g fill="none" fill-rule="evenodd">
<path fill="#EFEFEF" fill-rule="nonzero" d="M112,72 C112,66.556 108.968,61.536 103.876,57.512 C103.868,57.508 103.86,57.508 103.856,57.5 C102.408,43.212 88.708,32 72,32 C55.292,32 41.592,43.212 40.144,57.5 C40.14,57.508 40.132,57.508 40.124,57.512 C35.032,61.536 32,66.556 32,72 C32,84.448 47.788,94.676 68,95.88 C68,97.232 68,98.612 68,100 C68,104 60.716,107.644 60.716,107.644 C60.32,107.84 60.124,108.336 60.28,108.752 C60.28,108.752 61.5,112 64,112 C66.5,112 68.496,110 73.496,110 C78.496,110 83.252,111.728 83.252,111.728 C83.66,111.88 84.256,111.748 84.568,111.436 L87.436,108.568 C87.748,108.256 87.668,107.876 87.252,107.72 C87.252,107.72 80.004,105 80.004,100 C80.004,98.752 80.004,97.176 80.004,95.516 C98.26,93.296 112,83.612 112,72 Z M40,72 C40,67.924 43.072,64.22 48.088,61.396 C48.048,60.932 48,60.468 48,60 C48,48.952 58.748,40 72,40 C85.252,40 96,48.952 96,60 C96,60.468 95.952,60.932 95.916,61.396 C100.928,64.22 104,67.924 104,72 C104,79.456 93.796,85.696 80.004,87.476 C80.004,85.872 80.004,84.804 80.004,84.804 C80.004,84.364 80.264,83.756 80.584,83.456 L87.916,76.552 C88.236,76.248 88.5,75.644 88.5,75.204 L88.5,71.8 C88.5,71.36 88.188,71.18 87.812,71.404 L80.696,75.592 C80.312,75.816 80.004,75.64 80.004,75.196 L80.004,60.8 C80.004,60.36 79.664,60.112 79.244,60.252 L68.76,63.748 C68.344,63.888 68.004,64.36 68.004,64.8 L68.004,75.2 C68.004,75.64 67.688,75.832 67.296,75.628 L59.208,71.372 C58.82,71.168 58.248,71.252 57.936,71.564 L56.568,72.932 C56.256,73.244 56.276,73.736 56.604,74.024 L67.404,83.468 C67.736,83.76 68.004,84.356 68.004,84.796 C68.004,84.796 68.004,85.988 68.004,87.856 C52.224,86.876 40,80.16 40,72 Z"/>
  </g>
</svg>
