<svg xmlns="http://www.w3.org/2000/svg" width="144" height="144" viewBox="0 0 144 144">
  <g fill="none" fill-rule="evenodd">
<path fill="#EFEFEF" fill-rule="nonzero" d="M112,54.0361328 L100.685547,54.0361328 C92.8476564,48.6992188 83.25,46 72,46 C60.75,46 51.1523436,48.6992188 43.3144532,54.0361328 L32,54.0361328 C33.711914,55.7175292 35.3085936,59.395508 35.9726564,62.1923828 C33.5087892,65.517334 32,69.5891112 32,74.0361328 C32,85.0634764 40.9726564,94.0361328 52,94.0361328 C57.3066408,94.0361328 62.107422,91.9230956 65.6914064,88.5375976 L72,98 L78.3085936,88.5375976 C81.892578,91.9230956 86.6933592,94.0361328 92,94.0361328 C103.027344,94.0361328 112,85.0634764 112,74.0361328 C112,69.5891112 110.491211,65.517334 108.027344,62.1923828 C108.691406,59.395508 110.288086,55.7175292 112,54.0361328 Z M52,87.6362304 C44.5019532,87.6362304 38.4003908,81.5344236 38.4003908,74.0361328 C38.4003908,66.537842 44.5019532,60.4360352 52,60.4360352 C59.4980468,60.4360352 65.5996092,66.537842 65.5996092,74.0361328 C65.5996092,81.5344236 59.4980468,87.6362304 52,87.6362304 Z M72,74.0361328 C72,64.3669432 65.0996092,56.2829588 55.9658204,54.4370116 C60.7792968,52.8171388 66.1162108,52 72,52 C77.8837892,52 83.2207032,52.8171388 88.0341796,54.4370116 C78.9003908,56.2829588 72,64.3669432 72,74.0361328 Z M92,87.6362304 C84.5019532,87.6362304 78.4003908,81.5344236 78.4003908,74.0361328 C78.4003908,66.537842 84.5019532,60.4360352 92,60.4360352 C99.4980468,60.4360352 105.599609,66.537842 105.599609,74.0361328 C105.599609,81.5344236 99.4980468,87.6362304 92,87.6362304 Z M52,65.4360352 C47.2597656,65.4360352 43.4003908,69.2939452 43.4003908,74.0361328 C43.4003908,78.7783204 47.2597656,82.6362304 52,82.6362304 C56.7402344,82.6362304 60.5996092,78.7783204 60.5996092,74.0361328 C60.5996092,69.2939452 56.7402344,65.4360352 52,65.4360352 Z M52,76.6000976 C50.5644532,76.6000976 49.4003908,75.4360352 49.4003908,74 C49.4003908,72.5639648 50.5644532,71.3999024 52,71.3999024 C53.4355468,71.3999024 54.5996092,72.5639648 54.5996092,74 C54.5996092,75.4360352 53.4355468,76.6000976 52,76.6000976 Z M92,65.4360352 C87.2597656,65.4360352 83.4003908,69.2939452 83.4003908,74.0361328 C83.4003908,78.7783204 87.2597656,82.6362304 92,82.6362304 C96.7402344,82.6362304 100.599609,78.7783204 100.599609,74.0361328 C100.599609,69.2939452 96.7402344,65.4360352 92,65.4360352 Z M92,76.6000976 C90.5644532,76.6000976 89.4003908,75.4360352 89.4003908,74 C89.4003908,72.5639648 90.5644532,71.3999024 92,71.3999024 C93.4355468,71.3999024 94.5996092,72.5639648 94.5996092,74 C94.5996092,75.4360352 93.4355468,76.6000976 92,76.6000976 Z"/>
  </g>
</svg>
