<svg xmlns="http://www.w3.org/2000/svg" width="144" height="144" viewBox="0 0 144 144">
  <g fill="none" fill-rule="evenodd">
<path fill="#EFEFEF" fill-rule="nonzero" d="M94.4,104.784 C91.292,106.268 88.48,107.308 85.964,107.908 C83.444,108.5 80.72,108.8 77.792,108.8 C74.468,108.8 71.528,108.372 68.972,107.528 C66.416,106.676 64.24,105.464 62.432,103.896 C60.628,102.316 59.376,100.648 58.68,98.88 C57.984,97.108 57.636,94.536 57.636,91.176 L57.636,65.356 L49.6,65.356 L49.6,54.94 C52.456,54.004 54.904,52.66 56.94,50.9 C58.98,49.148 60.612,47.04 61.848,44.58 C63.08,42.128 63.924,38.996 64.392,35.2 L74.732,35.2 L74.732,53.808 L91.988,53.808 L91.988,65.356 L74.732,65.356 L74.732,84.232 C74.732,88.496 74.956,91.24 75.404,92.452 C75.848,93.664 76.68,94.632 77.892,95.352 C79.504,96.328 81.344,96.82 83.416,96.82 C87.096,96.82 90.76,95.608 94.4,93.188 L94.4,104.784 Z"/>
  </g>
</svg>
