<svg xmlns="http://www.w3.org/2000/svg" width="144" height="144" viewBox="0 0 144 144">
  <g fill="none" fill-rule="evenodd">
<path fill="#EFEFEF" fill-rule="nonzero" d="M72,33.6 C50.792,33.6 33.6,50.792 33.6,72 C33.6,93.208 50.792,110.4 72,110.4 C93.208,110.4 110.4,93.208 110.4,72 C110.4,50.792 93.208,33.6 72,33.6 Z M82.308,88.564 C80.736,89.316 79.316,89.836 78.044,90.144 C76.772,90.44 75.396,90.596 73.92,90.596 C72.24,90.596 70.756,90.376 69.464,89.948 C68.172,89.52 67.072,88.908 66.16,88.112 C65.248,87.324 64.616,86.472 64.264,85.58 C63.912,84.68 63.736,83.384 63.736,81.688 L63.736,68.64 L59.672,68.64 L59.672,63.384 C61.108,62.908 62.352,62.228 63.38,61.336 C64.408,60.452 65.236,59.392 65.856,58.148 C66.48,56.908 66.908,55.32 67.144,53.408 L72.372,53.408 L72.372,62.808 L81.092,62.808 L81.092,68.64 L72.372,68.64 L72.372,78.18 C72.372,80.336 72.484,81.72 72.712,82.328 C72.936,82.944 73.356,83.428 73.972,83.796 C74.788,84.288 75.72,84.536 76.76,84.536 C78.624,84.536 80.472,83.92 82.312,82.692 L82.312,88.564 L82.308,88.564 Z"/>
  </g>
</svg>
