<svg xmlns="http://www.w3.org/2000/svg" width="144" height="144" viewBox="0 0 144 144">
  <g fill="none" fill-rule="evenodd">
<path fill="#EFEFEF" fill-rule="nonzero" d="M101.264,56.984 C101.296,57.632 101.308,58.288 101.308,58.936 C101.308,78.896 86.12,101.904 58.348,101.904 C49.816,101.904 41.884,99.404 35.2,95.116 C36.384,95.256 37.584,95.328 38.8,95.328 C45.88,95.328 52.388,92.912 57.552,88.868 C50.948,88.744 45.368,84.384 43.448,78.384 C44.368,78.556 45.316,78.648 46.288,78.648 C47.668,78.648 49.004,78.468 50.268,78.124 C43.36,76.732 38.156,70.632 38.156,63.312 C38.156,63.248 38.156,63.188 38.156,63.124 C40.192,64.256 42.524,64.936 44.996,65.016 C40.944,62.304 38.276,57.688 38.276,52.444 C38.276,49.68 39.02,47.084 40.324,44.852 C47.768,53.992 58.9,60 71.448,60.632 C71.192,59.524 71.06,58.376 71.06,57.188 C71.06,48.852 77.816,42.096 86.156,42.096 C90.5,42.096 94.424,43.924 97.18,46.86 C100.616,46.18 103.848,44.924 106.768,43.196 C105.64,46.72 103.244,49.68 100.128,51.548 C103.184,51.18 106.088,50.376 108.8,49.172 C106.776,52.204 104.216,54.86 101.264,56.984 Z"/>
  </g>
</svg>
