<svg xmlns="http://www.w3.org/2000/svg" width="144" height="144" viewBox="0 0 144 144">
  <g fill="none" fill-rule="evenodd">
<path fill="#EFEFEF" fill-rule="nonzero" d="M72,33.6 C50.792,33.6 33.6,50.792 33.6,72 C33.6,93.208 50.792,110.4 72,110.4 C93.208,110.4 110.4,93.208 110.4,72 C110.4,50.792 93.208,33.6 72,33.6 Z M87.62,65.056 C87.636,65.384 87.64,65.712 87.64,66.032 C87.64,76.032 80.036,87.556 66.124,87.556 C61.852,87.556 57.876,86.308 54.532,84.156 C55.12,84.228 55.724,84.256 56.336,84.256 C59.88,84.256 63.14,83.052 65.728,81.02 C62.42,80.956 59.628,78.772 58.664,75.772 C59.124,75.856 59.596,75.904 60.084,75.904 C60.772,75.904 61.444,75.812 62.076,75.64 C58.616,74.944 56.008,71.888 56.008,68.224 L56.008,68.132 C57.028,68.696 58.196,69.04 59.436,69.08 C57.404,67.72 56.072,65.408 56.072,62.78 C56.072,61.396 56.444,60.092 57.096,58.976 C60.828,63.552 66.396,66.56 72.684,66.884 C72.552,66.328 72.488,65.752 72.488,65.156 C72.488,60.984 75.872,57.592 80.052,57.592 C82.224,57.592 84.192,58.512 85.572,59.984 C87.296,59.64 88.912,59.016 90.372,58.148 C89.808,59.912 88.612,61.396 87.048,62.336 C88.58,62.148 90.036,61.744 91.392,61.14 C90.38,62.656 89.096,63.992 87.62,65.056 Z"/>
  </g>
</svg>
