<svg xmlns="http://www.w3.org/2000/svg" width="144" height="144" viewBox="0 0 144 144">
  <g fill="none" fill-rule="evenodd">
<path fill="#EFEFEF" fill-rule="nonzero" d="M96,44 L48,44 C43.596,44 40,47.6 40,52 L40,80 C40,84.4 43.596,88 48,88 L64,88 L80,100 L80,88 L96,88 C100.4,88 104,84.4 104,80 L104,52 C104,47.6 100.4,44 96,44 Z M56,70.4 C53.572,70.4 51.6,68.432 51.6,66 C51.6,63.568 53.568,61.6 56,61.6 C58.432,61.6 60.4,63.568 60.4,66 C60.4,68.428 58.428,70.4 56,70.4 Z M72,70.4 C69.572,70.4 67.6,68.432 67.6,66 C67.6,63.568 69.568,61.6 72,61.6 C74.432,61.6 76.4,63.568 76.4,66 C76.4,68.428 74.428,70.4 72,70.4 Z M88,70.4 C85.572,70.4 83.6,68.432 83.6,66 C83.6,63.568 85.568,61.6 88,61.6 C90.432,61.6 92.4,63.568 92.4,66 C92.4,68.428 90.428,70.4 88,70.4 Z"/>
  </g>
</svg>
