<svg xmlns="http://www.w3.org/2000/svg" width="144" height="144" viewBox="0 0 144 144">
  <g fill="none" fill-rule="evenodd">
<path fill="#EFEFEF" d="M100,46 C95.584,46 92,49.58 92,54 C92,58.42 95.584,62 100,62 C104.416,62 108,58.42 108,54 C108,49.58 104.416,46 100,46 Z M82,50 L38,50 C36.896,50 36,50.896 36,52 L36,56 C36,57.104 36.896,58 38,58 L82,58 C83.104,58 84,57.104 84,56 L84,52 C84,50.896 83.104,50 82,50 Z M82,70 L38,70 C36.896,70 36,70.896 36,72 L36,76 C36,77.104 36.896,78 38,78 L82,78 C83.104,78 84,77.104 84,76 L84,72 C84,70.896 83.104,70 82,70 Z M82,90 L38,90 C36.896,90 36,90.896 36,92 L36,96 C36,97.104 36.896,98 38,98 L82,98 C83.104,98 84,97.104 84,96 L84,92 C84,90.896 83.104,90 82,90 Z"/>
  </g>
</svg>
