<svg xmlns="http://www.w3.org/2000/svg" width="144" height="144" viewBox="0 0 144 144">
  <g fill="none" fill-rule="evenodd">
<path fill="#EFEFEF" fill-rule="nonzero" d="M36,91.968 L55.78,89.132 L52.956,109 L76.804,85.06 L60.528,67.344 L36,91.968 Z M106.656,55.084 C108.22,53.512 108.656,51.304 106.656,49.408 L95.352,38.052 C94.236,36.82 91.268,36.484 89.704,38.052 L74.64,53.172 L90.912,70.888 L106.656,55.084 Z M106.824,94.172 L50.82,38.172 C49.256,36.608 46.728,36.608 45.164,38.172 C43.6,39.736 43.6,42.264 45.164,43.828 L101.168,99.828 C101.952,100.612 102.976,101 103.996,101 C105.02,101 106.044,100.608 106.824,99.828 C108.388,98.268 108.388,95.736 106.824,94.172 Z"/>
  </g>
</svg>
