<svg xmlns="http://www.w3.org/2000/svg" width="144" height="144" viewBox="0 0 144 144">
  <g fill="none" fill-rule="evenodd">
<path fill="#EFEFEF" fill-rule="nonzero" d="M92.852,60.556 C91.748,60.556 90.668,60.656 89.616,60.828 C86.992,52.248 78.864,46 69.236,46 C57.48,46 47.956,55.312 47.956,66.796 C47.956,67.82 48.036,68.828 48.184,69.82 C47.62,69.752 47.052,69.712 46.468,69.712 C38.476,69.712 32,76.04 32,83.852 C32,91.664 38.476,98 46.468,98 L64,98 L64,82 L54,82 L72,62 L90,82 L80,82 L80,98 L92.852,98 C103.424,98 112,89.616 112,79.28 C112,68.936 103.424,60.556 92.852,60.556 Z"/>
  </g>
</svg>
