<svg xmlns="http://www.w3.org/2000/svg" width="144" height="144" viewBox="0 0 144 144">
  <g fill="none" fill-rule="evenodd">
<path fill="#EFEFEF" fill-rule="nonzero" d="M95.956,108.516 C95.956,99.532 87.208,94.96 78.688,91.288 C70.196,87.632 67.484,84.552 67.484,77.952 C67.484,73.996 70.076,75.284 71.212,68.028 C71.692,65.02 73.98,67.98 74.42,61.112 C74.42,58.376 73.168,57.696 73.168,57.696 C73.168,57.696 73.804,53.644 74.052,50.524 C74.308,47.256 72.46,40.284 64.848,38.144 C63.52,36.78 62.62,34.616 66.716,32.448 C57.756,32.032 55.672,36.72 50.9,40.168 C46.84,43.192 45.744,47.98 45.94,50.528 C46.2,53.648 46.832,57.7 46.832,57.7 C46.832,57.7 45.576,58.38 45.576,61.116 C46.016,67.988 48.312,65.024 48.788,68.032 C49.924,75.288 52.52,74 52.52,77.956 C52.52,84.556 51.672,86.796 43.176,90.452 C34.652,94.12 32,100 32.044,108.516 C32.056,111.064 32,112 32,112 L96,112 C96,112 95.956,111.064 95.956,108.516 Z M106.112,85.46 C101.572,83.632 99.692,81.452 99.692,77.196 C99.692,74.632 101.364,75.468 102.1,70.784 C102.408,68.848 103.888,70.752 104.172,66.324 C104.172,64.56 103.364,64.12 103.364,64.12 C103.364,64.12 103.776,61.496 103.936,59.484 C104.136,56.976 102.48,50.496 94.864,50.496 C87.252,50.496 85.592,56.976 85.788,59.484 C85.956,61.492 86.364,64.12 86.364,64.12 C86.364,64.12 85.556,64.556 85.556,66.324 C85.84,70.752 87.32,68.848 87.628,70.784 C88.364,75.472 90.036,74.636 90.036,77.196 C90.036,81.452 88.284,83.444 82.8,85.804 C82.524,85.92 82.32,86.076 82.068,86.212 C88.628,89.06 98.972,93.976 101.42,104 L112,104 C112,104 112,96.376 112,94.728 C112,90.728 110.908,87.392 106.112,85.46 Z"/>
  </g>
</svg>
