<svg xmlns="http://www.w3.org/2000/svg" width="144" height="144" viewBox="0 0 144 144">
  <g fill="none" fill-rule="evenodd">
<path fill="#EFEFEF" fill-rule="nonzero" d="M62.9,40.584 C58.836,43.608 57.744,48.396 57.944,50.944 C58.2,54.06 58.832,58.116 58.832,58.116 C58.832,58.116 57.58,58.796 57.58,61.532 C58.016,68.4 60.312,65.436 60.784,68.448 C61.92,75.704 64.516,74.412 64.516,78.372 C64.516,84.968 61.796,88.052 53.304,91.708 C44.784,95.38 36,100 36,108 L36,112 L108,112 L108,108 C108,100 99.212,95.38 90.688,91.712 C82.196,88.056 79.484,84.976 79.484,78.376 C79.484,74.416 82.072,75.708 83.212,68.452 C83.688,65.44 85.98,68.404 86.424,61.536 C86.424,58.8 85.168,58.12 85.168,58.12 C85.168,58.12 85.8,54.064 86.052,50.948 C86.312,47.68 84.46,40.704 76.852,38.564 C75.52,37.204 74.62,35.04 78.716,32.868 C69.756,32.448 67.672,37.136 62.9,40.584 Z"/>
  </g>
</svg>
