<svg xmlns="http://www.w3.org/2000/svg" width="144" height="144" viewBox="0 0 144 144">
  <g fill="none" fill-rule="evenodd">
<path fill="#EFEFEF" fill-rule="nonzero" d="M108,44 L36,44 C33.788,44 32,45.788 32,48 L32,96 C32,98.208 33.788,100 36,100 L108,100 C110.212,100 112,98.208 112,96 L112,48 C112,45.792 110.212,44 108,44 Z M84,60 L100,60 L100,64 L84,64 L84,60 Z M76,91.212 C75.484,90.804 74.828,90.408 73.884,90 C69.164,87.968 62.04,84.96 62.04,81.296 C62.04,79.092 63.476,79.812 64.112,75.78 C64.376,74.108 65.652,75.752 65.892,71.936 C65.892,70.416 65.196,70.036 65.196,70.036 C65.196,70.036 65.548,67.788 65.688,66.052 C65.832,64.24 64.804,58.852 60.58,57.664 C59.836,56.912 59.336,57.22 61.612,56.016 C56.636,55.78 55.476,58.384 52.828,60.3 C50.572,61.98 49.96,64.64 50.072,66.056 C50.22,67.788 50.572,70.04 50.572,70.04 C50.572,70.04 49.872,70.416 49.872,71.936 C50.116,75.752 51.392,74.108 51.652,75.78 C52.284,79.812 53.728,79.092 53.728,81.296 C53.728,84.96 46.604,87.968 41.884,90 C41.072,90.352 40.488,90.692 40,91.04 L40,52 L76,52 L76,91.212 Z M104,76 L84,76 L84,72 L104,72 L104,76 Z"/>
  </g>
</svg>
