<svg xmlns="http://www.w3.org/2000/svg" width="144" height="144" viewBox="0 0 144 144">
  <g fill="none" fill-rule="evenodd">
<path fill="#EFEFEF" fill-rule="nonzero" d="M112,52 L112,47.196 C112,45.428 110.572,44 108.804,44 L35.204,44 C33.432,44 32,45.428 32,47.196 L32,52 L40,52 L40,60 L32,60 L32,68 L40,68 L40,76 L32,76 L32,84 L40,84 L40,92 L32,92 L32,96.796 C32,98.564 33.432,100 35.204,100 L108.804,100 C110.572,100 112,98.564 112,96.796 L112,92 L104,92 L104,84 L112,84 L112,76 L104,76 L104,68 L112,68 L112,60 L104,60 L104,52 L112,52 Z M64,84 L64,60 L84,72 L64,84 Z"/>
  </g>
</svg>
