<svg xmlns="http://www.w3.org/2000/svg" width="144" height="144" viewBox="0 0 144 144">
  <g fill="none" fill-rule="evenodd">
<path fill="#EFEFEF" fill-rule="nonzero" d="M74,72 C74,77.520996 69.520996,82 64,82 C58.47583,82 54,77.520996 54,72 C54,66.479004 58.47583,62 64,62 C69.520996,62 74,66.479004 74,72 Z M96,48 L96,96 C96,100.398438 92.3984376,104 88,104 L40,104 C35.6015624,104 32,100.398438 32,96 L32,48 C32,43.6015624 35.6015624,40 40,40 L88,40 C92.3984376,40 96,43.6015624 96,48 Z M82,72 C82,62.0578612 73.9384764,54 64,54 C54.0578612,54 46,62.0578612 46,72 C46,81.9421388 54.0578612,90 64,90 C73.9384764,90 82,81.9421388 82,72 Z M108.860596,52.3425292 L100,58.2495116 L100,86.2495116 L108.860596,92.156738 C110.202637,93.0512696 112,92.0893556 112,90.4765624 L112,54.0227052 C112,52.409912 110.202637,51.447754 108.860596,52.3425292 Z"/>
  </g>
</svg>
