<svg xmlns="http://www.w3.org/2000/svg" width="144" height="144" viewBox="0 0 144 144">
  <g fill="none" fill-rule="evenodd">
<path fill="#EFEFEF" fill-rule="nonzero" d="M72,33.6 C50.792,33.6 33.6,50.792 33.6,72 C33.6,93.208 50.792,110.4 72,110.4 C93.208,110.4 110.4,93.208 110.4,72 C110.4,50.792 93.208,33.6 72,33.6 Z M89.604,64.6 C87.572,76.264 76.212,86.148 72.8,88.404 C69.384,90.652 66.264,87.496 65.136,85.108 C63.84,82.38 59.964,67.616 58.948,66.388 C57.932,65.164 54.884,67.616 54.884,67.616 L53.408,65.64 C53.408,65.64 59.596,58.108 64.304,57.172 C69.296,56.172 69.288,64.976 70.488,69.868 C71.652,74.6 72.432,77.304 73.444,77.304 C74.46,77.304 76.4,74.672 78.52,70.624 C80.648,66.576 78.432,63 74.276,65.544 C75.936,55.384 91.636,52.936 89.604,64.6 Z"/>
  </g>
</svg>
