<svg xmlns="http://www.w3.org/2000/svg" width="144" height="144" viewBox="0 0 144 144">
  <g fill="none" fill-rule="evenodd">
<path fill="#EFEFEF" fill-rule="nonzero" d="M107.64,55.36 C103.616,78.452 81.14,98 74.38,102.468 C67.62,106.928 61.448,100.68 59.212,95.944 C56.648,90.556 48.976,61.32 46.964,58.9 C44.952,56.476 38.924,61.32 38.924,61.32 L36,57.416 C36,57.416 48.244,42.516 57.564,40.652 C67.444,38.68 67.428,56.108 69.804,65.78 C72.1,75.148 73.648,80.5 75.656,80.5 C77.664,80.5 81.504,75.28 85.704,67.28 C89.916,59.264 85.524,52.192 77.3,57.224 C80.592,37.116 111.664,32.28 107.64,55.36 Z"/>
  </g>
</svg>
