<svg xmlns="http://www.w3.org/2000/svg" width="144" height="144" viewBox="0 0 144 144">
  <g fill="none" fill-rule="evenodd">
<path fill="#EFEFEF" fill-rule="nonzero" d="M72,33.6 C50.792,33.6 33.6,50.792 33.6,72 C33.6,93.208 50.792,110.4 72,110.4 C93.208,110.4 110.4,93.208 110.4,72 C110.4,50.792 93.208,33.6 72,33.6 Z M79.632,59.404 C78.152,59.404 77.104,60.812 77.104,63.516 C77.104,69.028 80.604,72.2 85.148,72.2 C85.952,72.2 86.856,72.104 87.78,71.892 L87.78,76.18 C86.268,76.524 84.748,76.664 83.484,76.672 C80.464,83.036 75.032,88.476 73.224,89.504 C72.064,90.156 70.98,90.192 69.712,89.432 C67.476,88.1 59.04,81.172 56.22,59.4 L62.34,59.4 C63.888,72.472 67.64,79.164 71.792,84.184 C74.076,81.9 76.276,78.856 78,75.412 C73.9,73.324 71.408,68.76 71.408,63.444 C71.408,58.064 74.508,53.996 79.816,53.996 C84.964,53.996 87.78,57.204 87.78,62.72 C87.78,64.776 87.344,67.112 86.524,68.912 C82.696,69.664 81.304,67.22 81.304,67.22 C81.584,66.276 81.976,64.68 81.976,63.228 C81.98,60.668 81.04,59.404 79.632,59.404 Z"/>
  </g>
</svg>
