<svg xmlns="http://www.w3.org/2000/svg" width="144" height="144" viewBox="0 0 144 144">
  <g fill="none" fill-rule="evenodd">
<path fill="#EFEFEF" fill-rule="nonzero" d="M108,100 L108,44 C108,39.6 104.388,36 99.98,36 L44.02,36 C39.42,36 36,39.412 36,44 L36,100 C36,104.592 39.42,108 44.02,108 L99.98,108 C104.388,108 108,104.404 108,100 Z M92.736,78.428 C92.736,78.428 97.264,82.896 98.38,84.968 C98.412,85.012 98.424,85.052 98.436,85.068 C98.888,85.828 99.004,86.428 98.776,86.868 C98.4,87.6 97.12,87.968 96.684,88 C96.684,88 88.912,88 88.688,88 C88.128,88 86.968,87.856 85.56,86.884 C84.48,86.132 83.412,84.888 82.372,83.676 C80.82,81.876 79.476,80.316 78.124,80.316 C77.952,80.316 77.78,80.344 77.62,80.4 C76.592,80.728 75.288,82.188 75.288,86.088 C75.288,87.308 74.328,88.004 73.648,88.004 C73.648,88.004 70.16,88.004 69.984,88.004 C68.736,88.004 62.236,87.568 56.48,81.492 C49.416,74.052 43.072,59.128 43.016,58.996 C42.616,58.032 43.444,57.508 44.344,57.508 L52.424,57.508 C53.508,57.508 53.856,58.164 54.104,58.752 C54.384,59.42 55.44,62.116 57.168,65.148 C59.98,70.08 61.712,72.088 63.092,72.088 C63.348,72.088 63.596,72.02 63.828,71.892 C65.632,70.896 65.296,64.464 65.216,63.136 C65.216,62.884 65.212,60.26 64.292,59 C63.628,58.088 62.504,57.74 61.824,57.608 C62.004,57.348 62.392,56.944 62.888,56.704 C64.124,56.088 66.352,56 68.568,56 L69.8,56 C72.204,56.032 72.828,56.188 73.696,56.408 C75.452,56.828 75.488,57.968 75.332,61.848 C75.288,62.952 75.24,64.204 75.24,65.672 C75.24,65.988 75.228,66.336 75.228,66.696 C75.172,68.68 75.108,70.924 76.508,71.844 C76.692,71.956 76.896,72.02 77.112,72.02 C77.6,72.02 79.06,72.02 83.016,65.232 C84.756,62.236 86.096,58.7 86.188,58.436 C86.268,58.292 86.504,57.868 86.78,57.704 C87.004,57.572 87.292,57.548 87.444,57.548 L96.944,57.548 C97.984,57.548 98.688,57.704 98.82,58.1 C99.048,58.736 98.776,60.676 94.436,66.54 C93.7,67.512 93.064,68.36 92.504,69.1 C88.568,74.252 88.568,74.516 92.736,78.428 Z"/>
  </g>
</svg>
