<svg xmlns="http://www.w3.org/2000/svg" width="144" height="144" viewBox="0 0 144 144">
  <g fill="none" fill-rule="evenodd">
<path fill="#EFEFEF" fill-rule="nonzero" d="M72,33.6 C50.792,33.6 33.6,50.792 33.6,72 C33.6,93.208 50.792,110.4 72,110.4 C93.208,110.4 110.4,93.208 110.4,72 C110.4,50.792 93.208,33.6 72,33.6 Z M86.768,76.924 C86.768,76.924 90.164,80.276 91,81.832 C91.024,81.864 91.036,81.896 91.044,81.912 C91.384,82.484 91.464,82.928 91.296,83.26 C91.016,83.812 90.056,84.084 89.728,84.108 C89.728,84.108 83.896,84.108 83.728,84.108 C83.312,84.108 82.44,84 81.384,83.272 C80.572,82.704 79.772,81.772 78.992,80.864 C77.828,79.512 76.82,78.344 75.804,78.344 C75.676,78.344 75.544,78.364 75.424,78.404 C74.656,78.652 73.672,79.748 73.672,82.668 C73.672,83.58 72.952,84.104 72.444,84.104 C72.444,84.104 69.824,84.104 69.696,84.104 C68.76,84.104 63.884,83.776 59.564,79.22 C54.276,73.64 49.516,62.448 49.476,62.344 C49.176,61.62 49.796,61.232 50.472,61.232 L56.532,61.232 C57.34,61.232 57.604,61.724 57.788,62.16 C58.004,62.668 58.796,64.688 60.096,66.96 C62.204,70.664 63.496,72.168 64.532,72.168 C64.728,72.168 64.908,72.116 65.088,72.024 C66.44,71.272 66.188,66.452 66.128,65.452 C66.128,65.264 66.124,63.296 65.432,62.352 C64.936,61.668 64.092,61.408 63.58,61.312 C63.712,61.116 64.008,60.816 64.376,60.636 C65.304,60.172 66.976,60.104 68.636,60.104 L69.56,60.104 C71.36,60.128 71.824,60.244 72.476,60.408 C73.796,60.724 73.824,61.576 73.708,64.492 C73.672,65.32 73.636,66.256 73.636,67.36 C73.636,67.6 73.624,67.856 73.624,68.128 C73.584,69.612 73.536,71.296 74.584,71.988 C74.72,72.072 74.876,72.12 75.04,72.12 C75.404,72.12 76.5,72.12 79.468,67.028 C80.768,64.78 81.776,62.128 81.848,61.932 C81.908,61.828 82.084,61.508 82.292,61.384 C82.456,61.288 82.676,61.268 82.788,61.268 L89.912,61.268 C90.688,61.268 91.22,61.384 91.32,61.684 C91.496,62.16 91.288,63.612 88.036,68.016 C87.488,68.744 87.004,69.38 86.584,69.932 C83.636,73.796 83.636,73.992 86.768,76.924 Z"/>
  </g>
</svg>
