<svg xmlns="http://www.w3.org/2000/svg" width="144" height="144" viewBox="0 0 144 144">
  <g fill="none" fill-rule="evenodd">
<path fill="#EFEFEF" d="M103.208,81.192 C103.208,81.192 109.676,87.58 111.276,90.536 C111.32,90.6 111.34,90.648 111.348,90.676 C112,91.768 112.16,92.624 111.84,93.256 C111.3,94.3 109.472,94.824 108.852,94.868 C108.852,94.868 97.74,94.868 97.42,94.868 C96.624,94.868 94.968,94.66 92.952,93.268 C91.412,92.192 89.88,90.42 88.396,88.688 C86.18,86.116 84.264,83.884 82.324,83.884 C82.076,83.884 81.836,83.924 81.604,84.004 C80.136,84.468 78.272,86.56 78.272,92.132 C78.272,93.876 76.896,94.868 75.932,94.868 C75.932,94.868 70.94,94.868 70.696,94.868 C68.912,94.868 59.624,94.244 51.388,85.56 C41.296,74.928 32.232,53.6 32.144,53.412 C31.58,52.032 32.764,51.28 34.044,51.28 L45.588,51.28 C47.136,51.28 47.64,52.216 47.992,53.056 C48.4,54.02 49.912,57.876 52.392,62.208 C56.408,69.256 58.876,72.124 60.848,72.124 C61.22,72.124 61.572,72.032 61.904,71.844 C64.48,70.428 64,61.228 63.88,59.332 C63.88,58.964 63.876,55.224 62.556,53.416 C61.612,52.12 60.004,51.616 59.032,51.432 C59.292,51.056 59.844,50.48 60.552,50.14 C62.316,49.26 65.504,49.132 68.668,49.132 L70.424,49.132 C73.856,49.18 74.744,49.4 75.992,49.716 C78.504,50.316 78.552,51.944 78.332,57.488 C78.268,59.072 78.2,60.856 78.2,62.956 C78.2,63.404 78.18,63.904 78.18,64.412 C78.104,67.256 78.004,70.46 80.012,71.776 C80.268,71.936 80.568,72.024 80.88,72.024 C81.576,72.024 83.66,72.024 89.312,62.324 C91.792,58.04 93.712,52.988 93.844,52.608 C93.956,52.396 94.292,51.8 94.7,51.56 C95.012,51.368 95.428,51.336 95.644,51.336 L109.224,51.336 C110.704,51.336 111.708,51.56 111.904,52.12 C112.232,53.028 111.84,55.8 105.64,64.184 C104.596,65.58 103.68,66.788 102.876,67.844 C97.256,75.22 97.256,75.592 103.208,81.192 Z"/>
  </g>
</svg>
