<svg xmlns="http://www.w3.org/2000/svg" width="144" height="144" viewBox="0 0 144 144">
  <g fill="none" fill-rule="evenodd">
<path fill="#EFEFEF" fill-rule="nonzero" d="M94.6,54.204 C84.436,54.204 76.196,62.44 76.196,72.604 C76.196,76.464 77.388,80.04 79.42,83.004 L66.576,83.004 C68.608,80.044 69.796,76.464 69.796,72.604 C69.796,62.44 61.56,54.204 51.396,54.204 C41.236,54.204 32.996,62.44 32.996,72.604 C33,82.764 41.236,91 51.4,91 L94.6,91 C104.76,91 113,82.764 113,72.6 C113,62.436 104.76,54.204 94.6,54.204 Z M41,72.6 C41,66.856 45.656,62.2 51.4,62.2 C57.144,62.2 61.8,66.856 61.8,72.6 C61.8,78.344 57.144,83 51.4,83 C45.656,83 41,78.344 41,72.6 Z M94.6,83 C88.852,83 84.196,78.344 84.196,72.6 C84.196,66.856 88.852,62.2 94.6,62.2 C100.34,62.2 105,66.856 105,72.6 C105,78.344 100.344,83 94.6,83 Z"/>
  </g>
</svg>
