<svg xmlns="http://www.w3.org/2000/svg" width="144" height="144" viewBox="0 0 144 144">
  <g fill="none" fill-rule="evenodd">
<path fill="#EFEFEF" fill-rule="nonzero" d="M96,56 L46,56 L46,54 L90,50.48 L90,54 L96,54 L96,48 C96,43.6 92.436,40.512 88.084,41.132 L47.92,46.868 C43.564,47.492 40,51.6 40,56 L40,96 C40,100.416 43.58,104 48,104 L96,104 C100.416,104 104,100.416 104,96 L104,64 C104,59.584 100.416,56 96,56 Z M90,84.024 C86.688,84.024 84,81.336 84,78.024 C84,74.712 86.688,72.024 90,72.024 C93.312,72.024 96,74.712 96,78.024 C96,81.336 93.312,84.024 90,84.024 Z"/>
  </g>
</svg>
