<svg xmlns="http://www.w3.org/2000/svg" width="144" height="144" viewBox="0 0 144 144">
  <g fill="none" fill-rule="evenodd">
<path fill="#EFEFEF" fill-rule="nonzero" d="M110.044,103.92 L74.416,37.392 C73.92,36.532 73,36 72,36 C70.996,36 70.076,36.532 69.584,37.392 L33.96,103.92 C33.476,104.764 33.484,105.804 33.98,106.64 C34.48,107.484 35.388,108 36.372,108 L107.628,108 C108.608,108 109.524,107.484 110.02,106.64 C110.516,105.804 110.524,104.764 110.044,103.92 Z M76,100 L68,100 L68,92 L76,92 L76,100 Z M76,86 L68,86 L68,60 L76,60 L76,86 Z"/>
  </g>
</svg>
