<svg xmlns="http://www.w3.org/2000/svg" width="144" height="144" viewBox="0 0 144 144">
  <g fill="none" fill-rule="evenodd">
<path fill="#EFEFEF" fill-rule="nonzero" d="M71.528,67.372 C69.484,83.832 59.044,86.76 59.044,98.204 C59.044,105.268 64.976,111 72,111 C79.024,111 84.952,105.264 84.952,98.204 C84.952,86.76 74.512,83.832 72.468,67.372 C72.404,66.88 71.592,66.88 71.528,67.372 Z M47.532,31.372 C45.488,47.832 35.048,50.756 35.048,62.204 C35.048,69.264 40.976,75 48,75 C55.024,75 60.952,69.264 60.952,62.204 C60.952,50.76 50.512,47.832 48.468,31.372 C48.408,30.88 47.592,30.88 47.532,31.372 Z M95.532,31.372 C93.488,47.832 83.048,50.76 83.048,62.204 C83.048,69.264 88.976,75 96,75 C103.024,75 108.952,69.264 108.952,62.204 C108.952,50.76 98.512,47.832 96.468,31.372 C96.404,30.88 95.592,30.88 95.532,31.372 Z"/>
  </g>
</svg>
