<svg xmlns="http://www.w3.org/2000/svg" width="144" height="144" viewBox="0 0 144 144">
  <g fill="none" fill-rule="evenodd">
<path fill="#EFEFEF" fill-rule="nonzero" d="M102.812,36 L91.5,36 C90.608,36 89.288,36.42 88.74,37.524 C88.192,38.628 87.5,40 87.5,40 L67.5,80 L79.5,104 C79.5,104 80.188,105.376 80.74,106.476 C81.292,107.576 82.608,108 83.5,108 L94.812,108 C96.812,108 96.732,106.476 96.232,105.476 C95.732,104.476 95.5,104 95.5,104 L83.5,80 L103.5,40 C103.5,40 103.736,39.524 104.236,38.524 C104.736,37.524 104.812,36 102.812,36 Z M59.26,53.524 C58.712,52.42 57.392,52 56.5,52 L45.188,52 C43.188,52 43.268,53.524 43.768,54.524 C44.268,55.524 44.5,56 44.5,56 L49.5,66 L40.5,84 C40.5,84 40.264,84.476 39.764,85.476 C39.264,86.476 39.188,88 41.188,88 L52.5,88 C53.392,88 54.712,87.576 55.264,86.476 C55.812,85.376 56.5,84 56.5,84 L65.5,66 L60.5,56 C60.5,56 59.812,54.624 59.26,53.524 Z"/>
  </g>
</svg>
