<svg xmlns="http://www.w3.org/2000/svg" width="144" height="144" viewBox="0 0 144 144">
  <g fill="none" fill-rule="evenodd">
<path fill="#EFEFEF" fill-rule="nonzero" d="M72,33.6 C50.792,33.6 33.6,50.792 33.6,72 C33.6,93.208 50.792,110.4 72,110.4 C93.208,110.4 110.4,93.208 110.4,72 C110.4,50.792 93.208,33.6 72,33.6 Z M64.252,78 C64.252,78 63.908,78.688 63.64,79.236 C63.356,79.788 62.696,80 62.252,80 L56.596,80 C55.596,80 55.64,79.236 55.884,78.736 C56.136,78.236 56.252,78 56.252,78 L60.752,69 L58.252,64 C58.252,64 58.136,63.76 57.884,63.26 C57.64,62.76 57.596,62 58.596,62 L64.252,62 C64.696,62 65.356,62.212 65.64,62.76 C65.908,63.312 66.252,64 66.252,64 L68.752,69 L64.252,78 Z M88.12,55.26 C87.868,55.76 87.752,56 87.752,56 L77.752,76 L83.752,88 C83.752,88 83.868,88.236 84.12,88.736 C84.368,89.236 84.408,90 83.408,90 L77.752,90 C77.304,90 76.652,89.788 76.372,89.236 C76.096,88.684 75.752,88 75.752,88 L69.752,76 L79.752,56 C79.752,56 80.096,55.312 80.372,54.76 C80.648,54.208 81.3,54 81.752,54 L87.408,54 C88.408,54 88.364,54.76 88.12,55.26 Z"/>
  </g>
</svg>
