<svg xmlns="http://www.w3.org/2000/svg" width="144" height="144" viewBox="0 0 144 144">
  <g fill="none" fill-rule="evenodd">
<path fill="#EFEFEF" fill-rule="nonzero" d="M82.152,81.884 L100.244,87.748 C100.244,87.748 102.832,88.224 102.804,89.956 C102.788,91.176 102.016,92.564 102.016,92.564 L94.376,103.588 C94.376,103.588 93.012,104.732 91.632,104.732 C90.256,104.732 88.668,102.584 88.668,102.584 L79,86.292 C79,86.292 77.912,83.916 79.2,82.608 C80.38,81.408 82.152,81.884 82.152,81.884 Z M78.28,74.4 C79.204,75.984 81.76,75.524 81.76,75.524 L99.812,70.2 C99.812,70.2 102.272,69.188 102.624,67.844 C102.968,66.496 102.216,64.872 102.216,64.872 L93.588,54.616 C93.588,54.616 92.84,53.32 91.288,53.188 C89.576,53.04 88.524,55.132 88.524,55.132 L78.324,71.332 C78.328,71.328 77.428,72.94 78.28,74.4 Z M69.752,68.084 C71.876,67.556 72.216,64.44 72.216,64.44 L72.072,38.5 C72.072,38.5 71.752,35.3 70.328,34.432 C68.092,33.064 67.432,33.776 66.792,33.872 L51.804,39.492 C51.804,39.492 50.336,39.984 49.572,41.22 C48.48,42.968 50.68,45.536 50.68,45.536 L66.256,66.968 C66.256,66.968 67.796,68.572 69.752,68.084 Z M66.052,78.58 C66.104,76.58 63.672,75.376 63.672,75.376 L47.56,67.164 C47.56,67.164 45.172,66.172 44.012,66.864 C43.128,67.392 42.34,68.352 42.264,69.196 L41.216,82.232 C41.216,82.232 41.06,84.492 41.64,85.52 C42.46,86.976 45.164,85.964 45.164,85.964 L63.972,81.768 C64.7,81.272 65.98,81.224 66.052,78.58 Z M70.728,85.616 C69.112,84.78 67.18,86.512 67.18,86.512 L54.588,100.504 C54.588,100.504 53.016,102.644 53.416,103.956 C53.792,105.188 54.416,105.8 55.296,106.232 L67.944,110.26 C67.944,110.26 69.476,110.58 70.64,110.24 C72.288,109.756 71.984,107.152 71.984,107.152 L72.268,88.208 C72.268,88.212 72.204,86.388 70.728,85.616 Z"/>
  </g>
</svg>
