<svg xmlns="http://www.w3.org/2000/svg" width="144" height="144" viewBox="0 0 144 144">
  <g fill="none" fill-rule="evenodd">
<path fill="#EFEFEF" fill-rule="nonzero" d="M72,33.5998536 C50.7922364,33.5998536 33.6000976,50.7922364 33.6000976,72 C33.6000976,93.2077636 50.7922364,110.399902 72,110.399902 C93.2077636,110.399902 110.399902,93.2077636 110.399902,72 C110.399902,50.7922364 93.2077636,33.5998536 72,33.5998536 Z M70.3844184,69.9179 C67.9978524,75.3227804 66.037918,79.8385316 63.7305812,85.0650216 C62.6018792,87.619198 61.7218896,90.4422416 59.6470908,91.7992632 C51.0734044,92.3384172 57.4724348,82.784878 58.7394408,79.4043964 C56.7905236,75.686356 54.2377568,71.3590776 51.934406,67.317078 C50.8849352,65.4734116 48.2667676,61.9588452 50.876028,59.9712504 C51.8406408,59.2373008 53.9820116,59.2159688 54.9590492,59.9712504 C57.9879112,62.3160932 59.7031172,68.71442 62.2179088,71.600994 C63.1475944,70.0032272 63.9858588,67.809818 64.9399224,65.6328164 C65.8063164,63.6541272 66.5236244,60.873276 67.8136024,59.9712508 C69.7868996,58.5928976 72.8535004,59.790518 73.2576292,61.8071808 C73.7658388,64.35104 71.3762244,67.6710432 70.3844184,69.9179 Z M90.3454668,83.0757864 C88.759186,82.7321356 87.317074,80.487152 85.8100244,79.0968436 C84.2399216,77.6521528 82.5047912,76.3401372 81.2727092,75.1202468 C80.4323352,73.8401144 80.6672176,75.9885176 80.6672176,77.261852 L80.6672176,80.9351192 C80.503834,82.2471308 79.7954332,83.0103832 78.5504612,83.2293276 L76.735394,83.2293276 C75.4257244,83.075084 74.8811804,82.1472736 74.6186376,80.9351192 L74.6186376,63.950426 C74.6416096,60.704498 80.645184,60.704498 80.6672176,63.950426 L80.6672176,69.9179 C81.6360516,69.4181288 82.2185712,68.5301704 82.9363444,67.7744216 C83.5535588,67.277462 84.1086504,66.7167432 84.5990452,66.0910948 C85.6199156,65.1857872 86.5779652,64.2174224 87.4727216,63.1845968 C88.666592,60.6803528 93.3213504,60.8517092 93.6729704,63.950426 C94.1607864,68.2406692 88.3845944,69.7524032 87.3219952,72.2128144 C88.8988956,74.3595736 92.5550504,75.9102212 93.8244024,78.3335916 C95.0267104,80.6259268 93.5937384,83.78067 90.3454668,83.0757864 Z"/>
  </g>
</svg>
