<svg xmlns="http://www.w3.org/2000/svg" width="144" height="144" viewBox="0 0 144 144">
  <g fill="none" fill-rule="evenodd">
<path fill="#EFEFEF" fill-rule="nonzero" d="M109.672188,77.318554 C107.480782,73.1355592 101.169991,70.4588776 98.4480668,66.7533724 C100.282295,62.5064012 110.252754,59.896662 109.410713,52.4913256 C108.803536,47.1426584 100.768868,46.8464836 98.7080764,51.1692888 C97.1636428,52.9522612 95.5100744,54.6238272 93.7478676,56.1864608 C92.901432,57.2661728 91.94318,58.234234 90.8777504,59.0921252 C89.6387368,60.396378 88.6333656,61.9293672 86.9610024,62.7919544 L86.9610024,52.4913252 C86.9226724,46.8882292 76.5598792,46.8882292 76.5203284,52.4913252 L76.5203284,81.80933 C76.9734532,83.9015692 77.9133948,85.5032272 80.1738928,85.769268 L83.3071936,85.769268 C85.4558752,85.3915748 86.6787756,84.073986 86.961002,81.80933 L86.961002,75.4686392 C86.961002,73.2709272 86.5552404,69.562206 88.005924,71.772022 C90.1326328,73.8776012 93.12775,76.1422576 95.8379552,78.6361424 C98.4392772,81.0361668 100.928779,84.9113728 103.666816,85.5044628 C109.27375,86.7210236 111.747383,81.275524 109.672188,77.318554 Z M64.7735024,45.6227588 C62.54694,47.1797104 61.3086584,51.9797536 59.8132972,55.3955096 C58.1665688,59.1531392 56.7195472,62.9391748 55.1148108,65.6973724 C50.7739908,60.7145368 47.8132972,49.6703872 42.5847816,45.6227588 C40.898258,44.318754 37.2019692,44.3558072 35.53693,45.6227588 C31.033024,49.0533372 35.5523108,55.1203328 37.3638344,58.302658 C41.3399088,65.2796668 45.7461588,72.7489776 49.1104164,79.1669844 C46.9234048,85.0020292 35.8777504,101.492912 50.6770668,100.562149 C54.2586096,98.2199324 55.7774084,93.3470228 57.7256508,88.9380072 C61.7085608,79.9164352 65.0918616,72.1215552 69.2112464,62.791954 C70.9234048,58.9137784 75.0481604,53.1827276 74.1707192,48.791746 C73.4734536,45.3105296 68.1797524,43.2434872 64.7735024,45.6227588 Z"/>
  </g>
</svg>
