<svg width="40" height="40" viewBox="0 0 40 40" fill="none" xmlns="http://www.w3.org/2000/svg">
<g clip-path="url(#clip0_1037_9702)">
<path fill-rule="evenodd" clip-rule="evenodd" d="M25.3681 1.21583C25.9513 0.627459 26.9011 0.623259 27.4894 1.20645C28.9195 2.62388 30.0538 4.30662 30.8277 6.15858C31.6017 8.01054 32 9.99546 32 12C32 14.0046 31.6017 15.9895 30.8277 17.8414C30.0538 19.6934 28.9195 21.3761 27.4894 22.7936C26.9011 23.3768 25.9513 23.3726 25.3681 22.7842C24.785 22.1958 24.7892 21.2461 25.3775 20.6629C26.5277 19.5228 27.4387 18.1708 28.0597 16.6847C28.6807 15.1987 29 13.6069 29 12C29 10.3931 28.6807 8.80135 28.0597 7.31532C27.4387 5.82923 26.5277 4.4772 25.3775 3.33713C24.7892 2.75394 24.785 1.8042 25.3681 1.21583ZM9.6 14.5507C10.391 14.5507 11.1501 14.8632 11.7119 15.42L14.0667 17.754V6.24598L11.7119 8.58C11.1501 9.13689 10.3911 9.44933 9.6 9.44933H8C7.44772 9.44933 7 9.89705 7 10.4493V13.5507C7 14.103 7.44772 14.5507 8 14.5507H9.6ZM9.6 17.5507L13.6587 21.5737C14.9212 22.825 17.0667 21.9308 17.0667 20.1532V3.84677C17.0667 2.06922 14.9212 1.17497 13.6587 2.42632L9.6 6.44933H8C5.79086 6.44933 4 8.24019 4 10.4493V13.5507C4 15.7599 5.79086 17.5507 8 17.5507H9.6ZM18.4385 8.08447C19.0217 7.49609 19.9714 7.49189 20.5598 8.07508C21.0798 8.59052 21.4923 9.20242 21.7737 9.87586C22.0552 10.5493 22.2 11.2711 22.2 12C22.2 12.7289 22.0552 13.4507 21.7737 14.1242C21.4923 14.7976 21.0798 15.4095 20.5598 15.9249C19.9714 16.5081 19.0217 16.5039 18.4385 15.9156C17.8553 15.3272 17.8595 14.3775 18.4479 13.7943C18.6881 13.5562 18.8772 13.275 19.0057 12.9674C19.1342 12.6599 19.2 12.3313 19.2 12C19.2 11.6688 19.1342 11.3401 19.0057 11.0326C18.8772 10.725 18.6881 10.4438 18.4479 10.2058C17.8595 9.62257 17.8553 8.67284 18.4385 8.08447ZM24.0246 4.64078C23.4363 4.05759 22.4865 4.06179 21.9033 4.65016C21.3201 5.23853 21.3243 6.18827 21.9127 6.77146C22.6079 7.46054 23.1579 8.27714 23.5327 9.17397C23.9075 10.0707 24.1 11.031 24.1 12C24.1 12.9691 23.9075 13.9293 23.5327 14.8261C23.1579 15.7229 22.6079 16.5395 21.9127 17.2286C21.3243 17.8118 21.3201 18.7615 21.9033 19.3499C22.4865 19.9383 23.4363 19.9425 24.0246 19.3593C24.9996 18.3928 25.7731 17.2455 26.3007 15.9828C26.8284 14.7201 27.1 13.3668 27.1 12C27.1 10.6333 26.8284 9.27994 26.3007 8.01723C25.7731 6.75453 24.9996 5.60721 24.0246 4.64078ZM2 28C2 26.8954 2.89543 26 4 26H36C37.1046 26 38 26.8954 38 28V36C38 37.1046 37.1046 38 36 38H4C2.89543 38 2 37.1046 2 36V28ZM33.6418 31.7939C33.6418 32.3376 33.5669 32.8372 33.4172 33.293C33.2707 33.7487 33.0559 34.1475 32.7727 34.4893C32.4894 34.8278 32.1265 35.0915 31.6838 35.2803C31.2411 35.4691 30.7381 35.5635 30.175 35.5635C29.6086 35.5635 29.104 35.4723 28.6613 35.29C28.2219 35.1045 27.8622 34.8441 27.5822 34.5088C27.3023 34.1735 27.0907 33.7796 26.9475 33.3271C26.8042 32.8714 26.7326 32.3669 26.7326 31.8135C26.7326 31.2601 26.8059 30.7539 26.9523 30.2949C27.0988 29.8327 27.3137 29.4307 27.5969 29.0889C27.8801 28.7438 28.243 28.4769 28.6857 28.2881C29.1317 28.096 29.6379 28 30.2043 28C30.774 28 31.2785 28.0944 31.718 28.2832C32.1607 28.472 32.5204 28.7373 32.7971 29.0791C33.077 29.4176 33.287 29.8164 33.4269 30.2754C33.5702 30.7311 33.6418 31.2373 33.6418 31.7939ZM32.0646 31.7598C32.0646 31.4993 32.0467 31.252 32.0109 31.0176C31.9751 30.7799 31.91 30.5456 31.8156 30.3145C31.7245 30.0833 31.6089 29.8831 31.4689 29.7139C31.3322 29.5446 31.1516 29.4095 30.9269 29.3086C30.7056 29.2044 30.4549 29.1523 30.175 29.1523C29.8983 29.1523 29.6509 29.2061 29.4328 29.3135C29.2147 29.4176 29.0373 29.5544 28.9006 29.7236C28.7639 29.8929 28.6499 30.0931 28.5588 30.3242C28.4676 30.5553 28.4042 30.7897 28.3684 31.0273C28.3325 31.2617 28.3146 31.5059 28.3146 31.7598C28.3146 32.0267 28.3309 32.279 28.3635 32.5166C28.396 32.751 28.4546 32.987 28.5393 33.2246C28.6271 33.459 28.7378 33.6608 28.8713 33.8301C29.008 33.9993 29.187 34.1377 29.4084 34.2451C29.633 34.3493 29.8885 34.4014 30.175 34.4014C30.4615 34.4014 30.717 34.3493 30.9416 34.2451C31.1662 34.1409 31.3469 34.0042 31.4836 33.835C31.6236 33.6657 31.7375 33.4639 31.8254 33.2295C31.9165 32.9919 31.9784 32.7542 32.0109 32.5166C32.0467 32.279 32.0646 32.0267 32.0646 31.7598ZM13.5457 35.4121H11.8123L11.1922 33.752H8.033L7.41289 35.4121H5.86504L8.79472 28.1807H10.5623L13.5457 35.4121ZM10.782 32.6924L9.6248 29.3037L8.41386 32.6924H10.782ZM20.1842 32.4043C20.1842 33.4525 19.914 34.2435 19.3736 34.7773C18.8365 35.3079 18.0406 35.5732 16.9859 35.5732C15.6318 35.5732 14.7122 35.1533 14.2271 34.3135C14.0644 34.027 13.9586 33.7373 13.9098 33.4443C13.8609 33.1481 13.8365 32.7868 13.8365 32.3604V28.1807H15.4478V32.4434C15.4478 32.681 15.4609 32.8926 15.4869 33.0781C15.513 33.2637 15.5618 33.4427 15.6334 33.6152C15.705 33.7878 15.7978 33.931 15.9117 34.0449C16.0289 34.1589 16.1803 34.25 16.3658 34.3184C16.5546 34.3867 16.7743 34.4209 17.025 34.4209C17.2724 34.4209 17.4905 34.3851 17.6793 34.3135C17.8714 34.2419 18.026 34.1475 18.1432 34.0303C18.2603 33.9098 18.3547 33.7617 18.4264 33.5859C18.5012 33.4102 18.5533 33.2279 18.5826 33.0391C18.6119 32.847 18.6266 32.6354 18.6266 32.4043V28.1807H20.1842V32.4043ZM24.5766 29.333H26.8373V28.1807H20.7435V29.333H23.0043V35.4121H24.5766V29.333Z" fill="#EFEFEF"/>
</g>
<defs>
<clipPath id="clip0_1037_9702">
<rect width="40" height="40" fill="#EFEFEF"/>
</clipPath>
</defs>
</svg>
