<svg width="144" height="144" viewBox="0 0 144 144" fill="none" xmlns="http://www.w3.org/2000/svg">
<path fill-rule="evenodd" clip-rule="evenodd" d="M80.0522 43.8237C80.927 42.9412 82.3516 42.9349 83.2342 43.8097C85.3792 45.9358 87.0808 48.4599 88.2416 51.2379C89.4025 54.0158 90 56.9932 90 60C90 63.0068 89.4025 65.9842 88.2416 68.7622C87.0808 71.5401 85.3792 74.0642 83.2342 76.1904C82.3516 77.0651 80.927 77.0588 80.0522 76.1763C79.1774 75.2937 79.1838 73.8691 80.0663 72.9943C81.7916 71.2842 83.1581 69.2562 84.0896 67.0271C85.0211 64.798 85.5 62.4103 85.5 60C85.5 57.5897 85.0211 55.202 84.0896 52.973C83.1581 50.7438 81.7916 48.7158 80.0663 47.0057C79.1838 46.1309 79.1774 44.7063 80.0522 43.8237ZM56.4 63.8261C57.5866 63.8261 58.7251 64.2947 59.5679 65.13L63.1 68.631V51.369L59.5679 54.87C58.7252 55.7053 57.5866 56.174 56.4 56.174H54C53.1716 56.174 52.5 56.8456 52.5 57.674V62.3261C52.5 63.1545 53.1716 63.8261 54 63.8261H56.4ZM56.4 51.674L62.4881 45.6395C64.3818 43.7625 67.6 45.1038 67.6 47.7702V72.2298C67.6 74.8961 64.3818 76.2375 62.4881 74.3605L56.4 68.3261H54C50.6863 68.3261 48 65.6398 48 62.3261V57.674C48 54.3603 50.6863 51.674 54 51.674H56.4ZM69.6577 54.1267C70.5325 53.2442 71.9571 53.2379 72.8397 54.1127C73.6197 54.8858 74.2385 55.8037 74.6606 56.8138C75.0827 57.824 75.3 58.9067 75.3 60.0001C75.3 61.0935 75.0827 62.1761 74.6606 63.1863C74.2385 64.1965 73.6197 65.1143 72.8397 65.8875C71.9571 66.7623 70.5325 66.756 69.6577 65.8734C68.783 64.9908 68.7893 63.5662 69.6718 62.6914C70.0321 62.3343 70.3158 61.9126 70.5086 61.4512C70.7013 60.9899 70.8 60.497 70.8 60.0001C70.8 59.5032 70.7013 59.0102 70.5086 58.5489C70.3158 58.0876 70.0321 57.6658 69.6718 57.3087C68.7893 56.4339 68.783 55.0093 69.6577 54.1267ZM78.0369 48.9612C77.1543 48.0864 75.7297 48.0927 74.8549 48.9752C73.9802 49.8578 73.9865 51.2824 74.869 52.1572C75.9118 53.1908 76.7369 54.4157 77.299 55.761C77.8612 57.1061 78.15 58.5464 78.15 60C78.15 61.4537 77.8612 62.894 77.299 64.2391C76.7369 65.5844 75.9118 66.8093 74.869 67.8429C73.9865 68.7177 73.9802 70.1423 74.8549 71.0248C75.7297 71.9074 77.1543 71.9137 78.0369 71.0389C79.4994 69.5893 80.6596 67.8683 81.4511 65.9742C82.2426 64.0802 82.65 62.0501 82.65 60C82.65 57.9499 82.2426 55.9199 81.4511 54.0259C80.6596 52.1318 79.4994 50.4108 78.0369 48.9612ZM45 84C45 82.3431 46.3431 81 48 81H96C97.6569 81 99 82.3432 99 84V96C99 97.6569 97.6569 99 96 99H48C46.3431 99 45 97.6569 45 96V84ZM92.4627 89.6909C92.4627 90.5064 92.3504 91.2559 92.1258 91.9395C91.9061 92.6231 91.5838 93.2212 91.159 93.7339C90.7342 94.2417 90.1898 94.6372 89.5257 94.9204C88.8616 95.2036 88.1072 95.3452 87.2625 95.3452C86.4129 95.3452 85.6561 95.2085 84.992 94.9351C84.3328 94.6567 83.7933 94.2661 83.3734 93.7632C82.9534 93.2603 82.6361 92.6694 82.4212 91.9907C82.2064 91.3071 82.0989 90.5503 82.0989 89.7202C82.0989 88.8901 82.2088 88.1309 82.4285 87.4424C82.6483 86.749 82.9705 86.146 83.3953 85.6333C83.8201 85.1157 84.3646 84.7153 85.0286 84.4321C85.6976 84.1441 86.4569 84 87.3065 84C88.161 84 88.9178 84.1416 89.577 84.4248C90.241 84.708 90.7806 85.106 91.1956 85.6187C91.6155 86.1265 91.9305 86.7246 92.1404 87.4131C92.3553 88.0967 92.4627 88.856 92.4627 89.6909ZM90.097 89.6397C90.097 89.249 90.0701 88.8779 90.0164 88.5264C89.9627 88.1699 89.8651 87.8184 89.7235 87.4717C89.5867 87.125 89.4134 86.8247 89.2034 86.5708C88.9984 86.3169 88.7274 86.1143 88.3904 85.9629C88.0584 85.8066 87.6824 85.7285 87.2625 85.7285C86.8475 85.7285 86.4764 85.8091 86.1492 85.9702C85.8221 86.1265 85.556 86.3316 85.3509 86.5855C85.1458 86.8394 84.9749 87.1397 84.8382 87.4863C84.7015 87.833 84.6063 88.1846 84.5526 88.541C84.4988 88.8926 84.472 89.2588 84.472 89.6397C84.472 90.04 84.4964 90.4185 84.5452 90.7749C84.5941 91.1265 84.682 91.4805 84.8089 91.8369C84.9407 92.1885 85.1068 92.4912 85.307 92.7451C85.512 92.999 85.7806 93.2066 86.1126 93.3677C86.4495 93.5239 86.8328 93.6021 87.2625 93.6021C87.6922 93.6021 88.0755 93.5239 88.4124 93.3677C88.7493 93.2114 89.0203 93.0064 89.2254 92.7524C89.4354 92.4985 89.6063 92.1958 89.7381 91.8442C89.8748 91.4878 89.9676 91.1314 90.0164 90.7749C90.0701 90.4185 90.097 90.04 90.097 89.6397ZM62.3186 95.1182H59.7185L58.7883 92.6279H54.0495L53.1194 95.1182H50.7976L55.1921 84.271H57.8435L62.3186 95.1182ZM58.1731 91.0386L56.4372 85.9556L54.6208 91.0386H58.1731ZM72.2763 90.6065C72.2763 92.1787 71.871 93.3652 71.0605 94.166C70.2548 94.9619 69.061 95.3599 67.4789 95.3599C65.4477 95.3599 64.0683 94.73 63.3407 93.4702C63.0966 93.0405 62.9379 92.606 62.8647 92.1665C62.7914 91.7222 62.7548 91.1802 62.7548 90.5405V84.271H65.1718V90.665C65.1718 91.0215 65.1913 91.3389 65.2304 91.6172C65.2695 91.8955 65.3427 92.1641 65.4501 92.4229C65.5575 92.6816 65.6967 92.8965 65.8676 93.0674C66.0434 93.2383 66.2704 93.375 66.5487 93.4775C66.832 93.5801 67.1615 93.6314 67.5375 93.6314C67.9086 93.6314 68.2358 93.5776 68.519 93.4702C68.8071 93.3628 69.039 93.2212 69.2148 93.0454C69.3905 92.8648 69.5322 92.6426 69.6396 92.3789C69.7519 92.1152 69.83 91.8418 69.8739 91.5586C69.9179 91.2705 69.9399 90.9531 69.9399 90.6065V84.271H72.2763V90.6065ZM78.8649 85.9995H82.256V84.271H73.1154V85.9995H76.5065V95.1182H78.8649V85.9995Z" fill="white"/>
</svg>
