<svg width="40" height="40" viewBox="0 0 40 40" fill="none" xmlns="http://www.w3.org/2000/svg">
<g clip-path="url(#clip0_1037_9673)">
<path fill-rule="evenodd" clip-rule="evenodd" d="M25.3681 1.21583C25.9513 0.627459 26.9011 0.623259 27.4894 1.20645C28.9195 2.62388 30.0538 4.30662 30.8277 6.15858C31.6017 8.01054 32 9.99546 32 12C32 14.0046 31.6017 15.9895 30.8277 17.8414C30.0538 19.6934 28.9195 21.3761 27.4894 22.7936C26.9011 23.3768 25.9513 23.3726 25.3681 22.7842C24.785 22.1958 24.7892 21.2461 25.3775 20.6629C26.5277 19.5228 27.4387 18.1708 28.0597 16.6847C28.6807 15.1987 29 13.6069 29 12C29 10.3931 28.6807 8.80135 28.0597 7.31532C27.4387 5.82923 26.5277 4.4772 25.3775 3.33713C24.7892 2.75394 24.785 1.8042 25.3681 1.21583ZM9.6 14.5507C10.391 14.5507 11.1501 14.8632 11.7119 15.42L14.0667 17.754V6.24598L11.7119 8.58C11.1501 9.13689 10.3911 9.44933 9.6 9.44933H8C7.44772 9.44933 7 9.89705 7 10.4493V13.5507C7 14.103 7.44772 14.5507 8 14.5507H9.6ZM9.6 17.5507L13.6587 21.5737C14.9212 22.825 17.0667 21.9308 17.0667 20.1532V3.84677C17.0667 2.06922 14.9212 1.17497 13.6587 2.42632L9.6 6.44933H8C5.79086 6.44933 4 8.24019 4 10.4493V13.5507C4 15.7599 5.79086 17.5507 8 17.5507H9.6ZM18.4385 8.08447C19.0217 7.49609 19.9714 7.49189 20.5598 8.07508C21.0798 8.59052 21.4923 9.20242 21.7737 9.87586C22.0552 10.5493 22.2 11.2711 22.2 12C22.2 12.7289 22.0552 13.4507 21.7737 14.1242C21.4923 14.7976 21.0798 15.4095 20.5598 15.9249C19.9714 16.5081 19.0217 16.5039 18.4385 15.9156C17.8553 15.3272 17.8595 14.3775 18.4479 13.7943C18.6881 13.5562 18.8772 13.275 19.0057 12.9674C19.1342 12.6599 19.2 12.3313 19.2 12C19.2 11.6688 19.1342 11.3401 19.0057 11.0326C18.8772 10.725 18.6881 10.4438 18.4479 10.2058C17.8595 9.62257 17.8553 8.67284 18.4385 8.08447ZM24.0246 4.64078C23.4363 4.05759 22.4865 4.06179 21.9033 4.65016C21.3201 5.23853 21.3243 6.18827 21.9127 6.77146C22.6079 7.46054 23.1579 8.27714 23.5327 9.17397C23.9075 10.0707 24.1 11.031 24.1 12C24.1 12.9691 23.9075 13.9293 23.5327 14.8261C23.1579 15.7229 22.6079 16.5395 21.9127 17.2286C21.3243 17.8118 21.3201 18.7615 21.9033 19.3499C22.4865 19.9383 23.4363 19.9425 24.0246 19.3593C24.9996 18.3928 25.7731 17.2455 26.3007 15.9828C26.8284 14.7201 27.1 13.3668 27.1 12C27.1 10.6333 26.8284 9.27994 26.3007 8.01723C25.7731 6.75453 24.9996 5.60721 24.0246 4.64078ZM11 26C11 25.1716 10.3284 24.5 9.5 24.5C8.67157 24.5 8 25.1716 8 26V27H3.5C2.67157 27 2 27.6716 2 28.5C2 29.3284 2.67157 30 3.5 30H8V31C8 31.8284 8.67157 32.5 9.5 32.5C10.3284 32.5 11 31.8284 11 31V30L36.5 30C37.3284 30 38 29.3284 38 28.5C38 27.6716 37.3284 27 36.5 27L11 27V26ZM31 33C31 32.1716 30.3284 31.5 29.5 31.5C28.6716 31.5 28 32.1716 28 33V34L3.5 34C2.67157 34 2 34.6716 2 35.5C2 36.3284 2.67157 37 3.5 37H28V38C28 38.8284 28.6716 39.5 29.5 39.5C30.3284 39.5 31 38.8284 31 38V37H36.5C37.3284 37 38 36.3284 38 35.5C38 34.6716 37.3284 34 36.5 34H31V33Z" fill="#EFEFEF"/>
</g>
<defs>
<clipPath id="clip0_1037_9673">
<rect width="40" height="40" fill="#EFEFEF"/>
</clipPath>
</defs>
</svg>
