<svg width="144" height="144" viewBox="0 0 144 144" fill="none" xmlns="http://www.w3.org/2000/svg">
<path fill-rule="evenodd" clip-rule="evenodd" d="M80.0522 43.8237C80.927 42.9412 82.3516 42.9349 83.2342 43.8097C85.3792 45.9358 87.0807 48.4599 88.2416 51.2379C89.4025 54.0158 90 56.9932 90 60C90 63.0068 89.4025 65.9842 88.2416 68.7622C87.0807 71.5401 85.3792 74.0642 83.2342 76.1904C82.3516 77.0651 80.927 77.0588 80.0522 76.1763C79.1774 75.2937 79.1837 73.8691 80.0663 72.9943C81.7916 71.2842 83.158 69.2562 84.0896 67.0271C85.0211 64.798 85.5 62.4103 85.5 60C85.5 57.5897 85.0211 55.202 84.0896 52.973C83.158 50.7438 81.7916 48.7158 80.0663 47.0057C79.1837 46.1309 79.1774 44.7063 80.0522 43.8237ZM56.4 63.8261C57.5866 63.8261 58.7251 64.2947 59.5679 65.13L63.1 68.631V51.369L59.5679 54.87C58.7252 55.7053 57.5866 56.174 56.4 56.174H54C53.1716 56.174 52.5 56.8456 52.5 57.674V62.3261C52.5 63.1545 53.1716 63.8261 54 63.8261H56.4ZM56.4 51.674L62.4881 45.6395C64.3818 43.7625 67.6 45.1038 67.6 47.7702V72.2298C67.6 74.8961 64.3818 76.2375 62.4881 74.3605L56.4 68.3261H54C50.6863 68.3261 48 65.6398 48 62.3261V57.674C48 54.3603 50.6863 51.674 54 51.674H56.4ZM69.6577 54.1267C70.5325 53.2442 71.9571 53.2379 72.8397 54.1127C73.6197 54.8858 74.2385 55.8037 74.6606 56.8138C75.0827 57.824 75.3 58.9067 75.3 60.0001C75.3 61.0935 75.0827 62.1761 74.6606 63.1863C74.2385 64.1965 73.6197 65.1143 72.8397 65.8875C71.9571 66.7623 70.5325 66.756 69.6577 65.8734C68.783 64.9908 68.7893 63.5662 69.6718 62.6914C70.0321 62.3343 70.3158 61.9126 70.5086 61.4512C70.7013 60.9899 70.8 60.497 70.8 60.0001C70.8 59.5032 70.7013 59.0102 70.5086 58.5489C70.3158 58.0876 70.0321 57.6658 69.6718 57.3087C68.7893 56.4339 68.783 55.0093 69.6577 54.1267ZM78.0369 48.9612C77.1544 48.0864 75.7298 48.0927 74.855 48.9752C73.9802 49.8578 73.9865 51.2824 74.8691 52.1572C75.9119 53.1908 76.7369 54.4157 77.2991 55.761C77.8612 57.1061 78.15 58.5464 78.15 60C78.15 61.4537 77.8612 62.894 77.2991 64.2391C76.7369 65.5844 75.9119 66.8093 74.8691 67.8429C73.9865 68.7177 73.9802 70.1423 74.855 71.0248C75.7298 71.9074 77.1544 71.9137 78.0369 71.0389C79.4995 69.5893 80.6596 67.8683 81.4511 65.9742C82.2426 64.0802 82.65 62.0501 82.65 60C82.65 57.9499 82.2426 55.9199 81.4511 54.0259C80.6596 52.1318 79.4995 50.4108 78.0369 48.9612ZM58.5 81C58.5 79.7574 57.4926 78.75 56.25 78.75C55.0074 78.75 54 79.7574 54 81V82.5H47.25C46.0074 82.5 45 83.5074 45 84.75C45 85.9926 46.0074 87 47.25 87H54V88.5C54 89.7426 55.0074 90.75 56.25 90.75C57.4926 90.75 58.5 89.7426 58.5 88.5V87L96.75 87C97.9926 87 99 85.9926 99 84.75C99 83.5074 97.9926 82.5 96.75 82.5L58.5 82.5V81ZM88.5 91.5C88.5 90.2574 87.4926 89.25 86.25 89.25C85.0074 89.25 84 90.2574 84 91.5V93L47.25 93C46.0074 93 45 94.0074 45 95.25C45 96.4926 46.0074 97.5 47.25 97.5L84 97.5V99C84 100.243 85.0074 101.25 86.25 101.25C87.4926 101.25 88.5 100.243 88.5 99V97.5H96.75C97.9926 97.5 99 96.4926 99 95.25C99 94.0074 97.9926 93 96.75 93H88.5V91.5Z" fill="white"/>
</svg>
