<svg xmlns="http://www.w3.org/2000/svg" xmlns:xlink="http://www.w3.org/1999/xlink" viewBox="0 0 144 144">

    <g id="deaf" fill="none" fill-rule="evenodd" stroke="none" stroke-width="1">
        <path id="background" fill="#5865f2" fill-rule="nonzero" d="M0 0h144v144H0z" />
		<path id="DiscordBackgroundLogo" fill="#000" opacity="0.15" d="M-0,63.072l-0,80.65c0.214,0.094 0.428,0.186 0.642,0.278l12.824,0c1.345,-2.079 2.582,-4.227 3.701,-6.445c0.104,-0.204 0.005,-0.447 -0.208,-0.528c-3.263,-1.238 -6.371,-2.748 -9.36,-4.462c-0.237,-0.138 -0.256,-0.476 -0.038,-0.638c0.629,-0.472 1.258,-0.962 1.859,-1.457c0.108,-0.091 0.26,-0.11 0.388,-0.053c19.638,8.967 40.9,8.967 60.307,0c0.128,-0.061 0.279,-0.042 0.392,0.048c0.601,0.495 1.23,0.99 1.864,1.462c0.218,0.162 0.203,0.5 -0.033,0.638c-2.989,1.747 -6.097,3.224 -9.365,4.457c-0.213,0.081 -0.308,0.329 -0.204,0.533c1.144,2.216 2.391,4.365 3.729,6.445l12.825,0c6.564,-2.805 13.213,-6.496 20.004,-11.483c0.09,-0.066 0.147,-0.166 0.156,-0.276c2.502,-25.884 -4.191,-48.369 -17.742,-68.302c-0.033,-0.066 -0.09,-0.114 -0.156,-0.142c-7.648,-3.51 -15.85,-6.095 -24.426,-7.576c-0.156,-0.029 -0.312,0.043 -0.392,0.185c-1.055,1.877 -2.223,4.324 -3.042,6.248c-9.223,-1.381 -18.399,-1.381 -27.433,-0c-0.819,-1.967 -2.03,-4.371 -3.089,-6.248c-0.081,-0.138 -0.237,-0.209 -0.393,-0.185c-7.971,1.373 -15.622,3.705 -22.81,6.851Zm20.1,55.532c-5.913,-0 -10.784,-5.429 -10.784,-12.095c-0,-6.666 4.777,-12.095 10.784,-12.095c6.054,0 10.879,5.476 10.784,12.095c0,6.666 -4.777,12.095 -10.784,12.095Zm39.874,-0c-5.913,-0 -10.785,-5.429 -10.785,-12.095c0,-6.666 4.778,-12.095 10.785,-12.095c6.054,0 10.879,5.476 10.784,12.095c0,6.666 -4.73,12.095 -10.784,12.095Z"/>
        <g id="icon">
            
            <path id="deaf" fill="#FFF" fill-rule="nonzero" d="M104.158,53.812l-6.052,6.052c1.223,3.143 1.894,6.562 1.894,10.136l-0,16c-0,0 -4,0 -4,0c-4.415,0 -8,3.585 -8,8l0,8c0,4.415 3.585,8 8,8l4,0c4.415,0 8,-3.585 8,-8l0,-32c0,-5.822 -1.385,-11.322 -3.842,-16.188Zm-48.158,48.158l-8.03,8.03l0.03,0c4.415,0 8,-3.585 8,-8l0,-0.03Zm-20,0.06l15.313,-15.313c-1.009,-0.46 -2.131,-0.717 -3.313,-0.717l-4,0c0,0 0,-16 0,-16c0,-15.454 12.546,-28 28,-28c6.716,0 12.883,2.37 17.711,6.319l5.678,-5.678c-6.293,-5.386 -14.464,-8.641 -23.389,-8.641c-19.869,-0 -36,16.131 -36,36l0,32l0,0.03Z"/>
			<path fill="#f44841" fill-rule="nonzero" d="M111.769,41.76l-5.529,-5.529l-71.136,71.137l5.528,5.528l71.137,-71.136Z"/>

        </g>
    </g>
</svg>