<svg xmlns="http://www.w3.org/2000/svg" xmlns:xlink="http://www.w3.org/1999/xlink" viewBox="0 0 144 144">

    <g id="unmuted" fill="none" fill-rule="evenodd" stroke="none" stroke-width="1">
        <path id="background" fill="#5865f2" fill-rule="nonzero" d="M0 0h144v144H0z" />
		<path id="DiscordBackgroundLogo" fill="#000" opacity="0.15" d="M-0,63.072l-0,80.65c0.214,0.094 0.428,0.186 0.642,0.278l12.824,0c1.345,-2.079 2.582,-4.227 3.701,-6.445c0.104,-0.204 0.005,-0.447 -0.208,-0.528c-3.263,-1.238 -6.371,-2.748 -9.36,-4.462c-0.237,-0.138 -0.256,-0.476 -0.038,-0.638c0.629,-0.472 1.258,-0.962 1.859,-1.457c0.108,-0.091 0.26,-0.11 0.388,-0.053c19.638,8.967 40.9,8.967 60.307,0c0.128,-0.061 0.279,-0.042 0.392,0.048c0.601,0.495 1.23,0.99 1.864,1.462c0.218,0.162 0.203,0.5 -0.033,0.638c-2.989,1.747 -6.097,3.224 -9.365,4.457c-0.213,0.081 -0.308,0.329 -0.204,0.533c1.144,2.216 2.391,4.365 3.729,6.445l12.825,0c6.564,-2.805 13.213,-6.496 20.004,-11.483c0.09,-0.066 0.147,-0.166 0.156,-0.276c2.502,-25.884 -4.191,-48.369 -17.742,-68.302c-0.033,-0.066 -0.09,-0.114 -0.156,-0.142c-7.648,-3.51 -15.85,-6.095 -24.426,-7.576c-0.156,-0.029 -0.312,0.043 -0.392,0.185c-1.055,1.877 -2.223,4.324 -3.042,6.248c-9.223,-1.381 -18.399,-1.381 -27.433,-0c-0.819,-1.967 -2.03,-4.371 -3.089,-6.248c-0.081,-0.138 -0.237,-0.209 -0.393,-0.185c-7.971,1.373 -15.622,3.705 -22.81,6.851Zm20.1,55.532c-5.913,-0 -10.784,-5.429 -10.784,-12.095c-0,-6.666 4.777,-12.095 10.784,-12.095c6.054,0 10.879,5.476 10.784,12.095c0,6.666 -4.777,12.095 -10.784,12.095Zm39.874,-0c-5.913,-0 -10.785,-5.429 -10.785,-12.095c0,-6.666 4.778,-12.095 10.785,-12.095c6.054,0 10.879,5.476 10.784,12.095c0,6.666 -4.73,12.095 -10.784,12.095Z"/>
        <g id="icon">
            
            <path id="unmuted" fill="#FFF" fill-rule="nonzero" d="M69.091,98.637l-0,17.363l7.818,-0l0,-17.569c14.171,-2.251 25.018,-14.539 25.018,-29.34l-7.818,-0c0,12.082 -9.809,21.891 -21.891,21.891c-12.082,-0 -21.891,-9.809 -21.891,-21.891c0,-0 -7.818,-0 -7.818,-0c0,15.341 11.653,27.982 26.582,29.546Zm15.636,-54.564c0,-6.904 -5.605,-12.509 -12.509,-12.509c-6.904,-0 -12.509,5.605 -12.509,12.509l0,26.582c0,6.904 5.605,12.509 12.509,12.509c6.904,-0 12.509,-5.605 12.509,-12.509l0,-26.582Z"/>

        </g>
    </g>
</svg>