<svg xmlns="http://www.w3.org/2000/svg" xmlns:xlink="http://www.w3.org/1999/xlink" viewBox="0 0 144 144">

    <g id="pushToTalk-pressed" fill="none" fill-rule="evenodd" stroke="none" stroke-width="1">
        <path id="background" fill="#eb459e" fill-rule="nonzero" d="M0 0h144v144H0z" />
		<path id="DiscordBackgroundLogo" fill="#000" opacity="0.15" d="M-0,63.072l-0,80.65c0.214,0.094 0.428,0.186 0.642,0.278l12.824,0c1.345,-2.079 2.582,-4.227 3.701,-6.445c0.104,-0.204 0.005,-0.447 -0.208,-0.528c-3.263,-1.238 -6.371,-2.748 -9.36,-4.462c-0.237,-0.138 -0.256,-0.476 -0.038,-0.638c0.629,-0.472 1.258,-0.962 1.859,-1.457c0.108,-0.091 0.26,-0.11 0.388,-0.053c19.638,8.967 40.9,8.967 60.307,0c0.128,-0.061 0.279,-0.042 0.392,0.048c0.601,0.495 1.23,0.99 1.864,1.462c0.218,0.162 0.203,0.5 -0.033,0.638c-2.989,1.747 -6.097,3.224 -9.365,4.457c-0.213,0.081 -0.308,0.329 -0.204,0.533c1.144,2.216 2.391,4.365 3.729,6.445l12.825,0c6.564,-2.805 13.213,-6.496 20.004,-11.483c0.09,-0.066 0.147,-0.166 0.156,-0.276c2.502,-25.884 -4.191,-48.369 -17.742,-68.302c-0.033,-0.066 -0.09,-0.114 -0.156,-0.142c-7.648,-3.51 -15.85,-6.095 -24.426,-7.576c-0.156,-0.029 -0.312,0.043 -0.392,0.185c-1.055,1.877 -2.223,4.324 -3.042,6.248c-9.223,-1.381 -18.399,-1.381 -27.433,-0c-0.819,-1.967 -2.03,-4.371 -3.089,-6.248c-0.081,-0.138 -0.237,-0.209 -0.393,-0.185c-7.971,1.373 -15.622,3.705 -22.81,6.851Zm20.1,55.532c-5.913,-0 -10.784,-5.429 -10.784,-12.095c-0,-6.666 4.777,-12.095 10.784,-12.095c6.054,0 10.879,5.476 10.784,12.095c0,6.666 -4.777,12.095 -10.784,12.095Zm39.874,-0c-5.913,-0 -10.785,-5.429 -10.785,-12.095c0,-6.666 4.778,-12.095 10.785,-12.095c6.054,0 10.879,5.476 10.784,12.095c0,6.666 -4.73,12.095 -10.784,12.095Z"/>

<g id="icon">
<path fill="#FFF" opacity="0.15" d="M79.212,76.941c-12.228,-3.406 -21.212,-14.632 -21.212,-27.941c0,-16.006 12.994,-29 29,-29c16.006,0 29,12.994 29,29c0,6.177 -1.935,11.905 -5.233,16.612c-1.046,-0.513 -2.223,-0.801 -3.466,-0.801c-1.13,-0 -2.199,0.235 -3.162,0.661c-1.376,-2.264 -3.866,-3.777 -6.707,-3.777c-0.768,-0 -1.51,0.11 -2.212,0.317l0,-11.008c0,-4.418 -3.586,-8.004 -8.004,-8.004c-4.417,0 -8.004,3.586 -8.004,8.004l0,25.937Z"/>
<path fill="#FFF" opacity="0.15" d="M79.212,64.113c-5.47,-2.828 -9.212,-8.537 -9.212,-15.113c0,-9.383 7.617,-17 17,-17c9.383,-0 17,7.617 17,17c0,5.068 -2.223,9.622 -5.746,12.737c-0.271,-0.028 -0.545,-0.042 -0.822,-0.042c-0.768,-0 -1.51,0.11 -2.212,0.317l0,-11.008c0,-4.418 -3.586,-8.004 -8.004,-8.004c-4.417,0 -8.004,3.586 -8.004,8.004l0,13.109Z"/>
<path id="pushTo" fill="#FFF" fill-rule="nonzero" d="M82.034,91.232c-3.111,-3.111 -5.975,-5.97 -7.634,-7.617c-1.738,-1.725 -7.916,-3.333 -11.817,0.568c-1.564,1.564 -0.785,3.811 2.337,6.932l22.638,22.639c1.179,1.179 2.728,1.764 4.275,1.757c2.901,1.587 6.23,2.489 9.767,2.489c11.26,-0 20.401,-9.141 20.401,-20.4l-0,-0.042c-0,-0.44 -0.014,-0.877 -0.042,-1.312c0.024,-0.196 0.036,-0.395 0.036,-0.596l0,-18.309c0,-2.692 -2.185,-4.877 -4.876,-4.877c-2.692,0 -4.877,2.185 -4.877,4.877l-0,2.813c-0.076,-0.047 -0.152,-0.093 -0.228,-0.138l0,-7.314c0,-2.7 -2.192,-4.891 -4.891,-4.891c-2.7,-0 -4.823,2.191 -4.823,4.891l-0,4.466l-0.108,-0.002l-0.094,-0.002l0,-7.625c0,-2.673 -2.171,-4.844 -4.844,-4.844c-2.674,-0 -4.845,2.171 -4.845,4.844l0,9.805c-0.123,0.062 -0.245,0.126 -0.367,0.19l0,-28.53c0,-2.762 -2.242,-5.004 -5.004,-5.004c-2.761,0 -5.004,2.242 -5.004,5.004l0,40.228Z"/>
<path id="unmuted" fill="#FFF" fill-rule="nonzero" d="M39.054,79.984l-0,12.016l5.411,-0l-0,-12.159c9.807,-1.558 17.314,-10.062 17.314,-20.306l-5.411,0c0,8.362 -6.788,15.151 -15.15,15.151c-8.361,-0 -15.15,-6.789 -15.15,-15.151c0,0 -5.411,0 -5.411,0c0,10.617 8.065,19.366 18.397,20.449Zm10.821,-37.763c0,-4.778 -3.879,-8.657 -8.657,-8.657c-4.778,-0 -8.657,3.879 -8.657,8.657l-0,18.397c-0,4.778 3.879,8.657 8.657,8.657c4.778,-0 8.657,-3.879 8.657,-8.657l0,-18.397Z"/>

        </g>
    </g>
</svg>