<svg xmlns="http://www.w3.org/2000/svg" xmlns:xlink="http://www.w3.org/1999/xlink" viewBox="0 0 144 144">

    <g id="joinChannel" fill="none" fill-rule="evenodd" stroke="none" stroke-width="1">
        <path id="background" fill="#5865f2" fill-rule="nonzero" d="M0 0h144v144H0z" />
		<path id="DiscordBackgroundLogo" fill="#000" opacity="0.15" d="M-0,63.072l-0,80.65c0.214,0.094 0.428,0.186 0.642,0.278l12.824,0c1.345,-2.079 2.582,-4.227 3.701,-6.445c0.104,-0.204 0.005,-0.447 -0.208,-0.528c-3.263,-1.238 -6.371,-2.748 -9.36,-4.462c-0.237,-0.138 -0.256,-0.476 -0.038,-0.638c0.629,-0.472 1.258,-0.962 1.859,-1.457c0.108,-0.091 0.26,-0.11 0.388,-0.053c19.638,8.967 40.9,8.967 60.307,0c0.128,-0.061 0.279,-0.042 0.392,0.048c0.601,0.495 1.23,0.99 1.864,1.462c0.218,0.162 0.203,0.5 -0.033,0.638c-2.989,1.747 -6.097,3.224 -9.365,4.457c-0.213,0.081 -0.308,0.329 -0.204,0.533c1.144,2.216 2.391,4.365 3.729,6.445l12.825,0c6.564,-2.805 13.213,-6.496 20.004,-11.483c0.09,-0.066 0.147,-0.166 0.156,-0.276c2.502,-25.884 -4.191,-48.369 -17.742,-68.302c-0.033,-0.066 -0.09,-0.114 -0.156,-0.142c-7.648,-3.51 -15.85,-6.095 -24.426,-7.576c-0.156,-0.029 -0.312,0.043 -0.392,0.185c-1.055,1.877 -2.223,4.324 -3.042,6.248c-9.223,-1.381 -18.399,-1.381 -27.433,-0c-0.819,-1.967 -2.03,-4.371 -3.089,-6.248c-0.081,-0.138 -0.237,-0.209 -0.393,-0.185c-7.971,1.373 -15.622,3.705 -22.81,6.851Zm20.1,55.532c-5.913,-0 -10.784,-5.429 -10.784,-12.095c-0,-6.666 4.777,-12.095 10.784,-12.095c6.054,0 10.879,5.476 10.784,12.095c0,6.666 -4.777,12.095 -10.784,12.095Zm39.874,-0c-5.913,-0 -10.785,-5.429 -10.785,-12.095c0,-6.666 4.778,-12.095 10.785,-12.095c6.054,0 10.879,5.476 10.784,12.095c0,6.666 -4.73,12.095 -10.784,12.095Z"/>
        <g id="icon">
            
            <path id="joinChannel" fill="#FFF" fill-rule="nonzero" d="M50.633,58.043l-10.633,-0c-1.104,-0 -2,0.896 -2,2l0,24c0,1.103 0.896,2 2,2l10.687,-0l20.288,18.191c0.882,0.79 2.145,0.988 3.226,0.505c1.081,-0.482 1.777,-1.555 1.777,-2.739l0,-59.963c0,-1.184 -0.696,-2.257 -1.777,-2.74c-1.081,-0.482 -2.344,-0.284 -3.226,0.506l-20.342,18.24Zm34.41,-11.004c0.323,-0.012 0.65,-0.018 0.978,-0.018c14.338,0 25.979,11.641 25.979,25.979c0,14.338 -11.641,25.979 -25.979,25.979c-0.328,-0 -0.655,-0.006 -0.978,-0.018l-0,-6.98c0.324,0.017 0.65,0.025 0.978,0.025c10.49,0 19.007,-8.516 19.007,-19.006c-0,-10.49 -8.517,-19.006 -19.007,-19.006c-0.328,-0 -0.654,0.008 -0.978,0.025l-0,-6.98Zm-0,15.773c0.322,-0.03 0.648,-0.046 0.978,-0.046c5.649,-0 10.234,4.586 10.234,10.234c0,5.648 -4.585,10.234 -10.234,10.234c-0.33,0 -0.656,-0.016 -0.978,-0.046l-0,-6.791c0.311,0.089 0.639,0.137 0.978,0.137c1.951,0 3.535,-1.583 3.535,-3.534c-0,-1.951 -1.584,-3.534 -3.535,-3.534c-0.339,-0 -0.667,0.048 -0.978,0.137l-0,-6.791Z"/>

        </g>
    </g>
</svg>