<svg xmlns="http://www.w3.org/2000/svg" xmlns:xlink="http://www.w3.org/1999/xlink" width="20" height="20" viewBox="0 0 20 20">
  <defs>
    <path id="media_volume_white-a" d="M18,2 C19.1045695,2 20,2.8954305 20,4 L20,16 C20,17.1045695 19.1045695,18 18,18 L2,18 C0.8954305,18 0,17.1045695 0,16 L0,4 C0,2.8954305 0.8954305,2 2,2 L18,2 Z M14.3718975,5 L13.2075848,5.67485505 C14.1819111,7.01930911 14.6666667,8.15784982 14.6666667,9.95440804 C14.6666667,11.7608805 14.0077405,12.807862 13.0236178,14.1562258 C13.4537127,14.4153972 13.8359579,14.6488966 14.1703533,14.8567243 C15.2733598,13.3020906 16,12.0160158 16,9.95440804 C16,7.91391254 15.4543982,6.54584959 14.3718975,5 L14.3718975,5 Z M10,6.00440804 L6,7.75440804 L6,12.004408 L10,14.004408 L10,6.00440804 Z M12.1596628,6.28224816 L11,6.95440804 C11.6896437,8.01917853 12,8.58520163 12,9.95440804 C12,11.2084707 11.586482,11.9476644 11,12.954408 C11.409724,13.1950072 11.7938733,13.4218853 12.1524478,13.6350422 C12.8539288,12.4283726 13.3333333,11.4566293 13.3333333,9.95440804 C13.3333333,8.34103193 12.9599706,7.54576594 12.1596628,6.28224816 L12.1596628,6.28224816 Z M5,8.00440804 L3,8.75440804 L3,10.754408 L5,11.504408 L5,8.00440804 Z"/>
  </defs>
  <g id="icon/streamlabs/media_volume_white" fill="none" fill-rule="evenodd" stroke="none" stroke-width="1">
    <mask id="media_volume_white-b" fill="#fff">
      <use xlink:href="#media_volume_white-a"/>
    </mask>
    <use id="Combined-Shape" fill="#EFEFEF" xlink:href="#media_volume_white-a"/>
    <g id="Group" fill="#EFEFEF" mask="url(#media_volume_white-b)">
      <g id="colors/all/active">
        <rect id="color" width="20" height="20" x="0" y="0"/>
      </g>
    </g>
  </g>
</svg>
