<svg xmlns="http://www.w3.org/2000/svg" xmlns:xlink="http://www.w3.org/1999/xlink" width="20" height="20" viewBox="0 0 20 20">
  <defs>
    <path id="media_autoshow_white-a" d="M15,2 C16.0775969,2.01177682 17.0537635,2.92676107 17.049983,4.00441555 L17.049983,4.00441555 L17.044,5 L18.5232688,5 C18.6205717,5.00312763 18.7140416,5.0548903 18.7917753,5.11934562 L18.8469391,5.16950538 C18.9272943,5.26355419 18.9802444,5.37788589 19,5.5 L19,5.5 L19.0481147,10.649362 C19.0457919,11.2830996 18.8085133,11.8899577 18.3587477,12.3364323 C18.0840447,12.6091253 17.5353457,12.7971196 17.005431,12.9016217 L17,14 C17,15 16.5,16 15,16 L15,16 L9,16 L6.4302509,18.5985663 C6.4767503,18.5328554 6.33333333,18.6666667 6,19 L6,19 L6,16 L5,16 C3.5,16 3,15.0768563 3,14 L3,14 L2.99923946,12.948605 C1.91478177,12.7126512 1.05229397,11.7627077 1.0481147,10.6241434 L1.0481147,10.6241434 L1,5.47478136 C1.0017957,5.34907043 1.09096084,5.22891467 1.17925448,5.13941219 C1.25935195,5.04650987 1.37743051,4.99518697 1.5,5 L1.5,5 L2.999,5 L3,4 C3,2.97209152 3.84112888,2.08423972 4.85418099,2.0056497 L5,2 Z M9.82230824,10.8298495 L9.07650179,12.7124014 C9.00578089,12.8893827 8.83422922,13.005296 8.64364158,13.0049069 L8.64364158,13.0049069 L3.999,13.004 L3.99993867,13.9999998 C3.99993867,13.9999998 3.99993867,14.8919751 4.84241146,14.9910835 L5,14.9999998 L6.5,14.9999998 C6.73839843,15.0015947 6.99840531,15.2616016 7,15.4999998 L7,15.4999998 L7,16.9999998 L8.69290323,15.1257634 C8.77467659,15.0449818 8.88505433,14.9997795 9,14.9999998 L9,14.9999998 L15,14.9999998 C16,14.9999998 16,13.9999998 16,13.9999998 L15.999,13 L11,13 C10.8360304,13.0010489 10.6858495,12.9159365 10.6015868,12.7797272 L10.56519,12.7075269 L9.82230824,10.8298495 Z M5.92037276,7 C5.13085311,7.00375438 4.49265647,7.64456479 4.49212903,8.43409319 L4.49212903,8.43409319 L4.49212903,9.63615771 L4.49307619,9.77387876 C4.53282115,10.5004594 5.11950006,11.0912817 5.86139068,11.1214337 C6.64964947,11.1534701 7.31463017,10.5404308 7.34666667,9.75217204 L7.34666667,9.75217204 L7.34666667,8.43409319 L7.34081125,8.29695189 C7.27532392,7.57466135 6.67013674,7.00696835 5.93012186,7.00292473 L5.93012186,7.00292473 Z M13.6670108,7 C12.879986,7.00426292 12.2430299,7.64121902 12.238767,8.42824373 L12.238767,8.42824373 L12.238767,9.63420789 L12.2486098,9.76916492 C12.3340423,10.4792352 12.9382775,11.026102 13.6674982,11.026102 C14.4422952,11.026102 15.0759953,10.4087406 15.0962294,9.63420789 L15.0962294,9.63420789 L15.0962294,8.43409319 L15.0910669,8.2975756 C15.0293926,7.57840276 14.4298111,7.01048839 13.6933333,7.00292473 L13.6933333,7.00292473 Z M5.96151452,7.5546974 C6.22851426,7.66561258 6.40237293,7.92648413 6.4019805,8.21560501 C6.40090511,8.6096694 6.08143467,8.92870401 5.68736918,8.92923942 C5.39824803,8.92923942 5.13761407,8.75502451 5.02706349,8.4878736 C4.91651292,8.22072269 4.97783075,7.91328013 5.18240978,7.7089802 C5.38698881,7.50468028 5.69451478,7.44378221 5.96151452,7.5546974 Z M13.707927,7.55460385 C13.9750465,7.66546177 14.1490108,7.92639491 14.1486185,8.21560445 C14.1475452,8.60928927 13.8286669,8.92816761 13.4349821,8.92924086 C13.1457725,8.92963315 12.8848394,8.75566886 12.7739815,8.48854934 C12.6631236,8.22142981 12.7242005,7.91382733 12.9287027,7.70932511 C13.133205,7.50482289 13.4408074,7.44374594 13.707927,7.55460385 Z M15,2.99999978 L5,2.99999978 C4.40772904,2.99999978 3.99993867,3.40772882 3.99993867,3.99999978 L3.99993867,3.99999978 L3.999,5 L15.999,5 L15.9998285,3.99108346 C15.997085,3.89780499 15.9504458,3.10219457 15.1575789,3.0089161 L15,2.99999978 Z"/>
  </defs>
  <g id="icon/streamlabs/media_autoshow_white" fill="none" fill-rule="evenodd" stroke="none" stroke-width="1">
    <mask id="media_autoshow_white-b" fill="#fff">
      <use xlink:href="#media_autoshow_white-a"/>
    </mask>
    <use id="Combined-Shape" fill="#EFEFEF" xlink:href="#media_autoshow_white-a"/>
    <g id="Group" fill="#EFEFEF" mask="url(#media_autoshow_white-b)">
      <g id="colors/all/active">
        <rect id="color" width="20" height="20" x="0" y="0"/>
      </g>
    </g>
  </g>
</svg>
