<svg xmlns="http://www.w3.org/2000/svg" xmlns:xlink="http://www.w3.org/1999/xlink" width="20" height="20" viewBox="0 0 20 20">
  <defs>
    <path id="media_autoplay-a" d="M18,2 C19.1045695,2 20,2.8954305 20,4 L20,16 C20,17.1045695 19.1045695,18 18,18 L2,18 C0.8954305,18 -1.42108547e-14,17.1045695 -1.42108547e-14,16 L-1.42108547e-14,4 C-1.42108547e-14,2.8954305 0.8954305,2 2,2 L18,2 Z M17.146,10 L16.9451447,10.0049486 C16.0264559,10.0509435 15.3681243,10.414867 14.9471498,10.983719 L14.9471498,10.983719 L14.93,11.007 L14.93,11.08 L14.879,11.08 L14.8605656,11.1087114 C14.5286939,11.620898 14.37,12.2777143 14.37,13.008 C14.37,14.712 15.234,16.016 17.146,16.016 C19.058,16.016 19.922,14.712 19.922,13.008 C19.922,11.304 19.058,10 17.146,10 L17.146,10 Z M7.24,10.12 L6,10.12 L6,13.736 L6.00524749,13.9165215 C6.0887936,15.3303296 7.16,16.016 8.504,16.016 L8.504,16.016 L8.67052749,16.0124257 C9.9905536,15.9552128 11.008,15.21056 11.008,13.736 L11.008,13.736 L11.008,11.08 L11.97,11.08 L11.97,15.896 L13.21,15.896 L13.21,11.08 L14.879,11.08 L14.93,11.007 L14.93,10.12 L9.768,10.12 L9.768,13.256 L9.76617473,13.5080865 C9.75082042,14.3797202 9.61426087,15.12 8.504,15.12 C7.34086957,15.12 7.24638185,14.3075388 7.24036426,13.3827395 L7.24036426,13.3827395 L7.24,10.12 Z M3.56,10.12 L2.088,10.12 L-2.93098879e-14,15.896 L1.184,15.896 L1.616,14.672 L3.904,14.672 L4.32,15.896 L5.568,15.896 L3.56,10.12 Z M17.146,10.896 C18.37,10.896 18.602,12.016 18.602,13.008 C18.602,14 18.37,15.12 17.146,15.12 C15.922,15.12 15.69,14 15.69,13.008 C15.69,12.016 15.922,10.896 17.146,10.896 Z M2.8,11.248 L3.592,13.712 L1.936,13.712 L2.784,11.248 L2.8,11.248 Z M8.25,4 L8.25,9 L12.25,6.5 L8.25,4 Z"/>
  </defs>
  <g id="icon/streamlabs/media_autoplay" fill="none" fill-rule="evenodd" stroke="none" stroke-width="1">
    <mask id="media_autoplay-b" fill="#fff">
      <use xlink:href="#media_autoplay-a"/>
    </mask>
    <use id="Combined-Shape" fill="#EFEFEF" xlink:href="#media_autoplay-a"/>
    <g id="Group" fill="#EFEFEF" mask="url(#media_autoplay-b)">
      <g id="colors/all/active">
        <rect id="color" width="20" height="20" x="0" y="0"/>
      </g>
    </g>
  </g>
</svg>
