<svg xmlns="http://www.w3.org/2000/svg" xmlns:xlink="http://www.w3.org/1999/xlink" width="20" height="20" viewBox="0 0 20 20">
  <defs>
    <path id="media_request_white-a" d="M18,2 C19.1045695,2 20,2.8954305 20,4 L20,16 C20,17.1045695 19.1045695,18 18,18 L2,18 C0.8954305,18 -1.13686838e-13,17.1045695 -1.13686838e-13,16 L-1.13686838e-13,4 C-1.13686838e-13,2.8954305 0.8954305,2 2,2 L18,2 Z M16.240625,11 C15.5010417,11 14.8825521,11.2200521 14.3851562,11.6601562 C13.7757812,12.1992188 13.4710937,12.9947917 13.4710937,14.046875 C13.4710937,15.0911458 13.7679687,15.8828125 14.3617187,16.421875 C14.8513021,16.8697917 15.4710937,17.09375 16.2210937,17.09375 C16.5804687,17.09375 16.8890625,17.0507812 17.146875,16.9648438 C17.2621094,16.9257812 17.393457,16.8654785 17.540918,16.7839355 L17.540918,16.7839355 L17.69375,16.6953125 L18.3890625,17.3515625 L19.0179687,16.6953125 L18.3539062,16.0742188 L18.466875,15.93625 C18.6097917,15.7433333 18.721875,15.5145833 18.803125,15.25 C18.928125,14.9036458 18.990625,14.4739583 18.990625,13.9609375 C18.990625,12.9921875 18.6989583,12.2382812 18.115625,11.6992188 C17.6104167,11.2330729 16.9854167,11 16.240625,11 Z M4.82421875,11.1757812 L2,11.1757812 L2,16.9335938 L3.17578125,16.9335938 L3.17578125,14.6757812 L4.41796875,14.6757812 L4.56285874,14.6795281 C4.83884726,14.6945153 5.03208705,14.7544643 5.14257812,14.859375 C5.2530692,14.9642857 5.31812022,15.1591199 5.33773119,15.4438776 L5.33773119,15.4438776 L5.34375,15.59375 L5.3515625,16.1289062 L5.35894097,16.296875 C5.36704282,16.4079861 5.38151042,16.5173611 5.40234375,16.625 C5.41276042,16.6770833 5.42780671,16.740162 5.44748264,16.8142361 L5.44748264,16.8142361 L5.48046875,16.9335938 L6.8046875,16.9335938 L6.8046875,16.7890625 L6.7409375,16.7421875 C6.66260417,16.6734375 6.6109375,16.5796875 6.5859375,16.4609375 C6.56927083,16.3859375 6.55927083,16.2567708 6.5559375,16.0734375 L6.5559375,16.0734375 L6.5546875,15.9257812 L6.5546875,15.5390625 L6.55129943,15.3724091 C6.53774713,15.0517777 6.48353795,14.8071987 6.38867187,14.6386719 C6.27799479,14.4420573 6.08984375,14.2903646 5.82421875,14.1835938 C6.14192708,14.0742188 6.36979167,13.8873698 6.5078125,13.6230469 C6.64583333,13.358724 6.71484375,13.0898438 6.71484375,12.8164062 C6.71484375,12.5898438 6.67838542,12.3880208 6.60546875,12.2109375 C6.53255208,12.0338542 6.43359375,11.8723958 6.30859375,11.7265625 C6.15755208,11.5494792 5.97330729,11.4153646 5.75585937,11.3242188 C5.57465278,11.2482639 5.32879413,11.2012442 5.01828342,11.1831597 L5.01828342,11.1831597 L4.82421875,11.1757812 Z M12.3078125,11.1757812 L8.08515625,11.1757812 L8.08515625,16.9335938 L12.4484375,16.9335938 L12.4484375,15.8984375 L9.2609375,15.8984375 L9.2609375,14.4179688 L12.0578125,14.4179688 L12.0578125,13.4179688 L9.2609375,13.4179688 L9.2609375,12.1953125 L12.3078125,12.1953125 L12.3078125,11.1757812 Z M16.2328125,12.0195312 C16.740625,12.0195312 17.1266927,12.1959635 17.3910156,12.5488281 C17.6553385,12.9016927 17.7875,13.4010417 17.7875,14.046875 C17.7875,14.328125 17.7588542,14.5742188 17.7015625,14.7851562 C17.6742187,14.890625 17.6314941,15.0092773 17.5733887,15.1411133 L17.5733887,15.1411133 L17.5101562,15.2773438 L16.928125,14.7226562 L16.3070312,15.3710938 L16.8890625,15.9257812 L16.7861979,15.9678819 C16.7219618,15.9927662 16.6664062,16.0112847 16.6195312,16.0234375 C16.4919271,16.0572917 16.3591146,16.0742188 16.2210937,16.0742188 C15.8539062,16.0742188 15.5388021,15.9635417 15.2757812,15.7421875 C14.8695312,15.4010417 14.6664062,14.8359375 14.6664062,14.046875 C14.6664062,13.3723958 14.8083333,12.8658854 15.0921875,12.5273438 C15.3760417,12.1888021 15.75625,12.0195312 16.2328125,12.0195312 Z M4.57421875,12.1757812 C4.83463542,12.1757812 5.02994792,12.2096354 5.16015625,12.2773438 C5.39192708,12.3971354 5.5078125,12.6315104 5.5078125,12.9804688 C5.5078125,13.3033854 5.38802083,13.5195312 5.1484375,13.6289062 C5.01302083,13.6914062 4.80989583,13.7226562 4.5390625,13.7226562 L4.5390625,13.7226562 L3.17578125,13.7226562 L3.17578125,12.1757812 Z M13,8 L7,8 L7,9 L13,9 L13,8 Z M13,6 L7,6 L7,7 L13,7 L13,6 Z M13,4 L7,4 L7,5 L13,5 L13,4 Z"/>
  </defs>
  <g id="icon/streamlabs/media_request_white" fill="none" fill-rule="evenodd" stroke="none" stroke-width="1">
    <mask id="media_request_white-b" fill="#fff">
      <use xlink:href="#media_request_white-a"/>
    </mask>
    <use id="Combined-Shape" fill="#EFEFEF" xlink:href="#media_request_white-a"/>
    <g id="Group" fill="#EFEFEF" mask="url(#media_request_white-b)">
      <g id="colors/all/active">
        <rect id="color" width="20" height="20" x="0" y="0"/>
      </g>
    </g>
  </g>
</svg>
