<svg xmlns="http://www.w3.org/2000/svg" xmlns:xlink="http://www.w3.org/1999/xlink" width="20" height="20" viewBox="0 0 20 20">
  <defs>
    <path id="media_backuplist_white-a" d="M18,2 C19.1045695,2 20,2.8954305 20,4 L20,16 C20,17.1045695 19.1045695,18 18,18 L2,18 C0.8954305,18 -1.13686838e-13,17.1045695 -1.13686838e-13,16 L-1.13686838e-13,4 C-1.13686838e-13,2.8954305 0.8954305,2 2,2 L18,2 Z M10.2226562,11.109375 L9,11.109375 L9,14.6484375 L9.00445557,14.871582 C9.02524821,15.3774414 9.1188151,15.7796224 9.28515625,16.078125 C9.64192708,16.703125 10.3190104,17.015625 11.3164062,17.015625 C12.3138021,17.015625 12.9895833,16.703125 13.34375,16.078125 C13.5100911,15.7796224 13.603658,15.3774414 13.6244507,14.871582 L13.6244507,14.871582 L13.6289062,14.6484375 L13.6289062,11.109375 L12.40625,11.109375 L12.40625,14.6484375 L12.4033801,14.8115434 C12.3919005,15.1246811 12.3459821,15.359375 12.265625,15.515625 C12.1197917,15.8385417 11.8033854,16 11.3164062,16 C10.8268229,16 10.5091146,15.8385417 10.3632812,15.515625 C10.2829241,15.359375 10.2370057,15.1246811 10.2255261,14.8115434 L10.2255261,14.8115434 L10.2226562,14.6484375 L10.2226562,11.109375 Z M3.796875,11.109375 L1,11.109375 L1,16.8671875 L3.609375,16.8671875 C3.90364583,16.8671875 4.17643229,16.8411458 4.42773438,16.7890625 C4.67903646,16.7369792 4.89713542,16.640625 5.08203125,16.5 C5.24609375,16.3776042 5.3828125,16.2265625 5.4921875,16.046875 C5.6640625,15.7760417 5.75,15.4700521 5.75,15.1289062 C5.75,14.7981771 5.67513021,14.5169271 5.52539062,14.2851562 C5.37565104,14.0533854 5.15364583,13.8841146 4.859375,13.7773438 C5.05208333,13.6783854 5.19791667,13.5690104 5.296875,13.4492188 C5.47395833,13.2356771 5.5625,12.953125 5.5625,12.6015625 C5.5625,12.2604167 5.47395833,11.9674479 5.296875,11.7226562 C5.03203125,11.3640625 4.60054687,11.1626172 4.00242188,11.1183203 L3.796875,11.109375 Z M17.1125,11.109375 L14.6046875,11.109375 L14.6046875,16.8671875 L15.8,16.8671875 L15.8,14.796875 L17.0226562,14.796875 L17.2298804,14.7916667 C17.7679462,14.7638889 18.1897569,14.625 18.4953125,14.375 C18.8390625,14.09375 19.0109375,13.6132812 19.0109375,12.9335938 C19.0109375,12.3111979 18.8390625,11.8515625 18.4953125,11.5546875 C18.1945312,11.2949219 17.8040283,11.1488037 17.3238037,11.116333 L17.3238037,11.116333 L17.1125,11.109375 Z M3.58203125,14.3320312 C3.83203125,14.3346354 4.02604167,14.3671875 4.1640625,14.4296875 C4.41145833,14.5416667 4.53515625,14.7473958 4.53515625,15.046875 C4.53515625,15.4010417 4.40755208,15.640625 4.15234375,15.765625 C4.01171875,15.8333333 3.81510417,15.8671875 3.5625,15.8671875 L2.1484375,15.8671875 L2.1484375,14.3320312 L3.58203125,14.3320312 Z M7,13 C6.44771525,13 6,13.4477153 6,14 C6,14.5522847 6.44771525,15 7,15 C7.55228475,15 8,14.5522847 8,14 C8,13.4477153 7.55228475,13 7,13 Z M16.9210937,12.109375 C17.2049479,12.109375 17.425651,12.1731771 17.5832031,12.3007812 C17.7407552,12.4283854 17.8195312,12.6419271 17.8195312,12.9414062 C17.8195312,13.2408854 17.7407552,13.4596354 17.5832031,13.5976562 C17.425651,13.7356771 17.2049479,13.8046875 16.9210937,13.8046875 L16.9210937,13.8046875 L15.8,13.8046875 L15.8,12.109375 Z M3.4140625,12.109375 C3.69270833,12.109375 3.921875,12.1393229 4.1015625,12.1992188 C4.30989583,12.2851562 4.4140625,12.4622396 4.4140625,12.7304688 C4.4140625,12.9726562 4.33528646,13.141276 4.17773438,13.2363281 C4.02018229,13.3313802 3.81510417,13.3789062 3.5625,13.3789062 L2.1484375,13.3789062 L2.1484375,12.109375 L3.4140625,12.109375 Z M13,8 L7,8 L7,9 L13,9 L13,8 Z M13,6 L7,6 L7,7 L13,7 L13,6 Z M13,4 L7,4 L7,5 L13,5 L13,4 Z"/>
  </defs>
  <g id="icon/streamlabs/media_backuplist_white" fill="none" fill-rule="evenodd" stroke="none" stroke-width="1">
    <mask id="media_backuplist_white-b" fill="#fff">
      <use xlink:href="#media_backuplist_white-a"/>
    </mask>
    <use id="Combined-Shape" fill="#EFEFEF" xlink:href="#media_backuplist_white-a"/>
    <g id="Group" fill="#EFEFEF" mask="url(#media_backuplist_white-b)">
      <g id="colors/all/active">
        <rect id="color" width="20" height="20" x="0" y="0"/>
      </g>
    </g>
  </g>
</svg>
