<svg xmlns="http://www.w3.org/2000/svg" xmlns:xlink="http://www.w3.org/1999/xlink" width="20" height="20" viewBox="0 0 20 20">
  <defs>
    <path id="media_moderation_white-a" d="M18,2 C19.1045695,2 20,2.8954305 20,4 L20,16 C20,17.1045695 19.1045695,18 18,18 L2,18 C0.8954305,18 -1.13686838e-13,17.1045695 -1.13686838e-13,16 L-1.13686838e-13,4 C-1.13686838e-13,2.8954305 0.8954305,2 2,2 L18,2 Z M10.7617188,11 C9.93880208,11 9.30989583,11.2239583 8.875,11.671875 C8.29166667,12.2005208 8,12.9921875 8,14.046875 C8,15.0807292 8.29166667,15.8723958 8.875,16.421875 C9.30989583,16.8697917 9.93880208,17.09375 10.7617188,17.09375 C11.5846354,17.09375 12.2135417,16.8697917 12.6484375,16.421875 C13.2291667,15.8723958 13.5195312,15.0807292 13.5195312,14.046875 C13.5195312,12.9921875 13.2291667,12.2005208 12.6484375,11.671875 C12.2135417,11.2239583 11.5846354,11 10.7617188,11 Z M3.75,11.1757812 L2,11.1757812 L2,16.9335938 L3.12109375,16.9335938 L3.12084961,12.9466553 L3.12011719,12.8374023 C3.11946615,12.7589518 3.11848958,12.6692708 3.1171875,12.5683594 C3.11523438,12.4169922 3.11401367,12.291626 3.11352539,12.1922607 L3.11352539,12.1922607 L3.11328125,12.1015625 L4.1953125,16.9335938 L5.36328125,16.9335938 L6.453125,12.1015625 L6.45288086,12.1922607 C6.45239258,12.291626 6.45117188,12.4169922 6.44921875,12.5683594 C6.44726562,12.7197266 6.44604492,12.8458252 6.44555664,12.9466553 L6.44555664,12.9466553 L6.4453125,16.9335938 L7.56640625,16.9335938 L7.56640625,11.1757812 L5.8359375,11.1757812 L4.796875,15.703125 L3.75,11.1757812 Z M16.4804688,11.1757812 L14,11.1757812 L14,16.9335938 L16.4804688,16.9335938 L16.6771681,16.9272374 C17.4478781,16.8763868 18.0255409,16.5204327 18.4101562,15.859375 C18.7174479,15.328125 18.8710938,14.6796875 18.8710938,13.9140625 C18.8710938,13.6119792 18.8346354,13.2942708 18.7617188,12.9609375 C18.6888021,12.6276042 18.5520833,12.3177083 18.3515625,12.03125 C18.1015625,11.6770833 17.7747396,11.4335938 17.3710938,11.3007812 C17.1815104,11.2382812 16.9535938,11.1991146 16.6873438,11.1832813 L16.6873438,11.1832813 L16.4804688,11.1757812 Z M10.7617188,12.0195312 C11.2382812,12.0195312 11.6165365,12.1959635 11.8964844,12.5488281 C12.1764323,12.9016927 12.3164062,13.4010417 12.3164062,14.046875 C12.3164062,14.6953125 12.1764323,15.1953125 11.8964844,15.546875 C11.6165365,15.8984375 11.2382812,16.0742188 10.7617188,16.0742188 C10.2851562,16.0742188 9.90494792,15.8984375 9.62109375,15.546875 C9.33723958,15.1953125 9.1953125,14.6953125 9.1953125,14.046875 C9.1953125,13.3984375 9.33723958,12.8984375 9.62109375,12.546875 C9.90494792,12.1953125 10.2851562,12.0195312 10.7617188,12.0195312 Z M16.2773438,12.1757812 C16.8242188,12.1757812 17.1894531,12.3326823 17.3730469,12.6464844 C17.5566406,12.9602865 17.6484375,13.4101562 17.6484375,13.9960938 C17.6484375,14.4205729 17.5872396,14.7864583 17.4648438,15.09375 C17.2408854,15.6536458 16.8450521,15.9335938 16.2773438,15.9335938 L16.2773438,15.9335938 L15.1679687,15.9335938 L15.1679687,12.1757812 Z M13,8 L7,8 L7,9 L13,9 L13,8 Z M13,6 L7,6 L7,7 L13,7 L13,6 Z M13,4 L7,4 L7,5 L13,5 L13,4 Z"/>
  </defs>
  <g id="icon/streamlabs/media_moderation_white" fill="none" fill-rule="evenodd" stroke="none" stroke-width="1">
    <mask id="media_moderation_white-b" fill="#fff">
      <use xlink:href="#media_moderation_white-a"/>
    </mask>
    <use id="Combined-Shape" fill="#EFEFEF" xlink:href="#media_moderation_white-a"/>
    <g id="Group" fill="#EFEFEF" mask="url(#media_moderation_white-b)">
      <g id="colors/all/active">
        <rect id="color" width="20" height="20" x="0" y="0"/>
      </g>
    </g>
  </g>
</svg>
