<svg xmlns="http://www.w3.org/2000/svg" xmlns:xlink="http://www.w3.org/1999/xlink" width="20" height="20" viewBox="0 0 20 20">
  <defs>
    <path id="media_autoplay_white-a" d="M18,2 C19.1045695,2 20,2.8954305 20,4 L20,16 C20,17.1045695 19.1045695,18 18,18 L2,18 C1.21796479,18 0.54076344,17.5511529 0.211957299,16.8970201 L1.184,16.896 L1.616,15.672 L3.904,15.672 L4.32,16.896 L5.568,16.896 L3.56,11.12 L2.088,11.12 L0.0989756831,16.6231137 C0.0347400722,16.4270195 0,16.2175667 0,16 L0,4 C0,2.8954305 0.8954305,2 2,2 L18,2 Z M17.146,11 L16.9451447,11.0049486 C16.0264559,11.0509435 15.3681243,11.414867 14.9471498,11.983719 L14.9471498,11.983719 L14.93,12.007 L14.93,12.08 L14.879,12.08 L14.8605656,12.1087114 C14.5286939,12.620898 14.37,13.2777143 14.37,14.008 C14.37,15.712 15.234,17.016 17.146,17.016 C19.058,17.016 19.922,15.712 19.922,14.008 C19.922,12.304 19.058,11 17.146,11 L17.146,11 Z M7.24,11.12 L6,11.12 L6,14.736 L6.00524749,14.9165215 C6.0887936,16.3303296 7.16,17.016 8.504,17.016 L8.504,17.016 L8.67052749,17.0124257 C9.9905536,16.9552128 11.008,16.21056 11.008,14.736 L11.008,14.736 L11.008,12.08 L11.97,12.08 L11.97,16.896 L13.21,16.896 L13.21,12.08 L14.879,12.08 L14.93,12.007 L14.93,11.12 L9.768,11.12 L9.768,14.256 L9.76617473,14.5080865 C9.75082042,15.3797202 9.61426087,16.12 8.504,16.12 C7.34086957,16.12 7.24638185,15.3075388 7.24036426,14.3827395 L7.24036426,14.3827395 L7.24,11.12 Z M17.146,11.896 C18.37,11.896 18.602,13.016 18.602,14.008 C18.602,15 18.37,16.12 17.146,16.12 C15.922,16.12 15.69,15 15.69,14.008 C15.69,13.016 15.922,11.896 17.146,11.896 Z M2.8,12.248 L3.592,14.712 L1.936,14.712 L2.784,12.248 L2.8,12.248 Z M8.25,4 L8.25,9 L12.25,6.5 L8.25,4 Z"/>
  </defs>
  <g id="icon/streamlabs/media_autoplay_white" fill="none" fill-rule="evenodd" stroke="none" stroke-width="1">
    <mask id="media_autoplay_white-b" fill="#fff">
      <use xlink:href="#media_autoplay_white-a"/>
    </mask>
    <use id="Combined-Shape" fill="#EFEFEF" xlink:href="#media_autoplay_white-a"/>
    <g id="Group" fill="#EFEFEF" mask="url(#media_autoplay_white-b)">
      <g id="colors/all/active">
        <rect id="color" width="20" height="20" x="0" y="0"/>
      </g>
    </g>
  </g>
</svg>
