<svg xmlns="http://www.w3.org/2000/svg" xmlns:xlink="http://www.w3.org/1999/xlink" viewBox="0 0 28 28">

<path id="DiscordLogo" fill="#c8c8c8" fill-rule="nonzero" d="M23.01,5.928c-1.657,-0.761 -3.434,-1.321 -5.292,-1.642c-0.034,-0.006 -0.068,0.01 -0.085,0.041c-0.229,0.406 -0.482,0.936 -0.659,1.353c-1.999,-0.299 -3.987,-0.299 -5.944,0c-0.177,-0.426 -0.44,-0.947 -0.669,-1.353c-0.018,-0.03 -0.052,-0.046 -0.085,-0.041c-1.857,0.32 -3.634,0.88 -5.293,1.642c-0.014,0.006 -0.026,0.016 -0.034,0.03c-3.371,5.035 -4.295,9.947 -3.842,14.798c0.002,0.024 0.016,0.047 0.034,0.061c2.224,1.633 4.378,2.625 6.493,3.282c0.033,0.01 0.069,-0.002 0.091,-0.03c0.5,-0.683 0.946,-1.403 1.328,-2.16c0.022,-0.045 0.001,-0.097 -0.045,-0.115c-0.707,-0.268 -1.381,-0.595 -2.028,-0.966c-0.052,-0.03 -0.056,-0.104 -0.008,-0.139c0.136,-0.102 0.272,-0.208 0.402,-0.315c0.024,-0.02 0.057,-0.024 0.084,-0.012c4.255,1.943 8.862,1.943 13.067,0c0.028,-0.013 0.06,-0.009 0.085,0.011c0.13,0.107 0.266,0.214 0.404,0.316c0.047,0.035 0.044,0.109 -0.007,0.139c-0.648,0.378 -1.321,0.698 -2.03,0.965c-0.046,0.018 -0.066,0.071 -0.044,0.116c0.391,0.756 0.837,1.476 1.327,2.159c0.021,0.029 0.058,0.041 0.092,0.031c2.124,-0.657 4.278,-1.649 6.502,-3.282c0.02,-0.014 0.032,-0.036 0.034,-0.06c0.542,-5.608 -0.908,-10.48 -3.844,-14.798c-0.007,-0.015 -0.02,-0.025 -0.034,-0.031Zm-13.322,11.875c-1.281,-0 -2.336,-1.177 -2.336,-2.621c-0,-1.444 1.035,-2.62 2.336,-2.62c1.312,-0 2.357,1.186 2.337,2.62c-0,1.444 -1.035,2.621 -2.337,2.621Zm8.64,-0c-1.281,-0 -2.337,-1.177 -2.337,-2.621c0,-1.444 1.035,-2.62 2.337,-2.62c1.311,-0 2.357,1.186 2.336,2.62c0,1.444 -1.025,2.621 -2.336,2.621Z"/>

</svg>